M48
; DRILL file {KiCad (5.1.9)-1} date 02/04/21 11:44:55
; FORMAT={-:-/ absolute / metric / decimal}
; #@! TF.CreationDate,2021-02-04T11:44:55+02:00
; #@! TF.GenerationSoftware,Kicad,Pcbnew,(5.1.9)-1
; #@! TF.FileFunction,Plated,1,2,PTH
FMAT,2
METRIC
T1C0.400
T2C0.500
T3C0.800
T4C0.813
T5C1.000
%
G90
G05
T1
X115.57Y-127.889
X116.586Y-128.651
X117.856Y-105.664
X118.491Y-122.936
X120.142Y-82.296
X120.269Y-90.932
X121.412Y-66.675
X121.412Y-100.711
X121.539Y-60.579
X122.174Y-98.933
X122.555Y-137.287
X125.095Y-110.744
X125.222Y-77.216
X125.73Y-75.819
X126.365Y-74.168
X127.254Y-78.994
X127.635Y-100.457
X128.905Y-87.884
X129.54Y-124.206
X130.175Y-86.868
X130.429Y-104.902
X130.81Y-67.564
X131.572Y-66.802
X132.715Y-65.786
X132.715Y-74.295
X133.604Y-100.203
X135.382Y-122.809
X135.763Y-82.677
X136.652Y-88.9
X136.652Y-93.98
X136.779Y-82.55
X138.049Y-95.25
X138.176Y-87.884
X138.303Y-91.821
X138.303Y-97.536
X138.43Y-136.144
X138.557Y-75.311
X138.938Y-72.263
X139.065Y-98.425
X139.192Y-105.664
X139.319Y-88.519
X139.446Y-68.199
X139.7Y-83.185
X139.827Y-122.936
X139.954Y-65.913
X140.081Y-72.136
X140.208Y-77.216
X140.208Y-120.65
X140.335Y-86.614
X140.335Y-128.016
X143.637Y-83.693
X143.764Y-71.628
X144.272Y-91.186
X144.272Y-92.329
X144.272Y-93.599
X144.272Y-94.615
X144.526Y-67.691
X144.653Y-82.296
X145.288Y-68.834
X146.05Y-74.676
X150.114Y-65.532
X151.765Y-69.85
X151.765Y-82.931
X151.765Y-95.377
X151.889Y-125.098
X151.892Y-68.072
X151.892Y-76.327
X151.892Y-137.287
X152.654Y-97.79
X154.178Y-96.012
X155.067Y-92.71
X155.575Y-91.567
X156.718Y-72.263
X156.972Y-91.948
X163.322Y-125.73
X167.005Y-127.381
X173.482Y-127.508
X176.911Y-122.682
X177.292Y-65.532
X177.292Y-79.248
X177.673Y-118.364
X183.261Y-80.518
X186.436Y-71.374
T2
X106.68Y-60.706
X107.68Y-60.706
X108.68Y-60.706
X109.68Y-60.706
X110.68Y-60.706
T4
X102.87Y-69.85
X102.87Y-72.39
X102.87Y-74.93
X102.87Y-77.47
X102.87Y-80.01
X102.87Y-82.55
X102.87Y-85.09
X102.87Y-87.63
X102.87Y-90.17
X102.87Y-92.71
X102.87Y-95.25
X102.87Y-97.79
X102.87Y-100.33
X102.87Y-102.87
X102.87Y-105.41
X102.87Y-107.95
X102.87Y-110.49
X102.87Y-113.03
X102.87Y-115.57
X102.87Y-118.11
X102.87Y-120.65
X102.87Y-123.19
X102.87Y-125.73
X102.87Y-128.27
X102.87Y-130.81
X102.87Y-133.35
X102.87Y-133.35
X102.87Y-133.35
X102.87Y-133.35
X105.41Y-69.85
X105.41Y-72.39
X105.41Y-74.93
X105.41Y-77.47
X105.41Y-80.01
X105.41Y-82.55
X105.41Y-85.09
X105.41Y-87.63
X105.41Y-90.17
X105.41Y-92.71
X105.41Y-95.25
X105.41Y-97.79
X105.41Y-100.33
X105.41Y-102.87
X105.41Y-105.41
X105.41Y-107.95
X105.41Y-110.49
X105.41Y-113.03
X105.41Y-115.57
X105.41Y-118.11
X105.41Y-120.65
X105.41Y-123.19
X105.41Y-125.73
X105.41Y-128.27
X105.41Y-130.81
X105.41Y-133.35
X105.41Y-133.35
X105.41Y-133.35
X105.41Y-133.35
X107.95Y-69.85
X107.95Y-72.39
X107.95Y-74.93
X107.95Y-77.47
X107.95Y-80.01
X107.95Y-82.55
X107.95Y-85.09
X107.95Y-87.63
X107.95Y-90.17
X107.95Y-92.71
X107.95Y-95.25
X107.95Y-97.79
X107.95Y-100.33
X107.95Y-102.87
X107.95Y-105.41
X107.95Y-107.95
X107.95Y-110.49
X107.95Y-113.03
X107.95Y-115.57
X107.95Y-118.11
X107.95Y-120.65
X107.95Y-123.19
X107.95Y-125.73
X107.95Y-128.27
X107.95Y-130.81
X107.95Y-133.35
X107.95Y-133.35
X107.95Y-133.35
X107.95Y-133.35
X110.49Y-69.85
X110.49Y-72.39
X110.49Y-74.93
X110.49Y-77.47
X110.49Y-80.01
X110.49Y-82.55
X110.49Y-85.09
X110.49Y-87.63
X110.49Y-90.17
X110.49Y-92.71
X110.49Y-95.25
X110.49Y-97.79
X110.49Y-100.33
X110.49Y-102.87
X110.49Y-105.41
X110.49Y-107.95
X110.49Y-110.49
X110.49Y-113.03
X110.49Y-115.57
X110.49Y-118.11
X110.49Y-120.65
X110.49Y-123.19
X110.49Y-125.73
X110.49Y-128.27
X110.49Y-130.81
X110.49Y-133.35
X110.49Y-133.35
X110.49Y-133.35
X110.49Y-133.35
T5
X119.761Y-103.632
X119.761Y-106.172
X119.761Y-108.712
X135.382Y-140.97
X135.382Y-143.51
X137.922Y-140.97
X137.922Y-143.51
X140.462Y-140.97
X140.462Y-143.51
X143.002Y-140.97
X143.002Y-143.51
X145.542Y-140.97
X145.542Y-143.51
X148.082Y-140.97
X148.082Y-143.51
X150.622Y-140.97
X150.622Y-143.51
X153.162Y-140.97
X153.162Y-143.51
X155.702Y-140.97
X155.702Y-143.51
X158.242Y-140.97
X158.242Y-143.51
X160.782Y-140.97
X160.782Y-143.51
X163.322Y-140.97
X163.322Y-143.51
X165.862Y-140.97
X165.862Y-143.51
X168.402Y-140.97
X168.402Y-143.51
X170.942Y-140.97
X170.942Y-143.51
X173.482Y-140.97
X173.482Y-143.51
X176.022Y-140.97
X176.022Y-143.51
X178.562Y-140.97
X178.562Y-143.51
X181.102Y-140.97
X181.102Y-143.51
X183.642Y-140.97
X183.642Y-143.51
X191.516Y-125.476
X191.516Y-128.016
X191.516Y-130.556
X191.516Y-133.096
T3
G00X179.324Y-103.856
M15
G01X179.324Y-106.456
M16
G05
G00X183.424Y-109.956
M15
G01X181.224Y-109.956
M16
G05
G00X185.124Y-104.056
M15
G01X185.124Y-106.256
M16
G05
T0
M30
