M48
; DRILL file {KiCad 5.1.5+dfsg1-2build2} date Sun 28 Feb 2021 15:53:22
; FORMAT={-:-/ absolute / inch / decimal}
; #@! TF.CreationDate,2021-02-28T15:53:22+02:00
; #@! TF.GenerationSoftware,Kicad,Pcbnew,5.1.5+dfsg1-2build2
; #@! TF.FileFunction,Plated,1,2,PTH
FMAT,2
INCH
T1C0.0118
T2C0.0157
T3C0.0197
T4C0.0236
T5C0.0394
%
G90
G05
T1
X5.4988Y-2.4075
X5.4988Y-2.437
X5.4988Y-2.4665
X5.5283Y-2.4075
X5.5283Y-2.437
X5.5283Y-2.4665
X5.6957Y-2.4075
X5.6957Y-2.437
X5.6957Y-2.4665
X5.7252Y-2.4075
X5.7252Y-2.437
X5.7252Y-2.4665
T2
X3.3155Y-2.3785
X3.3895Y-2.7875
X3.539Y-2.545
X3.58Y-3.698
X3.74Y-4.11
X3.742Y-4.007
X3.748Y-4.204
X3.766Y-2.512
X3.7965Y-2.8595
X3.812Y-3.97
X3.8275Y-2.6455
X3.828Y-3.146
X3.85Y-3.76
X3.8687Y-4.0222
X3.869Y-3.214
X3.8875Y-2.923
X3.892Y-3.738
X3.892Y-3.9239
X3.892Y-3.9633
X3.8985Y-4.0919
X3.921Y-4.113
X3.9275Y-4.15
X3.944Y-3.806
X3.9671Y-3.6651
X3.976Y-3.806
X3.9985Y-3.78
X4.014Y-3.6363
X4.014Y-4.2617
X4.024Y-3.7671
X4.036Y-4.28
X4.0448Y-4.1421
X4.059Y-3.1315
X4.0595Y-3.766
X4.07Y-3.63
X4.0771Y-4.1489
X4.0915Y-3.771
X4.118Y-4.152
X4.128Y-4.46
X4.162Y-4.148
X4.188Y-4.2617
X4.194Y-3.63
X4.236Y-3.7555
X4.238Y-3.6363
X4.2646Y-4.0814
X4.276Y-4.283
X4.294Y-4.024
X4.294Y-4.054
X4.298Y-3.889
X4.4025Y-3.1145
X4.4195Y-2.7975
X4.4405Y-4.2025
X4.471Y-3.7815
X4.498Y-3.616
X4.5125Y-3.7537
X4.53Y-3.614
X4.5715Y-3.8745
X4.576Y-5.5725
X4.5964Y-4.0564
X4.6085Y-3.6925
X4.6281Y-4.0308
X4.632Y-4.08
X4.664Y-4.222
X4.691Y-3.9605
X4.72Y-4.192
X4.724Y-4.306
X4.75Y-4.276
X4.7525Y-4.1235
X4.7545Y-3.99
X4.8455Y-3.974
X4.889Y-3.8605
X4.996Y-2.3815
X4.996Y-2.5395
X4.996Y-2.6965
X4.996Y-2.8545
X4.996Y-3.0105
X4.996Y-3.1685
X4.996Y-3.3255
X4.996Y-3.4835
X4.9985Y-3.6125
X4.9995Y-3.956
X4.9995Y-4.114
X4.9995Y-4.27
X4.9995Y-4.428
X4.9995Y-4.585
X4.9995Y-4.743
X5.0Y-3.77
X5.0Y-4.9005
X5.0Y-5.0585
X5.0005Y-5.2165
X5.0005Y-5.3745
X5.125Y-4.7435
X5.1495Y-2.383
X5.165Y-5.7515
X5.289Y-3.9107
X5.307Y-3.7975
X5.3075Y-2.383
X5.311Y-4.744
X5.366Y-5.484
X5.469Y-4.744
X5.5795Y-3.9895
X5.5954Y-3.8761
X5.6135Y-3.9865
X5.625Y-4.744
X5.626Y-3.88
X5.661Y-3.99
X5.663Y-3.872
X5.6645Y-5.7555
X5.7402Y-3.817
X5.778Y-3.606
X5.783Y-4.744
X5.7914Y-3.8035
X5.8029Y-3.541
X5.819Y-3.617
X5.8389Y-3.5329
X5.8426Y-3.8077
X5.8815Y-2.351
X5.9235Y-3.7915
X5.929Y-3.952
X5.94Y-4.744
X5.9625Y-5.756
X6.035Y-2.3525
X6.098Y-4.744
X6.165Y-5.487
X6.193Y-2.3525
X6.26Y-4.744
X6.3535Y-2.3515
X6.3535Y-2.5095
X6.3535Y-2.6665
X6.3535Y-2.8245
X6.3535Y-2.9805
X6.3535Y-3.1385
X6.3535Y-3.2955
X6.3535Y-3.4535
X6.356Y-3.5825
X6.357Y-3.926
X6.357Y-4.084
X6.357Y-4.24
X6.357Y-4.398
X6.357Y-4.555
X6.357Y-4.713
X6.3575Y-3.74
T3
X3.535Y-2.409
X3.5744Y-2.409
X3.6137Y-2.409
X3.6531Y-2.409
X3.6925Y-2.409
T4
X3.41Y-2.938
X3.524Y-4.216
X3.549Y-4.079
X3.586Y-3.828
X3.586Y-3.958
X3.636Y-3.176
X3.652Y-4.318
X3.686Y-4.826
X3.737Y-2.4088
X3.775Y-3.836
X3.778Y-2.998
X3.779Y-3.9925
X3.81Y-3.4795
X3.854Y-4.322
X3.8694Y-4.0596
X3.93Y-3.4565
X3.9365Y-2.807
X3.94Y-3.872
X3.9599Y-4.1756
X3.971Y-4.2669
X3.972Y-4.85
X3.981Y-2.4675
X4.035Y-4.0125
X4.118Y-2.82
X4.136Y-3.8465
X4.144Y-3.52
X4.1775Y-4.0025
X4.185Y-5.453
X4.2755Y-2.61
X4.292Y-3.386
X4.3155Y-3.021
X4.324Y-4.346
X4.3313Y-3.815
X4.3505Y-5.4445
X4.376Y-3.894
X4.422Y-3.57
X4.431Y-3.8975
X4.467Y-3.2645
X4.5005Y-2.56
X4.569Y-3.2685
X4.637Y-4.8905
X4.6432Y-3.9965
X5.132Y-3.6
X5.266Y-3.508
X5.334Y-3.258
X5.413Y-3.9205
X5.417Y-3.248
X5.425Y-3.7415
X5.4475Y-3.477
X5.452Y-2.436
X5.4785Y-4.3765
X5.494Y-2.616
X5.534Y-3.31
X5.622Y-3.698
X5.714Y-3.416
X5.722Y-2.62
X5.7432Y-3.857
X5.779Y-2.438
X5.804Y-4.1925
X5.818Y-2.954
X5.828Y-3.185
X5.8309Y-3.9499
X5.9205Y-4.1955
X5.975Y-2.489
X6.052Y-3.714
X6.052Y-3.856
X6.0595Y-4.1895
X6.066Y-3.578
X6.098Y-3.338
X6.264Y-3.478
T5
X4.664Y-5.572
X4.664Y-5.672
X4.764Y-5.572
X4.764Y-5.672
X4.864Y-5.572
X4.864Y-5.672
X4.964Y-5.572
X4.964Y-5.672
X5.064Y-5.572
X5.064Y-5.672
X5.164Y-5.572
X5.164Y-5.672
X5.264Y-5.572
X5.264Y-5.672
X5.364Y-5.572
X5.364Y-5.672
X5.464Y-5.572
X5.464Y-5.672
X5.564Y-5.572
X5.564Y-5.672
X5.664Y-5.572
X5.664Y-5.672
X5.764Y-5.572
X5.764Y-5.672
X5.864Y-5.572
X5.864Y-5.672
X5.964Y-5.572
X5.964Y-5.672
X6.064Y-5.572
X6.064Y-5.672
X6.164Y-5.572
X6.164Y-5.672
X6.264Y-5.572
X6.264Y-5.672
X6.364Y-5.572
X6.364Y-5.672
X6.464Y-5.572
X6.464Y-5.672
X6.564Y-5.572
X6.564Y-5.672
T0
M30
