%FSLAX45Y45*%
G04 Gerber Fmt 4.5, Leading zero omitted, Abs format (unit mm)*
G04 Created by KiCad (PCBNEW 5.1.5+dfsg1-2build2) date 2021-02-28 15:53:23*
%MOMM*%
%LPD*%
G04 APERTURE LIST*
%TA.AperFunction,Profile*%
%ADD10C,0.381000*%
%TD*%
%ADD11C,0.200000*%
%ADD12C,0.300000*%
G04 APERTURE END LIST*
D10*
X17678908Y-11075924D02*
X17678908Y-14675612D01*
X9788906Y-5765800D02*
X9788906Y-5665724D01*
X9788906Y-5665724D02*
X10689844Y-5665724D01*
X12978892Y-14575790D02*
X11888978Y-14575790D01*
X8388858Y-6865874D02*
X8089900Y-6865874D01*
X8388858Y-13515848D02*
X8388858Y-6865874D01*
X11888978Y-14775688D02*
X8890762Y-14775688D01*
X8756650Y-6525768D02*
G75*
G03X8756650Y-6525768I-159766J0D01*
G01*
X15878810Y-14675866D02*
X15878810Y-14775688D01*
X16878808Y-5665724D02*
X16878808Y-5765800D01*
X17678908Y-14675866D02*
X15878810Y-14675866D01*
X16878808Y-5765800D02*
X17678908Y-5765800D01*
X17330674Y-6345682D02*
G75*
G03X17330674Y-6345682I-159766J0D01*
G01*
X8089900Y-5765800D02*
X9788906Y-5765800D01*
X8088884Y-14675866D02*
X8088884Y-13515848D01*
X17378934Y-8015732D02*
X17378934Y-11075924D01*
X10689844Y-5864860D02*
X14628876Y-5864860D01*
X17330674Y-14267434D02*
G75*
G03X17330674Y-14267434I-160020J0D01*
G01*
X8890762Y-14775688D02*
X8890762Y-14675866D01*
X11888978Y-14575790D02*
X11888978Y-14775688D01*
X17378934Y-11075924D02*
X17678908Y-11075924D01*
X17678908Y-8015732D02*
X17378934Y-8015732D01*
X14628876Y-5665724D02*
X16878808Y-5665724D01*
X12978892Y-14775688D02*
X12978892Y-14575790D01*
X17678908Y-5765800D02*
X17678908Y-8015732D01*
X10689844Y-5665724D02*
X10689844Y-5864860D01*
X14628876Y-5864860D02*
X14628876Y-5665724D01*
X15178786Y-14775688D02*
X12978892Y-14775688D01*
X8890762Y-14675866D02*
X8088884Y-14675866D01*
X8088884Y-13515848D02*
X8388858Y-13515848D01*
X15878556Y-14775688D02*
X15178786Y-14775688D01*
X8756650Y-13886434D02*
G75*
G03X8756650Y-13886434I-160020J0D01*
G01*
X8089900Y-6865874D02*
X8089900Y-5765800D01*
D11*
X13951980Y-6099980D02*
X13981980Y-6129980D01*
X13981980Y-6099980D02*
X13951980Y-6129980D01*
X13951980Y-6174980D02*
X13981980Y-6204980D01*
X13981980Y-6174980D02*
X13951980Y-6204980D01*
X13951980Y-6249980D02*
X13981980Y-6279980D01*
X13981980Y-6249980D02*
X13951980Y-6279980D01*
X14026980Y-6099980D02*
X14056980Y-6129980D01*
X14056980Y-6099980D02*
X14026980Y-6129980D01*
X14026980Y-6174980D02*
X14056980Y-6204980D01*
X14056980Y-6174980D02*
X14026980Y-6204980D01*
X14026980Y-6249980D02*
X14056980Y-6279980D01*
X14056980Y-6249980D02*
X14026980Y-6279980D01*
X14451980Y-6099980D02*
X14481980Y-6129980D01*
X14481980Y-6099980D02*
X14451980Y-6129980D01*
X14451980Y-6174980D02*
X14481980Y-6204980D01*
X14481980Y-6174980D02*
X14451980Y-6204980D01*
X14451980Y-6249980D02*
X14481980Y-6279980D01*
X14481980Y-6249980D02*
X14451980Y-6279980D01*
X14526980Y-6099980D02*
X14556980Y-6129980D01*
X14556980Y-6099980D02*
X14526980Y-6129980D01*
X14526980Y-6174980D02*
X14556980Y-6204980D01*
X14556980Y-6174980D02*
X14526980Y-6204980D01*
X14526980Y-6249980D02*
X14556980Y-6279980D01*
X14556980Y-6249980D02*
X14526980Y-6279980D01*
X8441370Y-6041390D02*
G75*
G03X8441370Y-6041390I-20000J0D01*
G01*
X8629330Y-7080250D02*
G75*
G03X8629330Y-7080250I-20000J0D01*
G01*
X9009060Y-6464300D02*
G75*
G03X9009060Y-6464300I-20000J0D01*
G01*
X9113200Y-9392920D02*
G75*
G03X9113200Y-9392920I-20000J0D01*
G01*
X9519600Y-10439400D02*
G75*
G03X9519600Y-10439400I-20000J0D01*
G01*
X9524680Y-10177780D02*
G75*
G03X9524680Y-10177780I-20000J0D01*
G01*
X9539920Y-10678160D02*
G75*
G03X9539920Y-10678160I-20000J0D01*
G01*
X9585640Y-6380480D02*
G75*
G03X9585640Y-6380480I-20000J0D01*
G01*
X9663110Y-7263130D02*
G75*
G03X9663110Y-7263130I-20000J0D01*
G01*
X9702480Y-10083800D02*
G75*
G03X9702480Y-10083800I-20000J0D01*
G01*
X9741850Y-6719570D02*
G75*
G03X9741850Y-6719570I-20000J0D01*
G01*
X9743120Y-7990840D02*
G75*
G03X9743120Y-7990840I-20000J0D01*
G01*
X9799000Y-9550400D02*
G75*
G03X9799000Y-9550400I-20000J0D01*
G01*
X9846601Y-10216290D02*
G75*
G03X9846601Y-10216290I-20000J0D01*
G01*
X9847260Y-8163560D02*
G75*
G03X9847260Y-8163560I-20000J0D01*
G01*
X9894250Y-7424420D02*
G75*
G03X9894250Y-7424420I-20000J0D01*
G01*
X9905680Y-9494520D02*
G75*
G03X9905680Y-9494520I-20000J0D01*
G01*
X9905680Y-9966750D02*
G75*
G03X9905680Y-9966750I-20000J0D01*
G01*
X9905680Y-10066750D02*
G75*
G03X9905680Y-10066750I-20000J0D01*
G01*
X9922317Y-10393315D02*
G75*
G03X9922317Y-10393315I-20000J0D01*
G01*
X9979340Y-10447020D02*
G75*
G03X9979340Y-10447020I-20000J0D01*
G01*
X9995850Y-10541000D02*
G75*
G03X9995850Y-10541000I-20000J0D01*
G01*
X10037760Y-9667240D02*
G75*
G03X10037760Y-9667240I-20000J0D01*
G01*
X10096385Y-9309305D02*
G75*
G03X10096385Y-9309305I-20000J0D01*
G01*
X10119040Y-9667240D02*
G75*
G03X10119040Y-9667240I-20000J0D01*
G01*
X10176190Y-9601200D02*
G75*
G03X10176190Y-9601200I-20000J0D01*
G01*
X10215560Y-9236240D02*
G75*
G03X10215560Y-9236240I-20000J0D01*
G01*
X10215560Y-10824680D02*
G75*
G03X10215560Y-10824680I-20000J0D01*
G01*
X10240861Y-9568350D02*
G75*
G03X10240861Y-9568350I-20000J0D01*
G01*
X10271440Y-10871200D02*
G75*
G03X10271440Y-10871200I-20000J0D01*
G01*
X10293900Y-10520885D02*
G75*
G03X10293900Y-10520885I-20000J0D01*
G01*
X10329860Y-7954010D02*
G75*
G03X10329860Y-7954010I-20000J0D01*
G01*
X10331130Y-9565640D02*
G75*
G03X10331130Y-9565640I-20000J0D01*
G01*
X10357800Y-9220200D02*
G75*
G03X10357800Y-9220200I-20000J0D01*
G01*
X10375784Y-10538256D02*
G75*
G03X10375784Y-10538256I-20000J0D01*
G01*
X10412410Y-9578340D02*
G75*
G03X10412410Y-9578340I-20000J0D01*
G01*
X10479720Y-10546080D02*
G75*
G03X10479720Y-10546080I-20000J0D01*
G01*
X10505120Y-11328400D02*
G75*
G03X10505120Y-11328400I-20000J0D01*
G01*
X10591480Y-10535920D02*
G75*
G03X10591480Y-10535920I-20000J0D01*
G01*
X10657520Y-10824680D02*
G75*
G03X10657520Y-10824680I-20000J0D01*
G01*
X10672760Y-9220200D02*
G75*
G03X10672760Y-9220200I-20000J0D01*
G01*
X10779440Y-9538970D02*
G75*
G03X10779440Y-9538970I-20000J0D01*
G01*
X10784520Y-9236240D02*
G75*
G03X10784520Y-9236240I-20000J0D01*
G01*
X10852090Y-10366750D02*
G75*
G03X10852090Y-10366750I-20000J0D01*
G01*
X10881040Y-10878820D02*
G75*
G03X10881040Y-10878820I-20000J0D01*
G01*
X10926760Y-10220960D02*
G75*
G03X10926760Y-10220960I-20000J0D01*
G01*
X10926760Y-10297160D02*
G75*
G03X10926760Y-10297160I-20000J0D01*
G01*
X10936920Y-9878060D02*
G75*
G03X10936920Y-9878060I-20000J0D01*
G01*
X11202350Y-7910830D02*
G75*
G03X11202350Y-7910830I-20000J0D01*
G01*
X11245530Y-7105650D02*
G75*
G03X11245530Y-7105650I-20000J0D01*
G01*
X11298870Y-10674350D02*
G75*
G03X11298870Y-10674350I-20000J0D01*
G01*
X11376340Y-9605010D02*
G75*
G03X11376340Y-9605010I-20000J0D01*
G01*
X11444920Y-9184640D02*
G75*
G03X11444920Y-9184640I-20000J0D01*
G01*
X11481750Y-9534361D02*
G75*
G03X11481750Y-9534361I-20000J0D01*
G01*
X11526200Y-9179560D02*
G75*
G03X11526200Y-9179560I-20000J0D01*
G01*
X11631610Y-9841230D02*
G75*
G03X11631610Y-9841230I-20000J0D01*
G01*
X11643040Y-14154150D02*
G75*
G03X11643040Y-14154150I-20000J0D01*
G01*
X11694874Y-10303274D02*
G75*
G03X11694874Y-10303274I-20000J0D01*
G01*
X11725590Y-9378950D02*
G75*
G03X11725590Y-9378950I-20000J0D01*
G01*
X11775418Y-10238132D02*
G75*
G03X11775418Y-10238132I-20000J0D01*
G01*
X11785280Y-10363200D02*
G75*
G03X11785280Y-10363200I-20000J0D01*
G01*
X11866560Y-10723880D02*
G75*
G03X11866560Y-10723880I-20000J0D01*
G01*
X11935140Y-10059670D02*
G75*
G03X11935140Y-10059670I-20000J0D01*
G01*
X12008800Y-10647680D02*
G75*
G03X12008800Y-10647680I-20000J0D01*
G01*
X12018960Y-10937240D02*
G75*
G03X12018960Y-10937240I-20000J0D01*
G01*
X12085000Y-10861040D02*
G75*
G03X12085000Y-10861040I-20000J0D01*
G01*
X12091350Y-10473690D02*
G75*
G03X12091350Y-10473690I-20000J0D01*
G01*
X12096430Y-10134600D02*
G75*
G03X12096430Y-10134600I-20000J0D01*
G01*
X12327570Y-10093960D02*
G75*
G03X12327570Y-10093960I-20000J0D01*
G01*
X12438060Y-9805670D02*
G75*
G03X12438060Y-9805670I-20000J0D01*
G01*
X12709840Y-6049010D02*
G75*
G03X12709840Y-6049010I-20000J0D01*
G01*
X12709840Y-6450330D02*
G75*
G03X12709840Y-6450330I-20000J0D01*
G01*
X12709840Y-6849110D02*
G75*
G03X12709840Y-6849110I-20000J0D01*
G01*
X12709840Y-7250430D02*
G75*
G03X12709840Y-7250430I-20000J0D01*
G01*
X12709840Y-7646670D02*
G75*
G03X12709840Y-7646670I-20000J0D01*
G01*
X12709840Y-8047990D02*
G75*
G03X12709840Y-8047990I-20000J0D01*
G01*
X12709840Y-8446770D02*
G75*
G03X12709840Y-8446770I-20000J0D01*
G01*
X12709840Y-8848090D02*
G75*
G03X12709840Y-8848090I-20000J0D01*
G01*
X12716190Y-9175750D02*
G75*
G03X12716190Y-9175750I-20000J0D01*
G01*
X12718730Y-10048240D02*
G75*
G03X12718730Y-10048240I-20000J0D01*
G01*
X12718730Y-10449560D02*
G75*
G03X12718730Y-10449560I-20000J0D01*
G01*
X12718730Y-10845800D02*
G75*
G03X12718730Y-10845800I-20000J0D01*
G01*
X12718730Y-11247120D02*
G75*
G03X12718730Y-11247120I-20000J0D01*
G01*
X12718730Y-11645900D02*
G75*
G03X12718730Y-11645900I-20000J0D01*
G01*
X12718730Y-12047220D02*
G75*
G03X12718730Y-12047220I-20000J0D01*
G01*
X12720000Y-9575800D02*
G75*
G03X12720000Y-9575800I-20000J0D01*
G01*
X12720000Y-12447270D02*
G75*
G03X12720000Y-12447270I-20000J0D01*
G01*
X12720000Y-12848590D02*
G75*
G03X12720000Y-12848590I-20000J0D01*
G01*
X12721270Y-13249910D02*
G75*
G03X12721270Y-13249910I-20000J0D01*
G01*
X12721270Y-13651230D02*
G75*
G03X12721270Y-13651230I-20000J0D01*
G01*
X13037500Y-12048490D02*
G75*
G03X13037500Y-12048490I-20000J0D01*
G01*
X13099730Y-6052820D02*
G75*
G03X13099730Y-6052820I-20000J0D01*
G01*
X13139100Y-14608810D02*
G75*
G03X13139100Y-14608810I-20000J0D01*
G01*
X13454060Y-9933141D02*
G75*
G03X13454060Y-9933141I-20000J0D01*
G01*
X13499780Y-9645650D02*
G75*
G03X13499780Y-9645650I-20000J0D01*
G01*
X13501050Y-6052820D02*
G75*
G03X13501050Y-6052820I-20000J0D01*
G01*
X13509940Y-12049760D02*
G75*
G03X13509940Y-12049760I-20000J0D01*
G01*
X13649640Y-13929360D02*
G75*
G03X13649640Y-13929360I-20000J0D01*
G01*
X13911260Y-12049760D02*
G75*
G03X13911260Y-12049760I-20000J0D01*
G01*
X14191930Y-10133330D02*
G75*
G03X14191930Y-10133330I-20000J0D01*
G01*
X14232302Y-9845245D02*
G75*
G03X14232302Y-9845245I-20000J0D01*
G01*
X14278290Y-10125710D02*
G75*
G03X14278290Y-10125710I-20000J0D01*
G01*
X14307500Y-12049760D02*
G75*
G03X14307500Y-12049760I-20000J0D01*
G01*
X14310040Y-9855200D02*
G75*
G03X14310040Y-9855200I-20000J0D01*
G01*
X14398940Y-10134600D02*
G75*
G03X14398940Y-10134600I-20000J0D01*
G01*
X14404020Y-9834880D02*
G75*
G03X14404020Y-9834880I-20000J0D01*
G01*
X14407830Y-14618970D02*
G75*
G03X14407830Y-14618970I-20000J0D01*
G01*
X14600162Y-9695215D02*
G75*
G03X14600162Y-9695215I-20000J0D01*
G01*
X14696120Y-9159240D02*
G75*
G03X14696120Y-9159240I-20000J0D01*
G01*
X14708820Y-12049760D02*
G75*
G03X14708820Y-12049760I-20000J0D01*
G01*
X14730085Y-9660818D02*
G75*
G03X14730085Y-9660818I-20000J0D01*
G01*
X14759270Y-8994153D02*
G75*
G03X14759270Y-8994153I-20000J0D01*
G01*
X14800260Y-9187180D02*
G75*
G03X14800260Y-9187180I-20000J0D01*
G01*
X14850688Y-8973448D02*
G75*
G03X14850688Y-8973448I-20000J0D01*
G01*
X14860087Y-9671570D02*
G75*
G03X14860087Y-9671570I-20000J0D01*
G01*
X14959010Y-5971540D02*
G75*
G03X14959010Y-5971540I-20000J0D01*
G01*
X15065690Y-9630410D02*
G75*
G03X15065690Y-9630410I-20000J0D01*
G01*
X15079660Y-10038080D02*
G75*
G03X15079660Y-10038080I-20000J0D01*
G01*
X15107600Y-12049760D02*
G75*
G03X15107600Y-12049760I-20000J0D01*
G01*
X15164750Y-14620240D02*
G75*
G03X15164750Y-14620240I-20000J0D01*
G01*
X15348900Y-5975350D02*
G75*
G03X15348900Y-5975350I-20000J0D01*
G01*
X15508920Y-12049760D02*
G75*
G03X15508920Y-12049760I-20000J0D01*
G01*
X15679100Y-13936980D02*
G75*
G03X15679100Y-13936980I-20000J0D01*
G01*
X15750220Y-5975350D02*
G75*
G03X15750220Y-5975350I-20000J0D01*
G01*
X15920400Y-12049760D02*
G75*
G03X15920400Y-12049760I-20000J0D01*
G01*
X16157890Y-5972810D02*
G75*
G03X16157890Y-5972810I-20000J0D01*
G01*
X16157890Y-6374130D02*
G75*
G03X16157890Y-6374130I-20000J0D01*
G01*
X16157890Y-6772910D02*
G75*
G03X16157890Y-6772910I-20000J0D01*
G01*
X16157890Y-7174230D02*
G75*
G03X16157890Y-7174230I-20000J0D01*
G01*
X16157890Y-7570470D02*
G75*
G03X16157890Y-7570470I-20000J0D01*
G01*
X16157890Y-7971790D02*
G75*
G03X16157890Y-7971790I-20000J0D01*
G01*
X16157890Y-8370570D02*
G75*
G03X16157890Y-8370570I-20000J0D01*
G01*
X16157890Y-8771890D02*
G75*
G03X16157890Y-8771890I-20000J0D01*
G01*
X16164240Y-9099550D02*
G75*
G03X16164240Y-9099550I-20000J0D01*
G01*
X16166780Y-9972040D02*
G75*
G03X16166780Y-9972040I-20000J0D01*
G01*
X16166780Y-10373360D02*
G75*
G03X16166780Y-10373360I-20000J0D01*
G01*
X16166780Y-10769600D02*
G75*
G03X16166780Y-10769600I-20000J0D01*
G01*
X16166780Y-11170920D02*
G75*
G03X16166780Y-11170920I-20000J0D01*
G01*
X16166780Y-11569700D02*
G75*
G03X16166780Y-11569700I-20000J0D01*
G01*
X16166780Y-11971020D02*
G75*
G03X16166780Y-11971020I-20000J0D01*
G01*
X16168050Y-9499600D02*
G75*
G03X16168050Y-9499600I-20000J0D01*
G01*
X8978900Y-6093860D02*
X8978900Y-6143860D01*
X8953900Y-6118860D02*
X9003900Y-6118860D01*
X9078900Y-6093860D02*
X9078900Y-6143860D01*
X9053900Y-6118860D02*
X9103900Y-6118860D01*
X9178900Y-6093860D02*
X9178900Y-6143860D01*
X9153900Y-6118860D02*
X9203900Y-6118860D01*
X9278900Y-6093860D02*
X9278900Y-6143860D01*
X9253900Y-6118860D02*
X9303900Y-6118860D01*
X9378900Y-6093860D02*
X9378900Y-6143860D01*
X9353900Y-6118860D02*
X9403900Y-6118860D01*
X8682613Y-7483733D02*
X8682613Y-7441307D01*
X8640187Y-7441307D01*
X8640187Y-7483733D01*
X8682613Y-7483733D01*
X8972173Y-10729853D02*
X8972173Y-10687427D01*
X8929747Y-10687427D01*
X8929747Y-10729853D01*
X8972173Y-10729853D01*
X9035673Y-10381873D02*
X9035673Y-10339447D01*
X8993247Y-10339447D01*
X8993247Y-10381873D01*
X9035673Y-10381873D01*
X9129653Y-9744333D02*
X9129653Y-9701907D01*
X9087227Y-9701907D01*
X9087227Y-9744333D01*
X9129653Y-9744333D01*
X9129653Y-10074533D02*
X9129653Y-10032107D01*
X9087227Y-10032107D01*
X9087227Y-10074533D01*
X9129653Y-10074533D01*
X9256653Y-8088253D02*
X9256653Y-8045827D01*
X9214227Y-8045827D01*
X9214227Y-8088253D01*
X9256653Y-8088253D01*
X9297293Y-10988933D02*
X9297293Y-10946507D01*
X9254867Y-10946507D01*
X9254867Y-10988933D01*
X9297293Y-10988933D01*
X9383653Y-12279253D02*
X9383653Y-12236827D01*
X9341227Y-12236827D01*
X9341227Y-12279253D01*
X9383653Y-12279253D01*
X9513193Y-6139462D02*
X9513193Y-6097036D01*
X9470767Y-6097036D01*
X9470767Y-6139462D01*
X9513193Y-6139462D01*
X9609713Y-9764653D02*
X9609713Y-9722227D01*
X9567287Y-9722227D01*
X9567287Y-9764653D01*
X9609713Y-9764653D01*
X9617333Y-7636133D02*
X9617333Y-7593707D01*
X9574907Y-7593707D01*
X9574907Y-7636133D01*
X9617333Y-7636133D01*
X9619873Y-10162163D02*
X9619873Y-10119737D01*
X9577447Y-10119737D01*
X9577447Y-10162163D01*
X9619873Y-10162163D01*
X9698613Y-8859143D02*
X9698613Y-8816717D01*
X9656187Y-8816717D01*
X9656187Y-8859143D01*
X9698613Y-8859143D01*
X9810374Y-10999094D02*
X9810374Y-10956667D01*
X9767947Y-10956667D01*
X9767947Y-10999094D01*
X9810374Y-10999094D01*
X9849514Y-10332489D02*
X9849514Y-10290063D01*
X9807087Y-10290063D01*
X9807087Y-10332489D01*
X9849514Y-10332489D01*
X10003413Y-8800723D02*
X10003413Y-8758297D01*
X9960987Y-8758297D01*
X9960987Y-8800723D01*
X10003413Y-8800723D01*
X10019923Y-7150993D02*
X10019923Y-7108567D01*
X9977497Y-7108567D01*
X9977497Y-7150993D01*
X10019923Y-7150993D01*
X10028813Y-9856093D02*
X10028813Y-9813667D01*
X9986387Y-9813667D01*
X9986387Y-9856093D01*
X10028813Y-9856093D01*
X10079383Y-10627214D02*
X10079383Y-10584787D01*
X10036957Y-10584787D01*
X10036957Y-10627214D01*
X10079383Y-10627214D01*
X10107437Y-10859153D02*
X10107437Y-10816726D01*
X10065010Y-10816726D01*
X10065010Y-10859153D01*
X10107437Y-10859153D01*
X10110093Y-12340213D02*
X10110093Y-12297787D01*
X10067666Y-12297787D01*
X10067666Y-12340213D01*
X10110093Y-12340213D01*
X10132953Y-6288663D02*
X10132953Y-6246237D01*
X10090527Y-6246237D01*
X10090527Y-6288663D01*
X10132953Y-6288663D01*
X10270113Y-10212963D02*
X10270113Y-10170537D01*
X10227687Y-10170537D01*
X10227687Y-10212963D01*
X10270113Y-10212963D01*
X10480933Y-7184013D02*
X10480933Y-7141587D01*
X10438507Y-7141587D01*
X10438507Y-7184013D01*
X10480933Y-7184013D01*
X10526653Y-9791323D02*
X10526653Y-9748897D01*
X10484227Y-9748897D01*
X10484227Y-9791323D01*
X10526653Y-9791323D01*
X10546973Y-8962013D02*
X10546973Y-8919587D01*
X10504547Y-8919587D01*
X10504547Y-8962013D01*
X10546973Y-8962013D01*
X10632063Y-10187563D02*
X10632063Y-10145137D01*
X10589637Y-10145137D01*
X10589637Y-10187563D01*
X10632063Y-10187563D01*
X10651113Y-13871833D02*
X10651113Y-13829407D01*
X10608687Y-13829407D01*
X10608687Y-13871833D01*
X10651113Y-13871833D01*
X10880983Y-6650613D02*
X10880983Y-6608187D01*
X10838557Y-6608187D01*
X10838557Y-6650613D01*
X10880983Y-6650613D01*
X10922893Y-8621653D02*
X10922893Y-8579227D01*
X10880467Y-8579227D01*
X10880467Y-8621653D01*
X10922893Y-8621653D01*
X10982583Y-7694553D02*
X10982583Y-7652127D01*
X10940157Y-7652127D01*
X10940157Y-7694553D01*
X10982583Y-7694553D01*
X11004173Y-11060053D02*
X11004173Y-11017627D01*
X10961747Y-11017627D01*
X10961747Y-11060053D01*
X11004173Y-11060053D01*
X11022729Y-9711439D02*
X11022729Y-9669012D01*
X10980302Y-9669012D01*
X10980302Y-9711439D01*
X11022729Y-9711439D01*
X11071483Y-13850243D02*
X11071483Y-13807817D01*
X11029057Y-13807817D01*
X11029057Y-13850243D01*
X11071483Y-13850243D01*
X11136253Y-9911973D02*
X11136253Y-9869547D01*
X11093827Y-9869547D01*
X11093827Y-9911973D01*
X11136253Y-9911973D01*
X11253093Y-9089013D02*
X11253093Y-9046587D01*
X11210667Y-9046587D01*
X11210667Y-9089013D01*
X11253093Y-9089013D01*
X11275953Y-9920863D02*
X11275953Y-9878437D01*
X11233527Y-9878437D01*
X11233527Y-9920863D01*
X11275953Y-9920863D01*
X11367393Y-8313043D02*
X11367393Y-8270617D01*
X11324967Y-8270617D01*
X11324967Y-8313043D01*
X11367393Y-8313043D01*
X11452483Y-6523613D02*
X11452483Y-6481187D01*
X11410057Y-6481187D01*
X11410057Y-6523613D01*
X11452483Y-6523613D01*
X11626473Y-8323203D02*
X11626473Y-8280777D01*
X11584047Y-8280777D01*
X11584047Y-8323203D01*
X11626473Y-8323203D01*
X11799193Y-12443083D02*
X11799193Y-12400657D01*
X11756767Y-12400657D01*
X11756767Y-12443083D01*
X11799193Y-12443083D01*
X11815027Y-10172450D02*
X11815027Y-10130023D01*
X11772601Y-10130023D01*
X11772601Y-10172450D01*
X11815027Y-10172450D01*
X13056493Y-9165213D02*
X13056493Y-9122787D01*
X13014067Y-9122787D01*
X13014067Y-9165213D01*
X13056493Y-9165213D01*
X13396853Y-8931533D02*
X13396853Y-8889107D01*
X13354427Y-8889107D01*
X13354427Y-8931533D01*
X13396853Y-8931533D01*
X13569573Y-8296533D02*
X13569573Y-8254107D01*
X13527147Y-8254107D01*
X13527147Y-8296533D01*
X13569573Y-8296533D01*
X13770233Y-9979354D02*
X13770233Y-9936928D01*
X13727807Y-9936928D01*
X13727807Y-9979354D01*
X13770233Y-9979354D01*
X13780393Y-8271133D02*
X13780393Y-8228707D01*
X13737967Y-8228707D01*
X13737967Y-8271133D01*
X13780393Y-8271133D01*
X13800713Y-9524623D02*
X13800713Y-9482197D01*
X13758287Y-9482197D01*
X13758287Y-9524623D01*
X13800713Y-9524623D01*
X13857863Y-8852793D02*
X13857863Y-8810367D01*
X13815437Y-8810367D01*
X13815437Y-8852793D01*
X13857863Y-8852793D01*
X13869293Y-6208653D02*
X13869293Y-6166227D01*
X13826867Y-6166227D01*
X13826867Y-6208653D01*
X13869293Y-6208653D01*
X13936603Y-11137523D02*
X13936603Y-11095097D01*
X13894177Y-11095097D01*
X13894177Y-11137523D01*
X13936603Y-11137523D01*
X13975973Y-6665853D02*
X13975973Y-6623427D01*
X13933547Y-6623427D01*
X13933547Y-6665853D01*
X13975973Y-6665853D01*
X14077573Y-8428613D02*
X14077573Y-8386187D01*
X14035147Y-8386187D01*
X14035147Y-8428613D01*
X14077573Y-8428613D01*
X14301093Y-9414133D02*
X14301093Y-9371707D01*
X14258667Y-9371707D01*
X14258667Y-9414133D01*
X14301093Y-9414133D01*
X14534773Y-8697853D02*
X14534773Y-8655427D01*
X14492347Y-8655427D01*
X14492347Y-8697853D01*
X14534773Y-8697853D01*
X14555093Y-6676013D02*
X14555093Y-6633587D01*
X14512667Y-6633587D01*
X14512667Y-6676013D01*
X14555093Y-6676013D01*
X14609061Y-9818009D02*
X14609061Y-9775582D01*
X14566634Y-9775582D01*
X14566634Y-9818009D01*
X14609061Y-9818009D01*
X14699873Y-6213733D02*
X14699873Y-6171307D01*
X14657447Y-6171307D01*
X14657447Y-6213733D01*
X14699873Y-6213733D01*
X14763373Y-10670163D02*
X14763373Y-10627737D01*
X14720947Y-10627737D01*
X14720947Y-10670163D01*
X14763373Y-10670163D01*
X14798933Y-7524373D02*
X14798933Y-7481947D01*
X14756507Y-7481947D01*
X14756507Y-7524373D01*
X14798933Y-7524373D01*
X14824333Y-8111113D02*
X14824333Y-8068687D01*
X14781907Y-8068687D01*
X14781907Y-8111113D01*
X14824333Y-8111113D01*
X14831646Y-10053907D02*
X14831646Y-10011480D01*
X14789220Y-10011480D01*
X14789220Y-10053907D01*
X14831646Y-10053907D01*
X15059283Y-10677783D02*
X15059283Y-10635357D01*
X15016857Y-10635357D01*
X15016857Y-10677783D01*
X15059283Y-10677783D01*
X15197713Y-6343273D02*
X15197713Y-6300847D01*
X15155287Y-6300847D01*
X15155287Y-6343273D01*
X15197713Y-6343273D01*
X15393293Y-9454773D02*
X15393293Y-9412347D01*
X15350867Y-9412347D01*
X15350867Y-9454773D01*
X15393293Y-9454773D01*
X15393293Y-9815453D02*
X15393293Y-9773027D01*
X15350867Y-9773027D01*
X15350867Y-9815453D01*
X15393293Y-9815453D01*
X15412343Y-10662543D02*
X15412343Y-10620117D01*
X15369917Y-10620117D01*
X15369917Y-10662543D01*
X15412343Y-10662543D01*
X15428853Y-9109333D02*
X15428853Y-9066907D01*
X15386427Y-9066907D01*
X15386427Y-9109333D01*
X15428853Y-9109333D01*
X15510133Y-8499733D02*
X15510133Y-8457307D01*
X15467707Y-8457307D01*
X15467707Y-8499733D01*
X15510133Y-8499733D01*
X15931773Y-8855333D02*
X15931773Y-8812907D01*
X15889347Y-8812907D01*
X15889347Y-8855333D01*
X15931773Y-8855333D01*
X11846560Y-14202880D02*
X11896560Y-14152880D01*
X11846560Y-14102880D01*
X11796560Y-14152880D01*
X11846560Y-14202880D01*
X11846560Y-14456880D02*
X11896560Y-14406880D01*
X11846560Y-14356880D01*
X11796560Y-14406880D01*
X11846560Y-14456880D01*
X12100560Y-14202880D02*
X12150560Y-14152880D01*
X12100560Y-14102880D01*
X12050560Y-14152880D01*
X12100560Y-14202880D01*
X12100560Y-14456880D02*
X12150560Y-14406880D01*
X12100560Y-14356880D01*
X12050560Y-14406880D01*
X12100560Y-14456880D01*
X12354560Y-14202880D02*
X12404560Y-14152880D01*
X12354560Y-14102880D01*
X12304560Y-14152880D01*
X12354560Y-14202880D01*
X12354560Y-14456880D02*
X12404560Y-14406880D01*
X12354560Y-14356880D01*
X12304560Y-14406880D01*
X12354560Y-14456880D01*
X12608560Y-14202880D02*
X12658560Y-14152880D01*
X12608560Y-14102880D01*
X12558560Y-14152880D01*
X12608560Y-14202880D01*
X12608560Y-14456880D02*
X12658560Y-14406880D01*
X12608560Y-14356880D01*
X12558560Y-14406880D01*
X12608560Y-14456880D01*
X12862560Y-14202880D02*
X12912560Y-14152880D01*
X12862560Y-14102880D01*
X12812560Y-14152880D01*
X12862560Y-14202880D01*
X12862560Y-14456880D02*
X12912560Y-14406880D01*
X12862560Y-14356880D01*
X12812560Y-14406880D01*
X12862560Y-14456880D01*
X13116560Y-14202880D02*
X13166560Y-14152880D01*
X13116560Y-14102880D01*
X13066560Y-14152880D01*
X13116560Y-14202880D01*
X13116560Y-14456880D02*
X13166560Y-14406880D01*
X13116560Y-14356880D01*
X13066560Y-14406880D01*
X13116560Y-14456880D01*
X13370560Y-14202880D02*
X13420560Y-14152880D01*
X13370560Y-14102880D01*
X13320560Y-14152880D01*
X13370560Y-14202880D01*
X13370560Y-14456880D02*
X13420560Y-14406880D01*
X13370560Y-14356880D01*
X13320560Y-14406880D01*
X13370560Y-14456880D01*
X13624560Y-14202880D02*
X13674560Y-14152880D01*
X13624560Y-14102880D01*
X13574560Y-14152880D01*
X13624560Y-14202880D01*
X13624560Y-14456880D02*
X13674560Y-14406880D01*
X13624560Y-14356880D01*
X13574560Y-14406880D01*
X13624560Y-14456880D01*
X13878560Y-14202880D02*
X13928560Y-14152880D01*
X13878560Y-14102880D01*
X13828560Y-14152880D01*
X13878560Y-14202880D01*
X13878560Y-14456880D02*
X13928560Y-14406880D01*
X13878560Y-14356880D01*
X13828560Y-14406880D01*
X13878560Y-14456880D01*
X14132560Y-14202880D02*
X14182560Y-14152880D01*
X14132560Y-14102880D01*
X14082560Y-14152880D01*
X14132560Y-14202880D01*
X14132560Y-14456880D02*
X14182560Y-14406880D01*
X14132560Y-14356880D01*
X14082560Y-14406880D01*
X14132560Y-14456880D01*
X14386560Y-14202880D02*
X14436560Y-14152880D01*
X14386560Y-14102880D01*
X14336560Y-14152880D01*
X14386560Y-14202880D01*
X14386560Y-14456880D02*
X14436560Y-14406880D01*
X14386560Y-14356880D01*
X14336560Y-14406880D01*
X14386560Y-14456880D01*
X14640560Y-14202880D02*
X14690560Y-14152880D01*
X14640560Y-14102880D01*
X14590560Y-14152880D01*
X14640560Y-14202880D01*
X14640560Y-14456880D02*
X14690560Y-14406880D01*
X14640560Y-14356880D01*
X14590560Y-14406880D01*
X14640560Y-14456880D01*
X14894560Y-14202880D02*
X14944560Y-14152880D01*
X14894560Y-14102880D01*
X14844560Y-14152880D01*
X14894560Y-14202880D01*
X14894560Y-14456880D02*
X14944560Y-14406880D01*
X14894560Y-14356880D01*
X14844560Y-14406880D01*
X14894560Y-14456880D01*
X15148560Y-14202880D02*
X15198560Y-14152880D01*
X15148560Y-14102880D01*
X15098560Y-14152880D01*
X15148560Y-14202880D01*
X15148560Y-14456880D02*
X15198560Y-14406880D01*
X15148560Y-14356880D01*
X15098560Y-14406880D01*
X15148560Y-14456880D01*
X15402560Y-14202880D02*
X15452560Y-14152880D01*
X15402560Y-14102880D01*
X15352560Y-14152880D01*
X15402560Y-14202880D01*
X15402560Y-14456880D02*
X15452560Y-14406880D01*
X15402560Y-14356880D01*
X15352560Y-14406880D01*
X15402560Y-14456880D01*
X15656560Y-14202880D02*
X15706560Y-14152880D01*
X15656560Y-14102880D01*
X15606560Y-14152880D01*
X15656560Y-14202880D01*
X15656560Y-14456880D02*
X15706560Y-14406880D01*
X15656560Y-14356880D01*
X15606560Y-14406880D01*
X15656560Y-14456880D01*
X15910560Y-14202880D02*
X15960560Y-14152880D01*
X15910560Y-14102880D01*
X15860560Y-14152880D01*
X15910560Y-14202880D01*
X15910560Y-14456880D02*
X15960560Y-14406880D01*
X15910560Y-14356880D01*
X15860560Y-14406880D01*
X15910560Y-14456880D01*
X16164560Y-14202880D02*
X16214560Y-14152880D01*
X16164560Y-14102880D01*
X16114560Y-14152880D01*
X16164560Y-14202880D01*
X16164560Y-14456880D02*
X16214560Y-14406880D01*
X16164560Y-14356880D01*
X16114560Y-14406880D01*
X16164560Y-14456880D01*
X16418560Y-14202880D02*
X16468560Y-14152880D01*
X16418560Y-14102880D01*
X16368560Y-14152880D01*
X16418560Y-14202880D01*
X16418560Y-14456880D02*
X16468560Y-14406880D01*
X16418560Y-14356880D01*
X16368560Y-14406880D01*
X16418560Y-14456880D01*
X16672560Y-14202880D02*
X16722560Y-14152880D01*
X16672560Y-14102880D01*
X16622560Y-14152880D01*
X16672560Y-14202880D01*
X16672560Y-14456880D02*
X16722560Y-14406880D01*
X16672560Y-14356880D01*
X16622560Y-14406880D01*
X16672560Y-14456880D01*
D12*
X8126074Y-15260452D02*
X8126074Y-14960452D01*
X8197503Y-14960452D01*
X8240360Y-14974738D01*
X8268932Y-15003309D01*
X8283217Y-15031881D01*
X8297503Y-15089024D01*
X8297503Y-15131881D01*
X8283217Y-15189024D01*
X8268932Y-15217595D01*
X8240360Y-15246167D01*
X8197503Y-15260452D01*
X8126074Y-15260452D01*
X8426075Y-15260452D02*
X8426075Y-15060452D01*
X8426075Y-15117595D02*
X8440360Y-15089024D01*
X8454646Y-15074738D01*
X8483217Y-15060452D01*
X8511789Y-15060452D01*
X8611789Y-15260452D02*
X8611789Y-15060452D01*
X8611789Y-14960452D02*
X8597503Y-14974738D01*
X8611789Y-14989024D01*
X8626075Y-14974738D01*
X8611789Y-14960452D01*
X8611789Y-14989024D01*
X8797503Y-15260452D02*
X8768932Y-15246167D01*
X8754646Y-15217595D01*
X8754646Y-14960452D01*
X8954646Y-15260452D02*
X8926075Y-15246167D01*
X8911789Y-15217595D01*
X8911789Y-14960452D01*
X9297503Y-15260452D02*
X9297503Y-14960452D01*
X9397503Y-15174738D01*
X9497503Y-14960452D01*
X9497503Y-15260452D01*
X9768932Y-15260452D02*
X9768932Y-15103309D01*
X9754646Y-15074738D01*
X9726075Y-15060452D01*
X9668932Y-15060452D01*
X9640360Y-15074738D01*
X9768932Y-15246167D02*
X9740360Y-15260452D01*
X9668932Y-15260452D01*
X9640360Y-15246167D01*
X9626075Y-15217595D01*
X9626075Y-15189024D01*
X9640360Y-15160452D01*
X9668932Y-15146167D01*
X9740360Y-15146167D01*
X9768932Y-15131881D01*
X9911789Y-15060452D02*
X9911789Y-15360452D01*
X9911789Y-15074738D02*
X9940360Y-15060452D01*
X9997503Y-15060452D01*
X10026075Y-15074738D01*
X10040360Y-15089024D01*
X10054646Y-15117595D01*
X10054646Y-15203309D01*
X10040360Y-15231881D01*
X10026075Y-15246167D01*
X9997503Y-15260452D01*
X9940360Y-15260452D01*
X9911789Y-15246167D01*
X10183217Y-15231881D02*
X10197503Y-15246167D01*
X10183217Y-15260452D01*
X10168932Y-15246167D01*
X10183217Y-15231881D01*
X10183217Y-15260452D01*
X10183217Y-15074738D02*
X10197503Y-15089024D01*
X10183217Y-15103309D01*
X10168932Y-15089024D01*
X10183217Y-15074738D01*
X10183217Y-15103309D01*
X7809646Y-15739738D02*
X7839646Y-15769738D01*
X7839646Y-15739738D02*
X7809646Y-15769738D01*
X8183217Y-15590452D02*
X8211789Y-15590452D01*
X8240360Y-15604738D01*
X8254646Y-15619024D01*
X8268932Y-15647595D01*
X8283217Y-15704738D01*
X8283217Y-15776167D01*
X8268932Y-15833309D01*
X8254646Y-15861881D01*
X8240360Y-15876167D01*
X8211789Y-15890452D01*
X8183217Y-15890452D01*
X8154646Y-15876167D01*
X8140360Y-15861881D01*
X8126074Y-15833309D01*
X8111789Y-15776167D01*
X8111789Y-15704738D01*
X8126074Y-15647595D01*
X8140360Y-15619024D01*
X8154646Y-15604738D01*
X8183217Y-15590452D01*
X8411789Y-15861881D02*
X8426075Y-15876167D01*
X8411789Y-15890452D01*
X8397503Y-15876167D01*
X8411789Y-15861881D01*
X8411789Y-15890452D01*
X8526075Y-15590452D02*
X8711789Y-15590452D01*
X8611789Y-15704738D01*
X8654646Y-15704738D01*
X8683217Y-15719024D01*
X8697503Y-15733309D01*
X8711789Y-15761881D01*
X8711789Y-15833309D01*
X8697503Y-15861881D01*
X8683217Y-15876167D01*
X8654646Y-15890452D01*
X8568932Y-15890452D01*
X8540360Y-15876167D01*
X8526075Y-15861881D01*
X8897503Y-15590452D02*
X8926075Y-15590452D01*
X8954646Y-15604738D01*
X8968932Y-15619024D01*
X8983217Y-15647595D01*
X8997503Y-15704738D01*
X8997503Y-15776167D01*
X8983217Y-15833309D01*
X8968932Y-15861881D01*
X8954646Y-15876167D01*
X8926075Y-15890452D01*
X8897503Y-15890452D01*
X8868932Y-15876167D01*
X8854646Y-15861881D01*
X8840360Y-15833309D01*
X8826075Y-15776167D01*
X8826075Y-15704738D01*
X8840360Y-15647595D01*
X8854646Y-15619024D01*
X8868932Y-15604738D01*
X8897503Y-15590452D01*
X9126075Y-15890452D02*
X9126075Y-15690452D01*
X9126075Y-15719024D02*
X9140360Y-15704738D01*
X9168932Y-15690452D01*
X9211789Y-15690452D01*
X9240360Y-15704738D01*
X9254646Y-15733309D01*
X9254646Y-15890452D01*
X9254646Y-15733309D02*
X9268932Y-15704738D01*
X9297503Y-15690452D01*
X9340360Y-15690452D01*
X9368932Y-15704738D01*
X9383217Y-15733309D01*
X9383217Y-15890452D01*
X9526075Y-15890452D02*
X9526075Y-15690452D01*
X9526075Y-15719024D02*
X9540360Y-15704738D01*
X9568932Y-15690452D01*
X9611789Y-15690452D01*
X9640360Y-15704738D01*
X9654646Y-15733309D01*
X9654646Y-15890452D01*
X9654646Y-15733309D02*
X9668932Y-15704738D01*
X9697503Y-15690452D01*
X9740360Y-15690452D01*
X9768932Y-15704738D01*
X9783217Y-15733309D01*
X9783217Y-15890452D01*
X10368932Y-15576167D02*
X10111789Y-15961881D01*
X10754646Y-15590452D02*
X10783217Y-15590452D01*
X10811789Y-15604738D01*
X10826075Y-15619024D01*
X10840360Y-15647595D01*
X10854646Y-15704738D01*
X10854646Y-15776167D01*
X10840360Y-15833309D01*
X10826075Y-15861881D01*
X10811789Y-15876167D01*
X10783217Y-15890452D01*
X10754646Y-15890452D01*
X10726075Y-15876167D01*
X10711789Y-15861881D01*
X10697503Y-15833309D01*
X10683217Y-15776167D01*
X10683217Y-15704738D01*
X10697503Y-15647595D01*
X10711789Y-15619024D01*
X10726075Y-15604738D01*
X10754646Y-15590452D01*
X10983217Y-15861881D02*
X10997503Y-15876167D01*
X10983217Y-15890452D01*
X10968932Y-15876167D01*
X10983217Y-15861881D01*
X10983217Y-15890452D01*
X11183217Y-15590452D02*
X11211789Y-15590452D01*
X11240360Y-15604738D01*
X11254646Y-15619024D01*
X11268932Y-15647595D01*
X11283217Y-15704738D01*
X11283217Y-15776167D01*
X11268932Y-15833309D01*
X11254646Y-15861881D01*
X11240360Y-15876167D01*
X11211789Y-15890452D01*
X11183217Y-15890452D01*
X11154646Y-15876167D01*
X11140360Y-15861881D01*
X11126075Y-15833309D01*
X11111789Y-15776167D01*
X11111789Y-15704738D01*
X11126075Y-15647595D01*
X11140360Y-15619024D01*
X11154646Y-15604738D01*
X11183217Y-15590452D01*
X11568932Y-15890452D02*
X11397503Y-15890452D01*
X11483217Y-15890452D02*
X11483217Y-15590452D01*
X11454646Y-15633309D01*
X11426074Y-15661881D01*
X11397503Y-15676167D01*
X11683217Y-15619024D02*
X11697503Y-15604738D01*
X11726074Y-15590452D01*
X11797503Y-15590452D01*
X11826074Y-15604738D01*
X11840360Y-15619024D01*
X11854646Y-15647595D01*
X11854646Y-15676167D01*
X11840360Y-15719024D01*
X11668932Y-15890452D01*
X11854646Y-15890452D01*
X11968932Y-15590452D02*
X11968932Y-15647595D01*
X12083217Y-15590452D02*
X12083217Y-15647595D01*
X12526074Y-16004738D02*
X12511789Y-15990452D01*
X12483217Y-15947595D01*
X12468932Y-15919024D01*
X12454646Y-15876167D01*
X12440360Y-15804738D01*
X12440360Y-15747595D01*
X12454646Y-15676167D01*
X12468932Y-15633309D01*
X12483217Y-15604738D01*
X12511789Y-15561881D01*
X12526074Y-15547595D01*
X12797503Y-15890452D02*
X12626074Y-15890452D01*
X12711789Y-15890452D02*
X12711789Y-15590452D01*
X12683217Y-15633309D01*
X12654646Y-15661881D01*
X12626074Y-15676167D01*
X12911789Y-15619024D02*
X12926074Y-15604738D01*
X12954646Y-15590452D01*
X13026074Y-15590452D01*
X13054646Y-15604738D01*
X13068932Y-15619024D01*
X13083217Y-15647595D01*
X13083217Y-15676167D01*
X13068932Y-15719024D01*
X12897503Y-15890452D01*
X13083217Y-15890452D01*
X13440360Y-15890452D02*
X13440360Y-15590452D01*
X13568932Y-15890452D02*
X13568932Y-15733309D01*
X13554646Y-15704738D01*
X13526074Y-15690452D01*
X13483217Y-15690452D01*
X13454646Y-15704738D01*
X13440360Y-15719024D01*
X13754646Y-15890452D02*
X13726074Y-15876167D01*
X13711789Y-15861881D01*
X13697503Y-15833309D01*
X13697503Y-15747595D01*
X13711789Y-15719024D01*
X13726074Y-15704738D01*
X13754646Y-15690452D01*
X13797503Y-15690452D01*
X13826074Y-15704738D01*
X13840360Y-15719024D01*
X13854646Y-15747595D01*
X13854646Y-15833309D01*
X13840360Y-15861881D01*
X13826074Y-15876167D01*
X13797503Y-15890452D01*
X13754646Y-15890452D01*
X14026074Y-15890452D02*
X13997503Y-15876167D01*
X13983217Y-15847595D01*
X13983217Y-15590452D01*
X14254646Y-15876167D02*
X14226074Y-15890452D01*
X14168932Y-15890452D01*
X14140360Y-15876167D01*
X14126074Y-15847595D01*
X14126074Y-15733309D01*
X14140360Y-15704738D01*
X14168932Y-15690452D01*
X14226074Y-15690452D01*
X14254646Y-15704738D01*
X14268932Y-15733309D01*
X14268932Y-15761881D01*
X14126074Y-15790452D01*
X14383217Y-15876167D02*
X14411789Y-15890452D01*
X14468932Y-15890452D01*
X14497503Y-15876167D01*
X14511789Y-15847595D01*
X14511789Y-15833309D01*
X14497503Y-15804738D01*
X14468932Y-15790452D01*
X14426074Y-15790452D01*
X14397503Y-15776167D01*
X14383217Y-15747595D01*
X14383217Y-15733309D01*
X14397503Y-15704738D01*
X14426074Y-15690452D01*
X14468932Y-15690452D01*
X14497503Y-15704738D01*
X14611789Y-16004738D02*
X14626074Y-15990452D01*
X14654646Y-15947595D01*
X14668932Y-15919024D01*
X14683217Y-15876167D01*
X14697503Y-15804738D01*
X14697503Y-15747595D01*
X14683217Y-15676167D01*
X14668932Y-15633309D01*
X14654646Y-15604738D01*
X14626074Y-15561881D01*
X14611789Y-15547595D01*
X7839646Y-16150738D02*
G75*
G03X7839646Y-16150738I-20000J0D01*
G01*
X8183217Y-15986452D02*
X8211789Y-15986452D01*
X8240360Y-16000738D01*
X8254646Y-16015024D01*
X8268932Y-16043595D01*
X8283217Y-16100738D01*
X8283217Y-16172167D01*
X8268932Y-16229309D01*
X8254646Y-16257881D01*
X8240360Y-16272167D01*
X8211789Y-16286452D01*
X8183217Y-16286452D01*
X8154646Y-16272167D01*
X8140360Y-16257881D01*
X8126074Y-16229309D01*
X8111789Y-16172167D01*
X8111789Y-16100738D01*
X8126074Y-16043595D01*
X8140360Y-16015024D01*
X8154646Y-16000738D01*
X8183217Y-15986452D01*
X8411789Y-16257881D02*
X8426075Y-16272167D01*
X8411789Y-16286452D01*
X8397503Y-16272167D01*
X8411789Y-16257881D01*
X8411789Y-16286452D01*
X8683217Y-16086452D02*
X8683217Y-16286452D01*
X8611789Y-15972167D02*
X8540360Y-16186452D01*
X8726075Y-16186452D01*
X8897503Y-15986452D02*
X8926075Y-15986452D01*
X8954646Y-16000738D01*
X8968932Y-16015024D01*
X8983217Y-16043595D01*
X8997503Y-16100738D01*
X8997503Y-16172167D01*
X8983217Y-16229309D01*
X8968932Y-16257881D01*
X8954646Y-16272167D01*
X8926075Y-16286452D01*
X8897503Y-16286452D01*
X8868932Y-16272167D01*
X8854646Y-16257881D01*
X8840360Y-16229309D01*
X8826075Y-16172167D01*
X8826075Y-16100738D01*
X8840360Y-16043595D01*
X8854646Y-16015024D01*
X8868932Y-16000738D01*
X8897503Y-15986452D01*
X9126075Y-16286452D02*
X9126075Y-16086452D01*
X9126075Y-16115024D02*
X9140360Y-16100738D01*
X9168932Y-16086452D01*
X9211789Y-16086452D01*
X9240360Y-16100738D01*
X9254646Y-16129309D01*
X9254646Y-16286452D01*
X9254646Y-16129309D02*
X9268932Y-16100738D01*
X9297503Y-16086452D01*
X9340360Y-16086452D01*
X9368932Y-16100738D01*
X9383217Y-16129309D01*
X9383217Y-16286452D01*
X9526075Y-16286452D02*
X9526075Y-16086452D01*
X9526075Y-16115024D02*
X9540360Y-16100738D01*
X9568932Y-16086452D01*
X9611789Y-16086452D01*
X9640360Y-16100738D01*
X9654646Y-16129309D01*
X9654646Y-16286452D01*
X9654646Y-16129309D02*
X9668932Y-16100738D01*
X9697503Y-16086452D01*
X9740360Y-16086452D01*
X9768932Y-16100738D01*
X9783217Y-16129309D01*
X9783217Y-16286452D01*
X10368932Y-15972167D02*
X10111789Y-16357881D01*
X10754646Y-15986452D02*
X10783217Y-15986452D01*
X10811789Y-16000738D01*
X10826075Y-16015024D01*
X10840360Y-16043595D01*
X10854646Y-16100738D01*
X10854646Y-16172167D01*
X10840360Y-16229309D01*
X10826075Y-16257881D01*
X10811789Y-16272167D01*
X10783217Y-16286452D01*
X10754646Y-16286452D01*
X10726075Y-16272167D01*
X10711789Y-16257881D01*
X10697503Y-16229309D01*
X10683217Y-16172167D01*
X10683217Y-16100738D01*
X10697503Y-16043595D01*
X10711789Y-16015024D01*
X10726075Y-16000738D01*
X10754646Y-15986452D01*
X10983217Y-16257881D02*
X10997503Y-16272167D01*
X10983217Y-16286452D01*
X10968932Y-16272167D01*
X10983217Y-16257881D01*
X10983217Y-16286452D01*
X11183217Y-15986452D02*
X11211789Y-15986452D01*
X11240360Y-16000738D01*
X11254646Y-16015024D01*
X11268932Y-16043595D01*
X11283217Y-16100738D01*
X11283217Y-16172167D01*
X11268932Y-16229309D01*
X11254646Y-16257881D01*
X11240360Y-16272167D01*
X11211789Y-16286452D01*
X11183217Y-16286452D01*
X11154646Y-16272167D01*
X11140360Y-16257881D01*
X11126075Y-16229309D01*
X11111789Y-16172167D01*
X11111789Y-16100738D01*
X11126075Y-16043595D01*
X11140360Y-16015024D01*
X11154646Y-16000738D01*
X11183217Y-15986452D01*
X11568932Y-16286452D02*
X11397503Y-16286452D01*
X11483217Y-16286452D02*
X11483217Y-15986452D01*
X11454646Y-16029309D01*
X11426074Y-16057881D01*
X11397503Y-16072167D01*
X11826074Y-15986452D02*
X11768932Y-15986452D01*
X11740360Y-16000738D01*
X11726074Y-16015024D01*
X11697503Y-16057881D01*
X11683217Y-16115024D01*
X11683217Y-16229309D01*
X11697503Y-16257881D01*
X11711789Y-16272167D01*
X11740360Y-16286452D01*
X11797503Y-16286452D01*
X11826074Y-16272167D01*
X11840360Y-16257881D01*
X11854646Y-16229309D01*
X11854646Y-16157881D01*
X11840360Y-16129309D01*
X11826074Y-16115024D01*
X11797503Y-16100738D01*
X11740360Y-16100738D01*
X11711789Y-16115024D01*
X11697503Y-16129309D01*
X11683217Y-16157881D01*
X11968932Y-15986452D02*
X11968932Y-16043595D01*
X12083217Y-15986452D02*
X12083217Y-16043595D01*
X12526074Y-16400738D02*
X12511789Y-16386452D01*
X12483217Y-16343595D01*
X12468932Y-16315024D01*
X12454646Y-16272167D01*
X12440360Y-16200738D01*
X12440360Y-16143595D01*
X12454646Y-16072167D01*
X12468932Y-16029309D01*
X12483217Y-16000738D01*
X12511789Y-15957881D01*
X12526074Y-15943595D01*
X12797503Y-16286452D02*
X12626074Y-16286452D01*
X12711789Y-16286452D02*
X12711789Y-15986452D01*
X12683217Y-16029309D01*
X12654646Y-16057881D01*
X12626074Y-16072167D01*
X13054646Y-16086452D02*
X13054646Y-16286452D01*
X12983217Y-15972167D02*
X12911789Y-16186452D01*
X13097503Y-16186452D01*
X13368932Y-16286452D02*
X13197503Y-16286452D01*
X13283217Y-16286452D02*
X13283217Y-15986452D01*
X13254646Y-16029309D01*
X13226074Y-16057881D01*
X13197503Y-16072167D01*
X13726074Y-16286452D02*
X13726074Y-15986452D01*
X13854646Y-16286452D02*
X13854646Y-16129309D01*
X13840360Y-16100738D01*
X13811789Y-16086452D01*
X13768932Y-16086452D01*
X13740360Y-16100738D01*
X13726074Y-16115024D01*
X14040360Y-16286452D02*
X14011789Y-16272167D01*
X13997503Y-16257881D01*
X13983217Y-16229309D01*
X13983217Y-16143595D01*
X13997503Y-16115024D01*
X14011789Y-16100738D01*
X14040360Y-16086452D01*
X14083217Y-16086452D01*
X14111789Y-16100738D01*
X14126074Y-16115024D01*
X14140360Y-16143595D01*
X14140360Y-16229309D01*
X14126074Y-16257881D01*
X14111789Y-16272167D01*
X14083217Y-16286452D01*
X14040360Y-16286452D01*
X14311789Y-16286452D02*
X14283217Y-16272167D01*
X14268932Y-16243595D01*
X14268932Y-15986452D01*
X14540360Y-16272167D02*
X14511789Y-16286452D01*
X14454646Y-16286452D01*
X14426074Y-16272167D01*
X14411789Y-16243595D01*
X14411789Y-16129309D01*
X14426074Y-16100738D01*
X14454646Y-16086452D01*
X14511789Y-16086452D01*
X14540360Y-16100738D01*
X14554646Y-16129309D01*
X14554646Y-16157881D01*
X14411789Y-16186452D01*
X14668932Y-16272167D02*
X14697503Y-16286452D01*
X14754646Y-16286452D01*
X14783217Y-16272167D01*
X14797503Y-16243595D01*
X14797503Y-16229309D01*
X14783217Y-16200738D01*
X14754646Y-16186452D01*
X14711789Y-16186452D01*
X14683217Y-16172167D01*
X14668932Y-16143595D01*
X14668932Y-16129309D01*
X14683217Y-16100738D01*
X14711789Y-16086452D01*
X14754646Y-16086452D01*
X14783217Y-16100738D01*
X14897503Y-16400738D02*
X14911789Y-16386452D01*
X14940360Y-16343595D01*
X14954646Y-16315024D01*
X14968932Y-16272167D01*
X14983217Y-16200738D01*
X14983217Y-16143595D01*
X14968932Y-16072167D01*
X14954646Y-16029309D01*
X14940360Y-16000738D01*
X14911789Y-15957881D01*
X14897503Y-15943595D01*
X7814646Y-16521738D02*
X7814646Y-16571738D01*
X7789646Y-16546738D02*
X7839646Y-16546738D01*
X8183217Y-16382452D02*
X8211789Y-16382452D01*
X8240360Y-16396738D01*
X8254646Y-16411024D01*
X8268932Y-16439595D01*
X8283217Y-16496738D01*
X8283217Y-16568167D01*
X8268932Y-16625309D01*
X8254646Y-16653881D01*
X8240360Y-16668167D01*
X8211789Y-16682452D01*
X8183217Y-16682452D01*
X8154646Y-16668167D01*
X8140360Y-16653881D01*
X8126074Y-16625309D01*
X8111789Y-16568167D01*
X8111789Y-16496738D01*
X8126074Y-16439595D01*
X8140360Y-16411024D01*
X8154646Y-16396738D01*
X8183217Y-16382452D01*
X8411789Y-16653881D02*
X8426075Y-16668167D01*
X8411789Y-16682452D01*
X8397503Y-16668167D01*
X8411789Y-16653881D01*
X8411789Y-16682452D01*
X8697503Y-16382452D02*
X8554646Y-16382452D01*
X8540360Y-16525309D01*
X8554646Y-16511024D01*
X8583217Y-16496738D01*
X8654646Y-16496738D01*
X8683217Y-16511024D01*
X8697503Y-16525309D01*
X8711789Y-16553881D01*
X8711789Y-16625309D01*
X8697503Y-16653881D01*
X8683217Y-16668167D01*
X8654646Y-16682452D01*
X8583217Y-16682452D01*
X8554646Y-16668167D01*
X8540360Y-16653881D01*
X8897503Y-16382452D02*
X8926075Y-16382452D01*
X8954646Y-16396738D01*
X8968932Y-16411024D01*
X8983217Y-16439595D01*
X8997503Y-16496738D01*
X8997503Y-16568167D01*
X8983217Y-16625309D01*
X8968932Y-16653881D01*
X8954646Y-16668167D01*
X8926075Y-16682452D01*
X8897503Y-16682452D01*
X8868932Y-16668167D01*
X8854646Y-16653881D01*
X8840360Y-16625309D01*
X8826075Y-16568167D01*
X8826075Y-16496738D01*
X8840360Y-16439595D01*
X8854646Y-16411024D01*
X8868932Y-16396738D01*
X8897503Y-16382452D01*
X9126075Y-16682452D02*
X9126075Y-16482452D01*
X9126075Y-16511024D02*
X9140360Y-16496738D01*
X9168932Y-16482452D01*
X9211789Y-16482452D01*
X9240360Y-16496738D01*
X9254646Y-16525309D01*
X9254646Y-16682452D01*
X9254646Y-16525309D02*
X9268932Y-16496738D01*
X9297503Y-16482452D01*
X9340360Y-16482452D01*
X9368932Y-16496738D01*
X9383217Y-16525309D01*
X9383217Y-16682452D01*
X9526075Y-16682452D02*
X9526075Y-16482452D01*
X9526075Y-16511024D02*
X9540360Y-16496738D01*
X9568932Y-16482452D01*
X9611789Y-16482452D01*
X9640360Y-16496738D01*
X9654646Y-16525309D01*
X9654646Y-16682452D01*
X9654646Y-16525309D02*
X9668932Y-16496738D01*
X9697503Y-16482452D01*
X9740360Y-16482452D01*
X9768932Y-16496738D01*
X9783217Y-16525309D01*
X9783217Y-16682452D01*
X10368932Y-16368167D02*
X10111789Y-16753881D01*
X10754646Y-16382452D02*
X10783217Y-16382452D01*
X10811789Y-16396738D01*
X10826075Y-16411024D01*
X10840360Y-16439595D01*
X10854646Y-16496738D01*
X10854646Y-16568167D01*
X10840360Y-16625309D01*
X10826075Y-16653881D01*
X10811789Y-16668167D01*
X10783217Y-16682452D01*
X10754646Y-16682452D01*
X10726075Y-16668167D01*
X10711789Y-16653881D01*
X10697503Y-16625309D01*
X10683217Y-16568167D01*
X10683217Y-16496738D01*
X10697503Y-16439595D01*
X10711789Y-16411024D01*
X10726075Y-16396738D01*
X10754646Y-16382452D01*
X10983217Y-16653881D02*
X10997503Y-16668167D01*
X10983217Y-16682452D01*
X10968932Y-16668167D01*
X10983217Y-16653881D01*
X10983217Y-16682452D01*
X11183217Y-16382452D02*
X11211789Y-16382452D01*
X11240360Y-16396738D01*
X11254646Y-16411024D01*
X11268932Y-16439595D01*
X11283217Y-16496738D01*
X11283217Y-16568167D01*
X11268932Y-16625309D01*
X11254646Y-16653881D01*
X11240360Y-16668167D01*
X11211789Y-16682452D01*
X11183217Y-16682452D01*
X11154646Y-16668167D01*
X11140360Y-16653881D01*
X11126075Y-16625309D01*
X11111789Y-16568167D01*
X11111789Y-16496738D01*
X11126075Y-16439595D01*
X11140360Y-16411024D01*
X11154646Y-16396738D01*
X11183217Y-16382452D01*
X11397503Y-16411024D02*
X11411789Y-16396738D01*
X11440360Y-16382452D01*
X11511789Y-16382452D01*
X11540360Y-16396738D01*
X11554646Y-16411024D01*
X11568932Y-16439595D01*
X11568932Y-16468167D01*
X11554646Y-16511024D01*
X11383217Y-16682452D01*
X11568932Y-16682452D01*
X11754646Y-16382452D02*
X11783217Y-16382452D01*
X11811789Y-16396738D01*
X11826074Y-16411024D01*
X11840360Y-16439595D01*
X11854646Y-16496738D01*
X11854646Y-16568167D01*
X11840360Y-16625309D01*
X11826074Y-16653881D01*
X11811789Y-16668167D01*
X11783217Y-16682452D01*
X11754646Y-16682452D01*
X11726074Y-16668167D01*
X11711789Y-16653881D01*
X11697503Y-16625309D01*
X11683217Y-16568167D01*
X11683217Y-16496738D01*
X11697503Y-16439595D01*
X11711789Y-16411024D01*
X11726074Y-16396738D01*
X11754646Y-16382452D01*
X11968932Y-16382452D02*
X11968932Y-16439595D01*
X12083217Y-16382452D02*
X12083217Y-16439595D01*
X12526074Y-16796738D02*
X12511789Y-16782452D01*
X12483217Y-16739595D01*
X12468932Y-16711024D01*
X12454646Y-16668167D01*
X12440360Y-16596738D01*
X12440360Y-16539595D01*
X12454646Y-16468167D01*
X12468932Y-16425309D01*
X12483217Y-16396738D01*
X12511789Y-16353881D01*
X12526074Y-16339595D01*
X12783217Y-16382452D02*
X12640360Y-16382452D01*
X12626074Y-16525309D01*
X12640360Y-16511024D01*
X12668932Y-16496738D01*
X12740360Y-16496738D01*
X12768932Y-16511024D01*
X12783217Y-16525309D01*
X12797503Y-16553881D01*
X12797503Y-16625309D01*
X12783217Y-16653881D01*
X12768932Y-16668167D01*
X12740360Y-16682452D01*
X12668932Y-16682452D01*
X12640360Y-16668167D01*
X12626074Y-16653881D01*
X13154646Y-16682452D02*
X13154646Y-16382452D01*
X13283217Y-16682452D02*
X13283217Y-16525309D01*
X13268932Y-16496738D01*
X13240360Y-16482452D01*
X13197503Y-16482452D01*
X13168932Y-16496738D01*
X13154646Y-16511024D01*
X13468932Y-16682452D02*
X13440360Y-16668167D01*
X13426074Y-16653881D01*
X13411789Y-16625309D01*
X13411789Y-16539595D01*
X13426074Y-16511024D01*
X13440360Y-16496738D01*
X13468932Y-16482452D01*
X13511789Y-16482452D01*
X13540360Y-16496738D01*
X13554646Y-16511024D01*
X13568932Y-16539595D01*
X13568932Y-16625309D01*
X13554646Y-16653881D01*
X13540360Y-16668167D01*
X13511789Y-16682452D01*
X13468932Y-16682452D01*
X13740360Y-16682452D02*
X13711789Y-16668167D01*
X13697503Y-16639595D01*
X13697503Y-16382452D01*
X13968932Y-16668167D02*
X13940360Y-16682452D01*
X13883217Y-16682452D01*
X13854646Y-16668167D01*
X13840360Y-16639595D01*
X13840360Y-16525309D01*
X13854646Y-16496738D01*
X13883217Y-16482452D01*
X13940360Y-16482452D01*
X13968932Y-16496738D01*
X13983217Y-16525309D01*
X13983217Y-16553881D01*
X13840360Y-16582452D01*
X14097503Y-16668167D02*
X14126074Y-16682452D01*
X14183217Y-16682452D01*
X14211789Y-16668167D01*
X14226074Y-16639595D01*
X14226074Y-16625309D01*
X14211789Y-16596738D01*
X14183217Y-16582452D01*
X14140360Y-16582452D01*
X14111789Y-16568167D01*
X14097503Y-16539595D01*
X14097503Y-16525309D01*
X14111789Y-16496738D01*
X14140360Y-16482452D01*
X14183217Y-16482452D01*
X14211789Y-16496738D01*
X14326074Y-16796738D02*
X14340360Y-16782452D01*
X14368932Y-16739595D01*
X14383217Y-16711024D01*
X14397503Y-16668167D01*
X14411789Y-16596738D01*
X14411789Y-16539595D01*
X14397503Y-16468167D01*
X14383217Y-16425309D01*
X14368932Y-16396738D01*
X14340360Y-16353881D01*
X14326074Y-16339595D01*
X7830859Y-16963952D02*
X7830859Y-16921525D01*
X7788433Y-16921525D01*
X7788433Y-16963952D01*
X7830859Y-16963952D01*
X8183217Y-16778452D02*
X8211789Y-16778452D01*
X8240360Y-16792738D01*
X8254646Y-16807024D01*
X8268932Y-16835595D01*
X8283217Y-16892738D01*
X8283217Y-16964167D01*
X8268932Y-17021310D01*
X8254646Y-17049881D01*
X8240360Y-17064167D01*
X8211789Y-17078452D01*
X8183217Y-17078452D01*
X8154646Y-17064167D01*
X8140360Y-17049881D01*
X8126074Y-17021310D01*
X8111789Y-16964167D01*
X8111789Y-16892738D01*
X8126074Y-16835595D01*
X8140360Y-16807024D01*
X8154646Y-16792738D01*
X8183217Y-16778452D01*
X8411789Y-17049881D02*
X8426075Y-17064167D01*
X8411789Y-17078452D01*
X8397503Y-17064167D01*
X8411789Y-17049881D01*
X8411789Y-17078452D01*
X8683217Y-16778452D02*
X8626075Y-16778452D01*
X8597503Y-16792738D01*
X8583217Y-16807024D01*
X8554646Y-16849881D01*
X8540360Y-16907024D01*
X8540360Y-17021310D01*
X8554646Y-17049881D01*
X8568932Y-17064167D01*
X8597503Y-17078452D01*
X8654646Y-17078452D01*
X8683217Y-17064167D01*
X8697503Y-17049881D01*
X8711789Y-17021310D01*
X8711789Y-16949881D01*
X8697503Y-16921310D01*
X8683217Y-16907024D01*
X8654646Y-16892738D01*
X8597503Y-16892738D01*
X8568932Y-16907024D01*
X8554646Y-16921310D01*
X8540360Y-16949881D01*
X8897503Y-16778452D02*
X8926075Y-16778452D01*
X8954646Y-16792738D01*
X8968932Y-16807024D01*
X8983217Y-16835595D01*
X8997503Y-16892738D01*
X8997503Y-16964167D01*
X8983217Y-17021310D01*
X8968932Y-17049881D01*
X8954646Y-17064167D01*
X8926075Y-17078452D01*
X8897503Y-17078452D01*
X8868932Y-17064167D01*
X8854646Y-17049881D01*
X8840360Y-17021310D01*
X8826075Y-16964167D01*
X8826075Y-16892738D01*
X8840360Y-16835595D01*
X8854646Y-16807024D01*
X8868932Y-16792738D01*
X8897503Y-16778452D01*
X9126075Y-17078452D02*
X9126075Y-16878452D01*
X9126075Y-16907024D02*
X9140360Y-16892738D01*
X9168932Y-16878452D01*
X9211789Y-16878452D01*
X9240360Y-16892738D01*
X9254646Y-16921310D01*
X9254646Y-17078452D01*
X9254646Y-16921310D02*
X9268932Y-16892738D01*
X9297503Y-16878452D01*
X9340360Y-16878452D01*
X9368932Y-16892738D01*
X9383217Y-16921310D01*
X9383217Y-17078452D01*
X9526075Y-17078452D02*
X9526075Y-16878452D01*
X9526075Y-16907024D02*
X9540360Y-16892738D01*
X9568932Y-16878452D01*
X9611789Y-16878452D01*
X9640360Y-16892738D01*
X9654646Y-16921310D01*
X9654646Y-17078452D01*
X9654646Y-16921310D02*
X9668932Y-16892738D01*
X9697503Y-16878452D01*
X9740360Y-16878452D01*
X9768932Y-16892738D01*
X9783217Y-16921310D01*
X9783217Y-17078452D01*
X10368932Y-16764167D02*
X10111789Y-17149881D01*
X10754646Y-16778452D02*
X10783217Y-16778452D01*
X10811789Y-16792738D01*
X10826075Y-16807024D01*
X10840360Y-16835595D01*
X10854646Y-16892738D01*
X10854646Y-16964167D01*
X10840360Y-17021310D01*
X10826075Y-17049881D01*
X10811789Y-17064167D01*
X10783217Y-17078452D01*
X10754646Y-17078452D01*
X10726075Y-17064167D01*
X10711789Y-17049881D01*
X10697503Y-17021310D01*
X10683217Y-16964167D01*
X10683217Y-16892738D01*
X10697503Y-16835595D01*
X10711789Y-16807024D01*
X10726075Y-16792738D01*
X10754646Y-16778452D01*
X10983217Y-17049881D02*
X10997503Y-17064167D01*
X10983217Y-17078452D01*
X10968932Y-17064167D01*
X10983217Y-17049881D01*
X10983217Y-17078452D01*
X11183217Y-16778452D02*
X11211789Y-16778452D01*
X11240360Y-16792738D01*
X11254646Y-16807024D01*
X11268932Y-16835595D01*
X11283217Y-16892738D01*
X11283217Y-16964167D01*
X11268932Y-17021310D01*
X11254646Y-17049881D01*
X11240360Y-17064167D01*
X11211789Y-17078452D01*
X11183217Y-17078452D01*
X11154646Y-17064167D01*
X11140360Y-17049881D01*
X11126075Y-17021310D01*
X11111789Y-16964167D01*
X11111789Y-16892738D01*
X11126075Y-16835595D01*
X11140360Y-16807024D01*
X11154646Y-16792738D01*
X11183217Y-16778452D01*
X11397503Y-16807024D02*
X11411789Y-16792738D01*
X11440360Y-16778452D01*
X11511789Y-16778452D01*
X11540360Y-16792738D01*
X11554646Y-16807024D01*
X11568932Y-16835595D01*
X11568932Y-16864167D01*
X11554646Y-16907024D01*
X11383217Y-17078452D01*
X11568932Y-17078452D01*
X11826074Y-16878452D02*
X11826074Y-17078452D01*
X11754646Y-16764167D02*
X11683217Y-16978452D01*
X11868932Y-16978452D01*
X11968932Y-16778452D02*
X11968932Y-16835595D01*
X12083217Y-16778452D02*
X12083217Y-16835595D01*
X12526074Y-17192738D02*
X12511789Y-17178452D01*
X12483217Y-17135595D01*
X12468932Y-17107024D01*
X12454646Y-17064167D01*
X12440360Y-16992738D01*
X12440360Y-16935595D01*
X12454646Y-16864167D01*
X12468932Y-16821310D01*
X12483217Y-16792738D01*
X12511789Y-16749881D01*
X12526074Y-16735595D01*
X12611789Y-16778452D02*
X12811789Y-16778452D01*
X12683217Y-17078452D01*
X12983217Y-16778452D02*
X13011789Y-16778452D01*
X13040360Y-16792738D01*
X13054646Y-16807024D01*
X13068932Y-16835595D01*
X13083217Y-16892738D01*
X13083217Y-16964167D01*
X13068932Y-17021310D01*
X13054646Y-17049881D01*
X13040360Y-17064167D01*
X13011789Y-17078452D01*
X12983217Y-17078452D01*
X12954646Y-17064167D01*
X12940360Y-17049881D01*
X12926074Y-17021310D01*
X12911789Y-16964167D01*
X12911789Y-16892738D01*
X12926074Y-16835595D01*
X12940360Y-16807024D01*
X12954646Y-16792738D01*
X12983217Y-16778452D01*
X13440360Y-17078452D02*
X13440360Y-16778452D01*
X13568932Y-17078452D02*
X13568932Y-16921310D01*
X13554646Y-16892738D01*
X13526074Y-16878452D01*
X13483217Y-16878452D01*
X13454646Y-16892738D01*
X13440360Y-16907024D01*
X13754646Y-17078452D02*
X13726074Y-17064167D01*
X13711789Y-17049881D01*
X13697503Y-17021310D01*
X13697503Y-16935595D01*
X13711789Y-16907024D01*
X13726074Y-16892738D01*
X13754646Y-16878452D01*
X13797503Y-16878452D01*
X13826074Y-16892738D01*
X13840360Y-16907024D01*
X13854646Y-16935595D01*
X13854646Y-17021310D01*
X13840360Y-17049881D01*
X13826074Y-17064167D01*
X13797503Y-17078452D01*
X13754646Y-17078452D01*
X14026074Y-17078452D02*
X13997503Y-17064167D01*
X13983217Y-17035595D01*
X13983217Y-16778452D01*
X14254646Y-17064167D02*
X14226074Y-17078452D01*
X14168932Y-17078452D01*
X14140360Y-17064167D01*
X14126074Y-17035595D01*
X14126074Y-16921310D01*
X14140360Y-16892738D01*
X14168932Y-16878452D01*
X14226074Y-16878452D01*
X14254646Y-16892738D01*
X14268932Y-16921310D01*
X14268932Y-16949881D01*
X14126074Y-16978452D01*
X14383217Y-17064167D02*
X14411789Y-17078452D01*
X14468932Y-17078452D01*
X14497503Y-17064167D01*
X14511789Y-17035595D01*
X14511789Y-17021310D01*
X14497503Y-16992738D01*
X14468932Y-16978452D01*
X14426074Y-16978452D01*
X14397503Y-16964167D01*
X14383217Y-16935595D01*
X14383217Y-16921310D01*
X14397503Y-16892738D01*
X14426074Y-16878452D01*
X14468932Y-16878452D01*
X14497503Y-16892738D01*
X14611789Y-17192738D02*
X14626074Y-17178452D01*
X14654646Y-17135595D01*
X14668932Y-17107024D01*
X14683217Y-17064167D01*
X14697503Y-16992738D01*
X14697503Y-16935595D01*
X14683217Y-16864167D01*
X14668932Y-16821310D01*
X14654646Y-16792738D01*
X14626074Y-16749881D01*
X14611789Y-16735595D01*
X7789646Y-17388738D02*
X7839646Y-17338738D01*
X7789646Y-17288738D01*
X7739646Y-17338738D01*
X7789646Y-17388738D01*
X8283217Y-17474452D02*
X8111789Y-17474452D01*
X8197503Y-17474452D02*
X8197503Y-17174452D01*
X8168932Y-17217310D01*
X8140360Y-17245881D01*
X8111789Y-17260167D01*
X8411789Y-17445881D02*
X8426075Y-17460167D01*
X8411789Y-17474452D01*
X8397503Y-17460167D01*
X8411789Y-17445881D01*
X8411789Y-17474452D01*
X8611789Y-17174452D02*
X8640360Y-17174452D01*
X8668932Y-17188738D01*
X8683217Y-17203024D01*
X8697503Y-17231595D01*
X8711789Y-17288738D01*
X8711789Y-17360167D01*
X8697503Y-17417310D01*
X8683217Y-17445881D01*
X8668932Y-17460167D01*
X8640360Y-17474452D01*
X8611789Y-17474452D01*
X8583217Y-17460167D01*
X8568932Y-17445881D01*
X8554646Y-17417310D01*
X8540360Y-17360167D01*
X8540360Y-17288738D01*
X8554646Y-17231595D01*
X8568932Y-17203024D01*
X8583217Y-17188738D01*
X8611789Y-17174452D01*
X8897503Y-17174452D02*
X8926075Y-17174452D01*
X8954646Y-17188738D01*
X8968932Y-17203024D01*
X8983217Y-17231595D01*
X8997503Y-17288738D01*
X8997503Y-17360167D01*
X8983217Y-17417310D01*
X8968932Y-17445881D01*
X8954646Y-17460167D01*
X8926075Y-17474452D01*
X8897503Y-17474452D01*
X8868932Y-17460167D01*
X8854646Y-17445881D01*
X8840360Y-17417310D01*
X8826075Y-17360167D01*
X8826075Y-17288738D01*
X8840360Y-17231595D01*
X8854646Y-17203024D01*
X8868932Y-17188738D01*
X8897503Y-17174452D01*
X9126075Y-17474452D02*
X9126075Y-17274452D01*
X9126075Y-17303024D02*
X9140360Y-17288738D01*
X9168932Y-17274452D01*
X9211789Y-17274452D01*
X9240360Y-17288738D01*
X9254646Y-17317310D01*
X9254646Y-17474452D01*
X9254646Y-17317310D02*
X9268932Y-17288738D01*
X9297503Y-17274452D01*
X9340360Y-17274452D01*
X9368932Y-17288738D01*
X9383217Y-17317310D01*
X9383217Y-17474452D01*
X9526075Y-17474452D02*
X9526075Y-17274452D01*
X9526075Y-17303024D02*
X9540360Y-17288738D01*
X9568932Y-17274452D01*
X9611789Y-17274452D01*
X9640360Y-17288738D01*
X9654646Y-17317310D01*
X9654646Y-17474452D01*
X9654646Y-17317310D02*
X9668932Y-17288738D01*
X9697503Y-17274452D01*
X9740360Y-17274452D01*
X9768932Y-17288738D01*
X9783217Y-17317310D01*
X9783217Y-17474452D01*
X10368932Y-17160167D02*
X10111789Y-17545881D01*
X10754646Y-17174452D02*
X10783217Y-17174452D01*
X10811789Y-17188738D01*
X10826075Y-17203024D01*
X10840360Y-17231595D01*
X10854646Y-17288738D01*
X10854646Y-17360167D01*
X10840360Y-17417310D01*
X10826075Y-17445881D01*
X10811789Y-17460167D01*
X10783217Y-17474452D01*
X10754646Y-17474452D01*
X10726075Y-17460167D01*
X10711789Y-17445881D01*
X10697503Y-17417310D01*
X10683217Y-17360167D01*
X10683217Y-17288738D01*
X10697503Y-17231595D01*
X10711789Y-17203024D01*
X10726075Y-17188738D01*
X10754646Y-17174452D01*
X10983217Y-17445881D02*
X10997503Y-17460167D01*
X10983217Y-17474452D01*
X10968932Y-17460167D01*
X10983217Y-17445881D01*
X10983217Y-17474452D01*
X11183217Y-17174452D02*
X11211789Y-17174452D01*
X11240360Y-17188738D01*
X11254646Y-17203024D01*
X11268932Y-17231595D01*
X11283217Y-17288738D01*
X11283217Y-17360167D01*
X11268932Y-17417310D01*
X11254646Y-17445881D01*
X11240360Y-17460167D01*
X11211789Y-17474452D01*
X11183217Y-17474452D01*
X11154646Y-17460167D01*
X11140360Y-17445881D01*
X11126075Y-17417310D01*
X11111789Y-17360167D01*
X11111789Y-17288738D01*
X11126075Y-17231595D01*
X11140360Y-17203024D01*
X11154646Y-17188738D01*
X11183217Y-17174452D01*
X11383217Y-17174452D02*
X11568932Y-17174452D01*
X11468932Y-17288738D01*
X11511789Y-17288738D01*
X11540360Y-17303024D01*
X11554646Y-17317310D01*
X11568932Y-17345881D01*
X11568932Y-17417310D01*
X11554646Y-17445881D01*
X11540360Y-17460167D01*
X11511789Y-17474452D01*
X11426074Y-17474452D01*
X11397503Y-17460167D01*
X11383217Y-17445881D01*
X11711789Y-17474452D02*
X11768932Y-17474452D01*
X11797503Y-17460167D01*
X11811789Y-17445881D01*
X11840360Y-17403024D01*
X11854646Y-17345881D01*
X11854646Y-17231595D01*
X11840360Y-17203024D01*
X11826074Y-17188738D01*
X11797503Y-17174452D01*
X11740360Y-17174452D01*
X11711789Y-17188738D01*
X11697503Y-17203024D01*
X11683217Y-17231595D01*
X11683217Y-17303024D01*
X11697503Y-17331595D01*
X11711789Y-17345881D01*
X11740360Y-17360167D01*
X11797503Y-17360167D01*
X11826074Y-17345881D01*
X11840360Y-17331595D01*
X11854646Y-17303024D01*
X11968932Y-17174452D02*
X11968932Y-17231595D01*
X12083217Y-17174452D02*
X12083217Y-17231595D01*
X12526074Y-17588738D02*
X12511789Y-17574452D01*
X12483217Y-17531595D01*
X12468932Y-17503024D01*
X12454646Y-17460167D01*
X12440360Y-17388738D01*
X12440360Y-17331595D01*
X12454646Y-17260167D01*
X12468932Y-17217310D01*
X12483217Y-17188738D01*
X12511789Y-17145881D01*
X12526074Y-17131595D01*
X12768932Y-17274452D02*
X12768932Y-17474452D01*
X12697503Y-17160167D02*
X12626074Y-17374452D01*
X12811789Y-17374452D01*
X12983217Y-17174452D02*
X13011789Y-17174452D01*
X13040360Y-17188738D01*
X13054646Y-17203024D01*
X13068932Y-17231595D01*
X13083217Y-17288738D01*
X13083217Y-17360167D01*
X13068932Y-17417310D01*
X13054646Y-17445881D01*
X13040360Y-17460167D01*
X13011789Y-17474452D01*
X12983217Y-17474452D01*
X12954646Y-17460167D01*
X12940360Y-17445881D01*
X12926074Y-17417310D01*
X12911789Y-17360167D01*
X12911789Y-17288738D01*
X12926074Y-17231595D01*
X12940360Y-17203024D01*
X12954646Y-17188738D01*
X12983217Y-17174452D01*
X13440360Y-17474452D02*
X13440360Y-17174452D01*
X13568932Y-17474452D02*
X13568932Y-17317310D01*
X13554646Y-17288738D01*
X13526074Y-17274452D01*
X13483217Y-17274452D01*
X13454646Y-17288738D01*
X13440360Y-17303024D01*
X13754646Y-17474452D02*
X13726074Y-17460167D01*
X13711789Y-17445881D01*
X13697503Y-17417310D01*
X13697503Y-17331595D01*
X13711789Y-17303024D01*
X13726074Y-17288738D01*
X13754646Y-17274452D01*
X13797503Y-17274452D01*
X13826074Y-17288738D01*
X13840360Y-17303024D01*
X13854646Y-17331595D01*
X13854646Y-17417310D01*
X13840360Y-17445881D01*
X13826074Y-17460167D01*
X13797503Y-17474452D01*
X13754646Y-17474452D01*
X14026074Y-17474452D02*
X13997503Y-17460167D01*
X13983217Y-17431595D01*
X13983217Y-17174452D01*
X14254646Y-17460167D02*
X14226074Y-17474452D01*
X14168932Y-17474452D01*
X14140360Y-17460167D01*
X14126074Y-17431595D01*
X14126074Y-17317310D01*
X14140360Y-17288738D01*
X14168932Y-17274452D01*
X14226074Y-17274452D01*
X14254646Y-17288738D01*
X14268932Y-17317310D01*
X14268932Y-17345881D01*
X14126074Y-17374452D01*
X14383217Y-17460167D02*
X14411789Y-17474452D01*
X14468932Y-17474452D01*
X14497503Y-17460167D01*
X14511789Y-17431595D01*
X14511789Y-17417310D01*
X14497503Y-17388738D01*
X14468932Y-17374452D01*
X14426074Y-17374452D01*
X14397503Y-17360167D01*
X14383217Y-17331595D01*
X14383217Y-17317310D01*
X14397503Y-17288738D01*
X14426074Y-17274452D01*
X14468932Y-17274452D01*
X14497503Y-17288738D01*
X14611789Y-17588738D02*
X14626074Y-17574452D01*
X14654646Y-17531595D01*
X14668932Y-17503024D01*
X14683217Y-17460167D01*
X14697503Y-17388738D01*
X14697503Y-17331595D01*
X14683217Y-17260167D01*
X14668932Y-17217310D01*
X14654646Y-17188738D01*
X14626074Y-17145881D01*
X14611789Y-17131595D01*
M02*
