%TF.GenerationSoftware,KiCad,Pcbnew,5.1.5+dfsg1-2build2*%
%TF.CreationDate,2021-02-28T15:53:15+02:00*%
%TF.ProjectId,msisdr,6d736973-6472-42e6-9b69-6361645f7063,Version 1.0*%
%TF.SameCoordinates,Original*%
%TF.FileFunction,Legend,Top*%
%TF.FilePolarity,Positive*%
%FSLAX46Y46*%
G04 Gerber Fmt 4.6, Leading zero omitted, Abs format (unit mm)*
G04 Created by KiCad (PCBNEW 5.1.5+dfsg1-2build2) date 2021-02-28 15:53:15*
%MOMM*%
%LPD*%
G04 APERTURE LIST*
%ADD10C,0.150000*%
%ADD11C,0.120000*%
%ADD12C,0.200000*%
G04 APERTURE END LIST*
D10*
X166025700Y-128537900D02*
X165882842Y-128823614D01*
X165882842Y-129252185D01*
X166025700Y-129680757D01*
X166311414Y-129966471D01*
X166597128Y-130109328D01*
X167168557Y-130252185D01*
X167597128Y-130252185D01*
X168168557Y-130109328D01*
X168454271Y-129966471D01*
X168739985Y-129680757D01*
X168882842Y-129252185D01*
X168882842Y-128966471D01*
X168739985Y-128537900D01*
X168597128Y-128395042D01*
X167597128Y-128395042D01*
X167597128Y-128966471D01*
X168882842Y-127109328D02*
X166882842Y-127109328D01*
X165882842Y-127109328D02*
X166025700Y-127252185D01*
X166168557Y-127109328D01*
X166025700Y-126966471D01*
X165882842Y-127109328D01*
X166168557Y-127109328D01*
X166882842Y-124395042D02*
X169311414Y-124395042D01*
X169597128Y-124537900D01*
X169739985Y-124680757D01*
X169882842Y-124966471D01*
X169882842Y-125395042D01*
X169739985Y-125680757D01*
X168739985Y-124395042D02*
X168882842Y-124680757D01*
X168882842Y-125252185D01*
X168739985Y-125537900D01*
X168597128Y-125680757D01*
X168311414Y-125823614D01*
X167454271Y-125823614D01*
X167168557Y-125680757D01*
X167025700Y-125537900D01*
X166882842Y-125252185D01*
X166882842Y-124680757D01*
X167025700Y-124395042D01*
X168882842Y-121680757D02*
X167311414Y-121680757D01*
X167025700Y-121823614D01*
X166882842Y-122109328D01*
X166882842Y-122680757D01*
X167025700Y-122966471D01*
X168739985Y-121680757D02*
X168882842Y-121966471D01*
X168882842Y-122680757D01*
X168739985Y-122966471D01*
X168454271Y-123109328D01*
X168168557Y-123109328D01*
X167882842Y-122966471D01*
X167739985Y-122680757D01*
X167739985Y-121966471D01*
X167597128Y-121680757D01*
X165882842Y-120680757D02*
X165882842Y-118966471D01*
X168882842Y-119823614D02*
X165882842Y-119823614D01*
X168739985Y-116823614D02*
X168882842Y-117109328D01*
X168882842Y-117680757D01*
X168739985Y-117966471D01*
X168454271Y-118109328D01*
X167311414Y-118109328D01*
X167025700Y-117966471D01*
X166882842Y-117680757D01*
X166882842Y-117109328D01*
X167025700Y-116823614D01*
X167311414Y-116680757D01*
X167597128Y-116680757D01*
X167882842Y-118109328D01*
X168739985Y-114109328D02*
X168882842Y-114395042D01*
X168882842Y-114966471D01*
X168739985Y-115252185D01*
X168597128Y-115395042D01*
X168311414Y-115537900D01*
X167454271Y-115537900D01*
X167168557Y-115395042D01*
X167025700Y-115252185D01*
X166882842Y-114966471D01*
X166882842Y-114395042D01*
X167025700Y-114109328D01*
X168882842Y-112823614D02*
X165882842Y-112823614D01*
X168882842Y-111537900D02*
X167311414Y-111537900D01*
X167025700Y-111680757D01*
X166882842Y-111966471D01*
X166882842Y-112395042D01*
X167025700Y-112680757D01*
X167168557Y-112823614D01*
X166882842Y-110109328D02*
X168882842Y-110109328D01*
X167168557Y-110109328D02*
X167025700Y-109966471D01*
X166882842Y-109680757D01*
X166882842Y-109252185D01*
X167025700Y-108966471D01*
X167311414Y-108823614D01*
X168882842Y-108823614D01*
X168882842Y-106966471D02*
X168739985Y-107252185D01*
X168597128Y-107395042D01*
X168311414Y-107537900D01*
X167454271Y-107537900D01*
X167168557Y-107395042D01*
X167025700Y-107252185D01*
X166882842Y-106966471D01*
X166882842Y-106537900D01*
X167025700Y-106252185D01*
X167168557Y-106109328D01*
X167454271Y-105966471D01*
X168311414Y-105966471D01*
X168597128Y-106109328D01*
X168739985Y-106252185D01*
X168882842Y-106537900D01*
X168882842Y-106966471D01*
X168882842Y-104252185D02*
X168739985Y-104537900D01*
X168454271Y-104680757D01*
X165882842Y-104680757D01*
X168882842Y-102680757D02*
X168739985Y-102966471D01*
X168597128Y-103109328D01*
X168311414Y-103252185D01*
X167454271Y-103252185D01*
X167168557Y-103109328D01*
X167025700Y-102966471D01*
X166882842Y-102680757D01*
X166882842Y-102252185D01*
X167025700Y-101966471D01*
X167168557Y-101823614D01*
X167454271Y-101680757D01*
X168311414Y-101680757D01*
X168597128Y-101823614D01*
X168739985Y-101966471D01*
X168882842Y-102252185D01*
X168882842Y-102680757D01*
X166882842Y-99109328D02*
X169311414Y-99109328D01*
X169597128Y-99252185D01*
X169739985Y-99395042D01*
X169882842Y-99680757D01*
X169882842Y-100109328D01*
X169739985Y-100395042D01*
X168739985Y-99109328D02*
X168882842Y-99395042D01*
X168882842Y-99966471D01*
X168739985Y-100252185D01*
X168597128Y-100395042D01*
X168311414Y-100537900D01*
X167454271Y-100537900D01*
X167168557Y-100395042D01*
X167025700Y-100252185D01*
X166882842Y-99966471D01*
X166882842Y-99395042D01*
X167025700Y-99109328D01*
X166882842Y-97966471D02*
X168882842Y-97252185D01*
X166882842Y-96537900D02*
X168882842Y-97252185D01*
X169597128Y-97537900D01*
X169739985Y-97680757D01*
X169882842Y-97966471D01*
X165739985Y-90966471D02*
X169597128Y-93537900D01*
X168025700Y-87823614D02*
X168025700Y-86395042D01*
X168882842Y-88109328D02*
X165882842Y-87109328D01*
X168882842Y-86109328D01*
X168882842Y-85109328D02*
X165882842Y-85109328D01*
X168025700Y-84109328D01*
X165882842Y-83109328D01*
X168882842Y-83109328D01*
X168739985Y-81823614D02*
X168882842Y-81395042D01*
X168882842Y-80680757D01*
X168739985Y-80395042D01*
X168597128Y-80252185D01*
X168311414Y-80109328D01*
X168025700Y-80109328D01*
X167739985Y-80252185D01*
X167597128Y-80395042D01*
X167454271Y-80680757D01*
X167311414Y-81252185D01*
X167168557Y-81537900D01*
X167025700Y-81680757D01*
X166739985Y-81823614D01*
X166454271Y-81823614D01*
X166168557Y-81680757D01*
X166025700Y-81537900D01*
X165882842Y-81252185D01*
X165882842Y-80537900D01*
X166025700Y-80109328D01*
X168025700Y-78966471D02*
X168025700Y-77537900D01*
X168882842Y-79252185D02*
X165882842Y-78252185D01*
X168882842Y-77252185D01*
X165882842Y-76680757D02*
X165882842Y-74966471D01*
X168882842Y-75823614D02*
X165882842Y-75823614D01*
X168739985Y-74109328D02*
X168882842Y-73680757D01*
X168882842Y-72966471D01*
X168739985Y-72680757D01*
X168597128Y-72537900D01*
X168311414Y-72395042D01*
X168025700Y-72395042D01*
X167739985Y-72537900D01*
X167597128Y-72680757D01*
X167454271Y-72966471D01*
X167311414Y-73537900D01*
X167168557Y-73823614D01*
X167025700Y-73966471D01*
X166739985Y-74109328D01*
X166454271Y-74109328D01*
X166168557Y-73966471D01*
X166025700Y-73823614D01*
X165882842Y-73537900D01*
X165882842Y-72823614D01*
X166025700Y-72395042D01*
X168025700Y-71252185D02*
X168025700Y-69823614D01*
X168882842Y-71537900D02*
X165882842Y-70537900D01*
X168882842Y-69537900D01*
X82301371Y-141198080D02*
X82396609Y-141198080D01*
X82491847Y-141245700D01*
X82539466Y-141293319D01*
X82587085Y-141388557D01*
X82634704Y-141579033D01*
X82634704Y-141817128D01*
X82587085Y-142007604D01*
X82539466Y-142102842D01*
X82491847Y-142150461D01*
X82396609Y-142198080D01*
X82301371Y-142198080D01*
X82206133Y-142150461D01*
X82158514Y-142102842D01*
X82110895Y-142007604D01*
X82063276Y-141817128D01*
X82063276Y-141579033D01*
X82110895Y-141388557D01*
X82158514Y-141293319D01*
X82206133Y-141245700D01*
X82301371Y-141198080D01*
X83587085Y-142198080D02*
X83015657Y-142198080D01*
X83301371Y-142198080D02*
X83301371Y-141198080D01*
X83206133Y-141340938D01*
X83110895Y-141436176D01*
X83015657Y-141483795D01*
X86920419Y-141198080D02*
X87491847Y-141198080D01*
X87206133Y-142198080D02*
X87206133Y-141198080D01*
X87825180Y-142198080D02*
X87825180Y-141531414D01*
X87825180Y-141721890D02*
X87872800Y-141626652D01*
X87920419Y-141579033D01*
X88015657Y-141531414D01*
X88110895Y-141531414D01*
X88872800Y-142198080D02*
X88872800Y-141674271D01*
X88825180Y-141579033D01*
X88729942Y-141531414D01*
X88539466Y-141531414D01*
X88444228Y-141579033D01*
X88872800Y-142150461D02*
X88777561Y-142198080D01*
X88539466Y-142198080D01*
X88444228Y-142150461D01*
X88396609Y-142055223D01*
X88396609Y-141959985D01*
X88444228Y-141864747D01*
X88539466Y-141817128D01*
X88777561Y-141817128D01*
X88872800Y-141769509D01*
X89348990Y-141531414D02*
X89348990Y-142198080D01*
X89348990Y-141626652D02*
X89396609Y-141579033D01*
X89491847Y-141531414D01*
X89634704Y-141531414D01*
X89729942Y-141579033D01*
X89777561Y-141674271D01*
X89777561Y-142198080D01*
X90206133Y-142150461D02*
X90301371Y-142198080D01*
X90491847Y-142198080D01*
X90587085Y-142150461D01*
X90634704Y-142055223D01*
X90634704Y-142007604D01*
X90587085Y-141912366D01*
X90491847Y-141864747D01*
X90348990Y-141864747D01*
X90253752Y-141817128D01*
X90206133Y-141721890D01*
X90206133Y-141674271D01*
X90253752Y-141579033D01*
X90348990Y-141531414D01*
X90491847Y-141531414D01*
X90587085Y-141579033D01*
X91063276Y-141531414D02*
X91063276Y-142531414D01*
X91063276Y-141579033D02*
X91158514Y-141531414D01*
X91348990Y-141531414D01*
X91444228Y-141579033D01*
X91491847Y-141626652D01*
X91539466Y-141721890D01*
X91539466Y-142007604D01*
X91491847Y-142102842D01*
X91444228Y-142150461D01*
X91348990Y-142198080D01*
X91158514Y-142198080D01*
X91063276Y-142150461D01*
X92110895Y-142198080D02*
X92015657Y-142150461D01*
X91968038Y-142102842D01*
X91920419Y-142007604D01*
X91920419Y-141721890D01*
X91968038Y-141626652D01*
X92015657Y-141579033D01*
X92110895Y-141531414D01*
X92253752Y-141531414D01*
X92348990Y-141579033D01*
X92396609Y-141626652D01*
X92444228Y-141721890D01*
X92444228Y-142007604D01*
X92396609Y-142102842D01*
X92348990Y-142150461D01*
X92253752Y-142198080D01*
X92110895Y-142198080D01*
X92872800Y-141531414D02*
X92872800Y-142198080D01*
X92872800Y-141626652D02*
X92920419Y-141579033D01*
X93015657Y-141531414D01*
X93158514Y-141531414D01*
X93253752Y-141579033D01*
X93301371Y-141674271D01*
X93301371Y-142198080D01*
X94206133Y-142198080D02*
X94206133Y-141198080D01*
X94206133Y-142150461D02*
X94110895Y-142198080D01*
X93920419Y-142198080D01*
X93825180Y-142150461D01*
X93777561Y-142102842D01*
X93729942Y-142007604D01*
X93729942Y-141721890D01*
X93777561Y-141626652D01*
X93825180Y-141579033D01*
X93920419Y-141531414D01*
X94110895Y-141531414D01*
X94206133Y-141579033D01*
X95063276Y-142150461D02*
X94968038Y-142198080D01*
X94777561Y-142198080D01*
X94682323Y-142150461D01*
X94634704Y-142055223D01*
X94634704Y-141674271D01*
X94682323Y-141579033D01*
X94777561Y-141531414D01*
X94968038Y-141531414D01*
X95063276Y-141579033D01*
X95110895Y-141674271D01*
X95110895Y-141769509D01*
X94634704Y-141864747D01*
X95539466Y-142198080D02*
X95539466Y-141531414D01*
X95539466Y-141721890D02*
X95587085Y-141626652D01*
X95634704Y-141579033D01*
X95729942Y-141531414D01*
X95825180Y-141531414D01*
X97110895Y-141198080D02*
X97301371Y-141198080D01*
X97396609Y-141245700D01*
X97491847Y-141340938D01*
X97539466Y-141531414D01*
X97539466Y-141864747D01*
X97491847Y-142055223D01*
X97396609Y-142150461D01*
X97301371Y-142198080D01*
X97110895Y-142198080D01*
X97015657Y-142150461D01*
X96920419Y-142055223D01*
X96872800Y-141864747D01*
X96872800Y-141531414D01*
X96920419Y-141340938D01*
X97015657Y-141245700D01*
X97110895Y-141198080D01*
X97968038Y-142198080D02*
X97968038Y-141198080D01*
X98539466Y-142198080D01*
X98539466Y-141198080D01*
X82634704Y-143848080D02*
X82063276Y-143848080D01*
X82348990Y-143848080D02*
X82348990Y-142848080D01*
X82253752Y-142990938D01*
X82158514Y-143086176D01*
X82063276Y-143133795D01*
X83253752Y-142848080D02*
X83348990Y-142848080D01*
X83444228Y-142895700D01*
X83491847Y-142943319D01*
X83539466Y-143038557D01*
X83587085Y-143229033D01*
X83587085Y-143467128D01*
X83539466Y-143657604D01*
X83491847Y-143752842D01*
X83444228Y-143800461D01*
X83348990Y-143848080D01*
X83253752Y-143848080D01*
X83158514Y-143800461D01*
X83110895Y-143752842D01*
X83063276Y-143657604D01*
X83015657Y-143467128D01*
X83015657Y-143229033D01*
X83063276Y-143038557D01*
X83110895Y-142943319D01*
X83158514Y-142895700D01*
X83253752Y-142848080D01*
X87396609Y-143324271D02*
X87539466Y-143371890D01*
X87587085Y-143419509D01*
X87634704Y-143514747D01*
X87634704Y-143657604D01*
X87587085Y-143752842D01*
X87539466Y-143800461D01*
X87444228Y-143848080D01*
X87063276Y-143848080D01*
X87063276Y-142848080D01*
X87396609Y-142848080D01*
X87491847Y-142895700D01*
X87539466Y-142943319D01*
X87587085Y-143038557D01*
X87587085Y-143133795D01*
X87539466Y-143229033D01*
X87491847Y-143276652D01*
X87396609Y-143324271D01*
X87063276Y-143324271D01*
X88444228Y-143800461D02*
X88348990Y-143848080D01*
X88158514Y-143848080D01*
X88063276Y-143800461D01*
X88015657Y-143705223D01*
X88015657Y-143324271D01*
X88063276Y-143229033D01*
X88158514Y-143181414D01*
X88348990Y-143181414D01*
X88444228Y-143229033D01*
X88491847Y-143324271D01*
X88491847Y-143419509D01*
X88015657Y-143514747D01*
X89348990Y-143848080D02*
X89348990Y-143324271D01*
X89301371Y-143229033D01*
X89206133Y-143181414D01*
X89015657Y-143181414D01*
X88920419Y-143229033D01*
X89348990Y-143800461D02*
X89253752Y-143848080D01*
X89015657Y-143848080D01*
X88920419Y-143800461D01*
X88872800Y-143705223D01*
X88872800Y-143609985D01*
X88920419Y-143514747D01*
X89015657Y-143467128D01*
X89253752Y-143467128D01*
X89348990Y-143419509D01*
X90253752Y-143800461D02*
X90158514Y-143848080D01*
X89968038Y-143848080D01*
X89872800Y-143800461D01*
X89825180Y-143752842D01*
X89777561Y-143657604D01*
X89777561Y-143371890D01*
X89825180Y-143276652D01*
X89872800Y-143229033D01*
X89968038Y-143181414D01*
X90158514Y-143181414D01*
X90253752Y-143229033D01*
X90825180Y-143848080D02*
X90729942Y-143800461D01*
X90682323Y-143752842D01*
X90634704Y-143657604D01*
X90634704Y-143371890D01*
X90682323Y-143276652D01*
X90729942Y-143229033D01*
X90825180Y-143181414D01*
X90968038Y-143181414D01*
X91063276Y-143229033D01*
X91110895Y-143276652D01*
X91158514Y-143371890D01*
X91158514Y-143657604D01*
X91110895Y-143752842D01*
X91063276Y-143800461D01*
X90968038Y-143848080D01*
X90825180Y-143848080D01*
X91587085Y-143181414D02*
X91587085Y-143848080D01*
X91587085Y-143276652D02*
X91634704Y-143229033D01*
X91729942Y-143181414D01*
X91872800Y-143181414D01*
X91968038Y-143229033D01*
X92015657Y-143324271D01*
X92015657Y-143848080D01*
X93444228Y-142848080D02*
X93634704Y-142848080D01*
X93729942Y-142895700D01*
X93825180Y-142990938D01*
X93872800Y-143181414D01*
X93872800Y-143514747D01*
X93825180Y-143705223D01*
X93729942Y-143800461D01*
X93634704Y-143848080D01*
X93444228Y-143848080D01*
X93348990Y-143800461D01*
X93253752Y-143705223D01*
X93206133Y-143514747D01*
X93206133Y-143181414D01*
X93253752Y-142990938D01*
X93348990Y-142895700D01*
X93444228Y-142848080D01*
X94301371Y-143848080D02*
X94301371Y-142848080D01*
X94872800Y-143848080D01*
X94872800Y-142848080D01*
X82634704Y-145498080D02*
X82063276Y-145498080D01*
X82348990Y-145498080D02*
X82348990Y-144498080D01*
X82253752Y-144640938D01*
X82158514Y-144736176D01*
X82063276Y-144783795D01*
X83587085Y-145498080D02*
X83015657Y-145498080D01*
X83301371Y-145498080D02*
X83301371Y-144498080D01*
X83206133Y-144640938D01*
X83110895Y-144736176D01*
X83015657Y-144783795D01*
X87539466Y-145498080D02*
X87063276Y-145498080D01*
X87063276Y-144498080D01*
X88015657Y-145498080D02*
X87920419Y-145450461D01*
X87872800Y-145402842D01*
X87825180Y-145307604D01*
X87825180Y-145021890D01*
X87872800Y-144926652D01*
X87920419Y-144879033D01*
X88015657Y-144831414D01*
X88158514Y-144831414D01*
X88253752Y-144879033D01*
X88301371Y-144926652D01*
X88348990Y-145021890D01*
X88348990Y-145307604D01*
X88301371Y-145402842D01*
X88253752Y-145450461D01*
X88158514Y-145498080D01*
X88015657Y-145498080D01*
X88682323Y-144831414D02*
X88872800Y-145498080D01*
X89063276Y-145021890D01*
X89253752Y-145498080D01*
X89444228Y-144831414D01*
X89825180Y-145117128D02*
X90587085Y-145117128D01*
X91063276Y-145498080D02*
X91063276Y-144498080D01*
X91444228Y-144498080D01*
X91539466Y-144545700D01*
X91587085Y-144593319D01*
X91634704Y-144688557D01*
X91634704Y-144831414D01*
X91587085Y-144926652D01*
X91539466Y-144974271D01*
X91444228Y-145021890D01*
X91063276Y-145021890D01*
X92206133Y-145498080D02*
X92110895Y-145450461D01*
X92063276Y-145402842D01*
X92015657Y-145307604D01*
X92015657Y-145021890D01*
X92063276Y-144926652D01*
X92110895Y-144879033D01*
X92206133Y-144831414D01*
X92348990Y-144831414D01*
X92444228Y-144879033D01*
X92491847Y-144926652D01*
X92539466Y-145021890D01*
X92539466Y-145307604D01*
X92491847Y-145402842D01*
X92444228Y-145450461D01*
X92348990Y-145498080D01*
X92206133Y-145498080D01*
X92872800Y-144831414D02*
X93063276Y-145498080D01*
X93253752Y-145021890D01*
X93444228Y-145498080D01*
X93634704Y-144831414D01*
X94396609Y-145450461D02*
X94301371Y-145498080D01*
X94110895Y-145498080D01*
X94015657Y-145450461D01*
X93968038Y-145355223D01*
X93968038Y-144974271D01*
X94015657Y-144879033D01*
X94110895Y-144831414D01*
X94301371Y-144831414D01*
X94396609Y-144879033D01*
X94444228Y-144974271D01*
X94444228Y-145069509D01*
X93968038Y-145164747D01*
X94872800Y-145498080D02*
X94872800Y-144831414D01*
X94872800Y-145021890D02*
X94920419Y-144926652D01*
X94968038Y-144879033D01*
X95063276Y-144831414D01*
X95158514Y-144831414D01*
X96587085Y-144974271D02*
X96729942Y-145021890D01*
X96777561Y-145069509D01*
X96825180Y-145164747D01*
X96825180Y-145307604D01*
X96777561Y-145402842D01*
X96729942Y-145450461D01*
X96634704Y-145498080D01*
X96253752Y-145498080D01*
X96253752Y-144498080D01*
X96587085Y-144498080D01*
X96682323Y-144545700D01*
X96729942Y-144593319D01*
X96777561Y-144688557D01*
X96777561Y-144783795D01*
X96729942Y-144879033D01*
X96682323Y-144926652D01*
X96587085Y-144974271D01*
X96253752Y-144974271D01*
X97634704Y-145450461D02*
X97539466Y-145498080D01*
X97348990Y-145498080D01*
X97253752Y-145450461D01*
X97206133Y-145355223D01*
X97206133Y-144974271D01*
X97253752Y-144879033D01*
X97348990Y-144831414D01*
X97539466Y-144831414D01*
X97634704Y-144879033D01*
X97682323Y-144974271D01*
X97682323Y-145069509D01*
X97206133Y-145164747D01*
X98539466Y-145498080D02*
X98539466Y-144974271D01*
X98491847Y-144879033D01*
X98396609Y-144831414D01*
X98206133Y-144831414D01*
X98110895Y-144879033D01*
X98539466Y-145450461D02*
X98444228Y-145498080D01*
X98206133Y-145498080D01*
X98110895Y-145450461D01*
X98063276Y-145355223D01*
X98063276Y-145259985D01*
X98110895Y-145164747D01*
X98206133Y-145117128D01*
X98444228Y-145117128D01*
X98539466Y-145069509D01*
X99444228Y-145450461D02*
X99348990Y-145498080D01*
X99158514Y-145498080D01*
X99063276Y-145450461D01*
X99015657Y-145402842D01*
X98968038Y-145307604D01*
X98968038Y-145021890D01*
X99015657Y-144926652D01*
X99063276Y-144879033D01*
X99158514Y-144831414D01*
X99348990Y-144831414D01*
X99444228Y-144879033D01*
X100015657Y-145498080D02*
X99920419Y-145450461D01*
X99872800Y-145402842D01*
X99825180Y-145307604D01*
X99825180Y-145021890D01*
X99872800Y-144926652D01*
X99920419Y-144879033D01*
X100015657Y-144831414D01*
X100158514Y-144831414D01*
X100253752Y-144879033D01*
X100301371Y-144926652D01*
X100348990Y-145021890D01*
X100348990Y-145307604D01*
X100301371Y-145402842D01*
X100253752Y-145450461D01*
X100158514Y-145498080D01*
X100015657Y-145498080D01*
X100777561Y-144831414D02*
X100777561Y-145498080D01*
X100777561Y-144926652D02*
X100825180Y-144879033D01*
X100920419Y-144831414D01*
X101063276Y-144831414D01*
X101158514Y-144879033D01*
X101206133Y-144974271D01*
X101206133Y-145498080D01*
X102634704Y-144498080D02*
X102825180Y-144498080D01*
X102920419Y-144545700D01*
X103015657Y-144640938D01*
X103063276Y-144831414D01*
X103063276Y-145164747D01*
X103015657Y-145355223D01*
X102920419Y-145450461D01*
X102825180Y-145498080D01*
X102634704Y-145498080D01*
X102539466Y-145450461D01*
X102444228Y-145355223D01*
X102396609Y-145164747D01*
X102396609Y-144831414D01*
X102444228Y-144640938D01*
X102539466Y-144545700D01*
X102634704Y-144498080D01*
X103491847Y-145498080D02*
X103491847Y-144498080D01*
X104063276Y-145498080D01*
X104063276Y-144498080D01*
X131089757Y-64194180D02*
X130756423Y-63717990D01*
X130518328Y-64194180D02*
X130518328Y-63194180D01*
X130899280Y-63194180D01*
X130994519Y-63241800D01*
X131042138Y-63289419D01*
X131089757Y-63384657D01*
X131089757Y-63527514D01*
X131042138Y-63622752D01*
X130994519Y-63670371D01*
X130899280Y-63717990D01*
X130518328Y-63717990D01*
X131899280Y-64146561D02*
X131804042Y-64194180D01*
X131613566Y-64194180D01*
X131518328Y-64146561D01*
X131470709Y-64051323D01*
X131470709Y-63670371D01*
X131518328Y-63575133D01*
X131613566Y-63527514D01*
X131804042Y-63527514D01*
X131899280Y-63575133D01*
X131946900Y-63670371D01*
X131946900Y-63765609D01*
X131470709Y-63860847D01*
X132804042Y-64146561D02*
X132708804Y-64194180D01*
X132518328Y-64194180D01*
X132423090Y-64146561D01*
X132375471Y-64098942D01*
X132327852Y-64003704D01*
X132327852Y-63717990D01*
X132375471Y-63622752D01*
X132423090Y-63575133D01*
X132518328Y-63527514D01*
X132708804Y-63527514D01*
X132804042Y-63575133D01*
X133613566Y-64146561D02*
X133518328Y-64194180D01*
X133327852Y-64194180D01*
X133232614Y-64146561D01*
X133184995Y-64051323D01*
X133184995Y-63670371D01*
X133232614Y-63575133D01*
X133327852Y-63527514D01*
X133518328Y-63527514D01*
X133613566Y-63575133D01*
X133661185Y-63670371D01*
X133661185Y-63765609D01*
X133184995Y-63860847D01*
X134089757Y-63527514D02*
X134089757Y-64527514D01*
X134089757Y-63575133D02*
X134184995Y-63527514D01*
X134375471Y-63527514D01*
X134470709Y-63575133D01*
X134518328Y-63622752D01*
X134565947Y-63717990D01*
X134565947Y-64003704D01*
X134518328Y-64098942D01*
X134470709Y-64146561D01*
X134375471Y-64194180D01*
X134184995Y-64194180D01*
X134089757Y-64146561D01*
X134851661Y-63527514D02*
X135232614Y-63527514D01*
X134994519Y-63194180D02*
X134994519Y-64051323D01*
X135042138Y-64146561D01*
X135137376Y-64194180D01*
X135232614Y-64194180D01*
X135565947Y-64194180D02*
X135565947Y-63527514D01*
X135565947Y-63194180D02*
X135518328Y-63241800D01*
X135565947Y-63289419D01*
X135613566Y-63241800D01*
X135565947Y-63194180D01*
X135565947Y-63289419D01*
X136184995Y-64194180D02*
X136089757Y-64146561D01*
X136042138Y-64098942D01*
X135994519Y-64003704D01*
X135994519Y-63717990D01*
X136042138Y-63622752D01*
X136089757Y-63575133D01*
X136184995Y-63527514D01*
X136327852Y-63527514D01*
X136423090Y-63575133D01*
X136470709Y-63622752D01*
X136518328Y-63717990D01*
X136518328Y-64003704D01*
X136470709Y-64098942D01*
X136423090Y-64146561D01*
X136327852Y-64194180D01*
X136184995Y-64194180D01*
X136946900Y-63527514D02*
X136946900Y-64194180D01*
X136946900Y-63622752D02*
X136994519Y-63575133D01*
X137089757Y-63527514D01*
X137232614Y-63527514D01*
X137327852Y-63575133D01*
X137375471Y-63670371D01*
X137375471Y-64194180D01*
X129637376Y-65177514D02*
X129637376Y-65844180D01*
X129399280Y-64796561D02*
X129161185Y-65510847D01*
X129780233Y-65510847D01*
X130065947Y-64844180D02*
X130684995Y-64844180D01*
X130351661Y-65225133D01*
X130494519Y-65225133D01*
X130589757Y-65272752D01*
X130637376Y-65320371D01*
X130684995Y-65415609D01*
X130684995Y-65653704D01*
X130637376Y-65748942D01*
X130589757Y-65796561D01*
X130494519Y-65844180D01*
X130208804Y-65844180D01*
X130113566Y-65796561D01*
X130065947Y-65748942D01*
X131589757Y-64844180D02*
X131113566Y-64844180D01*
X131065947Y-65320371D01*
X131113566Y-65272752D01*
X131208804Y-65225133D01*
X131446900Y-65225133D01*
X131542138Y-65272752D01*
X131589757Y-65320371D01*
X131637376Y-65415609D01*
X131637376Y-65653704D01*
X131589757Y-65748942D01*
X131542138Y-65796561D01*
X131446900Y-65844180D01*
X131208804Y-65844180D01*
X131113566Y-65796561D01*
X131065947Y-65748942D01*
X132065947Y-65748942D02*
X132113566Y-65796561D01*
X132065947Y-65844180D01*
X132018328Y-65796561D01*
X132065947Y-65748942D01*
X132065947Y-65844180D01*
X133065947Y-65844180D02*
X132494519Y-65844180D01*
X132780233Y-65844180D02*
X132780233Y-64844180D01*
X132684995Y-64987038D01*
X132589757Y-65082276D01*
X132494519Y-65129895D01*
X133684995Y-64844180D02*
X133780233Y-64844180D01*
X133875471Y-64891800D01*
X133923090Y-64939419D01*
X133970709Y-65034657D01*
X134018328Y-65225133D01*
X134018328Y-65463228D01*
X133970709Y-65653704D01*
X133923090Y-65748942D01*
X133875471Y-65796561D01*
X133780233Y-65844180D01*
X133684995Y-65844180D01*
X133589757Y-65796561D01*
X133542138Y-65748942D01*
X133494519Y-65653704D01*
X133446900Y-65463228D01*
X133446900Y-65225133D01*
X133494519Y-65034657D01*
X133542138Y-64939419D01*
X133589757Y-64891800D01*
X133684995Y-64844180D01*
X134637376Y-64844180D02*
X134732614Y-64844180D01*
X134827852Y-64891800D01*
X134875471Y-64939419D01*
X134923090Y-65034657D01*
X134970709Y-65225133D01*
X134970709Y-65463228D01*
X134923090Y-65653704D01*
X134875471Y-65748942D01*
X134827852Y-65796561D01*
X134732614Y-65844180D01*
X134637376Y-65844180D01*
X134542138Y-65796561D01*
X134494519Y-65748942D01*
X134446900Y-65653704D01*
X134399280Y-65463228D01*
X134399280Y-65225133D01*
X134446900Y-65034657D01*
X134494519Y-64939419D01*
X134542138Y-64891800D01*
X134637376Y-64844180D01*
X136161185Y-65844180D02*
X136161185Y-64844180D01*
X136494519Y-65558466D01*
X136827852Y-64844180D01*
X136827852Y-65844180D01*
X137304042Y-65844180D02*
X137304042Y-64844180D01*
X137304042Y-65320371D02*
X137875471Y-65320371D01*
X137875471Y-65844180D02*
X137875471Y-64844180D01*
X138256423Y-65177514D02*
X138780233Y-65177514D01*
X138256423Y-65844180D01*
X138780233Y-65844180D01*
X92058176Y-127561866D02*
X92534366Y-127561866D01*
X91962938Y-127847580D02*
X92296271Y-126847580D01*
X92629604Y-127847580D01*
X92820080Y-127180914D02*
X93201033Y-127180914D01*
X92962938Y-127847580D02*
X92962938Y-126990438D01*
X93010557Y-126895200D01*
X93105795Y-126847580D01*
X93201033Y-126847580D01*
X93534366Y-127847580D02*
X93534366Y-127180914D01*
X93534366Y-127371390D02*
X93581985Y-127276152D01*
X93629604Y-127228533D01*
X93724842Y-127180914D01*
X93820080Y-127180914D01*
X94153414Y-127847580D02*
X94153414Y-127180914D01*
X94153414Y-126847580D02*
X94105795Y-126895200D01*
X94153414Y-126942819D01*
X94201033Y-126895200D01*
X94153414Y-126847580D01*
X94153414Y-126942819D01*
X95201033Y-127752342D02*
X95153414Y-127799961D01*
X95010557Y-127847580D01*
X94915319Y-127847580D01*
X94772461Y-127799961D01*
X94677223Y-127704723D01*
X94629604Y-127609485D01*
X94581985Y-127419009D01*
X94581985Y-127276152D01*
X94629604Y-127085676D01*
X94677223Y-126990438D01*
X94772461Y-126895200D01*
X94915319Y-126847580D01*
X95010557Y-126847580D01*
X95153414Y-126895200D01*
X95201033Y-126942819D01*
X95629604Y-126847580D02*
X95629604Y-127657104D01*
X95677223Y-127752342D01*
X95724842Y-127799961D01*
X95820080Y-127847580D01*
X96010557Y-127847580D01*
X96105795Y-127799961D01*
X96153414Y-127752342D01*
X96201033Y-127657104D01*
X96201033Y-126847580D01*
X97010557Y-127323771D02*
X97153414Y-127371390D01*
X97201033Y-127419009D01*
X97248652Y-127514247D01*
X97248652Y-127657104D01*
X97201033Y-127752342D01*
X97153414Y-127799961D01*
X97058176Y-127847580D01*
X96677223Y-127847580D01*
X96677223Y-126847580D01*
X97010557Y-126847580D01*
X97105795Y-126895200D01*
X97153414Y-126942819D01*
X97201033Y-127038057D01*
X97201033Y-127133295D01*
X97153414Y-127228533D01*
X97105795Y-127276152D01*
X97010557Y-127323771D01*
X96677223Y-127323771D01*
X97677223Y-127323771D02*
X98010557Y-127323771D01*
X98153414Y-127847580D02*
X97677223Y-127847580D01*
X97677223Y-126847580D01*
X98153414Y-126847580D01*
X92058176Y-129449961D02*
X92201033Y-129497580D01*
X92439128Y-129497580D01*
X92534366Y-129449961D01*
X92581985Y-129402342D01*
X92629604Y-129307104D01*
X92629604Y-129211866D01*
X92581985Y-129116628D01*
X92534366Y-129069009D01*
X92439128Y-129021390D01*
X92248652Y-128973771D01*
X92153414Y-128926152D01*
X92105795Y-128878533D01*
X92058176Y-128783295D01*
X92058176Y-128688057D01*
X92105795Y-128592819D01*
X92153414Y-128545200D01*
X92248652Y-128497580D01*
X92486747Y-128497580D01*
X92629604Y-128545200D01*
X93058176Y-129497580D02*
X93058176Y-128497580D01*
X93296271Y-128497580D01*
X93439128Y-128545200D01*
X93534366Y-128640438D01*
X93581985Y-128735676D01*
X93629604Y-128926152D01*
X93629604Y-129069009D01*
X93581985Y-129259485D01*
X93534366Y-129354723D01*
X93439128Y-129449961D01*
X93296271Y-129497580D01*
X93058176Y-129497580D01*
X94629604Y-129497580D02*
X94296271Y-129021390D01*
X94058176Y-129497580D02*
X94058176Y-128497580D01*
X94439128Y-128497580D01*
X94534366Y-128545200D01*
X94581985Y-128592819D01*
X94629604Y-128688057D01*
X94629604Y-128830914D01*
X94581985Y-128926152D01*
X94534366Y-128973771D01*
X94439128Y-129021390D01*
X94058176Y-129021390D01*
X96391509Y-129497580D02*
X96058176Y-129021390D01*
X95820080Y-129497580D02*
X95820080Y-128497580D01*
X96201033Y-128497580D01*
X96296271Y-128545200D01*
X96343890Y-128592819D01*
X96391509Y-128688057D01*
X96391509Y-128830914D01*
X96343890Y-128926152D01*
X96296271Y-128973771D01*
X96201033Y-129021390D01*
X95820080Y-129021390D01*
X97201033Y-129449961D02*
X97105795Y-129497580D01*
X96915319Y-129497580D01*
X96820080Y-129449961D01*
X96772461Y-129354723D01*
X96772461Y-128973771D01*
X96820080Y-128878533D01*
X96915319Y-128830914D01*
X97105795Y-128830914D01*
X97201033Y-128878533D01*
X97248652Y-128973771D01*
X97248652Y-129069009D01*
X96772461Y-129164247D01*
X98105795Y-129449961D02*
X98010557Y-129497580D01*
X97820080Y-129497580D01*
X97724842Y-129449961D01*
X97677223Y-129402342D01*
X97629604Y-129307104D01*
X97629604Y-129021390D01*
X97677223Y-128926152D01*
X97724842Y-128878533D01*
X97820080Y-128830914D01*
X98010557Y-128830914D01*
X98105795Y-128878533D01*
X98915319Y-129449961D02*
X98820080Y-129497580D01*
X98629604Y-129497580D01*
X98534366Y-129449961D01*
X98486747Y-129354723D01*
X98486747Y-128973771D01*
X98534366Y-128878533D01*
X98629604Y-128830914D01*
X98820080Y-128830914D01*
X98915319Y-128878533D01*
X98962938Y-128973771D01*
X98962938Y-129069009D01*
X98486747Y-129164247D01*
X99391509Y-129497580D02*
X99391509Y-128830914D01*
X99391509Y-128497580D02*
X99343890Y-128545200D01*
X99391509Y-128592819D01*
X99439128Y-128545200D01*
X99391509Y-128497580D01*
X99391509Y-128592819D01*
X99772461Y-128830914D02*
X100010557Y-129497580D01*
X100248652Y-128830914D01*
X101010557Y-129449961D02*
X100915319Y-129497580D01*
X100724842Y-129497580D01*
X100629604Y-129449961D01*
X100581985Y-129354723D01*
X100581985Y-128973771D01*
X100629604Y-128878533D01*
X100724842Y-128830914D01*
X100915319Y-128830914D01*
X101010557Y-128878533D01*
X101058176Y-128973771D01*
X101058176Y-129069009D01*
X100581985Y-129164247D01*
X101486747Y-129497580D02*
X101486747Y-128830914D01*
X101486747Y-129021390D02*
X101534366Y-128926152D01*
X101581985Y-128878533D01*
X101677223Y-128830914D01*
X101772461Y-128830914D01*
X103201033Y-128973771D02*
X103343890Y-129021390D01*
X103391509Y-129069009D01*
X103439128Y-129164247D01*
X103439128Y-129307104D01*
X103391509Y-129402342D01*
X103343890Y-129449961D01*
X103248652Y-129497580D01*
X102867700Y-129497580D01*
X102867700Y-128497580D01*
X103201033Y-128497580D01*
X103296271Y-128545200D01*
X103343890Y-128592819D01*
X103391509Y-128688057D01*
X103391509Y-128783295D01*
X103343890Y-128878533D01*
X103296271Y-128926152D01*
X103201033Y-128973771D01*
X102867700Y-128973771D01*
X104010557Y-129497580D02*
X103915319Y-129449961D01*
X103867700Y-129402342D01*
X103820080Y-129307104D01*
X103820080Y-129021390D01*
X103867700Y-128926152D01*
X103915319Y-128878533D01*
X104010557Y-128830914D01*
X104153414Y-128830914D01*
X104248652Y-128878533D01*
X104296271Y-128926152D01*
X104343890Y-129021390D01*
X104343890Y-129307104D01*
X104296271Y-129402342D01*
X104248652Y-129449961D01*
X104153414Y-129497580D01*
X104010557Y-129497580D01*
X105201033Y-129497580D02*
X105201033Y-128973771D01*
X105153414Y-128878533D01*
X105058176Y-128830914D01*
X104867700Y-128830914D01*
X104772461Y-128878533D01*
X105201033Y-129449961D02*
X105105795Y-129497580D01*
X104867700Y-129497580D01*
X104772461Y-129449961D01*
X104724842Y-129354723D01*
X104724842Y-129259485D01*
X104772461Y-129164247D01*
X104867700Y-129116628D01*
X105105795Y-129116628D01*
X105201033Y-129069009D01*
X105677223Y-129497580D02*
X105677223Y-128830914D01*
X105677223Y-129021390D02*
X105724842Y-128926152D01*
X105772461Y-128878533D01*
X105867700Y-128830914D01*
X105962938Y-128830914D01*
X106724842Y-129497580D02*
X106724842Y-128497580D01*
X106724842Y-129449961D02*
X106629604Y-129497580D01*
X106439128Y-129497580D01*
X106343890Y-129449961D01*
X106296271Y-129402342D01*
X106248652Y-129307104D01*
X106248652Y-129021390D01*
X106296271Y-128926152D01*
X106343890Y-128878533D01*
X106439128Y-128830914D01*
X106629604Y-128830914D01*
X106724842Y-128878533D01*
X91962938Y-130147580D02*
X92296271Y-131147580D01*
X92629604Y-130147580D01*
X93343890Y-131099961D02*
X93248652Y-131147580D01*
X93058176Y-131147580D01*
X92962938Y-131099961D01*
X92915319Y-131004723D01*
X92915319Y-130623771D01*
X92962938Y-130528533D01*
X93058176Y-130480914D01*
X93248652Y-130480914D01*
X93343890Y-130528533D01*
X93391509Y-130623771D01*
X93391509Y-130719009D01*
X92915319Y-130814247D01*
X93820080Y-131147580D02*
X93820080Y-130480914D01*
X93820080Y-130671390D02*
X93867700Y-130576152D01*
X93915319Y-130528533D01*
X94010557Y-130480914D01*
X94105795Y-130480914D01*
X94391509Y-131099961D02*
X94486747Y-131147580D01*
X94677223Y-131147580D01*
X94772461Y-131099961D01*
X94820080Y-131004723D01*
X94820080Y-130957104D01*
X94772461Y-130861866D01*
X94677223Y-130814247D01*
X94534366Y-130814247D01*
X94439128Y-130766628D01*
X94391509Y-130671390D01*
X94391509Y-130623771D01*
X94439128Y-130528533D01*
X94534366Y-130480914D01*
X94677223Y-130480914D01*
X94772461Y-130528533D01*
X95248652Y-131147580D02*
X95248652Y-130480914D01*
X95248652Y-130147580D02*
X95201033Y-130195200D01*
X95248652Y-130242819D01*
X95296271Y-130195200D01*
X95248652Y-130147580D01*
X95248652Y-130242819D01*
X95867700Y-131147580D02*
X95772461Y-131099961D01*
X95724842Y-131052342D01*
X95677223Y-130957104D01*
X95677223Y-130671390D01*
X95724842Y-130576152D01*
X95772461Y-130528533D01*
X95867700Y-130480914D01*
X96010557Y-130480914D01*
X96105795Y-130528533D01*
X96153414Y-130576152D01*
X96201033Y-130671390D01*
X96201033Y-130957104D01*
X96153414Y-131052342D01*
X96105795Y-131099961D01*
X96010557Y-131147580D01*
X95867700Y-131147580D01*
X96629604Y-130480914D02*
X96629604Y-131147580D01*
X96629604Y-130576152D02*
X96677223Y-130528533D01*
X96772461Y-130480914D01*
X96915319Y-130480914D01*
X97010557Y-130528533D01*
X97058176Y-130623771D01*
X97058176Y-131147580D01*
X98820080Y-131147580D02*
X98248652Y-131147580D01*
X98534366Y-131147580D02*
X98534366Y-130147580D01*
X98439128Y-130290438D01*
X98343890Y-130385676D01*
X98248652Y-130433295D01*
X99248652Y-131052342D02*
X99296271Y-131099961D01*
X99248652Y-131147580D01*
X99201033Y-131099961D01*
X99248652Y-131052342D01*
X99248652Y-131147580D01*
X99915319Y-130147580D02*
X100010557Y-130147580D01*
X100105795Y-130195200D01*
X100153414Y-130242819D01*
X100201033Y-130338057D01*
X100248652Y-130528533D01*
X100248652Y-130766628D01*
X100201033Y-130957104D01*
X100153414Y-131052342D01*
X100105795Y-131099961D01*
X100010557Y-131147580D01*
X99915319Y-131147580D01*
X99820080Y-131099961D01*
X99772461Y-131052342D01*
X99724842Y-130957104D01*
X99677223Y-130766628D01*
X99677223Y-130528533D01*
X99724842Y-130338057D01*
X99772461Y-130242819D01*
X99820080Y-130195200D01*
X99915319Y-130147580D01*
X92058176Y-132749961D02*
X92201033Y-132797580D01*
X92439128Y-132797580D01*
X92534366Y-132749961D01*
X92581985Y-132702342D01*
X92629604Y-132607104D01*
X92629604Y-132511866D01*
X92581985Y-132416628D01*
X92534366Y-132369009D01*
X92439128Y-132321390D01*
X92248652Y-132273771D01*
X92153414Y-132226152D01*
X92105795Y-132178533D01*
X92058176Y-132083295D01*
X92058176Y-131988057D01*
X92105795Y-131892819D01*
X92153414Y-131845200D01*
X92248652Y-131797580D01*
X92486747Y-131797580D01*
X92629604Y-131845200D01*
X93058176Y-132797580D02*
X93058176Y-131797580D01*
X93629604Y-132797580D01*
X93629604Y-131797580D01*
X94105795Y-132702342D02*
X94153414Y-132749961D01*
X94105795Y-132797580D01*
X94058176Y-132749961D01*
X94105795Y-132702342D01*
X94105795Y-132797580D01*
X94105795Y-132178533D02*
X94153414Y-132226152D01*
X94105795Y-132273771D01*
X94058176Y-132226152D01*
X94105795Y-132178533D01*
X94105795Y-132273771D01*
X95105795Y-132892819D02*
X95867700Y-132892819D01*
X95867700Y-132892819D02*
X96629604Y-132892819D01*
X96629604Y-132892819D02*
X97391509Y-132892819D01*
X97391509Y-132892819D02*
X98153414Y-132892819D01*
X98153414Y-132892819D02*
X98915319Y-132892819D01*
X98915319Y-132892819D02*
X99677223Y-132892819D01*
X99677223Y-132892819D02*
X100439128Y-132892819D01*
X100439128Y-132892819D02*
X101201033Y-132892819D01*
X101201033Y-132892819D02*
X101962938Y-132892819D01*
X101962938Y-132892819D02*
X102724842Y-132892819D01*
X102724842Y-132892819D02*
X103486747Y-132892819D01*
X103486747Y-132892819D02*
X104248652Y-132892819D01*
X104248652Y-132892819D02*
X105010557Y-132892819D01*
X105010557Y-132892819D02*
X105772461Y-132892819D01*
X105772461Y-132892819D02*
X106534366Y-132892819D01*
X106534366Y-132892819D02*
X107296271Y-132892819D01*
X107296271Y-132892819D02*
X108058176Y-132892819D01*
X108058176Y-132892819D02*
X108820080Y-132892819D01*
D11*
%TO.C,C20*%
X143279800Y-70416748D02*
X143279800Y-70939252D01*
X141809800Y-70416748D02*
X141809800Y-70939252D01*
%TO.C,U5*%
X144154800Y-66497200D02*
X144154800Y-67997200D01*
X140934800Y-64997200D02*
X140934800Y-67997200D01*
%TO.C,L4*%
X93144864Y-68185200D02*
X91940736Y-68185200D01*
X93144864Y-70905200D02*
X91940736Y-70905200D01*
%TO.C,L3*%
X107633600Y-66068464D02*
X107633600Y-64864336D01*
X104913600Y-66068464D02*
X104913600Y-64864336D01*
%TO.C,L2*%
X106702164Y-80859800D02*
X105498036Y-80859800D01*
X106702164Y-83579800D02*
X105498036Y-83579800D01*
%TO.C,U4*%
X145858000Y-91281500D02*
X145858000Y-90806500D01*
X139638000Y-97026500D02*
X140113000Y-97026500D01*
X139638000Y-96551500D02*
X139638000Y-97026500D01*
X139638000Y-90806500D02*
X140113000Y-90806500D01*
X139638000Y-91281500D02*
X139638000Y-90806500D01*
X145858000Y-97026500D02*
X145383000Y-97026500D01*
X145858000Y-96551500D02*
X145858000Y-97026500D01*
%TO.C,U6*%
X88211000Y-77109000D02*
X90011000Y-77109000D01*
X90011000Y-73889000D02*
X87561000Y-73889000D01*
%TO.C,U7*%
X103141900Y-64273400D02*
X102211900Y-64273400D01*
X99981900Y-64273400D02*
X100911900Y-64273400D01*
X99981900Y-64273400D02*
X99981900Y-66433400D01*
X103141900Y-64273400D02*
X103141900Y-65733400D01*
%TO.C,Y2*%
X104050000Y-112461200D02*
X91450000Y-112461200D01*
X104050000Y-117561200D02*
X104050000Y-112461200D01*
X91450000Y-117561200D02*
X104050000Y-117561200D01*
%TO.C,U1*%
X105099000Y-99782500D02*
X105099000Y-99307500D01*
X99879000Y-104527500D02*
X100354000Y-104527500D01*
X99879000Y-104052500D02*
X99879000Y-104527500D01*
X99879000Y-99307500D02*
X100354000Y-99307500D01*
X99879000Y-99782500D02*
X99879000Y-99307500D01*
X105099000Y-104527500D02*
X104624000Y-104527500D01*
X105099000Y-104052500D02*
X105099000Y-104527500D01*
%TO.C,Y1*%
X118714800Y-113732000D02*
X118714800Y-114032000D01*
X118714800Y-114032000D02*
X111314800Y-114032000D01*
X111314800Y-114032000D02*
X111314800Y-113732000D01*
X119214800Y-108932000D02*
X118714800Y-108932000D01*
X118714800Y-108932000D02*
X118714800Y-108632000D01*
X118714800Y-108632000D02*
X111314800Y-108632000D01*
X111314800Y-108632000D02*
X111314800Y-108932000D01*
X119214800Y-111032000D02*
X118714800Y-111032000D01*
X118714800Y-111032000D02*
X118714800Y-111632000D01*
X111314800Y-111632000D02*
X111314800Y-111032000D01*
%TO.C,C28*%
X146204000Y-104441852D02*
X146204000Y-103919348D01*
X147674000Y-104441852D02*
X147674000Y-103919348D01*
%TO.C,R10*%
X147270800Y-83464764D02*
X147270800Y-83010636D01*
X148740800Y-83464764D02*
X148740800Y-83010636D01*
%TO.C,R9*%
X134812100Y-104762664D02*
X134812100Y-104308536D01*
X136282100Y-104762664D02*
X136282100Y-104308536D01*
%TO.C,R8*%
X153135000Y-72594736D02*
X153135000Y-73048864D01*
X151665000Y-72594736D02*
X151665000Y-73048864D01*
%TO.C,R7*%
X97309000Y-90132264D02*
X97309000Y-89678136D01*
X98779000Y-90132264D02*
X98779000Y-89678136D01*
%TO.C,R6*%
X100318900Y-90030664D02*
X100318900Y-89576536D01*
X101788900Y-90030664D02*
X101788900Y-89576536D01*
%TO.C,R5*%
X104067236Y-90298600D02*
X104521364Y-90298600D01*
X104067236Y-91768600D02*
X104521364Y-91768600D01*
%TO.C,R4*%
X107928036Y-86641000D02*
X108382164Y-86641000D01*
X107928036Y-88111000D02*
X108382164Y-88111000D01*
%TO.C,R3*%
X94601936Y-108548500D02*
X95056064Y-108548500D01*
X94601936Y-110018500D02*
X95056064Y-110018500D01*
%TO.C,R2*%
X118616400Y-115967136D02*
X118616400Y-116421264D01*
X117146400Y-115967136D02*
X117146400Y-116421264D01*
%TO.C,C31*%
X139647600Y-84945548D02*
X139647600Y-85468052D01*
X138177600Y-84945548D02*
X138177600Y-85468052D01*
%TO.C,C29*%
X135796348Y-88368200D02*
X136318852Y-88368200D01*
X135796348Y-89838200D02*
X136318852Y-89838200D01*
%TO.C,C27*%
X136218600Y-84691548D02*
X136218600Y-85214052D01*
X134748600Y-84691548D02*
X134748600Y-85214052D01*
%TO.C,C26*%
X139990500Y-104219148D02*
X139990500Y-104741652D01*
X138520500Y-104219148D02*
X138520500Y-104741652D01*
%TO.C,C25*%
X139914300Y-108778448D02*
X139914300Y-109300952D01*
X138444300Y-108778448D02*
X138444300Y-109300952D01*
%TO.C,C24*%
X142101900Y-104741652D02*
X142101900Y-104219148D01*
X143571900Y-104741652D02*
X143571900Y-104219148D01*
%TO.C,C23*%
X157116452Y-89101600D02*
X156593948Y-89101600D01*
X157116452Y-87631600D02*
X156593948Y-87631600D01*
%TO.C,C22*%
X149645700Y-104335252D02*
X149645700Y-103812748D01*
X151115700Y-104335252D02*
X151115700Y-103812748D01*
%TO.C,C21*%
X143229000Y-81491148D02*
X143229000Y-82013652D01*
X141759000Y-81491148D02*
X141759000Y-82013652D01*
%TO.C,C19*%
X152610452Y-85444000D02*
X152087948Y-85444000D01*
X152610452Y-83974000D02*
X152087948Y-83974000D01*
%TO.C,C18*%
X151004600Y-65488452D02*
X151004600Y-64965948D01*
X152474600Y-65488452D02*
X152474600Y-64965948D01*
%TO.C,C17*%
X151960252Y-87920500D02*
X151437748Y-87920500D01*
X151960252Y-86450500D02*
X151437748Y-86450500D01*
%TO.C,C16*%
X151960252Y-98715500D02*
X151437748Y-98715500D01*
X151960252Y-97245500D02*
X151437748Y-97245500D01*
%TO.C,C15*%
X151934852Y-91641600D02*
X151412348Y-91641600D01*
X151934852Y-90171600D02*
X151412348Y-90171600D01*
%TO.C,C14*%
X152066852Y-95045200D02*
X151544348Y-95045200D01*
X152066852Y-93575200D02*
X151544348Y-93575200D01*
%TO.C,C9*%
X91919652Y-107872200D02*
X91397148Y-107872200D01*
X91919652Y-106402200D02*
X91397148Y-106402200D01*
%TO.C,C7*%
X98066452Y-94511800D02*
X97543948Y-94511800D01*
X98066452Y-93041800D02*
X97543948Y-93041800D01*
%TO.C,C6*%
X92889400Y-120657252D02*
X92889400Y-120134748D01*
X94359400Y-120657252D02*
X94359400Y-120134748D01*
%TO.C,C5*%
X105691000Y-110766452D02*
X105691000Y-110243948D01*
X107161000Y-110766452D02*
X107161000Y-110243948D01*
%TO.C,C4*%
X100153800Y-121099252D02*
X100153800Y-120576748D01*
X101623800Y-121099252D02*
X101623800Y-120576748D01*
%TO.C,C2*%
X110482052Y-91413000D02*
X109959548Y-91413000D01*
X110482052Y-89943000D02*
X109959548Y-89943000D01*
%TO.C,R1*%
X114327000Y-105714436D02*
X114327000Y-106168564D01*
X115797000Y-105714436D02*
X115797000Y-106168564D01*
%TO.C,D1*%
X118841400Y-123602700D02*
X118841400Y-120917700D01*
X116921400Y-123602700D02*
X118841400Y-123602700D01*
X116921400Y-120917700D02*
X116921400Y-123602700D01*
%TO.C,U2*%
X140884000Y-85329900D02*
X140884000Y-88329900D01*
X144104000Y-86829900D02*
X144104000Y-88329900D01*
%TO.C,C1*%
X107689300Y-101165800D02*
X110399300Y-101165800D01*
X107689300Y-99595800D02*
X107689300Y-101165800D01*
X110399300Y-99595800D02*
X107689300Y-99595800D01*
%TO.C,C3*%
X98899700Y-110513000D02*
X101609700Y-110513000D01*
X101609700Y-110513000D02*
X101609700Y-108943000D01*
X101609700Y-108943000D02*
X98899700Y-108943000D01*
%TO.C,C8*%
X95205900Y-96547800D02*
X92495900Y-96547800D01*
X95205900Y-98117800D02*
X95205900Y-96547800D01*
X92495900Y-98117800D02*
X95205900Y-98117800D01*
%TO.C,C10*%
X91329000Y-104442400D02*
X94039000Y-104442400D01*
X94039000Y-104442400D02*
X94039000Y-102872400D01*
X94039000Y-102872400D02*
X91329000Y-102872400D01*
%TO.C,C11*%
X94853300Y-92991800D02*
X92143300Y-92991800D01*
X94853300Y-94561800D02*
X94853300Y-92991800D01*
X92143300Y-94561800D02*
X94853300Y-94561800D01*
%TO.C,C12*%
X108926100Y-96141400D02*
X106216100Y-96141400D01*
X106216100Y-96141400D02*
X106216100Y-97711400D01*
X106216100Y-97711400D02*
X108926100Y-97711400D01*
%TO.C,C13*%
X94850300Y-99697400D02*
X92140300Y-99697400D01*
X94850300Y-101267400D02*
X94850300Y-99697400D01*
X92140300Y-101267400D02*
X94850300Y-101267400D01*
%TO.C,C33*%
X92092200Y-76121400D02*
X94802200Y-76121400D01*
X92092200Y-74551400D02*
X92092200Y-76121400D01*
X94802200Y-74551400D02*
X92092200Y-74551400D01*
%TO.C,D4*%
X111592900Y-68864600D02*
X110132900Y-68864600D01*
X111592900Y-65704600D02*
X109432900Y-65704600D01*
X111592900Y-65704600D02*
X111592900Y-66634600D01*
X111592900Y-68864600D02*
X111592900Y-67934600D01*
%TO.C,D5*%
X116088700Y-68915400D02*
X116088700Y-67985400D01*
X116088700Y-65755400D02*
X116088700Y-66685400D01*
X116088700Y-65755400D02*
X113928700Y-65755400D01*
X116088700Y-68915400D02*
X114628700Y-68915400D01*
%TO.C,J2*%
X168055600Y-140198800D02*
X168055600Y-141528800D01*
X166725600Y-140198800D02*
X168055600Y-140198800D01*
X168055600Y-142798800D02*
X168055600Y-145398800D01*
X165455600Y-142798800D02*
X168055600Y-142798800D01*
X165455600Y-140198800D02*
X165455600Y-142798800D01*
X168055600Y-145398800D02*
X117135600Y-145398800D01*
X165455600Y-140198800D02*
X117135600Y-140198800D01*
X117135600Y-140198800D02*
X117135600Y-145398800D01*
%TO.C,J3*%
X89104000Y-61883600D02*
X89104000Y-61188600D01*
X89789000Y-61883600D02*
X89104000Y-61883600D01*
X90474000Y-60580324D02*
X90474000Y-60493600D01*
X90474000Y-61883600D02*
X90474000Y-61796876D01*
X90474000Y-60493600D02*
X94349000Y-60493600D01*
X90474000Y-61883600D02*
X94349000Y-61883600D01*
X94349000Y-60794107D02*
X94349000Y-60493600D01*
X94349000Y-61883600D02*
X94349000Y-61583093D01*
%TO.C,C30*%
X152731800Y-77833548D02*
X152731800Y-78356052D01*
X154201800Y-77833548D02*
X154201800Y-78356052D01*
%TO.C,C32*%
X153239800Y-104297152D02*
X153239800Y-103774648D01*
X154709800Y-104297152D02*
X154709800Y-103774648D01*
%TO.C,C34*%
X92937000Y-78285748D02*
X92937000Y-78808252D01*
X91467000Y-78285748D02*
X91467000Y-78808252D01*
%TO.C,C35*%
X108069400Y-73635200D02*
X100009400Y-73635200D01*
X100009400Y-73635200D02*
X100009400Y-78155200D01*
X100009400Y-78155200D02*
X108069400Y-78155200D01*
%TO.C,C36*%
X103192000Y-70889000D02*
X105902000Y-70889000D01*
X103192000Y-69319000D02*
X103192000Y-70889000D01*
X105902000Y-69319000D02*
X103192000Y-69319000D01*
%TO.C,C37*%
X100911800Y-70088000D02*
X100911800Y-67378000D01*
X100911800Y-67378000D02*
X99341800Y-67378000D01*
X99341800Y-67378000D02*
X99341800Y-70088000D01*
%TO.C,D2*%
X107246300Y-146668200D02*
X107246300Y-143983200D01*
X105326300Y-146668200D02*
X107246300Y-146668200D01*
X105326300Y-143983200D02*
X105326300Y-146668200D01*
%TO.C,D3*%
X109530000Y-143957800D02*
X109530000Y-146642800D01*
X109530000Y-146642800D02*
X111450000Y-146642800D01*
X111450000Y-146642800D02*
X111450000Y-143957800D01*
%TO.C,R11*%
X132388236Y-90603400D02*
X132842364Y-90603400D01*
X132388236Y-92073400D02*
X132842364Y-92073400D01*
%TO.C,R12*%
X105551300Y-140565136D02*
X105551300Y-141019264D01*
X107021300Y-140565136D02*
X107021300Y-141019264D01*
%TO.C,R13*%
X109767700Y-140803364D02*
X109767700Y-140349236D01*
X111237700Y-140803364D02*
X111237700Y-140349236D01*
%TO.C,U3*%
X145804000Y-76054800D02*
X145804000Y-77364800D01*
X145804000Y-77364800D02*
X143084000Y-77364800D01*
X141944000Y-72874800D02*
X143084000Y-72874800D01*
X145804000Y-72644800D02*
X145804000Y-73954800D01*
X143084000Y-72644800D02*
X145804000Y-72644800D01*
X143084000Y-72644800D02*
X143084000Y-72874800D01*
X143084000Y-77364800D02*
X143084000Y-77134800D01*
%TO.C,L1*%
X143156878Y-78129200D02*
X143956122Y-78129200D01*
X143156878Y-79249200D02*
X143956122Y-79249200D01*
%TO.C,JP1*%
X159813000Y-129073400D02*
X161213000Y-129073400D01*
X161913000Y-129773400D02*
X161913000Y-130373400D01*
X161213000Y-131073400D02*
X159813000Y-131073400D01*
X159113000Y-130373400D02*
X159113000Y-129773400D01*
X161213000Y-129073400D02*
G75*
G02X161913000Y-129773400I0J-700000D01*
G01*
X161913000Y-130373400D02*
G75*
G02X161213000Y-131073400I-700000J0D01*
G01*
X159813000Y-131073400D02*
G75*
G02X159113000Y-130373400I0J700000D01*
G01*
X159113000Y-129773400D02*
G75*
G02X159813000Y-129073400I700000J0D01*
G01*
%TO.C,JP2*%
X91900500Y-66145400D02*
X91900500Y-64745400D01*
X92600500Y-64045400D02*
X93200500Y-64045400D01*
X93900500Y-64745400D02*
X93900500Y-66145400D01*
X93200500Y-66845400D02*
X92600500Y-66845400D01*
X91900500Y-64745400D02*
G75*
G02X92600500Y-64045400I700000J0D01*
G01*
X93200500Y-64045400D02*
G75*
G02X93900500Y-64745400I0J-700000D01*
G01*
X93900500Y-66145400D02*
G75*
G02X93200500Y-66845400I-700000J0D01*
G01*
X92600500Y-66845400D02*
G75*
G02X91900500Y-66145400I0J700000D01*
G01*
%TO.C,C20*%
D10*
X141174742Y-71127857D02*
X141222361Y-71175476D01*
X141269980Y-71318333D01*
X141269980Y-71413571D01*
X141222361Y-71556428D01*
X141127123Y-71651666D01*
X141031885Y-71699285D01*
X140841409Y-71746904D01*
X140698552Y-71746904D01*
X140508076Y-71699285D01*
X140412838Y-71651666D01*
X140317600Y-71556428D01*
X140269980Y-71413571D01*
X140269980Y-71318333D01*
X140317600Y-71175476D01*
X140365219Y-71127857D01*
X140365219Y-70746904D02*
X140317600Y-70699285D01*
X140269980Y-70604047D01*
X140269980Y-70365952D01*
X140317600Y-70270714D01*
X140365219Y-70223095D01*
X140460457Y-70175476D01*
X140555695Y-70175476D01*
X140698552Y-70223095D01*
X141269980Y-70794523D01*
X141269980Y-70175476D01*
X140269980Y-69556428D02*
X140269980Y-69461190D01*
X140317600Y-69365952D01*
X140365219Y-69318333D01*
X140460457Y-69270714D01*
X140650933Y-69223095D01*
X140889028Y-69223095D01*
X141079504Y-69270714D01*
X141174742Y-69318333D01*
X141222361Y-69365952D01*
X141269980Y-69461190D01*
X141269980Y-69556428D01*
X141222361Y-69651666D01*
X141174742Y-69699285D01*
X141079504Y-69746904D01*
X140889028Y-69794523D01*
X140650933Y-69794523D01*
X140460457Y-69746904D01*
X140365219Y-69699285D01*
X140317600Y-69651666D01*
X140269980Y-69556428D01*
%TO.C,U5*%
X138734895Y-67625980D02*
X138734895Y-68435504D01*
X138782514Y-68530742D01*
X138830133Y-68578361D01*
X138925371Y-68625980D01*
X139115847Y-68625980D01*
X139211085Y-68578361D01*
X139258704Y-68530742D01*
X139306323Y-68435504D01*
X139306323Y-67625980D01*
X140258704Y-67625980D02*
X139782514Y-67625980D01*
X139734895Y-68102171D01*
X139782514Y-68054552D01*
X139877752Y-68006933D01*
X140115847Y-68006933D01*
X140211085Y-68054552D01*
X140258704Y-68102171D01*
X140306323Y-68197409D01*
X140306323Y-68435504D01*
X140258704Y-68530742D01*
X140211085Y-68578361D01*
X140115847Y-68625980D01*
X139877752Y-68625980D01*
X139782514Y-68578361D01*
X139734895Y-68530742D01*
%TO.C,L4*%
X92376133Y-72277580D02*
X91899942Y-72277580D01*
X91899942Y-71277580D01*
X93138038Y-71610914D02*
X93138038Y-72277580D01*
X92899942Y-71229961D02*
X92661847Y-71944247D01*
X93280895Y-71944247D01*
%TO.C,L3*%
X104445980Y-65633066D02*
X104445980Y-66109257D01*
X103445980Y-66109257D01*
X103445980Y-65394971D02*
X103445980Y-64775923D01*
X103826933Y-65109257D01*
X103826933Y-64966400D01*
X103874552Y-64871161D01*
X103922171Y-64823542D01*
X104017409Y-64775923D01*
X104255504Y-64775923D01*
X104350742Y-64823542D01*
X104398361Y-64871161D01*
X104445980Y-64966400D01*
X104445980Y-65252114D01*
X104398361Y-65347352D01*
X104350742Y-65394971D01*
%TO.C,L2*%
X105933433Y-84952180D02*
X105457242Y-84952180D01*
X105457242Y-83952180D01*
X106219147Y-84047419D02*
X106266766Y-83999800D01*
X106362004Y-83952180D01*
X106600100Y-83952180D01*
X106695338Y-83999800D01*
X106742957Y-84047419D01*
X106790576Y-84142657D01*
X106790576Y-84237895D01*
X106742957Y-84380752D01*
X106171528Y-84952180D01*
X106790576Y-84952180D01*
%TO.C,U4*%
X146500380Y-94678404D02*
X147309904Y-94678404D01*
X147405142Y-94630785D01*
X147452761Y-94583166D01*
X147500380Y-94487928D01*
X147500380Y-94297452D01*
X147452761Y-94202214D01*
X147405142Y-94154595D01*
X147309904Y-94106976D01*
X146500380Y-94106976D01*
X146833714Y-93202214D02*
X147500380Y-93202214D01*
X146452761Y-93440309D02*
X147167047Y-93678404D01*
X147167047Y-93059357D01*
%TO.C,U6*%
X85394895Y-75144380D02*
X85394895Y-75953904D01*
X85442514Y-76049142D01*
X85490133Y-76096761D01*
X85585371Y-76144380D01*
X85775847Y-76144380D01*
X85871085Y-76096761D01*
X85918704Y-76049142D01*
X85966323Y-75953904D01*
X85966323Y-75144380D01*
X86871085Y-75144380D02*
X86680609Y-75144380D01*
X86585371Y-75192000D01*
X86537752Y-75239619D01*
X86442514Y-75382476D01*
X86394895Y-75572952D01*
X86394895Y-75953904D01*
X86442514Y-76049142D01*
X86490133Y-76096761D01*
X86585371Y-76144380D01*
X86775847Y-76144380D01*
X86871085Y-76096761D01*
X86918704Y-76049142D01*
X86966323Y-75953904D01*
X86966323Y-75715809D01*
X86918704Y-75620571D01*
X86871085Y-75572952D01*
X86775847Y-75525333D01*
X86585371Y-75525333D01*
X86490133Y-75572952D01*
X86442514Y-75620571D01*
X86394895Y-75715809D01*
%TO.C,U7*%
X98514280Y-65795304D02*
X99323804Y-65795304D01*
X99419042Y-65747685D01*
X99466661Y-65700066D01*
X99514280Y-65604828D01*
X99514280Y-65414352D01*
X99466661Y-65319114D01*
X99419042Y-65271495D01*
X99323804Y-65223876D01*
X98514280Y-65223876D01*
X98514280Y-64842923D02*
X98514280Y-64176257D01*
X99514280Y-64604828D01*
%TO.C,Y2*%
X96873809Y-118537390D02*
X96873809Y-119013580D01*
X96540476Y-118013580D02*
X96873809Y-118537390D01*
X97207142Y-118013580D01*
X97492857Y-118108819D02*
X97540476Y-118061200D01*
X97635714Y-118013580D01*
X97873809Y-118013580D01*
X97969047Y-118061200D01*
X98016666Y-118108819D01*
X98064285Y-118204057D01*
X98064285Y-118299295D01*
X98016666Y-118442152D01*
X97445238Y-119013580D01*
X98064285Y-119013580D01*
%TO.C,U1*%
X105761380Y-102679404D02*
X106570904Y-102679404D01*
X106666142Y-102631785D01*
X106713761Y-102584166D01*
X106761380Y-102488928D01*
X106761380Y-102298452D01*
X106713761Y-102203214D01*
X106666142Y-102155595D01*
X106570904Y-102107976D01*
X105761380Y-102107976D01*
X106761380Y-101107976D02*
X106761380Y-101679404D01*
X106761380Y-101393690D02*
X105761380Y-101393690D01*
X105904238Y-101488928D01*
X105999476Y-101584166D01*
X106047095Y-101679404D01*
%TO.C,Y1*%
X114538609Y-115008190D02*
X114538609Y-115484380D01*
X114205276Y-114484380D02*
X114538609Y-115008190D01*
X114871942Y-114484380D01*
X115729085Y-115484380D02*
X115157657Y-115484380D01*
X115443371Y-115484380D02*
X115443371Y-114484380D01*
X115348133Y-114627238D01*
X115252895Y-114722476D01*
X115157657Y-114770095D01*
%TO.C,C28*%
X145616142Y-104823457D02*
X145663761Y-104871076D01*
X145711380Y-105013933D01*
X145711380Y-105109171D01*
X145663761Y-105252028D01*
X145568523Y-105347266D01*
X145473285Y-105394885D01*
X145282809Y-105442504D01*
X145139952Y-105442504D01*
X144949476Y-105394885D01*
X144854238Y-105347266D01*
X144759000Y-105252028D01*
X144711380Y-105109171D01*
X144711380Y-105013933D01*
X144759000Y-104871076D01*
X144806619Y-104823457D01*
X144806619Y-104442504D02*
X144759000Y-104394885D01*
X144711380Y-104299647D01*
X144711380Y-104061552D01*
X144759000Y-103966314D01*
X144806619Y-103918695D01*
X144901857Y-103871076D01*
X144997095Y-103871076D01*
X145139952Y-103918695D01*
X145711380Y-104490123D01*
X145711380Y-103871076D01*
X145139952Y-103299647D02*
X145092333Y-103394885D01*
X145044714Y-103442504D01*
X144949476Y-103490123D01*
X144901857Y-103490123D01*
X144806619Y-103442504D01*
X144759000Y-103394885D01*
X144711380Y-103299647D01*
X144711380Y-103109171D01*
X144759000Y-103013933D01*
X144806619Y-102966314D01*
X144901857Y-102918695D01*
X144949476Y-102918695D01*
X145044714Y-102966314D01*
X145092333Y-103013933D01*
X145139952Y-103109171D01*
X145139952Y-103299647D01*
X145187571Y-103394885D01*
X145235190Y-103442504D01*
X145330428Y-103490123D01*
X145520904Y-103490123D01*
X145616142Y-103442504D01*
X145663761Y-103394885D01*
X145711380Y-103299647D01*
X145711380Y-103109171D01*
X145663761Y-103013933D01*
X145616142Y-102966314D01*
X145520904Y-102918695D01*
X145330428Y-102918695D01*
X145235190Y-102966314D01*
X145187571Y-103013933D01*
X145139952Y-103109171D01*
%TO.C,R10*%
X150998180Y-80936057D02*
X150521990Y-81269390D01*
X150998180Y-81507485D02*
X149998180Y-81507485D01*
X149998180Y-81126533D01*
X150045800Y-81031295D01*
X150093419Y-80983676D01*
X150188657Y-80936057D01*
X150331514Y-80936057D01*
X150426752Y-80983676D01*
X150474371Y-81031295D01*
X150521990Y-81126533D01*
X150521990Y-81507485D01*
X150998180Y-79983676D02*
X150998180Y-80555104D01*
X150998180Y-80269390D02*
X149998180Y-80269390D01*
X150141038Y-80364628D01*
X150236276Y-80459866D01*
X150283895Y-80555104D01*
X149998180Y-79364628D02*
X149998180Y-79269390D01*
X150045800Y-79174152D01*
X150093419Y-79126533D01*
X150188657Y-79078914D01*
X150379133Y-79031295D01*
X150617228Y-79031295D01*
X150807704Y-79078914D01*
X150902942Y-79126533D01*
X150950561Y-79174152D01*
X150998180Y-79269390D01*
X150998180Y-79364628D01*
X150950561Y-79459866D01*
X150902942Y-79507485D01*
X150807704Y-79555104D01*
X150617228Y-79602723D01*
X150379133Y-79602723D01*
X150188657Y-79555104D01*
X150093419Y-79507485D01*
X150045800Y-79459866D01*
X149998180Y-79364628D01*
%TO.C,R9*%
X134272280Y-104700366D02*
X133796090Y-105033700D01*
X134272280Y-105271795D02*
X133272280Y-105271795D01*
X133272280Y-104890842D01*
X133319900Y-104795604D01*
X133367519Y-104747985D01*
X133462757Y-104700366D01*
X133605614Y-104700366D01*
X133700852Y-104747985D01*
X133748471Y-104795604D01*
X133796090Y-104890842D01*
X133796090Y-105271795D01*
X134272280Y-104224176D02*
X134272280Y-104033700D01*
X134224661Y-103938461D01*
X134177042Y-103890842D01*
X134034185Y-103795604D01*
X133843709Y-103747985D01*
X133462757Y-103747985D01*
X133367519Y-103795604D01*
X133319900Y-103843223D01*
X133272280Y-103938461D01*
X133272280Y-104128938D01*
X133319900Y-104224176D01*
X133367519Y-104271795D01*
X133462757Y-104319414D01*
X133700852Y-104319414D01*
X133796090Y-104271795D01*
X133843709Y-104224176D01*
X133891328Y-104128938D01*
X133891328Y-103938461D01*
X133843709Y-103843223D01*
X133796090Y-103795604D01*
X133700852Y-103747985D01*
%TO.C,R8*%
X154502380Y-72988466D02*
X154026190Y-73321800D01*
X154502380Y-73559895D02*
X153502380Y-73559895D01*
X153502380Y-73178942D01*
X153550000Y-73083704D01*
X153597619Y-73036085D01*
X153692857Y-72988466D01*
X153835714Y-72988466D01*
X153930952Y-73036085D01*
X153978571Y-73083704D01*
X154026190Y-73178942D01*
X154026190Y-73559895D01*
X153930952Y-72417038D02*
X153883333Y-72512276D01*
X153835714Y-72559895D01*
X153740476Y-72607514D01*
X153692857Y-72607514D01*
X153597619Y-72559895D01*
X153550000Y-72512276D01*
X153502380Y-72417038D01*
X153502380Y-72226561D01*
X153550000Y-72131323D01*
X153597619Y-72083704D01*
X153692857Y-72036085D01*
X153740476Y-72036085D01*
X153835714Y-72083704D01*
X153883333Y-72131323D01*
X153930952Y-72226561D01*
X153930952Y-72417038D01*
X153978571Y-72512276D01*
X154026190Y-72559895D01*
X154121428Y-72607514D01*
X154311904Y-72607514D01*
X154407142Y-72559895D01*
X154454761Y-72512276D01*
X154502380Y-72417038D01*
X154502380Y-72226561D01*
X154454761Y-72131323D01*
X154407142Y-72083704D01*
X154311904Y-72036085D01*
X154121428Y-72036085D01*
X154026190Y-72083704D01*
X153978571Y-72131323D01*
X153930952Y-72226561D01*
%TO.C,R7*%
X96846380Y-90071866D02*
X96370190Y-90405200D01*
X96846380Y-90643295D02*
X95846380Y-90643295D01*
X95846380Y-90262342D01*
X95894000Y-90167104D01*
X95941619Y-90119485D01*
X96036857Y-90071866D01*
X96179714Y-90071866D01*
X96274952Y-90119485D01*
X96322571Y-90167104D01*
X96370190Y-90262342D01*
X96370190Y-90643295D01*
X95846380Y-89738533D02*
X95846380Y-89071866D01*
X96846380Y-89500438D01*
%TO.C,R6*%
X101506280Y-86898766D02*
X101030090Y-87232100D01*
X101506280Y-87470195D02*
X100506280Y-87470195D01*
X100506280Y-87089242D01*
X100553900Y-86994004D01*
X100601519Y-86946385D01*
X100696757Y-86898766D01*
X100839614Y-86898766D01*
X100934852Y-86946385D01*
X100982471Y-86994004D01*
X101030090Y-87089242D01*
X101030090Y-87470195D01*
X100506280Y-86041623D02*
X100506280Y-86232100D01*
X100553900Y-86327338D01*
X100601519Y-86374957D01*
X100744376Y-86470195D01*
X100934852Y-86517814D01*
X101315804Y-86517814D01*
X101411042Y-86470195D01*
X101458661Y-86422576D01*
X101506280Y-86327338D01*
X101506280Y-86136861D01*
X101458661Y-86041623D01*
X101411042Y-85994004D01*
X101315804Y-85946385D01*
X101077709Y-85946385D01*
X100982471Y-85994004D01*
X100934852Y-86041623D01*
X100887233Y-86136861D01*
X100887233Y-86327338D01*
X100934852Y-86422576D01*
X100982471Y-86470195D01*
X101077709Y-86517814D01*
%TO.C,R5*%
X107008633Y-91485980D02*
X106675300Y-91009790D01*
X106437204Y-91485980D02*
X106437204Y-90485980D01*
X106818157Y-90485980D01*
X106913395Y-90533600D01*
X106961014Y-90581219D01*
X107008633Y-90676457D01*
X107008633Y-90819314D01*
X106961014Y-90914552D01*
X106913395Y-90962171D01*
X106818157Y-91009790D01*
X106437204Y-91009790D01*
X107913395Y-90485980D02*
X107437204Y-90485980D01*
X107389585Y-90962171D01*
X107437204Y-90914552D01*
X107532442Y-90866933D01*
X107770538Y-90866933D01*
X107865776Y-90914552D01*
X107913395Y-90962171D01*
X107961014Y-91057409D01*
X107961014Y-91295504D01*
X107913395Y-91390742D01*
X107865776Y-91438361D01*
X107770538Y-91485980D01*
X107532442Y-91485980D01*
X107437204Y-91438361D01*
X107389585Y-91390742D01*
%TO.C,R4*%
X111059933Y-87828380D02*
X110726600Y-87352190D01*
X110488504Y-87828380D02*
X110488504Y-86828380D01*
X110869457Y-86828380D01*
X110964695Y-86876000D01*
X111012314Y-86923619D01*
X111059933Y-87018857D01*
X111059933Y-87161714D01*
X111012314Y-87256952D01*
X110964695Y-87304571D01*
X110869457Y-87352190D01*
X110488504Y-87352190D01*
X111917076Y-87161714D02*
X111917076Y-87828380D01*
X111678980Y-86780761D02*
X111440885Y-87495047D01*
X112059933Y-87495047D01*
%TO.C,R3*%
X94662333Y-108085880D02*
X94329000Y-107609690D01*
X94090904Y-108085880D02*
X94090904Y-107085880D01*
X94471857Y-107085880D01*
X94567095Y-107133500D01*
X94614714Y-107181119D01*
X94662333Y-107276357D01*
X94662333Y-107419214D01*
X94614714Y-107514452D01*
X94567095Y-107562071D01*
X94471857Y-107609690D01*
X94090904Y-107609690D01*
X94995666Y-107085880D02*
X95614714Y-107085880D01*
X95281380Y-107466833D01*
X95424238Y-107466833D01*
X95519476Y-107514452D01*
X95567095Y-107562071D01*
X95614714Y-107657309D01*
X95614714Y-107895404D01*
X95567095Y-107990642D01*
X95519476Y-108038261D01*
X95424238Y-108085880D01*
X95138523Y-108085880D01*
X95043285Y-108038261D01*
X94995666Y-107990642D01*
%TO.C,R2*%
X119983780Y-116360866D02*
X119507590Y-116694200D01*
X119983780Y-116932295D02*
X118983780Y-116932295D01*
X118983780Y-116551342D01*
X119031400Y-116456104D01*
X119079019Y-116408485D01*
X119174257Y-116360866D01*
X119317114Y-116360866D01*
X119412352Y-116408485D01*
X119459971Y-116456104D01*
X119507590Y-116551342D01*
X119507590Y-116932295D01*
X119079019Y-115979914D02*
X119031400Y-115932295D01*
X118983780Y-115837057D01*
X118983780Y-115598961D01*
X119031400Y-115503723D01*
X119079019Y-115456104D01*
X119174257Y-115408485D01*
X119269495Y-115408485D01*
X119412352Y-115456104D01*
X119983780Y-116027533D01*
X119983780Y-115408485D01*
%TO.C,C31*%
X139422142Y-82481657D02*
X139469761Y-82529276D01*
X139517380Y-82672133D01*
X139517380Y-82767371D01*
X139469761Y-82910228D01*
X139374523Y-83005466D01*
X139279285Y-83053085D01*
X139088809Y-83100704D01*
X138945952Y-83100704D01*
X138755476Y-83053085D01*
X138660238Y-83005466D01*
X138565000Y-82910228D01*
X138517380Y-82767371D01*
X138517380Y-82672133D01*
X138565000Y-82529276D01*
X138612619Y-82481657D01*
X138517380Y-82148323D02*
X138517380Y-81529276D01*
X138898333Y-81862609D01*
X138898333Y-81719752D01*
X138945952Y-81624514D01*
X138993571Y-81576895D01*
X139088809Y-81529276D01*
X139326904Y-81529276D01*
X139422142Y-81576895D01*
X139469761Y-81624514D01*
X139517380Y-81719752D01*
X139517380Y-82005466D01*
X139469761Y-82100704D01*
X139422142Y-82148323D01*
X139517380Y-80576895D02*
X139517380Y-81148323D01*
X139517380Y-80862609D02*
X138517380Y-80862609D01*
X138660238Y-80957847D01*
X138755476Y-81053085D01*
X138803095Y-81148323D01*
%TO.C,C29*%
X135414742Y-87780342D02*
X135367123Y-87827961D01*
X135224266Y-87875580D01*
X135129028Y-87875580D01*
X134986171Y-87827961D01*
X134890933Y-87732723D01*
X134843314Y-87637485D01*
X134795695Y-87447009D01*
X134795695Y-87304152D01*
X134843314Y-87113676D01*
X134890933Y-87018438D01*
X134986171Y-86923200D01*
X135129028Y-86875580D01*
X135224266Y-86875580D01*
X135367123Y-86923200D01*
X135414742Y-86970819D01*
X135795695Y-86970819D02*
X135843314Y-86923200D01*
X135938552Y-86875580D01*
X136176647Y-86875580D01*
X136271885Y-86923200D01*
X136319504Y-86970819D01*
X136367123Y-87066057D01*
X136367123Y-87161295D01*
X136319504Y-87304152D01*
X135748076Y-87875580D01*
X136367123Y-87875580D01*
X136843314Y-87875580D02*
X137033790Y-87875580D01*
X137129028Y-87827961D01*
X137176647Y-87780342D01*
X137271885Y-87637485D01*
X137319504Y-87447009D01*
X137319504Y-87066057D01*
X137271885Y-86970819D01*
X137224266Y-86923200D01*
X137129028Y-86875580D01*
X136938552Y-86875580D01*
X136843314Y-86923200D01*
X136795695Y-86970819D01*
X136748076Y-87066057D01*
X136748076Y-87304152D01*
X136795695Y-87399390D01*
X136843314Y-87447009D01*
X136938552Y-87494628D01*
X137129028Y-87494628D01*
X137224266Y-87447009D01*
X137271885Y-87399390D01*
X137319504Y-87304152D01*
%TO.C,C27*%
X137520742Y-85595657D02*
X137568361Y-85643276D01*
X137615980Y-85786133D01*
X137615980Y-85881371D01*
X137568361Y-86024228D01*
X137473123Y-86119466D01*
X137377885Y-86167085D01*
X137187409Y-86214704D01*
X137044552Y-86214704D01*
X136854076Y-86167085D01*
X136758838Y-86119466D01*
X136663600Y-86024228D01*
X136615980Y-85881371D01*
X136615980Y-85786133D01*
X136663600Y-85643276D01*
X136711219Y-85595657D01*
X136711219Y-85214704D02*
X136663600Y-85167085D01*
X136615980Y-85071847D01*
X136615980Y-84833752D01*
X136663600Y-84738514D01*
X136711219Y-84690895D01*
X136806457Y-84643276D01*
X136901695Y-84643276D01*
X137044552Y-84690895D01*
X137615980Y-85262323D01*
X137615980Y-84643276D01*
X136615980Y-84309942D02*
X136615980Y-83643276D01*
X137615980Y-84071847D01*
%TO.C,C26*%
X137796542Y-105100357D02*
X137844161Y-105147976D01*
X137891780Y-105290833D01*
X137891780Y-105386071D01*
X137844161Y-105528928D01*
X137748923Y-105624166D01*
X137653685Y-105671785D01*
X137463209Y-105719404D01*
X137320352Y-105719404D01*
X137129876Y-105671785D01*
X137034638Y-105624166D01*
X136939400Y-105528928D01*
X136891780Y-105386071D01*
X136891780Y-105290833D01*
X136939400Y-105147976D01*
X136987019Y-105100357D01*
X136987019Y-104719404D02*
X136939400Y-104671785D01*
X136891780Y-104576547D01*
X136891780Y-104338452D01*
X136939400Y-104243214D01*
X136987019Y-104195595D01*
X137082257Y-104147976D01*
X137177495Y-104147976D01*
X137320352Y-104195595D01*
X137891780Y-104767023D01*
X137891780Y-104147976D01*
X136891780Y-103290833D02*
X136891780Y-103481309D01*
X136939400Y-103576547D01*
X136987019Y-103624166D01*
X137129876Y-103719404D01*
X137320352Y-103767023D01*
X137701304Y-103767023D01*
X137796542Y-103719404D01*
X137844161Y-103671785D01*
X137891780Y-103576547D01*
X137891780Y-103386071D01*
X137844161Y-103290833D01*
X137796542Y-103243214D01*
X137701304Y-103195595D01*
X137463209Y-103195595D01*
X137367971Y-103243214D01*
X137320352Y-103290833D01*
X137272733Y-103386071D01*
X137272733Y-103576547D01*
X137320352Y-103671785D01*
X137367971Y-103719404D01*
X137463209Y-103767023D01*
%TO.C,C25*%
X141216442Y-109682557D02*
X141264061Y-109730176D01*
X141311680Y-109873033D01*
X141311680Y-109968271D01*
X141264061Y-110111128D01*
X141168823Y-110206366D01*
X141073585Y-110253985D01*
X140883109Y-110301604D01*
X140740252Y-110301604D01*
X140549776Y-110253985D01*
X140454538Y-110206366D01*
X140359300Y-110111128D01*
X140311680Y-109968271D01*
X140311680Y-109873033D01*
X140359300Y-109730176D01*
X140406919Y-109682557D01*
X140406919Y-109301604D02*
X140359300Y-109253985D01*
X140311680Y-109158747D01*
X140311680Y-108920652D01*
X140359300Y-108825414D01*
X140406919Y-108777795D01*
X140502157Y-108730176D01*
X140597395Y-108730176D01*
X140740252Y-108777795D01*
X141311680Y-109349223D01*
X141311680Y-108730176D01*
X140311680Y-107825414D02*
X140311680Y-108301604D01*
X140787871Y-108349223D01*
X140740252Y-108301604D01*
X140692633Y-108206366D01*
X140692633Y-107968271D01*
X140740252Y-107873033D01*
X140787871Y-107825414D01*
X140883109Y-107777795D01*
X141121204Y-107777795D01*
X141216442Y-107825414D01*
X141264061Y-107873033D01*
X141311680Y-107968271D01*
X141311680Y-108206366D01*
X141264061Y-108301604D01*
X141216442Y-108349223D01*
%TO.C,C24*%
X141517642Y-105100357D02*
X141565261Y-105147976D01*
X141612880Y-105290833D01*
X141612880Y-105386071D01*
X141565261Y-105528928D01*
X141470023Y-105624166D01*
X141374785Y-105671785D01*
X141184309Y-105719404D01*
X141041452Y-105719404D01*
X140850976Y-105671785D01*
X140755738Y-105624166D01*
X140660500Y-105528928D01*
X140612880Y-105386071D01*
X140612880Y-105290833D01*
X140660500Y-105147976D01*
X140708119Y-105100357D01*
X140708119Y-104719404D02*
X140660500Y-104671785D01*
X140612880Y-104576547D01*
X140612880Y-104338452D01*
X140660500Y-104243214D01*
X140708119Y-104195595D01*
X140803357Y-104147976D01*
X140898595Y-104147976D01*
X141041452Y-104195595D01*
X141612880Y-104767023D01*
X141612880Y-104147976D01*
X140946214Y-103290833D02*
X141612880Y-103290833D01*
X140565261Y-103528928D02*
X141279547Y-103767023D01*
X141279547Y-103147976D01*
%TO.C,C23*%
X156273342Y-87072742D02*
X156225723Y-87120361D01*
X156082866Y-87167980D01*
X155987628Y-87167980D01*
X155844771Y-87120361D01*
X155749533Y-87025123D01*
X155701914Y-86929885D01*
X155654295Y-86739409D01*
X155654295Y-86596552D01*
X155701914Y-86406076D01*
X155749533Y-86310838D01*
X155844771Y-86215600D01*
X155987628Y-86167980D01*
X156082866Y-86167980D01*
X156225723Y-86215600D01*
X156273342Y-86263219D01*
X156654295Y-86263219D02*
X156701914Y-86215600D01*
X156797152Y-86167980D01*
X157035247Y-86167980D01*
X157130485Y-86215600D01*
X157178104Y-86263219D01*
X157225723Y-86358457D01*
X157225723Y-86453695D01*
X157178104Y-86596552D01*
X156606676Y-87167980D01*
X157225723Y-87167980D01*
X157559057Y-86167980D02*
X158178104Y-86167980D01*
X157844771Y-86548933D01*
X157987628Y-86548933D01*
X158082866Y-86596552D01*
X158130485Y-86644171D01*
X158178104Y-86739409D01*
X158178104Y-86977504D01*
X158130485Y-87072742D01*
X158082866Y-87120361D01*
X157987628Y-87167980D01*
X157701914Y-87167980D01*
X157606676Y-87120361D01*
X157559057Y-87072742D01*
%TO.C,C22*%
X149057842Y-104716857D02*
X149105461Y-104764476D01*
X149153080Y-104907333D01*
X149153080Y-105002571D01*
X149105461Y-105145428D01*
X149010223Y-105240666D01*
X148914985Y-105288285D01*
X148724509Y-105335904D01*
X148581652Y-105335904D01*
X148391176Y-105288285D01*
X148295938Y-105240666D01*
X148200700Y-105145428D01*
X148153080Y-105002571D01*
X148153080Y-104907333D01*
X148200700Y-104764476D01*
X148248319Y-104716857D01*
X148248319Y-104335904D02*
X148200700Y-104288285D01*
X148153080Y-104193047D01*
X148153080Y-103954952D01*
X148200700Y-103859714D01*
X148248319Y-103812095D01*
X148343557Y-103764476D01*
X148438795Y-103764476D01*
X148581652Y-103812095D01*
X149153080Y-104383523D01*
X149153080Y-103764476D01*
X148248319Y-103383523D02*
X148200700Y-103335904D01*
X148153080Y-103240666D01*
X148153080Y-103002571D01*
X148200700Y-102907333D01*
X148248319Y-102859714D01*
X148343557Y-102812095D01*
X148438795Y-102812095D01*
X148581652Y-102859714D01*
X149153080Y-103431142D01*
X149153080Y-102812095D01*
%TO.C,C21*%
X141200142Y-82461257D02*
X141247761Y-82508876D01*
X141295380Y-82651733D01*
X141295380Y-82746971D01*
X141247761Y-82889828D01*
X141152523Y-82985066D01*
X141057285Y-83032685D01*
X140866809Y-83080304D01*
X140723952Y-83080304D01*
X140533476Y-83032685D01*
X140438238Y-82985066D01*
X140343000Y-82889828D01*
X140295380Y-82746971D01*
X140295380Y-82651733D01*
X140343000Y-82508876D01*
X140390619Y-82461257D01*
X140390619Y-82080304D02*
X140343000Y-82032685D01*
X140295380Y-81937447D01*
X140295380Y-81699352D01*
X140343000Y-81604114D01*
X140390619Y-81556495D01*
X140485857Y-81508876D01*
X140581095Y-81508876D01*
X140723952Y-81556495D01*
X141295380Y-82127923D01*
X141295380Y-81508876D01*
X141295380Y-80556495D02*
X141295380Y-81127923D01*
X141295380Y-80842209D02*
X140295380Y-80842209D01*
X140438238Y-80937447D01*
X140533476Y-81032685D01*
X140581095Y-81127923D01*
%TO.C,C19*%
X151645342Y-83415142D02*
X151597723Y-83462761D01*
X151454866Y-83510380D01*
X151359628Y-83510380D01*
X151216771Y-83462761D01*
X151121533Y-83367523D01*
X151073914Y-83272285D01*
X151026295Y-83081809D01*
X151026295Y-82938952D01*
X151073914Y-82748476D01*
X151121533Y-82653238D01*
X151216771Y-82558000D01*
X151359628Y-82510380D01*
X151454866Y-82510380D01*
X151597723Y-82558000D01*
X151645342Y-82605619D01*
X152597723Y-83510380D02*
X152026295Y-83510380D01*
X152312009Y-83510380D02*
X152312009Y-82510380D01*
X152216771Y-82653238D01*
X152121533Y-82748476D01*
X152026295Y-82796095D01*
X153073914Y-83510380D02*
X153264390Y-83510380D01*
X153359628Y-83462761D01*
X153407247Y-83415142D01*
X153502485Y-83272285D01*
X153550104Y-83081809D01*
X153550104Y-82700857D01*
X153502485Y-82605619D01*
X153454866Y-82558000D01*
X153359628Y-82510380D01*
X153169152Y-82510380D01*
X153073914Y-82558000D01*
X153026295Y-82605619D01*
X152978676Y-82700857D01*
X152978676Y-82938952D01*
X153026295Y-83034190D01*
X153073914Y-83081809D01*
X153169152Y-83129428D01*
X153359628Y-83129428D01*
X153454866Y-83081809D01*
X153502485Y-83034190D01*
X153550104Y-82938952D01*
%TO.C,C18*%
X150416742Y-65870057D02*
X150464361Y-65917676D01*
X150511980Y-66060533D01*
X150511980Y-66155771D01*
X150464361Y-66298628D01*
X150369123Y-66393866D01*
X150273885Y-66441485D01*
X150083409Y-66489104D01*
X149940552Y-66489104D01*
X149750076Y-66441485D01*
X149654838Y-66393866D01*
X149559600Y-66298628D01*
X149511980Y-66155771D01*
X149511980Y-66060533D01*
X149559600Y-65917676D01*
X149607219Y-65870057D01*
X150511980Y-64917676D02*
X150511980Y-65489104D01*
X150511980Y-65203390D02*
X149511980Y-65203390D01*
X149654838Y-65298628D01*
X149750076Y-65393866D01*
X149797695Y-65489104D01*
X149940552Y-64346247D02*
X149892933Y-64441485D01*
X149845314Y-64489104D01*
X149750076Y-64536723D01*
X149702457Y-64536723D01*
X149607219Y-64489104D01*
X149559600Y-64441485D01*
X149511980Y-64346247D01*
X149511980Y-64155771D01*
X149559600Y-64060533D01*
X149607219Y-64012914D01*
X149702457Y-63965295D01*
X149750076Y-63965295D01*
X149845314Y-64012914D01*
X149892933Y-64060533D01*
X149940552Y-64155771D01*
X149940552Y-64346247D01*
X149988171Y-64441485D01*
X150035790Y-64489104D01*
X150131028Y-64536723D01*
X150321504Y-64536723D01*
X150416742Y-64489104D01*
X150464361Y-64441485D01*
X150511980Y-64346247D01*
X150511980Y-64155771D01*
X150464361Y-64060533D01*
X150416742Y-64012914D01*
X150321504Y-63965295D01*
X150131028Y-63965295D01*
X150035790Y-64012914D01*
X149988171Y-64060533D01*
X149940552Y-64155771D01*
%TO.C,C17*%
X150995142Y-89320642D02*
X150947523Y-89368261D01*
X150804666Y-89415880D01*
X150709428Y-89415880D01*
X150566571Y-89368261D01*
X150471333Y-89273023D01*
X150423714Y-89177785D01*
X150376095Y-88987309D01*
X150376095Y-88844452D01*
X150423714Y-88653976D01*
X150471333Y-88558738D01*
X150566571Y-88463500D01*
X150709428Y-88415880D01*
X150804666Y-88415880D01*
X150947523Y-88463500D01*
X150995142Y-88511119D01*
X151947523Y-89415880D02*
X151376095Y-89415880D01*
X151661809Y-89415880D02*
X151661809Y-88415880D01*
X151566571Y-88558738D01*
X151471333Y-88653976D01*
X151376095Y-88701595D01*
X152280857Y-88415880D02*
X152947523Y-88415880D01*
X152518952Y-89415880D01*
%TO.C,C16*%
X151056142Y-100017642D02*
X151008523Y-100065261D01*
X150865666Y-100112880D01*
X150770428Y-100112880D01*
X150627571Y-100065261D01*
X150532333Y-99970023D01*
X150484714Y-99874785D01*
X150437095Y-99684309D01*
X150437095Y-99541452D01*
X150484714Y-99350976D01*
X150532333Y-99255738D01*
X150627571Y-99160500D01*
X150770428Y-99112880D01*
X150865666Y-99112880D01*
X151008523Y-99160500D01*
X151056142Y-99208119D01*
X152008523Y-100112880D02*
X151437095Y-100112880D01*
X151722809Y-100112880D02*
X151722809Y-99112880D01*
X151627571Y-99255738D01*
X151532333Y-99350976D01*
X151437095Y-99398595D01*
X152865666Y-99112880D02*
X152675190Y-99112880D01*
X152579952Y-99160500D01*
X152532333Y-99208119D01*
X152437095Y-99350976D01*
X152389476Y-99541452D01*
X152389476Y-99922404D01*
X152437095Y-100017642D01*
X152484714Y-100065261D01*
X152579952Y-100112880D01*
X152770428Y-100112880D01*
X152865666Y-100065261D01*
X152913285Y-100017642D01*
X152960904Y-99922404D01*
X152960904Y-99684309D01*
X152913285Y-99589071D01*
X152865666Y-99541452D01*
X152770428Y-99493833D01*
X152579952Y-99493833D01*
X152484714Y-99541452D01*
X152437095Y-99589071D01*
X152389476Y-99684309D01*
%TO.C,C15*%
X151030742Y-92943742D02*
X150983123Y-92991361D01*
X150840266Y-93038980D01*
X150745028Y-93038980D01*
X150602171Y-92991361D01*
X150506933Y-92896123D01*
X150459314Y-92800885D01*
X150411695Y-92610409D01*
X150411695Y-92467552D01*
X150459314Y-92277076D01*
X150506933Y-92181838D01*
X150602171Y-92086600D01*
X150745028Y-92038980D01*
X150840266Y-92038980D01*
X150983123Y-92086600D01*
X151030742Y-92134219D01*
X151983123Y-93038980D02*
X151411695Y-93038980D01*
X151697409Y-93038980D02*
X151697409Y-92038980D01*
X151602171Y-92181838D01*
X151506933Y-92277076D01*
X151411695Y-92324695D01*
X152887885Y-92038980D02*
X152411695Y-92038980D01*
X152364076Y-92515171D01*
X152411695Y-92467552D01*
X152506933Y-92419933D01*
X152745028Y-92419933D01*
X152840266Y-92467552D01*
X152887885Y-92515171D01*
X152935504Y-92610409D01*
X152935504Y-92848504D01*
X152887885Y-92943742D01*
X152840266Y-92991361D01*
X152745028Y-93038980D01*
X152506933Y-93038980D01*
X152411695Y-92991361D01*
X152364076Y-92943742D01*
%TO.C,C14*%
X151162742Y-96347342D02*
X151115123Y-96394961D01*
X150972266Y-96442580D01*
X150877028Y-96442580D01*
X150734171Y-96394961D01*
X150638933Y-96299723D01*
X150591314Y-96204485D01*
X150543695Y-96014009D01*
X150543695Y-95871152D01*
X150591314Y-95680676D01*
X150638933Y-95585438D01*
X150734171Y-95490200D01*
X150877028Y-95442580D01*
X150972266Y-95442580D01*
X151115123Y-95490200D01*
X151162742Y-95537819D01*
X152115123Y-96442580D02*
X151543695Y-96442580D01*
X151829409Y-96442580D02*
X151829409Y-95442580D01*
X151734171Y-95585438D01*
X151638933Y-95680676D01*
X151543695Y-95728295D01*
X152972266Y-95775914D02*
X152972266Y-96442580D01*
X152734171Y-95394961D02*
X152496076Y-96109247D01*
X153115123Y-96109247D01*
%TO.C,C9*%
X91491733Y-109174342D02*
X91444114Y-109221961D01*
X91301257Y-109269580D01*
X91206019Y-109269580D01*
X91063161Y-109221961D01*
X90967923Y-109126723D01*
X90920304Y-109031485D01*
X90872685Y-108841009D01*
X90872685Y-108698152D01*
X90920304Y-108507676D01*
X90967923Y-108412438D01*
X91063161Y-108317200D01*
X91206019Y-108269580D01*
X91301257Y-108269580D01*
X91444114Y-108317200D01*
X91491733Y-108364819D01*
X91967923Y-109269580D02*
X92158400Y-109269580D01*
X92253638Y-109221961D01*
X92301257Y-109174342D01*
X92396495Y-109031485D01*
X92444114Y-108841009D01*
X92444114Y-108460057D01*
X92396495Y-108364819D01*
X92348876Y-108317200D01*
X92253638Y-108269580D01*
X92063161Y-108269580D01*
X91967923Y-108317200D01*
X91920304Y-108364819D01*
X91872685Y-108460057D01*
X91872685Y-108698152D01*
X91920304Y-108793390D01*
X91967923Y-108841009D01*
X92063161Y-108888628D01*
X92253638Y-108888628D01*
X92348876Y-108841009D01*
X92396495Y-108793390D01*
X92444114Y-108698152D01*
%TO.C,C7*%
X97638533Y-95813942D02*
X97590914Y-95861561D01*
X97448057Y-95909180D01*
X97352819Y-95909180D01*
X97209961Y-95861561D01*
X97114723Y-95766323D01*
X97067104Y-95671085D01*
X97019485Y-95480609D01*
X97019485Y-95337752D01*
X97067104Y-95147276D01*
X97114723Y-95052038D01*
X97209961Y-94956800D01*
X97352819Y-94909180D01*
X97448057Y-94909180D01*
X97590914Y-94956800D01*
X97638533Y-95004419D01*
X97971866Y-94909180D02*
X98638533Y-94909180D01*
X98209961Y-95909180D01*
%TO.C,C6*%
X92301542Y-120562666D02*
X92349161Y-120610285D01*
X92396780Y-120753142D01*
X92396780Y-120848380D01*
X92349161Y-120991238D01*
X92253923Y-121086476D01*
X92158685Y-121134095D01*
X91968209Y-121181714D01*
X91825352Y-121181714D01*
X91634876Y-121134095D01*
X91539638Y-121086476D01*
X91444400Y-120991238D01*
X91396780Y-120848380D01*
X91396780Y-120753142D01*
X91444400Y-120610285D01*
X91492019Y-120562666D01*
X91396780Y-119705523D02*
X91396780Y-119896000D01*
X91444400Y-119991238D01*
X91492019Y-120038857D01*
X91634876Y-120134095D01*
X91825352Y-120181714D01*
X92206304Y-120181714D01*
X92301542Y-120134095D01*
X92349161Y-120086476D01*
X92396780Y-119991238D01*
X92396780Y-119800761D01*
X92349161Y-119705523D01*
X92301542Y-119657904D01*
X92206304Y-119610285D01*
X91968209Y-119610285D01*
X91872971Y-119657904D01*
X91825352Y-119705523D01*
X91777733Y-119800761D01*
X91777733Y-119991238D01*
X91825352Y-120086476D01*
X91872971Y-120134095D01*
X91968209Y-120181714D01*
%TO.C,C5*%
X108370642Y-110605866D02*
X108418261Y-110653485D01*
X108465880Y-110796342D01*
X108465880Y-110891580D01*
X108418261Y-111034438D01*
X108323023Y-111129676D01*
X108227785Y-111177295D01*
X108037309Y-111224914D01*
X107894452Y-111224914D01*
X107703976Y-111177295D01*
X107608738Y-111129676D01*
X107513500Y-111034438D01*
X107465880Y-110891580D01*
X107465880Y-110796342D01*
X107513500Y-110653485D01*
X107561119Y-110605866D01*
X107465880Y-109701104D02*
X107465880Y-110177295D01*
X107942071Y-110224914D01*
X107894452Y-110177295D01*
X107846833Y-110082057D01*
X107846833Y-109843961D01*
X107894452Y-109748723D01*
X107942071Y-109701104D01*
X108037309Y-109653485D01*
X108275404Y-109653485D01*
X108370642Y-109701104D01*
X108418261Y-109748723D01*
X108465880Y-109843961D01*
X108465880Y-110082057D01*
X108418261Y-110177295D01*
X108370642Y-110224914D01*
%TO.C,C4*%
X99565942Y-121004666D02*
X99613561Y-121052285D01*
X99661180Y-121195142D01*
X99661180Y-121290380D01*
X99613561Y-121433238D01*
X99518323Y-121528476D01*
X99423085Y-121576095D01*
X99232609Y-121623714D01*
X99089752Y-121623714D01*
X98899276Y-121576095D01*
X98804038Y-121528476D01*
X98708800Y-121433238D01*
X98661180Y-121290380D01*
X98661180Y-121195142D01*
X98708800Y-121052285D01*
X98756419Y-121004666D01*
X98994514Y-120147523D02*
X99661180Y-120147523D01*
X98613561Y-120385619D02*
X99327847Y-120623714D01*
X99327847Y-120004666D01*
%TO.C,C2*%
X110054133Y-92715142D02*
X110006514Y-92762761D01*
X109863657Y-92810380D01*
X109768419Y-92810380D01*
X109625561Y-92762761D01*
X109530323Y-92667523D01*
X109482704Y-92572285D01*
X109435085Y-92381809D01*
X109435085Y-92238952D01*
X109482704Y-92048476D01*
X109530323Y-91953238D01*
X109625561Y-91858000D01*
X109768419Y-91810380D01*
X109863657Y-91810380D01*
X110006514Y-91858000D01*
X110054133Y-91905619D01*
X110435085Y-91905619D02*
X110482704Y-91858000D01*
X110577942Y-91810380D01*
X110816038Y-91810380D01*
X110911276Y-91858000D01*
X110958895Y-91905619D01*
X111006514Y-92000857D01*
X111006514Y-92096095D01*
X110958895Y-92238952D01*
X110387466Y-92810380D01*
X111006514Y-92810380D01*
%TO.C,R1*%
X117164380Y-106108166D02*
X116688190Y-106441500D01*
X117164380Y-106679595D02*
X116164380Y-106679595D01*
X116164380Y-106298642D01*
X116212000Y-106203404D01*
X116259619Y-106155785D01*
X116354857Y-106108166D01*
X116497714Y-106108166D01*
X116592952Y-106155785D01*
X116640571Y-106203404D01*
X116688190Y-106298642D01*
X116688190Y-106679595D01*
X117164380Y-105155785D02*
X117164380Y-105727214D01*
X117164380Y-105441500D02*
X116164380Y-105441500D01*
X116307238Y-105536738D01*
X116402476Y-105631976D01*
X116450095Y-105727214D01*
%TO.C,D1*%
X116683780Y-122655795D02*
X115683780Y-122655795D01*
X115683780Y-122417700D01*
X115731400Y-122274842D01*
X115826638Y-122179604D01*
X115921876Y-122131985D01*
X116112352Y-122084366D01*
X116255209Y-122084366D01*
X116445685Y-122131985D01*
X116540923Y-122179604D01*
X116636161Y-122274842D01*
X116683780Y-122417700D01*
X116683780Y-122655795D01*
X116683780Y-121131985D02*
X116683780Y-121703414D01*
X116683780Y-121417700D02*
X115683780Y-121417700D01*
X115826638Y-121512938D01*
X115921876Y-121608176D01*
X115969495Y-121703414D01*
%TO.C,U2*%
X144613380Y-86055104D02*
X145422904Y-86055104D01*
X145518142Y-86007485D01*
X145565761Y-85959866D01*
X145613380Y-85864628D01*
X145613380Y-85674152D01*
X145565761Y-85578914D01*
X145518142Y-85531295D01*
X145422904Y-85483676D01*
X144613380Y-85483676D01*
X144708619Y-85055104D02*
X144661000Y-85007485D01*
X144613380Y-84912247D01*
X144613380Y-84674152D01*
X144661000Y-84578914D01*
X144708619Y-84531295D01*
X144803857Y-84483676D01*
X144899095Y-84483676D01*
X145041952Y-84531295D01*
X145613380Y-85102723D01*
X145613380Y-84483676D01*
%TO.C,C1*%
X109232633Y-99157942D02*
X109185014Y-99205561D01*
X109042157Y-99253180D01*
X108946919Y-99253180D01*
X108804061Y-99205561D01*
X108708823Y-99110323D01*
X108661204Y-99015085D01*
X108613585Y-98824609D01*
X108613585Y-98681752D01*
X108661204Y-98491276D01*
X108708823Y-98396038D01*
X108804061Y-98300800D01*
X108946919Y-98253180D01*
X109042157Y-98253180D01*
X109185014Y-98300800D01*
X109232633Y-98348419D01*
X110185014Y-99253180D02*
X109613585Y-99253180D01*
X109899300Y-99253180D02*
X109899300Y-98253180D01*
X109804061Y-98396038D01*
X109708823Y-98491276D01*
X109613585Y-98538895D01*
%TO.C,C3*%
X99733033Y-111665142D02*
X99685414Y-111712761D01*
X99542557Y-111760380D01*
X99447319Y-111760380D01*
X99304461Y-111712761D01*
X99209223Y-111617523D01*
X99161604Y-111522285D01*
X99113985Y-111331809D01*
X99113985Y-111188952D01*
X99161604Y-110998476D01*
X99209223Y-110903238D01*
X99304461Y-110808000D01*
X99447319Y-110760380D01*
X99542557Y-110760380D01*
X99685414Y-110808000D01*
X99733033Y-110855619D01*
X100066366Y-110760380D02*
X100685414Y-110760380D01*
X100352080Y-111141333D01*
X100494938Y-111141333D01*
X100590176Y-111188952D01*
X100637795Y-111236571D01*
X100685414Y-111331809D01*
X100685414Y-111569904D01*
X100637795Y-111665142D01*
X100590176Y-111712761D01*
X100494938Y-111760380D01*
X100209223Y-111760380D01*
X100113985Y-111712761D01*
X100066366Y-111665142D01*
%TO.C,C8*%
X93329233Y-99269942D02*
X93281614Y-99317561D01*
X93138757Y-99365180D01*
X93043519Y-99365180D01*
X92900661Y-99317561D01*
X92805423Y-99222323D01*
X92757804Y-99127085D01*
X92710185Y-98936609D01*
X92710185Y-98793752D01*
X92757804Y-98603276D01*
X92805423Y-98508038D01*
X92900661Y-98412800D01*
X93043519Y-98365180D01*
X93138757Y-98365180D01*
X93281614Y-98412800D01*
X93329233Y-98460419D01*
X93900661Y-98793752D02*
X93805423Y-98746133D01*
X93757804Y-98698514D01*
X93710185Y-98603276D01*
X93710185Y-98555657D01*
X93757804Y-98460419D01*
X93805423Y-98412800D01*
X93900661Y-98365180D01*
X94091138Y-98365180D01*
X94186376Y-98412800D01*
X94233995Y-98460419D01*
X94281614Y-98555657D01*
X94281614Y-98603276D01*
X94233995Y-98698514D01*
X94186376Y-98746133D01*
X94091138Y-98793752D01*
X93900661Y-98793752D01*
X93805423Y-98841371D01*
X93757804Y-98888990D01*
X93710185Y-98984228D01*
X93710185Y-99174704D01*
X93757804Y-99269942D01*
X93805423Y-99317561D01*
X93900661Y-99365180D01*
X94091138Y-99365180D01*
X94186376Y-99317561D01*
X94233995Y-99269942D01*
X94281614Y-99174704D01*
X94281614Y-98984228D01*
X94233995Y-98888990D01*
X94186376Y-98841371D01*
X94091138Y-98793752D01*
%TO.C,C10*%
X91686142Y-105594542D02*
X91638523Y-105642161D01*
X91495666Y-105689780D01*
X91400428Y-105689780D01*
X91257571Y-105642161D01*
X91162333Y-105546923D01*
X91114714Y-105451685D01*
X91067095Y-105261209D01*
X91067095Y-105118352D01*
X91114714Y-104927876D01*
X91162333Y-104832638D01*
X91257571Y-104737400D01*
X91400428Y-104689780D01*
X91495666Y-104689780D01*
X91638523Y-104737400D01*
X91686142Y-104785019D01*
X92638523Y-105689780D02*
X92067095Y-105689780D01*
X92352809Y-105689780D02*
X92352809Y-104689780D01*
X92257571Y-104832638D01*
X92162333Y-104927876D01*
X92067095Y-104975495D01*
X93257571Y-104689780D02*
X93352809Y-104689780D01*
X93448047Y-104737400D01*
X93495666Y-104785019D01*
X93543285Y-104880257D01*
X93590904Y-105070733D01*
X93590904Y-105308828D01*
X93543285Y-105499304D01*
X93495666Y-105594542D01*
X93448047Y-105642161D01*
X93352809Y-105689780D01*
X93257571Y-105689780D01*
X93162333Y-105642161D01*
X93114714Y-105594542D01*
X93067095Y-105499304D01*
X93019476Y-105308828D01*
X93019476Y-105070733D01*
X93067095Y-104880257D01*
X93114714Y-104785019D01*
X93162333Y-104737400D01*
X93257571Y-104689780D01*
%TO.C,C11*%
X92500442Y-95713942D02*
X92452823Y-95761561D01*
X92309966Y-95809180D01*
X92214728Y-95809180D01*
X92071871Y-95761561D01*
X91976633Y-95666323D01*
X91929014Y-95571085D01*
X91881395Y-95380609D01*
X91881395Y-95237752D01*
X91929014Y-95047276D01*
X91976633Y-94952038D01*
X92071871Y-94856800D01*
X92214728Y-94809180D01*
X92309966Y-94809180D01*
X92452823Y-94856800D01*
X92500442Y-94904419D01*
X93452823Y-95809180D02*
X92881395Y-95809180D01*
X93167109Y-95809180D02*
X93167109Y-94809180D01*
X93071871Y-94952038D01*
X92976633Y-95047276D01*
X92881395Y-95094895D01*
X94405204Y-95809180D02*
X93833776Y-95809180D01*
X94119490Y-95809180D02*
X94119490Y-94809180D01*
X94024252Y-94952038D01*
X93929014Y-95047276D01*
X93833776Y-95094895D01*
%TO.C,C12*%
X107283242Y-95703542D02*
X107235623Y-95751161D01*
X107092766Y-95798780D01*
X106997528Y-95798780D01*
X106854671Y-95751161D01*
X106759433Y-95655923D01*
X106711814Y-95560685D01*
X106664195Y-95370209D01*
X106664195Y-95227352D01*
X106711814Y-95036876D01*
X106759433Y-94941638D01*
X106854671Y-94846400D01*
X106997528Y-94798780D01*
X107092766Y-94798780D01*
X107235623Y-94846400D01*
X107283242Y-94894019D01*
X108235623Y-95798780D02*
X107664195Y-95798780D01*
X107949909Y-95798780D02*
X107949909Y-94798780D01*
X107854671Y-94941638D01*
X107759433Y-95036876D01*
X107664195Y-95084495D01*
X108616576Y-94894019D02*
X108664195Y-94846400D01*
X108759433Y-94798780D01*
X108997528Y-94798780D01*
X109092766Y-94846400D01*
X109140385Y-94894019D01*
X109188004Y-94989257D01*
X109188004Y-95084495D01*
X109140385Y-95227352D01*
X108568957Y-95798780D01*
X109188004Y-95798780D01*
%TO.C,C13*%
X92497442Y-102419542D02*
X92449823Y-102467161D01*
X92306966Y-102514780D01*
X92211728Y-102514780D01*
X92068871Y-102467161D01*
X91973633Y-102371923D01*
X91926014Y-102276685D01*
X91878395Y-102086209D01*
X91878395Y-101943352D01*
X91926014Y-101752876D01*
X91973633Y-101657638D01*
X92068871Y-101562400D01*
X92211728Y-101514780D01*
X92306966Y-101514780D01*
X92449823Y-101562400D01*
X92497442Y-101610019D01*
X93449823Y-102514780D02*
X92878395Y-102514780D01*
X93164109Y-102514780D02*
X93164109Y-101514780D01*
X93068871Y-101657638D01*
X92973633Y-101752876D01*
X92878395Y-101800495D01*
X93783157Y-101514780D02*
X94402204Y-101514780D01*
X94068871Y-101895733D01*
X94211728Y-101895733D01*
X94306966Y-101943352D01*
X94354585Y-101990971D01*
X94402204Y-102086209D01*
X94402204Y-102324304D01*
X94354585Y-102419542D01*
X94306966Y-102467161D01*
X94211728Y-102514780D01*
X93926014Y-102514780D01*
X93830776Y-102467161D01*
X93783157Y-102419542D01*
%TO.C,C33*%
X93159342Y-74113542D02*
X93111723Y-74161161D01*
X92968866Y-74208780D01*
X92873628Y-74208780D01*
X92730771Y-74161161D01*
X92635533Y-74065923D01*
X92587914Y-73970685D01*
X92540295Y-73780209D01*
X92540295Y-73637352D01*
X92587914Y-73446876D01*
X92635533Y-73351638D01*
X92730771Y-73256400D01*
X92873628Y-73208780D01*
X92968866Y-73208780D01*
X93111723Y-73256400D01*
X93159342Y-73304019D01*
X93492676Y-73208780D02*
X94111723Y-73208780D01*
X93778390Y-73589733D01*
X93921247Y-73589733D01*
X94016485Y-73637352D01*
X94064104Y-73684971D01*
X94111723Y-73780209D01*
X94111723Y-74018304D01*
X94064104Y-74113542D01*
X94016485Y-74161161D01*
X93921247Y-74208780D01*
X93635533Y-74208780D01*
X93540295Y-74161161D01*
X93492676Y-74113542D01*
X94445057Y-73208780D02*
X95064104Y-73208780D01*
X94730771Y-73589733D01*
X94873628Y-73589733D01*
X94968866Y-73637352D01*
X95016485Y-73684971D01*
X95064104Y-73780209D01*
X95064104Y-74018304D01*
X95016485Y-74113542D01*
X94968866Y-74161161D01*
X94873628Y-74208780D01*
X94587914Y-74208780D01*
X94492676Y-74161161D01*
X94445057Y-74113542D01*
%TO.C,D4*%
X110094804Y-65236980D02*
X110094804Y-64236980D01*
X110332900Y-64236980D01*
X110475757Y-64284600D01*
X110570995Y-64379838D01*
X110618614Y-64475076D01*
X110666233Y-64665552D01*
X110666233Y-64808409D01*
X110618614Y-64998885D01*
X110570995Y-65094123D01*
X110475757Y-65189361D01*
X110332900Y-65236980D01*
X110094804Y-65236980D01*
X111523376Y-64570314D02*
X111523376Y-65236980D01*
X111285280Y-64189361D02*
X111047185Y-64903647D01*
X111666233Y-64903647D01*
%TO.C,D5*%
X114590604Y-65287780D02*
X114590604Y-64287780D01*
X114828700Y-64287780D01*
X114971557Y-64335400D01*
X115066795Y-64430638D01*
X115114414Y-64525876D01*
X115162033Y-64716352D01*
X115162033Y-64859209D01*
X115114414Y-65049685D01*
X115066795Y-65144923D01*
X114971557Y-65240161D01*
X114828700Y-65287780D01*
X114590604Y-65287780D01*
X116066795Y-64287780D02*
X115590604Y-64287780D01*
X115542985Y-64763971D01*
X115590604Y-64716352D01*
X115685842Y-64668733D01*
X115923938Y-64668733D01*
X116019176Y-64716352D01*
X116066795Y-64763971D01*
X116114414Y-64859209D01*
X116114414Y-65097304D01*
X116066795Y-65192542D01*
X116019176Y-65240161D01*
X115923938Y-65287780D01*
X115685842Y-65287780D01*
X115590604Y-65240161D01*
X115542985Y-65192542D01*
%TO.C,J1*%
D12*
X136473371Y-62299800D02*
X137544800Y-62299800D01*
X137759085Y-62356942D01*
X137901942Y-62471228D01*
X137973371Y-62642657D01*
X137973371Y-62756942D01*
X137973371Y-61099800D02*
X137973371Y-61785514D01*
X137973371Y-61442657D02*
X136473371Y-61442657D01*
X136687657Y-61556942D01*
X136830514Y-61671228D01*
X136901942Y-61785514D01*
%TO.C,J2*%
D10*
X168507980Y-143132133D02*
X169222266Y-143132133D01*
X169365123Y-143179752D01*
X169460361Y-143274990D01*
X169507980Y-143417847D01*
X169507980Y-143513085D01*
X168603219Y-142703561D02*
X168555600Y-142655942D01*
X168507980Y-142560704D01*
X168507980Y-142322609D01*
X168555600Y-142227371D01*
X168603219Y-142179752D01*
X168698457Y-142132133D01*
X168793695Y-142132133D01*
X168936552Y-142179752D01*
X169507980Y-142751180D01*
X169507980Y-142132133D01*
%TO.C,J3*%
X87681380Y-61521933D02*
X88395666Y-61521933D01*
X88538523Y-61569552D01*
X88633761Y-61664790D01*
X88681380Y-61807647D01*
X88681380Y-61902885D01*
X87681380Y-61140980D02*
X87681380Y-60521933D01*
X88062333Y-60855266D01*
X88062333Y-60712409D01*
X88109952Y-60617171D01*
X88157571Y-60569552D01*
X88252809Y-60521933D01*
X88490904Y-60521933D01*
X88586142Y-60569552D01*
X88633761Y-60617171D01*
X88681380Y-60712409D01*
X88681380Y-60998123D01*
X88633761Y-61093361D01*
X88586142Y-61140980D01*
%TO.C,C30*%
X155503942Y-78737657D02*
X155551561Y-78785276D01*
X155599180Y-78928133D01*
X155599180Y-79023371D01*
X155551561Y-79166228D01*
X155456323Y-79261466D01*
X155361085Y-79309085D01*
X155170609Y-79356704D01*
X155027752Y-79356704D01*
X154837276Y-79309085D01*
X154742038Y-79261466D01*
X154646800Y-79166228D01*
X154599180Y-79023371D01*
X154599180Y-78928133D01*
X154646800Y-78785276D01*
X154694419Y-78737657D01*
X154599180Y-78404323D02*
X154599180Y-77785276D01*
X154980133Y-78118609D01*
X154980133Y-77975752D01*
X155027752Y-77880514D01*
X155075371Y-77832895D01*
X155170609Y-77785276D01*
X155408704Y-77785276D01*
X155503942Y-77832895D01*
X155551561Y-77880514D01*
X155599180Y-77975752D01*
X155599180Y-78261466D01*
X155551561Y-78356704D01*
X155503942Y-78404323D01*
X154599180Y-77166228D02*
X154599180Y-77070990D01*
X154646800Y-76975752D01*
X154694419Y-76928133D01*
X154789657Y-76880514D01*
X154980133Y-76832895D01*
X155218228Y-76832895D01*
X155408704Y-76880514D01*
X155503942Y-76928133D01*
X155551561Y-76975752D01*
X155599180Y-77070990D01*
X155599180Y-77166228D01*
X155551561Y-77261466D01*
X155503942Y-77309085D01*
X155408704Y-77356704D01*
X155218228Y-77404323D01*
X154980133Y-77404323D01*
X154789657Y-77356704D01*
X154694419Y-77309085D01*
X154646800Y-77261466D01*
X154599180Y-77166228D01*
%TO.C,C32*%
X152651942Y-104678757D02*
X152699561Y-104726376D01*
X152747180Y-104869233D01*
X152747180Y-104964471D01*
X152699561Y-105107328D01*
X152604323Y-105202566D01*
X152509085Y-105250185D01*
X152318609Y-105297804D01*
X152175752Y-105297804D01*
X151985276Y-105250185D01*
X151890038Y-105202566D01*
X151794800Y-105107328D01*
X151747180Y-104964471D01*
X151747180Y-104869233D01*
X151794800Y-104726376D01*
X151842419Y-104678757D01*
X151747180Y-104345423D02*
X151747180Y-103726376D01*
X152128133Y-104059709D01*
X152128133Y-103916852D01*
X152175752Y-103821614D01*
X152223371Y-103773995D01*
X152318609Y-103726376D01*
X152556704Y-103726376D01*
X152651942Y-103773995D01*
X152699561Y-103821614D01*
X152747180Y-103916852D01*
X152747180Y-104202566D01*
X152699561Y-104297804D01*
X152651942Y-104345423D01*
X151842419Y-103345423D02*
X151794800Y-103297804D01*
X151747180Y-103202566D01*
X151747180Y-102964471D01*
X151794800Y-102869233D01*
X151842419Y-102821614D01*
X151937657Y-102773995D01*
X152032895Y-102773995D01*
X152175752Y-102821614D01*
X152747180Y-103393042D01*
X152747180Y-102773995D01*
%TO.C,C34*%
X94239142Y-79189857D02*
X94286761Y-79237476D01*
X94334380Y-79380333D01*
X94334380Y-79475571D01*
X94286761Y-79618428D01*
X94191523Y-79713666D01*
X94096285Y-79761285D01*
X93905809Y-79808904D01*
X93762952Y-79808904D01*
X93572476Y-79761285D01*
X93477238Y-79713666D01*
X93382000Y-79618428D01*
X93334380Y-79475571D01*
X93334380Y-79380333D01*
X93382000Y-79237476D01*
X93429619Y-79189857D01*
X93334380Y-78856523D02*
X93334380Y-78237476D01*
X93715333Y-78570809D01*
X93715333Y-78427952D01*
X93762952Y-78332714D01*
X93810571Y-78285095D01*
X93905809Y-78237476D01*
X94143904Y-78237476D01*
X94239142Y-78285095D01*
X94286761Y-78332714D01*
X94334380Y-78427952D01*
X94334380Y-78713666D01*
X94286761Y-78808904D01*
X94239142Y-78856523D01*
X93667714Y-77380333D02*
X94334380Y-77380333D01*
X93286761Y-77618428D02*
X94001047Y-77856523D01*
X94001047Y-77237476D01*
%TO.C,C35*%
X103776542Y-73152342D02*
X103728923Y-73199961D01*
X103586066Y-73247580D01*
X103490828Y-73247580D01*
X103347971Y-73199961D01*
X103252733Y-73104723D01*
X103205114Y-73009485D01*
X103157495Y-72819009D01*
X103157495Y-72676152D01*
X103205114Y-72485676D01*
X103252733Y-72390438D01*
X103347971Y-72295200D01*
X103490828Y-72247580D01*
X103586066Y-72247580D01*
X103728923Y-72295200D01*
X103776542Y-72342819D01*
X104109876Y-72247580D02*
X104728923Y-72247580D01*
X104395590Y-72628533D01*
X104538447Y-72628533D01*
X104633685Y-72676152D01*
X104681304Y-72723771D01*
X104728923Y-72819009D01*
X104728923Y-73057104D01*
X104681304Y-73152342D01*
X104633685Y-73199961D01*
X104538447Y-73247580D01*
X104252733Y-73247580D01*
X104157495Y-73199961D01*
X104109876Y-73152342D01*
X105633685Y-72247580D02*
X105157495Y-72247580D01*
X105109876Y-72723771D01*
X105157495Y-72676152D01*
X105252733Y-72628533D01*
X105490828Y-72628533D01*
X105586066Y-72676152D01*
X105633685Y-72723771D01*
X105681304Y-72819009D01*
X105681304Y-73057104D01*
X105633685Y-73152342D01*
X105586066Y-73199961D01*
X105490828Y-73247580D01*
X105252733Y-73247580D01*
X105157495Y-73199961D01*
X105109876Y-73152342D01*
%TO.C,C36*%
X107510342Y-70511942D02*
X107462723Y-70559561D01*
X107319866Y-70607180D01*
X107224628Y-70607180D01*
X107081771Y-70559561D01*
X106986533Y-70464323D01*
X106938914Y-70369085D01*
X106891295Y-70178609D01*
X106891295Y-70035752D01*
X106938914Y-69845276D01*
X106986533Y-69750038D01*
X107081771Y-69654800D01*
X107224628Y-69607180D01*
X107319866Y-69607180D01*
X107462723Y-69654800D01*
X107510342Y-69702419D01*
X107843676Y-69607180D02*
X108462723Y-69607180D01*
X108129390Y-69988133D01*
X108272247Y-69988133D01*
X108367485Y-70035752D01*
X108415104Y-70083371D01*
X108462723Y-70178609D01*
X108462723Y-70416704D01*
X108415104Y-70511942D01*
X108367485Y-70559561D01*
X108272247Y-70607180D01*
X107986533Y-70607180D01*
X107891295Y-70559561D01*
X107843676Y-70511942D01*
X109319866Y-69607180D02*
X109129390Y-69607180D01*
X109034152Y-69654800D01*
X108986533Y-69702419D01*
X108891295Y-69845276D01*
X108843676Y-70035752D01*
X108843676Y-70416704D01*
X108891295Y-70511942D01*
X108938914Y-70559561D01*
X109034152Y-70607180D01*
X109224628Y-70607180D01*
X109319866Y-70559561D01*
X109367485Y-70511942D01*
X109415104Y-70416704D01*
X109415104Y-70178609D01*
X109367485Y-70083371D01*
X109319866Y-70035752D01*
X109224628Y-69988133D01*
X109034152Y-69988133D01*
X108938914Y-70035752D01*
X108891295Y-70083371D01*
X108843676Y-70178609D01*
%TO.C,C37*%
X102063942Y-69730857D02*
X102111561Y-69778476D01*
X102159180Y-69921333D01*
X102159180Y-70016571D01*
X102111561Y-70159428D01*
X102016323Y-70254666D01*
X101921085Y-70302285D01*
X101730609Y-70349904D01*
X101587752Y-70349904D01*
X101397276Y-70302285D01*
X101302038Y-70254666D01*
X101206800Y-70159428D01*
X101159180Y-70016571D01*
X101159180Y-69921333D01*
X101206800Y-69778476D01*
X101254419Y-69730857D01*
X101159180Y-69397523D02*
X101159180Y-68778476D01*
X101540133Y-69111809D01*
X101540133Y-68968952D01*
X101587752Y-68873714D01*
X101635371Y-68826095D01*
X101730609Y-68778476D01*
X101968704Y-68778476D01*
X102063942Y-68826095D01*
X102111561Y-68873714D01*
X102159180Y-68968952D01*
X102159180Y-69254666D01*
X102111561Y-69349904D01*
X102063942Y-69397523D01*
X101159180Y-68445142D02*
X101159180Y-67778476D01*
X102159180Y-68207047D01*
%TO.C,D2*%
X105088680Y-145721295D02*
X104088680Y-145721295D01*
X104088680Y-145483200D01*
X104136300Y-145340342D01*
X104231538Y-145245104D01*
X104326776Y-145197485D01*
X104517252Y-145149866D01*
X104660109Y-145149866D01*
X104850585Y-145197485D01*
X104945823Y-145245104D01*
X105041061Y-145340342D01*
X105088680Y-145483200D01*
X105088680Y-145721295D01*
X104183919Y-144768914D02*
X104136300Y-144721295D01*
X104088680Y-144626057D01*
X104088680Y-144387961D01*
X104136300Y-144292723D01*
X104183919Y-144245104D01*
X104279157Y-144197485D01*
X104374395Y-144197485D01*
X104517252Y-144245104D01*
X105088680Y-144816533D01*
X105088680Y-144197485D01*
%TO.C,D3*%
X109292380Y-145695895D02*
X108292380Y-145695895D01*
X108292380Y-145457800D01*
X108340000Y-145314942D01*
X108435238Y-145219704D01*
X108530476Y-145172085D01*
X108720952Y-145124466D01*
X108863809Y-145124466D01*
X109054285Y-145172085D01*
X109149523Y-145219704D01*
X109244761Y-145314942D01*
X109292380Y-145457800D01*
X109292380Y-145695895D01*
X108292380Y-144791133D02*
X108292380Y-144172085D01*
X108673333Y-144505419D01*
X108673333Y-144362561D01*
X108720952Y-144267323D01*
X108768571Y-144219704D01*
X108863809Y-144172085D01*
X109101904Y-144172085D01*
X109197142Y-144219704D01*
X109244761Y-144267323D01*
X109292380Y-144362561D01*
X109292380Y-144648276D01*
X109244761Y-144743514D01*
X109197142Y-144791133D01*
%TO.C,R11*%
X131972442Y-90140780D02*
X131639109Y-89664590D01*
X131401014Y-90140780D02*
X131401014Y-89140780D01*
X131781966Y-89140780D01*
X131877204Y-89188400D01*
X131924823Y-89236019D01*
X131972442Y-89331257D01*
X131972442Y-89474114D01*
X131924823Y-89569352D01*
X131877204Y-89616971D01*
X131781966Y-89664590D01*
X131401014Y-89664590D01*
X132924823Y-90140780D02*
X132353395Y-90140780D01*
X132639109Y-90140780D02*
X132639109Y-89140780D01*
X132543871Y-89283638D01*
X132448633Y-89378876D01*
X132353395Y-89426495D01*
X133877204Y-90140780D02*
X133305776Y-90140780D01*
X133591490Y-90140780D02*
X133591490Y-89140780D01*
X133496252Y-89283638D01*
X133401014Y-89378876D01*
X133305776Y-89426495D01*
%TO.C,R12*%
X104871780Y-141384257D02*
X104395590Y-141717590D01*
X104871780Y-141955685D02*
X103871780Y-141955685D01*
X103871780Y-141574733D01*
X103919400Y-141479495D01*
X103967019Y-141431876D01*
X104062257Y-141384257D01*
X104205114Y-141384257D01*
X104300352Y-141431876D01*
X104347971Y-141479495D01*
X104395590Y-141574733D01*
X104395590Y-141955685D01*
X104871780Y-140431876D02*
X104871780Y-141003304D01*
X104871780Y-140717590D02*
X103871780Y-140717590D01*
X104014638Y-140812828D01*
X104109876Y-140908066D01*
X104157495Y-141003304D01*
X103967019Y-140050923D02*
X103919400Y-140003304D01*
X103871780Y-139908066D01*
X103871780Y-139669971D01*
X103919400Y-139574733D01*
X103967019Y-139527114D01*
X104062257Y-139479495D01*
X104157495Y-139479495D01*
X104300352Y-139527114D01*
X104871780Y-140098542D01*
X104871780Y-139479495D01*
%TO.C,R13*%
X109305080Y-141219157D02*
X108828890Y-141552490D01*
X109305080Y-141790585D02*
X108305080Y-141790585D01*
X108305080Y-141409633D01*
X108352700Y-141314395D01*
X108400319Y-141266776D01*
X108495557Y-141219157D01*
X108638414Y-141219157D01*
X108733652Y-141266776D01*
X108781271Y-141314395D01*
X108828890Y-141409633D01*
X108828890Y-141790585D01*
X109305080Y-140266776D02*
X109305080Y-140838204D01*
X109305080Y-140552490D02*
X108305080Y-140552490D01*
X108447938Y-140647728D01*
X108543176Y-140742966D01*
X108590795Y-140838204D01*
X108305080Y-139933442D02*
X108305080Y-139314395D01*
X108686033Y-139647728D01*
X108686033Y-139504871D01*
X108733652Y-139409633D01*
X108781271Y-139362014D01*
X108876509Y-139314395D01*
X109114604Y-139314395D01*
X109209842Y-139362014D01*
X109257461Y-139409633D01*
X109305080Y-139504871D01*
X109305080Y-139790585D01*
X109257461Y-139885823D01*
X109209842Y-139933442D01*
%TO.C,U3*%
X147090495Y-72679180D02*
X147090495Y-73488704D01*
X147138114Y-73583942D01*
X147185733Y-73631561D01*
X147280971Y-73679180D01*
X147471447Y-73679180D01*
X147566685Y-73631561D01*
X147614304Y-73583942D01*
X147661923Y-73488704D01*
X147661923Y-72679180D01*
X148042876Y-72679180D02*
X148661923Y-72679180D01*
X148328590Y-73060133D01*
X148471447Y-73060133D01*
X148566685Y-73107752D01*
X148614304Y-73155371D01*
X148661923Y-73250609D01*
X148661923Y-73488704D01*
X148614304Y-73583942D01*
X148566685Y-73631561D01*
X148471447Y-73679180D01*
X148185733Y-73679180D01*
X148090495Y-73631561D01*
X148042876Y-73583942D01*
%TO.C,L1*%
X140244533Y-79293980D02*
X139768342Y-79293980D01*
X139768342Y-78293980D01*
X141101676Y-79293980D02*
X140530247Y-79293980D01*
X140815961Y-79293980D02*
X140815961Y-78293980D01*
X140720723Y-78436838D01*
X140625485Y-78532076D01*
X140530247Y-78579695D01*
%TO.C,JP1*%
X159679666Y-127725780D02*
X159679666Y-128440066D01*
X159632047Y-128582923D01*
X159536809Y-128678161D01*
X159393952Y-128725780D01*
X159298714Y-128725780D01*
X160155857Y-128725780D02*
X160155857Y-127725780D01*
X160536809Y-127725780D01*
X160632047Y-127773400D01*
X160679666Y-127821019D01*
X160727285Y-127916257D01*
X160727285Y-128059114D01*
X160679666Y-128154352D01*
X160632047Y-128201971D01*
X160536809Y-128249590D01*
X160155857Y-128249590D01*
X161679666Y-128725780D02*
X161108238Y-128725780D01*
X161393952Y-128725780D02*
X161393952Y-127725780D01*
X161298714Y-127868638D01*
X161203476Y-127963876D01*
X161108238Y-128011495D01*
%TO.C,JP2*%
X90552880Y-66278733D02*
X91267166Y-66278733D01*
X91410023Y-66326352D01*
X91505261Y-66421590D01*
X91552880Y-66564447D01*
X91552880Y-66659685D01*
X91552880Y-65802542D02*
X90552880Y-65802542D01*
X90552880Y-65421590D01*
X90600500Y-65326352D01*
X90648119Y-65278733D01*
X90743357Y-65231114D01*
X90886214Y-65231114D01*
X90981452Y-65278733D01*
X91029071Y-65326352D01*
X91076690Y-65421590D01*
X91076690Y-65802542D01*
X90648119Y-64850161D02*
X90600500Y-64802542D01*
X90552880Y-64707304D01*
X90552880Y-64469209D01*
X90600500Y-64373971D01*
X90648119Y-64326352D01*
X90743357Y-64278733D01*
X90838595Y-64278733D01*
X90981452Y-64326352D01*
X91552880Y-64897780D01*
X91552880Y-64278733D01*
%TD*%
M02*
