%TF.GenerationSoftware,KiCad,Pcbnew,5.1.5+dfsg1-2build2*%
%TF.CreationDate,2021-02-28T15:53:15+02:00*%
%TF.ProjectId,msisdr,6d736973-6472-42e6-9b69-6361645f7063,Version 1.0*%
%TF.SameCoordinates,Original*%
%TF.FileFunction,Profile,NP*%
%FSLAX46Y46*%
G04 Gerber Fmt 4.6, Leading zero omitted, Abs format (unit mm)*
G04 Created by KiCad (PCBNEW 5.1.5+dfsg1-2build2) date 2021-02-28 15:53:15*
%MOMM*%
%LPD*%
G04 APERTURE LIST*
%TA.AperFunction,Profile*%
%ADD10C,0.381000*%
%TD*%
%TA.AperFunction,Profile*%
%ADD11C,0.050000*%
%TD*%
G04 APERTURE END LIST*
D10*
X176789080Y-110759240D02*
X176789080Y-146756120D01*
X97889060Y-57658000D02*
X97889060Y-56657240D01*
X97889060Y-56657240D02*
X106898440Y-56657240D01*
X129788920Y-145757900D02*
X118889780Y-145757900D01*
D11*
X82563126Y-57647840D02*
G75*
G03X82563126Y-57647840I-1666666J0D01*
G01*
X78396460Y-57647840D02*
X83396460Y-57647840D01*
X80896460Y-55147840D02*
X80896460Y-60147840D01*
D10*
X83888580Y-68658740D02*
X80899000Y-68658740D01*
X83888580Y-135158480D02*
X83888580Y-68658740D01*
X118889780Y-147756880D02*
X88907620Y-147756880D01*
X87566500Y-65257680D02*
G75*
G03X87566500Y-65257680I-1597660J0D01*
G01*
X158788100Y-146758660D02*
X158788100Y-147756880D01*
X168788080Y-56657240D02*
X168788080Y-57658000D01*
X176789080Y-146758660D02*
X158788100Y-146758660D01*
X168788080Y-57658000D02*
X176789080Y-57658000D01*
X173306740Y-63456820D02*
G75*
G03X173306740Y-63456820I-1597660J0D01*
G01*
X80899000Y-57658000D02*
X97889060Y-57658000D01*
X80888840Y-146758660D02*
X80888840Y-135158480D01*
X173789340Y-80157320D02*
X173789340Y-110759240D01*
X106898440Y-58648600D02*
X146288760Y-58648600D01*
X173306740Y-142674340D02*
G75*
G03X173306740Y-142674340I-1600200J0D01*
G01*
X88907620Y-147756880D02*
X88907620Y-146758660D01*
X118889780Y-145757900D02*
X118889780Y-147756880D01*
X173789340Y-110759240D02*
X176789080Y-110759240D01*
X176789080Y-80157320D02*
X173789340Y-80157320D01*
X146288760Y-56657240D02*
X168788080Y-56657240D01*
X129788920Y-147756880D02*
X129788920Y-145757900D01*
X176789080Y-57658000D02*
X176789080Y-80157320D01*
X106898440Y-56657240D02*
X106898440Y-58648600D01*
X146288760Y-58648600D02*
X146288760Y-56657240D01*
X151787860Y-147756880D02*
X129788920Y-147756880D01*
X88907620Y-146758660D02*
X80888840Y-146758660D01*
X80888840Y-135158480D02*
X83888580Y-135158480D01*
X158785560Y-147756880D02*
X151787860Y-147756880D01*
X87566500Y-138864340D02*
G75*
G03X87566500Y-138864340I-1600200J0D01*
G01*
X80899000Y-68658740D02*
X80899000Y-57658000D01*
M02*
