G04 #@! TF.GenerationSoftware,KiCad,Pcbnew,(5.1.2)-2*
G04 #@! TF.CreationDate,2020-04-10T09:33:15+02:00*
G04 #@! TF.ProjectId,AfriCubePiPluginBoard,41667269-4375-4626-9550-69506c756769,rev?*
G04 #@! TF.SameCoordinates,Original*
G04 #@! TF.FileFunction,Soldermask,Bot*
G04 #@! TF.FilePolarity,Negative*
%FSLAX46Y46*%
G04 Gerber Fmt 4.6, Leading zero omitted, Abs format (unit mm)*
G04 Created by KiCad (PCBNEW (5.1.2)-2) date 2020-04-10 09:33:15*
%MOMM*%
%LPD*%
G04 APERTURE LIST*
%ADD10C,0.100000*%
G04 APERTURE END LIST*
D10*
G36*
X135492442Y-142615518D02*
G01*
X135558627Y-142622037D01*
X135728466Y-142673557D01*
X135884991Y-142757222D01*
X135920729Y-142786552D01*
X136022186Y-142869814D01*
X136105448Y-142971271D01*
X136134778Y-143007009D01*
X136218443Y-143163534D01*
X136269963Y-143333373D01*
X136287359Y-143510000D01*
X136269963Y-143686627D01*
X136218443Y-143856466D01*
X136134778Y-144012991D01*
X136105448Y-144048729D01*
X136022186Y-144150186D01*
X135920729Y-144233448D01*
X135884991Y-144262778D01*
X135728466Y-144346443D01*
X135558627Y-144397963D01*
X135492443Y-144404481D01*
X135426260Y-144411000D01*
X135337740Y-144411000D01*
X135271557Y-144404481D01*
X135205373Y-144397963D01*
X135035534Y-144346443D01*
X134879009Y-144262778D01*
X134843271Y-144233448D01*
X134741814Y-144150186D01*
X134658552Y-144048729D01*
X134629222Y-144012991D01*
X134545557Y-143856466D01*
X134494037Y-143686627D01*
X134476641Y-143510000D01*
X134494037Y-143333373D01*
X134545557Y-143163534D01*
X134629222Y-143007009D01*
X134658552Y-142971271D01*
X134741814Y-142869814D01*
X134843271Y-142786552D01*
X134879009Y-142757222D01*
X135035534Y-142673557D01*
X135205373Y-142622037D01*
X135271558Y-142615518D01*
X135337740Y-142609000D01*
X135426260Y-142609000D01*
X135492442Y-142615518D01*
X135492442Y-142615518D01*
G37*
G36*
X160892442Y-142615518D02*
G01*
X160958627Y-142622037D01*
X161128466Y-142673557D01*
X161284991Y-142757222D01*
X161320729Y-142786552D01*
X161422186Y-142869814D01*
X161505448Y-142971271D01*
X161534778Y-143007009D01*
X161618443Y-143163534D01*
X161669963Y-143333373D01*
X161687359Y-143510000D01*
X161669963Y-143686627D01*
X161618443Y-143856466D01*
X161534778Y-144012991D01*
X161505448Y-144048729D01*
X161422186Y-144150186D01*
X161320729Y-144233448D01*
X161284991Y-144262778D01*
X161128466Y-144346443D01*
X160958627Y-144397963D01*
X160892443Y-144404481D01*
X160826260Y-144411000D01*
X160737740Y-144411000D01*
X160671557Y-144404481D01*
X160605373Y-144397963D01*
X160435534Y-144346443D01*
X160279009Y-144262778D01*
X160243271Y-144233448D01*
X160141814Y-144150186D01*
X160058552Y-144048729D01*
X160029222Y-144012991D01*
X159945557Y-143856466D01*
X159894037Y-143686627D01*
X159876641Y-143510000D01*
X159894037Y-143333373D01*
X159945557Y-143163534D01*
X160029222Y-143007009D01*
X160058552Y-142971271D01*
X160141814Y-142869814D01*
X160243271Y-142786552D01*
X160279009Y-142757222D01*
X160435534Y-142673557D01*
X160605373Y-142622037D01*
X160671558Y-142615518D01*
X160737740Y-142609000D01*
X160826260Y-142609000D01*
X160892442Y-142615518D01*
X160892442Y-142615518D01*
G37*
G36*
X183752442Y-142615518D02*
G01*
X183818627Y-142622037D01*
X183988466Y-142673557D01*
X184144991Y-142757222D01*
X184180729Y-142786552D01*
X184282186Y-142869814D01*
X184365448Y-142971271D01*
X184394778Y-143007009D01*
X184478443Y-143163534D01*
X184529963Y-143333373D01*
X184547359Y-143510000D01*
X184529963Y-143686627D01*
X184478443Y-143856466D01*
X184394778Y-144012991D01*
X184365448Y-144048729D01*
X184282186Y-144150186D01*
X184180729Y-144233448D01*
X184144991Y-144262778D01*
X183988466Y-144346443D01*
X183818627Y-144397963D01*
X183752443Y-144404481D01*
X183686260Y-144411000D01*
X183597740Y-144411000D01*
X183531557Y-144404481D01*
X183465373Y-144397963D01*
X183295534Y-144346443D01*
X183139009Y-144262778D01*
X183103271Y-144233448D01*
X183001814Y-144150186D01*
X182918552Y-144048729D01*
X182889222Y-144012991D01*
X182805557Y-143856466D01*
X182754037Y-143686627D01*
X182736641Y-143510000D01*
X182754037Y-143333373D01*
X182805557Y-143163534D01*
X182889222Y-143007009D01*
X182918552Y-142971271D01*
X183001814Y-142869814D01*
X183103271Y-142786552D01*
X183139009Y-142757222D01*
X183295534Y-142673557D01*
X183465373Y-142622037D01*
X183531558Y-142615518D01*
X183597740Y-142609000D01*
X183686260Y-142609000D01*
X183752442Y-142615518D01*
X183752442Y-142615518D01*
G37*
G36*
X178672442Y-142615518D02*
G01*
X178738627Y-142622037D01*
X178908466Y-142673557D01*
X179064991Y-142757222D01*
X179100729Y-142786552D01*
X179202186Y-142869814D01*
X179285448Y-142971271D01*
X179314778Y-143007009D01*
X179398443Y-143163534D01*
X179449963Y-143333373D01*
X179467359Y-143510000D01*
X179449963Y-143686627D01*
X179398443Y-143856466D01*
X179314778Y-144012991D01*
X179285448Y-144048729D01*
X179202186Y-144150186D01*
X179100729Y-144233448D01*
X179064991Y-144262778D01*
X178908466Y-144346443D01*
X178738627Y-144397963D01*
X178672443Y-144404481D01*
X178606260Y-144411000D01*
X178517740Y-144411000D01*
X178451557Y-144404481D01*
X178385373Y-144397963D01*
X178215534Y-144346443D01*
X178059009Y-144262778D01*
X178023271Y-144233448D01*
X177921814Y-144150186D01*
X177838552Y-144048729D01*
X177809222Y-144012991D01*
X177725557Y-143856466D01*
X177674037Y-143686627D01*
X177656641Y-143510000D01*
X177674037Y-143333373D01*
X177725557Y-143163534D01*
X177809222Y-143007009D01*
X177838552Y-142971271D01*
X177921814Y-142869814D01*
X178023271Y-142786552D01*
X178059009Y-142757222D01*
X178215534Y-142673557D01*
X178385373Y-142622037D01*
X178451558Y-142615518D01*
X178517740Y-142609000D01*
X178606260Y-142609000D01*
X178672442Y-142615518D01*
X178672442Y-142615518D01*
G37*
G36*
X176132442Y-142615518D02*
G01*
X176198627Y-142622037D01*
X176368466Y-142673557D01*
X176524991Y-142757222D01*
X176560729Y-142786552D01*
X176662186Y-142869814D01*
X176745448Y-142971271D01*
X176774778Y-143007009D01*
X176858443Y-143163534D01*
X176909963Y-143333373D01*
X176927359Y-143510000D01*
X176909963Y-143686627D01*
X176858443Y-143856466D01*
X176774778Y-144012991D01*
X176745448Y-144048729D01*
X176662186Y-144150186D01*
X176560729Y-144233448D01*
X176524991Y-144262778D01*
X176368466Y-144346443D01*
X176198627Y-144397963D01*
X176132443Y-144404481D01*
X176066260Y-144411000D01*
X175977740Y-144411000D01*
X175911557Y-144404481D01*
X175845373Y-144397963D01*
X175675534Y-144346443D01*
X175519009Y-144262778D01*
X175483271Y-144233448D01*
X175381814Y-144150186D01*
X175298552Y-144048729D01*
X175269222Y-144012991D01*
X175185557Y-143856466D01*
X175134037Y-143686627D01*
X175116641Y-143510000D01*
X175134037Y-143333373D01*
X175185557Y-143163534D01*
X175269222Y-143007009D01*
X175298552Y-142971271D01*
X175381814Y-142869814D01*
X175483271Y-142786552D01*
X175519009Y-142757222D01*
X175675534Y-142673557D01*
X175845373Y-142622037D01*
X175911558Y-142615518D01*
X175977740Y-142609000D01*
X176066260Y-142609000D01*
X176132442Y-142615518D01*
X176132442Y-142615518D01*
G37*
G36*
X173592442Y-142615518D02*
G01*
X173658627Y-142622037D01*
X173828466Y-142673557D01*
X173984991Y-142757222D01*
X174020729Y-142786552D01*
X174122186Y-142869814D01*
X174205448Y-142971271D01*
X174234778Y-143007009D01*
X174318443Y-143163534D01*
X174369963Y-143333373D01*
X174387359Y-143510000D01*
X174369963Y-143686627D01*
X174318443Y-143856466D01*
X174234778Y-144012991D01*
X174205448Y-144048729D01*
X174122186Y-144150186D01*
X174020729Y-144233448D01*
X173984991Y-144262778D01*
X173828466Y-144346443D01*
X173658627Y-144397963D01*
X173592443Y-144404481D01*
X173526260Y-144411000D01*
X173437740Y-144411000D01*
X173371557Y-144404481D01*
X173305373Y-144397963D01*
X173135534Y-144346443D01*
X172979009Y-144262778D01*
X172943271Y-144233448D01*
X172841814Y-144150186D01*
X172758552Y-144048729D01*
X172729222Y-144012991D01*
X172645557Y-143856466D01*
X172594037Y-143686627D01*
X172576641Y-143510000D01*
X172594037Y-143333373D01*
X172645557Y-143163534D01*
X172729222Y-143007009D01*
X172758552Y-142971271D01*
X172841814Y-142869814D01*
X172943271Y-142786552D01*
X172979009Y-142757222D01*
X173135534Y-142673557D01*
X173305373Y-142622037D01*
X173371558Y-142615518D01*
X173437740Y-142609000D01*
X173526260Y-142609000D01*
X173592442Y-142615518D01*
X173592442Y-142615518D01*
G37*
G36*
X171052442Y-142615518D02*
G01*
X171118627Y-142622037D01*
X171288466Y-142673557D01*
X171444991Y-142757222D01*
X171480729Y-142786552D01*
X171582186Y-142869814D01*
X171665448Y-142971271D01*
X171694778Y-143007009D01*
X171778443Y-143163534D01*
X171829963Y-143333373D01*
X171847359Y-143510000D01*
X171829963Y-143686627D01*
X171778443Y-143856466D01*
X171694778Y-144012991D01*
X171665448Y-144048729D01*
X171582186Y-144150186D01*
X171480729Y-144233448D01*
X171444991Y-144262778D01*
X171288466Y-144346443D01*
X171118627Y-144397963D01*
X171052443Y-144404481D01*
X170986260Y-144411000D01*
X170897740Y-144411000D01*
X170831557Y-144404481D01*
X170765373Y-144397963D01*
X170595534Y-144346443D01*
X170439009Y-144262778D01*
X170403271Y-144233448D01*
X170301814Y-144150186D01*
X170218552Y-144048729D01*
X170189222Y-144012991D01*
X170105557Y-143856466D01*
X170054037Y-143686627D01*
X170036641Y-143510000D01*
X170054037Y-143333373D01*
X170105557Y-143163534D01*
X170189222Y-143007009D01*
X170218552Y-142971271D01*
X170301814Y-142869814D01*
X170403271Y-142786552D01*
X170439009Y-142757222D01*
X170595534Y-142673557D01*
X170765373Y-142622037D01*
X170831558Y-142615518D01*
X170897740Y-142609000D01*
X170986260Y-142609000D01*
X171052442Y-142615518D01*
X171052442Y-142615518D01*
G37*
G36*
X168512442Y-142615518D02*
G01*
X168578627Y-142622037D01*
X168748466Y-142673557D01*
X168904991Y-142757222D01*
X168940729Y-142786552D01*
X169042186Y-142869814D01*
X169125448Y-142971271D01*
X169154778Y-143007009D01*
X169238443Y-143163534D01*
X169289963Y-143333373D01*
X169307359Y-143510000D01*
X169289963Y-143686627D01*
X169238443Y-143856466D01*
X169154778Y-144012991D01*
X169125448Y-144048729D01*
X169042186Y-144150186D01*
X168940729Y-144233448D01*
X168904991Y-144262778D01*
X168748466Y-144346443D01*
X168578627Y-144397963D01*
X168512443Y-144404481D01*
X168446260Y-144411000D01*
X168357740Y-144411000D01*
X168291557Y-144404481D01*
X168225373Y-144397963D01*
X168055534Y-144346443D01*
X167899009Y-144262778D01*
X167863271Y-144233448D01*
X167761814Y-144150186D01*
X167678552Y-144048729D01*
X167649222Y-144012991D01*
X167565557Y-143856466D01*
X167514037Y-143686627D01*
X167496641Y-143510000D01*
X167514037Y-143333373D01*
X167565557Y-143163534D01*
X167649222Y-143007009D01*
X167678552Y-142971271D01*
X167761814Y-142869814D01*
X167863271Y-142786552D01*
X167899009Y-142757222D01*
X168055534Y-142673557D01*
X168225373Y-142622037D01*
X168291558Y-142615518D01*
X168357740Y-142609000D01*
X168446260Y-142609000D01*
X168512442Y-142615518D01*
X168512442Y-142615518D01*
G37*
G36*
X165972442Y-142615518D02*
G01*
X166038627Y-142622037D01*
X166208466Y-142673557D01*
X166364991Y-142757222D01*
X166400729Y-142786552D01*
X166502186Y-142869814D01*
X166585448Y-142971271D01*
X166614778Y-143007009D01*
X166698443Y-143163534D01*
X166749963Y-143333373D01*
X166767359Y-143510000D01*
X166749963Y-143686627D01*
X166698443Y-143856466D01*
X166614778Y-144012991D01*
X166585448Y-144048729D01*
X166502186Y-144150186D01*
X166400729Y-144233448D01*
X166364991Y-144262778D01*
X166208466Y-144346443D01*
X166038627Y-144397963D01*
X165972443Y-144404481D01*
X165906260Y-144411000D01*
X165817740Y-144411000D01*
X165751557Y-144404481D01*
X165685373Y-144397963D01*
X165515534Y-144346443D01*
X165359009Y-144262778D01*
X165323271Y-144233448D01*
X165221814Y-144150186D01*
X165138552Y-144048729D01*
X165109222Y-144012991D01*
X165025557Y-143856466D01*
X164974037Y-143686627D01*
X164956641Y-143510000D01*
X164974037Y-143333373D01*
X165025557Y-143163534D01*
X165109222Y-143007009D01*
X165138552Y-142971271D01*
X165221814Y-142869814D01*
X165323271Y-142786552D01*
X165359009Y-142757222D01*
X165515534Y-142673557D01*
X165685373Y-142622037D01*
X165751558Y-142615518D01*
X165817740Y-142609000D01*
X165906260Y-142609000D01*
X165972442Y-142615518D01*
X165972442Y-142615518D01*
G37*
G36*
X163432442Y-142615518D02*
G01*
X163498627Y-142622037D01*
X163668466Y-142673557D01*
X163824991Y-142757222D01*
X163860729Y-142786552D01*
X163962186Y-142869814D01*
X164045448Y-142971271D01*
X164074778Y-143007009D01*
X164158443Y-143163534D01*
X164209963Y-143333373D01*
X164227359Y-143510000D01*
X164209963Y-143686627D01*
X164158443Y-143856466D01*
X164074778Y-144012991D01*
X164045448Y-144048729D01*
X163962186Y-144150186D01*
X163860729Y-144233448D01*
X163824991Y-144262778D01*
X163668466Y-144346443D01*
X163498627Y-144397963D01*
X163432443Y-144404481D01*
X163366260Y-144411000D01*
X163277740Y-144411000D01*
X163211557Y-144404481D01*
X163145373Y-144397963D01*
X162975534Y-144346443D01*
X162819009Y-144262778D01*
X162783271Y-144233448D01*
X162681814Y-144150186D01*
X162598552Y-144048729D01*
X162569222Y-144012991D01*
X162485557Y-143856466D01*
X162434037Y-143686627D01*
X162416641Y-143510000D01*
X162434037Y-143333373D01*
X162485557Y-143163534D01*
X162569222Y-143007009D01*
X162598552Y-142971271D01*
X162681814Y-142869814D01*
X162783271Y-142786552D01*
X162819009Y-142757222D01*
X162975534Y-142673557D01*
X163145373Y-142622037D01*
X163211558Y-142615518D01*
X163277740Y-142609000D01*
X163366260Y-142609000D01*
X163432442Y-142615518D01*
X163432442Y-142615518D01*
G37*
G36*
X181212442Y-142615518D02*
G01*
X181278627Y-142622037D01*
X181448466Y-142673557D01*
X181604991Y-142757222D01*
X181640729Y-142786552D01*
X181742186Y-142869814D01*
X181825448Y-142971271D01*
X181854778Y-143007009D01*
X181938443Y-143163534D01*
X181989963Y-143333373D01*
X182007359Y-143510000D01*
X181989963Y-143686627D01*
X181938443Y-143856466D01*
X181854778Y-144012991D01*
X181825448Y-144048729D01*
X181742186Y-144150186D01*
X181640729Y-144233448D01*
X181604991Y-144262778D01*
X181448466Y-144346443D01*
X181278627Y-144397963D01*
X181212443Y-144404481D01*
X181146260Y-144411000D01*
X181057740Y-144411000D01*
X180991557Y-144404481D01*
X180925373Y-144397963D01*
X180755534Y-144346443D01*
X180599009Y-144262778D01*
X180563271Y-144233448D01*
X180461814Y-144150186D01*
X180378552Y-144048729D01*
X180349222Y-144012991D01*
X180265557Y-143856466D01*
X180214037Y-143686627D01*
X180196641Y-143510000D01*
X180214037Y-143333373D01*
X180265557Y-143163534D01*
X180349222Y-143007009D01*
X180378552Y-142971271D01*
X180461814Y-142869814D01*
X180563271Y-142786552D01*
X180599009Y-142757222D01*
X180755534Y-142673557D01*
X180925373Y-142622037D01*
X180991558Y-142615518D01*
X181057740Y-142609000D01*
X181146260Y-142609000D01*
X181212442Y-142615518D01*
X181212442Y-142615518D01*
G37*
G36*
X155812442Y-142615518D02*
G01*
X155878627Y-142622037D01*
X156048466Y-142673557D01*
X156204991Y-142757222D01*
X156240729Y-142786552D01*
X156342186Y-142869814D01*
X156425448Y-142971271D01*
X156454778Y-143007009D01*
X156538443Y-143163534D01*
X156589963Y-143333373D01*
X156607359Y-143510000D01*
X156589963Y-143686627D01*
X156538443Y-143856466D01*
X156454778Y-144012991D01*
X156425448Y-144048729D01*
X156342186Y-144150186D01*
X156240729Y-144233448D01*
X156204991Y-144262778D01*
X156048466Y-144346443D01*
X155878627Y-144397963D01*
X155812443Y-144404481D01*
X155746260Y-144411000D01*
X155657740Y-144411000D01*
X155591557Y-144404481D01*
X155525373Y-144397963D01*
X155355534Y-144346443D01*
X155199009Y-144262778D01*
X155163271Y-144233448D01*
X155061814Y-144150186D01*
X154978552Y-144048729D01*
X154949222Y-144012991D01*
X154865557Y-143856466D01*
X154814037Y-143686627D01*
X154796641Y-143510000D01*
X154814037Y-143333373D01*
X154865557Y-143163534D01*
X154949222Y-143007009D01*
X154978552Y-142971271D01*
X155061814Y-142869814D01*
X155163271Y-142786552D01*
X155199009Y-142757222D01*
X155355534Y-142673557D01*
X155525373Y-142622037D01*
X155591558Y-142615518D01*
X155657740Y-142609000D01*
X155746260Y-142609000D01*
X155812442Y-142615518D01*
X155812442Y-142615518D01*
G37*
G36*
X158352442Y-142615518D02*
G01*
X158418627Y-142622037D01*
X158588466Y-142673557D01*
X158744991Y-142757222D01*
X158780729Y-142786552D01*
X158882186Y-142869814D01*
X158965448Y-142971271D01*
X158994778Y-143007009D01*
X159078443Y-143163534D01*
X159129963Y-143333373D01*
X159147359Y-143510000D01*
X159129963Y-143686627D01*
X159078443Y-143856466D01*
X158994778Y-144012991D01*
X158965448Y-144048729D01*
X158882186Y-144150186D01*
X158780729Y-144233448D01*
X158744991Y-144262778D01*
X158588466Y-144346443D01*
X158418627Y-144397963D01*
X158352443Y-144404481D01*
X158286260Y-144411000D01*
X158197740Y-144411000D01*
X158131557Y-144404481D01*
X158065373Y-144397963D01*
X157895534Y-144346443D01*
X157739009Y-144262778D01*
X157703271Y-144233448D01*
X157601814Y-144150186D01*
X157518552Y-144048729D01*
X157489222Y-144012991D01*
X157405557Y-143856466D01*
X157354037Y-143686627D01*
X157336641Y-143510000D01*
X157354037Y-143333373D01*
X157405557Y-143163534D01*
X157489222Y-143007009D01*
X157518552Y-142971271D01*
X157601814Y-142869814D01*
X157703271Y-142786552D01*
X157739009Y-142757222D01*
X157895534Y-142673557D01*
X158065373Y-142622037D01*
X158131558Y-142615518D01*
X158197740Y-142609000D01*
X158286260Y-142609000D01*
X158352442Y-142615518D01*
X158352442Y-142615518D01*
G37*
G36*
X138032442Y-142615518D02*
G01*
X138098627Y-142622037D01*
X138268466Y-142673557D01*
X138424991Y-142757222D01*
X138460729Y-142786552D01*
X138562186Y-142869814D01*
X138645448Y-142971271D01*
X138674778Y-143007009D01*
X138758443Y-143163534D01*
X138809963Y-143333373D01*
X138827359Y-143510000D01*
X138809963Y-143686627D01*
X138758443Y-143856466D01*
X138674778Y-144012991D01*
X138645448Y-144048729D01*
X138562186Y-144150186D01*
X138460729Y-144233448D01*
X138424991Y-144262778D01*
X138268466Y-144346443D01*
X138098627Y-144397963D01*
X138032443Y-144404481D01*
X137966260Y-144411000D01*
X137877740Y-144411000D01*
X137811557Y-144404481D01*
X137745373Y-144397963D01*
X137575534Y-144346443D01*
X137419009Y-144262778D01*
X137383271Y-144233448D01*
X137281814Y-144150186D01*
X137198552Y-144048729D01*
X137169222Y-144012991D01*
X137085557Y-143856466D01*
X137034037Y-143686627D01*
X137016641Y-143510000D01*
X137034037Y-143333373D01*
X137085557Y-143163534D01*
X137169222Y-143007009D01*
X137198552Y-142971271D01*
X137281814Y-142869814D01*
X137383271Y-142786552D01*
X137419009Y-142757222D01*
X137575534Y-142673557D01*
X137745373Y-142622037D01*
X137811558Y-142615518D01*
X137877740Y-142609000D01*
X137966260Y-142609000D01*
X138032442Y-142615518D01*
X138032442Y-142615518D01*
G37*
G36*
X140572442Y-142615518D02*
G01*
X140638627Y-142622037D01*
X140808466Y-142673557D01*
X140964991Y-142757222D01*
X141000729Y-142786552D01*
X141102186Y-142869814D01*
X141185448Y-142971271D01*
X141214778Y-143007009D01*
X141298443Y-143163534D01*
X141349963Y-143333373D01*
X141367359Y-143510000D01*
X141349963Y-143686627D01*
X141298443Y-143856466D01*
X141214778Y-144012991D01*
X141185448Y-144048729D01*
X141102186Y-144150186D01*
X141000729Y-144233448D01*
X140964991Y-144262778D01*
X140808466Y-144346443D01*
X140638627Y-144397963D01*
X140572443Y-144404481D01*
X140506260Y-144411000D01*
X140417740Y-144411000D01*
X140351557Y-144404481D01*
X140285373Y-144397963D01*
X140115534Y-144346443D01*
X139959009Y-144262778D01*
X139923271Y-144233448D01*
X139821814Y-144150186D01*
X139738552Y-144048729D01*
X139709222Y-144012991D01*
X139625557Y-143856466D01*
X139574037Y-143686627D01*
X139556641Y-143510000D01*
X139574037Y-143333373D01*
X139625557Y-143163534D01*
X139709222Y-143007009D01*
X139738552Y-142971271D01*
X139821814Y-142869814D01*
X139923271Y-142786552D01*
X139959009Y-142757222D01*
X140115534Y-142673557D01*
X140285373Y-142622037D01*
X140351558Y-142615518D01*
X140417740Y-142609000D01*
X140506260Y-142609000D01*
X140572442Y-142615518D01*
X140572442Y-142615518D01*
G37*
G36*
X143112442Y-142615518D02*
G01*
X143178627Y-142622037D01*
X143348466Y-142673557D01*
X143504991Y-142757222D01*
X143540729Y-142786552D01*
X143642186Y-142869814D01*
X143725448Y-142971271D01*
X143754778Y-143007009D01*
X143838443Y-143163534D01*
X143889963Y-143333373D01*
X143907359Y-143510000D01*
X143889963Y-143686627D01*
X143838443Y-143856466D01*
X143754778Y-144012991D01*
X143725448Y-144048729D01*
X143642186Y-144150186D01*
X143540729Y-144233448D01*
X143504991Y-144262778D01*
X143348466Y-144346443D01*
X143178627Y-144397963D01*
X143112443Y-144404481D01*
X143046260Y-144411000D01*
X142957740Y-144411000D01*
X142891557Y-144404481D01*
X142825373Y-144397963D01*
X142655534Y-144346443D01*
X142499009Y-144262778D01*
X142463271Y-144233448D01*
X142361814Y-144150186D01*
X142278552Y-144048729D01*
X142249222Y-144012991D01*
X142165557Y-143856466D01*
X142114037Y-143686627D01*
X142096641Y-143510000D01*
X142114037Y-143333373D01*
X142165557Y-143163534D01*
X142249222Y-143007009D01*
X142278552Y-142971271D01*
X142361814Y-142869814D01*
X142463271Y-142786552D01*
X142499009Y-142757222D01*
X142655534Y-142673557D01*
X142825373Y-142622037D01*
X142891558Y-142615518D01*
X142957740Y-142609000D01*
X143046260Y-142609000D01*
X143112442Y-142615518D01*
X143112442Y-142615518D01*
G37*
G36*
X148192442Y-142615518D02*
G01*
X148258627Y-142622037D01*
X148428466Y-142673557D01*
X148584991Y-142757222D01*
X148620729Y-142786552D01*
X148722186Y-142869814D01*
X148805448Y-142971271D01*
X148834778Y-143007009D01*
X148918443Y-143163534D01*
X148969963Y-143333373D01*
X148987359Y-143510000D01*
X148969963Y-143686627D01*
X148918443Y-143856466D01*
X148834778Y-144012991D01*
X148805448Y-144048729D01*
X148722186Y-144150186D01*
X148620729Y-144233448D01*
X148584991Y-144262778D01*
X148428466Y-144346443D01*
X148258627Y-144397963D01*
X148192443Y-144404481D01*
X148126260Y-144411000D01*
X148037740Y-144411000D01*
X147971557Y-144404481D01*
X147905373Y-144397963D01*
X147735534Y-144346443D01*
X147579009Y-144262778D01*
X147543271Y-144233448D01*
X147441814Y-144150186D01*
X147358552Y-144048729D01*
X147329222Y-144012991D01*
X147245557Y-143856466D01*
X147194037Y-143686627D01*
X147176641Y-143510000D01*
X147194037Y-143333373D01*
X147245557Y-143163534D01*
X147329222Y-143007009D01*
X147358552Y-142971271D01*
X147441814Y-142869814D01*
X147543271Y-142786552D01*
X147579009Y-142757222D01*
X147735534Y-142673557D01*
X147905373Y-142622037D01*
X147971558Y-142615518D01*
X148037740Y-142609000D01*
X148126260Y-142609000D01*
X148192442Y-142615518D01*
X148192442Y-142615518D01*
G37*
G36*
X150732442Y-142615518D02*
G01*
X150798627Y-142622037D01*
X150968466Y-142673557D01*
X151124991Y-142757222D01*
X151160729Y-142786552D01*
X151262186Y-142869814D01*
X151345448Y-142971271D01*
X151374778Y-143007009D01*
X151458443Y-143163534D01*
X151509963Y-143333373D01*
X151527359Y-143510000D01*
X151509963Y-143686627D01*
X151458443Y-143856466D01*
X151374778Y-144012991D01*
X151345448Y-144048729D01*
X151262186Y-144150186D01*
X151160729Y-144233448D01*
X151124991Y-144262778D01*
X150968466Y-144346443D01*
X150798627Y-144397963D01*
X150732443Y-144404481D01*
X150666260Y-144411000D01*
X150577740Y-144411000D01*
X150511557Y-144404481D01*
X150445373Y-144397963D01*
X150275534Y-144346443D01*
X150119009Y-144262778D01*
X150083271Y-144233448D01*
X149981814Y-144150186D01*
X149898552Y-144048729D01*
X149869222Y-144012991D01*
X149785557Y-143856466D01*
X149734037Y-143686627D01*
X149716641Y-143510000D01*
X149734037Y-143333373D01*
X149785557Y-143163534D01*
X149869222Y-143007009D01*
X149898552Y-142971271D01*
X149981814Y-142869814D01*
X150083271Y-142786552D01*
X150119009Y-142757222D01*
X150275534Y-142673557D01*
X150445373Y-142622037D01*
X150511558Y-142615518D01*
X150577740Y-142609000D01*
X150666260Y-142609000D01*
X150732442Y-142615518D01*
X150732442Y-142615518D01*
G37*
G36*
X153272442Y-142615518D02*
G01*
X153338627Y-142622037D01*
X153508466Y-142673557D01*
X153664991Y-142757222D01*
X153700729Y-142786552D01*
X153802186Y-142869814D01*
X153885448Y-142971271D01*
X153914778Y-143007009D01*
X153998443Y-143163534D01*
X154049963Y-143333373D01*
X154067359Y-143510000D01*
X154049963Y-143686627D01*
X153998443Y-143856466D01*
X153914778Y-144012991D01*
X153885448Y-144048729D01*
X153802186Y-144150186D01*
X153700729Y-144233448D01*
X153664991Y-144262778D01*
X153508466Y-144346443D01*
X153338627Y-144397963D01*
X153272443Y-144404481D01*
X153206260Y-144411000D01*
X153117740Y-144411000D01*
X153051557Y-144404481D01*
X152985373Y-144397963D01*
X152815534Y-144346443D01*
X152659009Y-144262778D01*
X152623271Y-144233448D01*
X152521814Y-144150186D01*
X152438552Y-144048729D01*
X152409222Y-144012991D01*
X152325557Y-143856466D01*
X152274037Y-143686627D01*
X152256641Y-143510000D01*
X152274037Y-143333373D01*
X152325557Y-143163534D01*
X152409222Y-143007009D01*
X152438552Y-142971271D01*
X152521814Y-142869814D01*
X152623271Y-142786552D01*
X152659009Y-142757222D01*
X152815534Y-142673557D01*
X152985373Y-142622037D01*
X153051558Y-142615518D01*
X153117740Y-142609000D01*
X153206260Y-142609000D01*
X153272442Y-142615518D01*
X153272442Y-142615518D01*
G37*
G36*
X145652442Y-142615518D02*
G01*
X145718627Y-142622037D01*
X145888466Y-142673557D01*
X146044991Y-142757222D01*
X146080729Y-142786552D01*
X146182186Y-142869814D01*
X146265448Y-142971271D01*
X146294778Y-143007009D01*
X146378443Y-143163534D01*
X146429963Y-143333373D01*
X146447359Y-143510000D01*
X146429963Y-143686627D01*
X146378443Y-143856466D01*
X146294778Y-144012991D01*
X146265448Y-144048729D01*
X146182186Y-144150186D01*
X146080729Y-144233448D01*
X146044991Y-144262778D01*
X145888466Y-144346443D01*
X145718627Y-144397963D01*
X145652443Y-144404481D01*
X145586260Y-144411000D01*
X145497740Y-144411000D01*
X145431557Y-144404481D01*
X145365373Y-144397963D01*
X145195534Y-144346443D01*
X145039009Y-144262778D01*
X145003271Y-144233448D01*
X144901814Y-144150186D01*
X144818552Y-144048729D01*
X144789222Y-144012991D01*
X144705557Y-143856466D01*
X144654037Y-143686627D01*
X144636641Y-143510000D01*
X144654037Y-143333373D01*
X144705557Y-143163534D01*
X144789222Y-143007009D01*
X144818552Y-142971271D01*
X144901814Y-142869814D01*
X145003271Y-142786552D01*
X145039009Y-142757222D01*
X145195534Y-142673557D01*
X145365373Y-142622037D01*
X145431558Y-142615518D01*
X145497740Y-142609000D01*
X145586260Y-142609000D01*
X145652442Y-142615518D01*
X145652442Y-142615518D01*
G37*
G36*
X155812443Y-140075519D02*
G01*
X155878627Y-140082037D01*
X156048466Y-140133557D01*
X156204991Y-140217222D01*
X156240729Y-140246552D01*
X156342186Y-140329814D01*
X156425448Y-140431271D01*
X156454778Y-140467009D01*
X156538443Y-140623534D01*
X156589963Y-140793373D01*
X156607359Y-140970000D01*
X156589963Y-141146627D01*
X156538443Y-141316466D01*
X156454778Y-141472991D01*
X156425448Y-141508729D01*
X156342186Y-141610186D01*
X156240729Y-141693448D01*
X156204991Y-141722778D01*
X156048466Y-141806443D01*
X155878627Y-141857963D01*
X155812443Y-141864481D01*
X155746260Y-141871000D01*
X155657740Y-141871000D01*
X155591557Y-141864481D01*
X155525373Y-141857963D01*
X155355534Y-141806443D01*
X155199009Y-141722778D01*
X155163271Y-141693448D01*
X155061814Y-141610186D01*
X154978552Y-141508729D01*
X154949222Y-141472991D01*
X154865557Y-141316466D01*
X154814037Y-141146627D01*
X154796641Y-140970000D01*
X154814037Y-140793373D01*
X154865557Y-140623534D01*
X154949222Y-140467009D01*
X154978552Y-140431271D01*
X155061814Y-140329814D01*
X155163271Y-140246552D01*
X155199009Y-140217222D01*
X155355534Y-140133557D01*
X155525373Y-140082037D01*
X155591557Y-140075519D01*
X155657740Y-140069000D01*
X155746260Y-140069000D01*
X155812443Y-140075519D01*
X155812443Y-140075519D01*
G37*
G36*
X178672443Y-140075519D02*
G01*
X178738627Y-140082037D01*
X178908466Y-140133557D01*
X179064991Y-140217222D01*
X179100729Y-140246552D01*
X179202186Y-140329814D01*
X179285448Y-140431271D01*
X179314778Y-140467009D01*
X179398443Y-140623534D01*
X179449963Y-140793373D01*
X179467359Y-140970000D01*
X179449963Y-141146627D01*
X179398443Y-141316466D01*
X179314778Y-141472991D01*
X179285448Y-141508729D01*
X179202186Y-141610186D01*
X179100729Y-141693448D01*
X179064991Y-141722778D01*
X178908466Y-141806443D01*
X178738627Y-141857963D01*
X178672443Y-141864481D01*
X178606260Y-141871000D01*
X178517740Y-141871000D01*
X178451557Y-141864481D01*
X178385373Y-141857963D01*
X178215534Y-141806443D01*
X178059009Y-141722778D01*
X178023271Y-141693448D01*
X177921814Y-141610186D01*
X177838552Y-141508729D01*
X177809222Y-141472991D01*
X177725557Y-141316466D01*
X177674037Y-141146627D01*
X177656641Y-140970000D01*
X177674037Y-140793373D01*
X177725557Y-140623534D01*
X177809222Y-140467009D01*
X177838552Y-140431271D01*
X177921814Y-140329814D01*
X178023271Y-140246552D01*
X178059009Y-140217222D01*
X178215534Y-140133557D01*
X178385373Y-140082037D01*
X178451557Y-140075519D01*
X178517740Y-140069000D01*
X178606260Y-140069000D01*
X178672443Y-140075519D01*
X178672443Y-140075519D01*
G37*
G36*
X173592443Y-140075519D02*
G01*
X173658627Y-140082037D01*
X173828466Y-140133557D01*
X173984991Y-140217222D01*
X174020729Y-140246552D01*
X174122186Y-140329814D01*
X174205448Y-140431271D01*
X174234778Y-140467009D01*
X174318443Y-140623534D01*
X174369963Y-140793373D01*
X174387359Y-140970000D01*
X174369963Y-141146627D01*
X174318443Y-141316466D01*
X174234778Y-141472991D01*
X174205448Y-141508729D01*
X174122186Y-141610186D01*
X174020729Y-141693448D01*
X173984991Y-141722778D01*
X173828466Y-141806443D01*
X173658627Y-141857963D01*
X173592443Y-141864481D01*
X173526260Y-141871000D01*
X173437740Y-141871000D01*
X173371557Y-141864481D01*
X173305373Y-141857963D01*
X173135534Y-141806443D01*
X172979009Y-141722778D01*
X172943271Y-141693448D01*
X172841814Y-141610186D01*
X172758552Y-141508729D01*
X172729222Y-141472991D01*
X172645557Y-141316466D01*
X172594037Y-141146627D01*
X172576641Y-140970000D01*
X172594037Y-140793373D01*
X172645557Y-140623534D01*
X172729222Y-140467009D01*
X172758552Y-140431271D01*
X172841814Y-140329814D01*
X172943271Y-140246552D01*
X172979009Y-140217222D01*
X173135534Y-140133557D01*
X173305373Y-140082037D01*
X173371557Y-140075519D01*
X173437740Y-140069000D01*
X173526260Y-140069000D01*
X173592443Y-140075519D01*
X173592443Y-140075519D01*
G37*
G36*
X171052443Y-140075519D02*
G01*
X171118627Y-140082037D01*
X171288466Y-140133557D01*
X171444991Y-140217222D01*
X171480729Y-140246552D01*
X171582186Y-140329814D01*
X171665448Y-140431271D01*
X171694778Y-140467009D01*
X171778443Y-140623534D01*
X171829963Y-140793373D01*
X171847359Y-140970000D01*
X171829963Y-141146627D01*
X171778443Y-141316466D01*
X171694778Y-141472991D01*
X171665448Y-141508729D01*
X171582186Y-141610186D01*
X171480729Y-141693448D01*
X171444991Y-141722778D01*
X171288466Y-141806443D01*
X171118627Y-141857963D01*
X171052443Y-141864481D01*
X170986260Y-141871000D01*
X170897740Y-141871000D01*
X170831557Y-141864481D01*
X170765373Y-141857963D01*
X170595534Y-141806443D01*
X170439009Y-141722778D01*
X170403271Y-141693448D01*
X170301814Y-141610186D01*
X170218552Y-141508729D01*
X170189222Y-141472991D01*
X170105557Y-141316466D01*
X170054037Y-141146627D01*
X170036641Y-140970000D01*
X170054037Y-140793373D01*
X170105557Y-140623534D01*
X170189222Y-140467009D01*
X170218552Y-140431271D01*
X170301814Y-140329814D01*
X170403271Y-140246552D01*
X170439009Y-140217222D01*
X170595534Y-140133557D01*
X170765373Y-140082037D01*
X170831557Y-140075519D01*
X170897740Y-140069000D01*
X170986260Y-140069000D01*
X171052443Y-140075519D01*
X171052443Y-140075519D01*
G37*
G36*
X168512443Y-140075519D02*
G01*
X168578627Y-140082037D01*
X168748466Y-140133557D01*
X168904991Y-140217222D01*
X168940729Y-140246552D01*
X169042186Y-140329814D01*
X169125448Y-140431271D01*
X169154778Y-140467009D01*
X169238443Y-140623534D01*
X169289963Y-140793373D01*
X169307359Y-140970000D01*
X169289963Y-141146627D01*
X169238443Y-141316466D01*
X169154778Y-141472991D01*
X169125448Y-141508729D01*
X169042186Y-141610186D01*
X168940729Y-141693448D01*
X168904991Y-141722778D01*
X168748466Y-141806443D01*
X168578627Y-141857963D01*
X168512443Y-141864481D01*
X168446260Y-141871000D01*
X168357740Y-141871000D01*
X168291557Y-141864481D01*
X168225373Y-141857963D01*
X168055534Y-141806443D01*
X167899009Y-141722778D01*
X167863271Y-141693448D01*
X167761814Y-141610186D01*
X167678552Y-141508729D01*
X167649222Y-141472991D01*
X167565557Y-141316466D01*
X167514037Y-141146627D01*
X167496641Y-140970000D01*
X167514037Y-140793373D01*
X167565557Y-140623534D01*
X167649222Y-140467009D01*
X167678552Y-140431271D01*
X167761814Y-140329814D01*
X167863271Y-140246552D01*
X167899009Y-140217222D01*
X168055534Y-140133557D01*
X168225373Y-140082037D01*
X168291557Y-140075519D01*
X168357740Y-140069000D01*
X168446260Y-140069000D01*
X168512443Y-140075519D01*
X168512443Y-140075519D01*
G37*
G36*
X165972443Y-140075519D02*
G01*
X166038627Y-140082037D01*
X166208466Y-140133557D01*
X166364991Y-140217222D01*
X166400729Y-140246552D01*
X166502186Y-140329814D01*
X166585448Y-140431271D01*
X166614778Y-140467009D01*
X166698443Y-140623534D01*
X166749963Y-140793373D01*
X166767359Y-140970000D01*
X166749963Y-141146627D01*
X166698443Y-141316466D01*
X166614778Y-141472991D01*
X166585448Y-141508729D01*
X166502186Y-141610186D01*
X166400729Y-141693448D01*
X166364991Y-141722778D01*
X166208466Y-141806443D01*
X166038627Y-141857963D01*
X165972443Y-141864481D01*
X165906260Y-141871000D01*
X165817740Y-141871000D01*
X165751557Y-141864481D01*
X165685373Y-141857963D01*
X165515534Y-141806443D01*
X165359009Y-141722778D01*
X165323271Y-141693448D01*
X165221814Y-141610186D01*
X165138552Y-141508729D01*
X165109222Y-141472991D01*
X165025557Y-141316466D01*
X164974037Y-141146627D01*
X164956641Y-140970000D01*
X164974037Y-140793373D01*
X165025557Y-140623534D01*
X165109222Y-140467009D01*
X165138552Y-140431271D01*
X165221814Y-140329814D01*
X165323271Y-140246552D01*
X165359009Y-140217222D01*
X165515534Y-140133557D01*
X165685373Y-140082037D01*
X165751557Y-140075519D01*
X165817740Y-140069000D01*
X165906260Y-140069000D01*
X165972443Y-140075519D01*
X165972443Y-140075519D01*
G37*
G36*
X163432443Y-140075519D02*
G01*
X163498627Y-140082037D01*
X163668466Y-140133557D01*
X163824991Y-140217222D01*
X163860729Y-140246552D01*
X163962186Y-140329814D01*
X164045448Y-140431271D01*
X164074778Y-140467009D01*
X164158443Y-140623534D01*
X164209963Y-140793373D01*
X164227359Y-140970000D01*
X164209963Y-141146627D01*
X164158443Y-141316466D01*
X164074778Y-141472991D01*
X164045448Y-141508729D01*
X163962186Y-141610186D01*
X163860729Y-141693448D01*
X163824991Y-141722778D01*
X163668466Y-141806443D01*
X163498627Y-141857963D01*
X163432443Y-141864481D01*
X163366260Y-141871000D01*
X163277740Y-141871000D01*
X163211557Y-141864481D01*
X163145373Y-141857963D01*
X162975534Y-141806443D01*
X162819009Y-141722778D01*
X162783271Y-141693448D01*
X162681814Y-141610186D01*
X162598552Y-141508729D01*
X162569222Y-141472991D01*
X162485557Y-141316466D01*
X162434037Y-141146627D01*
X162416641Y-140970000D01*
X162434037Y-140793373D01*
X162485557Y-140623534D01*
X162569222Y-140467009D01*
X162598552Y-140431271D01*
X162681814Y-140329814D01*
X162783271Y-140246552D01*
X162819009Y-140217222D01*
X162975534Y-140133557D01*
X163145373Y-140082037D01*
X163211557Y-140075519D01*
X163277740Y-140069000D01*
X163366260Y-140069000D01*
X163432443Y-140075519D01*
X163432443Y-140075519D01*
G37*
G36*
X160892443Y-140075519D02*
G01*
X160958627Y-140082037D01*
X161128466Y-140133557D01*
X161284991Y-140217222D01*
X161320729Y-140246552D01*
X161422186Y-140329814D01*
X161505448Y-140431271D01*
X161534778Y-140467009D01*
X161618443Y-140623534D01*
X161669963Y-140793373D01*
X161687359Y-140970000D01*
X161669963Y-141146627D01*
X161618443Y-141316466D01*
X161534778Y-141472991D01*
X161505448Y-141508729D01*
X161422186Y-141610186D01*
X161320729Y-141693448D01*
X161284991Y-141722778D01*
X161128466Y-141806443D01*
X160958627Y-141857963D01*
X160892443Y-141864481D01*
X160826260Y-141871000D01*
X160737740Y-141871000D01*
X160671557Y-141864481D01*
X160605373Y-141857963D01*
X160435534Y-141806443D01*
X160279009Y-141722778D01*
X160243271Y-141693448D01*
X160141814Y-141610186D01*
X160058552Y-141508729D01*
X160029222Y-141472991D01*
X159945557Y-141316466D01*
X159894037Y-141146627D01*
X159876641Y-140970000D01*
X159894037Y-140793373D01*
X159945557Y-140623534D01*
X160029222Y-140467009D01*
X160058552Y-140431271D01*
X160141814Y-140329814D01*
X160243271Y-140246552D01*
X160279009Y-140217222D01*
X160435534Y-140133557D01*
X160605373Y-140082037D01*
X160671557Y-140075519D01*
X160737740Y-140069000D01*
X160826260Y-140069000D01*
X160892443Y-140075519D01*
X160892443Y-140075519D01*
G37*
G36*
X158352443Y-140075519D02*
G01*
X158418627Y-140082037D01*
X158588466Y-140133557D01*
X158744991Y-140217222D01*
X158780729Y-140246552D01*
X158882186Y-140329814D01*
X158965448Y-140431271D01*
X158994778Y-140467009D01*
X159078443Y-140623534D01*
X159129963Y-140793373D01*
X159147359Y-140970000D01*
X159129963Y-141146627D01*
X159078443Y-141316466D01*
X158994778Y-141472991D01*
X158965448Y-141508729D01*
X158882186Y-141610186D01*
X158780729Y-141693448D01*
X158744991Y-141722778D01*
X158588466Y-141806443D01*
X158418627Y-141857963D01*
X158352443Y-141864481D01*
X158286260Y-141871000D01*
X158197740Y-141871000D01*
X158131557Y-141864481D01*
X158065373Y-141857963D01*
X157895534Y-141806443D01*
X157739009Y-141722778D01*
X157703271Y-141693448D01*
X157601814Y-141610186D01*
X157518552Y-141508729D01*
X157489222Y-141472991D01*
X157405557Y-141316466D01*
X157354037Y-141146627D01*
X157336641Y-140970000D01*
X157354037Y-140793373D01*
X157405557Y-140623534D01*
X157489222Y-140467009D01*
X157518552Y-140431271D01*
X157601814Y-140329814D01*
X157703271Y-140246552D01*
X157739009Y-140217222D01*
X157895534Y-140133557D01*
X158065373Y-140082037D01*
X158131557Y-140075519D01*
X158197740Y-140069000D01*
X158286260Y-140069000D01*
X158352443Y-140075519D01*
X158352443Y-140075519D01*
G37*
G36*
X153272443Y-140075519D02*
G01*
X153338627Y-140082037D01*
X153508466Y-140133557D01*
X153664991Y-140217222D01*
X153700729Y-140246552D01*
X153802186Y-140329814D01*
X153885448Y-140431271D01*
X153914778Y-140467009D01*
X153998443Y-140623534D01*
X154049963Y-140793373D01*
X154067359Y-140970000D01*
X154049963Y-141146627D01*
X153998443Y-141316466D01*
X153914778Y-141472991D01*
X153885448Y-141508729D01*
X153802186Y-141610186D01*
X153700729Y-141693448D01*
X153664991Y-141722778D01*
X153508466Y-141806443D01*
X153338627Y-141857963D01*
X153272443Y-141864481D01*
X153206260Y-141871000D01*
X153117740Y-141871000D01*
X153051557Y-141864481D01*
X152985373Y-141857963D01*
X152815534Y-141806443D01*
X152659009Y-141722778D01*
X152623271Y-141693448D01*
X152521814Y-141610186D01*
X152438552Y-141508729D01*
X152409222Y-141472991D01*
X152325557Y-141316466D01*
X152274037Y-141146627D01*
X152256641Y-140970000D01*
X152274037Y-140793373D01*
X152325557Y-140623534D01*
X152409222Y-140467009D01*
X152438552Y-140431271D01*
X152521814Y-140329814D01*
X152623271Y-140246552D01*
X152659009Y-140217222D01*
X152815534Y-140133557D01*
X152985373Y-140082037D01*
X153051557Y-140075519D01*
X153117740Y-140069000D01*
X153206260Y-140069000D01*
X153272443Y-140075519D01*
X153272443Y-140075519D01*
G37*
G36*
X176132443Y-140075519D02*
G01*
X176198627Y-140082037D01*
X176368466Y-140133557D01*
X176524991Y-140217222D01*
X176560729Y-140246552D01*
X176662186Y-140329814D01*
X176745448Y-140431271D01*
X176774778Y-140467009D01*
X176858443Y-140623534D01*
X176909963Y-140793373D01*
X176927359Y-140970000D01*
X176909963Y-141146627D01*
X176858443Y-141316466D01*
X176774778Y-141472991D01*
X176745448Y-141508729D01*
X176662186Y-141610186D01*
X176560729Y-141693448D01*
X176524991Y-141722778D01*
X176368466Y-141806443D01*
X176198627Y-141857963D01*
X176132443Y-141864481D01*
X176066260Y-141871000D01*
X175977740Y-141871000D01*
X175911557Y-141864481D01*
X175845373Y-141857963D01*
X175675534Y-141806443D01*
X175519009Y-141722778D01*
X175483271Y-141693448D01*
X175381814Y-141610186D01*
X175298552Y-141508729D01*
X175269222Y-141472991D01*
X175185557Y-141316466D01*
X175134037Y-141146627D01*
X175116641Y-140970000D01*
X175134037Y-140793373D01*
X175185557Y-140623534D01*
X175269222Y-140467009D01*
X175298552Y-140431271D01*
X175381814Y-140329814D01*
X175483271Y-140246552D01*
X175519009Y-140217222D01*
X175675534Y-140133557D01*
X175845373Y-140082037D01*
X175911557Y-140075519D01*
X175977740Y-140069000D01*
X176066260Y-140069000D01*
X176132443Y-140075519D01*
X176132443Y-140075519D01*
G37*
G36*
X140572443Y-140075519D02*
G01*
X140638627Y-140082037D01*
X140808466Y-140133557D01*
X140964991Y-140217222D01*
X141000729Y-140246552D01*
X141102186Y-140329814D01*
X141185448Y-140431271D01*
X141214778Y-140467009D01*
X141298443Y-140623534D01*
X141349963Y-140793373D01*
X141367359Y-140970000D01*
X141349963Y-141146627D01*
X141298443Y-141316466D01*
X141214778Y-141472991D01*
X141185448Y-141508729D01*
X141102186Y-141610186D01*
X141000729Y-141693448D01*
X140964991Y-141722778D01*
X140808466Y-141806443D01*
X140638627Y-141857963D01*
X140572443Y-141864481D01*
X140506260Y-141871000D01*
X140417740Y-141871000D01*
X140351557Y-141864481D01*
X140285373Y-141857963D01*
X140115534Y-141806443D01*
X139959009Y-141722778D01*
X139923271Y-141693448D01*
X139821814Y-141610186D01*
X139738552Y-141508729D01*
X139709222Y-141472991D01*
X139625557Y-141316466D01*
X139574037Y-141146627D01*
X139556641Y-140970000D01*
X139574037Y-140793373D01*
X139625557Y-140623534D01*
X139709222Y-140467009D01*
X139738552Y-140431271D01*
X139821814Y-140329814D01*
X139923271Y-140246552D01*
X139959009Y-140217222D01*
X140115534Y-140133557D01*
X140285373Y-140082037D01*
X140351557Y-140075519D01*
X140417740Y-140069000D01*
X140506260Y-140069000D01*
X140572443Y-140075519D01*
X140572443Y-140075519D01*
G37*
G36*
X181212443Y-140075519D02*
G01*
X181278627Y-140082037D01*
X181448466Y-140133557D01*
X181604991Y-140217222D01*
X181640729Y-140246552D01*
X181742186Y-140329814D01*
X181825448Y-140431271D01*
X181854778Y-140467009D01*
X181938443Y-140623534D01*
X181989963Y-140793373D01*
X182007359Y-140970000D01*
X181989963Y-141146627D01*
X181938443Y-141316466D01*
X181854778Y-141472991D01*
X181825448Y-141508729D01*
X181742186Y-141610186D01*
X181640729Y-141693448D01*
X181604991Y-141722778D01*
X181448466Y-141806443D01*
X181278627Y-141857963D01*
X181212443Y-141864481D01*
X181146260Y-141871000D01*
X181057740Y-141871000D01*
X180991557Y-141864481D01*
X180925373Y-141857963D01*
X180755534Y-141806443D01*
X180599009Y-141722778D01*
X180563271Y-141693448D01*
X180461814Y-141610186D01*
X180378552Y-141508729D01*
X180349222Y-141472991D01*
X180265557Y-141316466D01*
X180214037Y-141146627D01*
X180196641Y-140970000D01*
X180214037Y-140793373D01*
X180265557Y-140623534D01*
X180349222Y-140467009D01*
X180378552Y-140431271D01*
X180461814Y-140329814D01*
X180563271Y-140246552D01*
X180599009Y-140217222D01*
X180755534Y-140133557D01*
X180925373Y-140082037D01*
X180991557Y-140075519D01*
X181057740Y-140069000D01*
X181146260Y-140069000D01*
X181212443Y-140075519D01*
X181212443Y-140075519D01*
G37*
G36*
X143112443Y-140075519D02*
G01*
X143178627Y-140082037D01*
X143348466Y-140133557D01*
X143504991Y-140217222D01*
X143540729Y-140246552D01*
X143642186Y-140329814D01*
X143725448Y-140431271D01*
X143754778Y-140467009D01*
X143838443Y-140623534D01*
X143889963Y-140793373D01*
X143907359Y-140970000D01*
X143889963Y-141146627D01*
X143838443Y-141316466D01*
X143754778Y-141472991D01*
X143725448Y-141508729D01*
X143642186Y-141610186D01*
X143540729Y-141693448D01*
X143504991Y-141722778D01*
X143348466Y-141806443D01*
X143178627Y-141857963D01*
X143112443Y-141864481D01*
X143046260Y-141871000D01*
X142957740Y-141871000D01*
X142891557Y-141864481D01*
X142825373Y-141857963D01*
X142655534Y-141806443D01*
X142499009Y-141722778D01*
X142463271Y-141693448D01*
X142361814Y-141610186D01*
X142278552Y-141508729D01*
X142249222Y-141472991D01*
X142165557Y-141316466D01*
X142114037Y-141146627D01*
X142096641Y-140970000D01*
X142114037Y-140793373D01*
X142165557Y-140623534D01*
X142249222Y-140467009D01*
X142278552Y-140431271D01*
X142361814Y-140329814D01*
X142463271Y-140246552D01*
X142499009Y-140217222D01*
X142655534Y-140133557D01*
X142825373Y-140082037D01*
X142891557Y-140075519D01*
X142957740Y-140069000D01*
X143046260Y-140069000D01*
X143112443Y-140075519D01*
X143112443Y-140075519D01*
G37*
G36*
X138032443Y-140075519D02*
G01*
X138098627Y-140082037D01*
X138268466Y-140133557D01*
X138424991Y-140217222D01*
X138460729Y-140246552D01*
X138562186Y-140329814D01*
X138645448Y-140431271D01*
X138674778Y-140467009D01*
X138758443Y-140623534D01*
X138809963Y-140793373D01*
X138827359Y-140970000D01*
X138809963Y-141146627D01*
X138758443Y-141316466D01*
X138674778Y-141472991D01*
X138645448Y-141508729D01*
X138562186Y-141610186D01*
X138460729Y-141693448D01*
X138424991Y-141722778D01*
X138268466Y-141806443D01*
X138098627Y-141857963D01*
X138032443Y-141864481D01*
X137966260Y-141871000D01*
X137877740Y-141871000D01*
X137811557Y-141864481D01*
X137745373Y-141857963D01*
X137575534Y-141806443D01*
X137419009Y-141722778D01*
X137383271Y-141693448D01*
X137281814Y-141610186D01*
X137198552Y-141508729D01*
X137169222Y-141472991D01*
X137085557Y-141316466D01*
X137034037Y-141146627D01*
X137016641Y-140970000D01*
X137034037Y-140793373D01*
X137085557Y-140623534D01*
X137169222Y-140467009D01*
X137198552Y-140431271D01*
X137281814Y-140329814D01*
X137383271Y-140246552D01*
X137419009Y-140217222D01*
X137575534Y-140133557D01*
X137745373Y-140082037D01*
X137811557Y-140075519D01*
X137877740Y-140069000D01*
X137966260Y-140069000D01*
X138032443Y-140075519D01*
X138032443Y-140075519D01*
G37*
G36*
X145652443Y-140075519D02*
G01*
X145718627Y-140082037D01*
X145888466Y-140133557D01*
X146044991Y-140217222D01*
X146080729Y-140246552D01*
X146182186Y-140329814D01*
X146265448Y-140431271D01*
X146294778Y-140467009D01*
X146378443Y-140623534D01*
X146429963Y-140793373D01*
X146447359Y-140970000D01*
X146429963Y-141146627D01*
X146378443Y-141316466D01*
X146294778Y-141472991D01*
X146265448Y-141508729D01*
X146182186Y-141610186D01*
X146080729Y-141693448D01*
X146044991Y-141722778D01*
X145888466Y-141806443D01*
X145718627Y-141857963D01*
X145652443Y-141864481D01*
X145586260Y-141871000D01*
X145497740Y-141871000D01*
X145431557Y-141864481D01*
X145365373Y-141857963D01*
X145195534Y-141806443D01*
X145039009Y-141722778D01*
X145003271Y-141693448D01*
X144901814Y-141610186D01*
X144818552Y-141508729D01*
X144789222Y-141472991D01*
X144705557Y-141316466D01*
X144654037Y-141146627D01*
X144636641Y-140970000D01*
X144654037Y-140793373D01*
X144705557Y-140623534D01*
X144789222Y-140467009D01*
X144818552Y-140431271D01*
X144901814Y-140329814D01*
X145003271Y-140246552D01*
X145039009Y-140217222D01*
X145195534Y-140133557D01*
X145365373Y-140082037D01*
X145431557Y-140075519D01*
X145497740Y-140069000D01*
X145586260Y-140069000D01*
X145652443Y-140075519D01*
X145652443Y-140075519D01*
G37*
G36*
X184543000Y-141871000D02*
G01*
X182741000Y-141871000D01*
X182741000Y-140069000D01*
X184543000Y-140069000D01*
X184543000Y-141871000D01*
X184543000Y-141871000D01*
G37*
G36*
X148192443Y-140075519D02*
G01*
X148258627Y-140082037D01*
X148428466Y-140133557D01*
X148584991Y-140217222D01*
X148620729Y-140246552D01*
X148722186Y-140329814D01*
X148805448Y-140431271D01*
X148834778Y-140467009D01*
X148918443Y-140623534D01*
X148969963Y-140793373D01*
X148987359Y-140970000D01*
X148969963Y-141146627D01*
X148918443Y-141316466D01*
X148834778Y-141472991D01*
X148805448Y-141508729D01*
X148722186Y-141610186D01*
X148620729Y-141693448D01*
X148584991Y-141722778D01*
X148428466Y-141806443D01*
X148258627Y-141857963D01*
X148192443Y-141864481D01*
X148126260Y-141871000D01*
X148037740Y-141871000D01*
X147971557Y-141864481D01*
X147905373Y-141857963D01*
X147735534Y-141806443D01*
X147579009Y-141722778D01*
X147543271Y-141693448D01*
X147441814Y-141610186D01*
X147358552Y-141508729D01*
X147329222Y-141472991D01*
X147245557Y-141316466D01*
X147194037Y-141146627D01*
X147176641Y-140970000D01*
X147194037Y-140793373D01*
X147245557Y-140623534D01*
X147329222Y-140467009D01*
X147358552Y-140431271D01*
X147441814Y-140329814D01*
X147543271Y-140246552D01*
X147579009Y-140217222D01*
X147735534Y-140133557D01*
X147905373Y-140082037D01*
X147971557Y-140075519D01*
X148037740Y-140069000D01*
X148126260Y-140069000D01*
X148192443Y-140075519D01*
X148192443Y-140075519D01*
G37*
G36*
X135492443Y-140075519D02*
G01*
X135558627Y-140082037D01*
X135728466Y-140133557D01*
X135884991Y-140217222D01*
X135920729Y-140246552D01*
X136022186Y-140329814D01*
X136105448Y-140431271D01*
X136134778Y-140467009D01*
X136218443Y-140623534D01*
X136269963Y-140793373D01*
X136287359Y-140970000D01*
X136269963Y-141146627D01*
X136218443Y-141316466D01*
X136134778Y-141472991D01*
X136105448Y-141508729D01*
X136022186Y-141610186D01*
X135920729Y-141693448D01*
X135884991Y-141722778D01*
X135728466Y-141806443D01*
X135558627Y-141857963D01*
X135492443Y-141864481D01*
X135426260Y-141871000D01*
X135337740Y-141871000D01*
X135271557Y-141864481D01*
X135205373Y-141857963D01*
X135035534Y-141806443D01*
X134879009Y-141722778D01*
X134843271Y-141693448D01*
X134741814Y-141610186D01*
X134658552Y-141508729D01*
X134629222Y-141472991D01*
X134545557Y-141316466D01*
X134494037Y-141146627D01*
X134476641Y-140970000D01*
X134494037Y-140793373D01*
X134545557Y-140623534D01*
X134629222Y-140467009D01*
X134658552Y-140431271D01*
X134741814Y-140329814D01*
X134843271Y-140246552D01*
X134879009Y-140217222D01*
X135035534Y-140133557D01*
X135205373Y-140082037D01*
X135271557Y-140075519D01*
X135337740Y-140069000D01*
X135426260Y-140069000D01*
X135492443Y-140075519D01*
X135492443Y-140075519D01*
G37*
G36*
X150732443Y-140075519D02*
G01*
X150798627Y-140082037D01*
X150968466Y-140133557D01*
X151124991Y-140217222D01*
X151160729Y-140246552D01*
X151262186Y-140329814D01*
X151345448Y-140431271D01*
X151374778Y-140467009D01*
X151458443Y-140623534D01*
X151509963Y-140793373D01*
X151527359Y-140970000D01*
X151509963Y-141146627D01*
X151458443Y-141316466D01*
X151374778Y-141472991D01*
X151345448Y-141508729D01*
X151262186Y-141610186D01*
X151160729Y-141693448D01*
X151124991Y-141722778D01*
X150968466Y-141806443D01*
X150798627Y-141857963D01*
X150732443Y-141864481D01*
X150666260Y-141871000D01*
X150577740Y-141871000D01*
X150511557Y-141864481D01*
X150445373Y-141857963D01*
X150275534Y-141806443D01*
X150119009Y-141722778D01*
X150083271Y-141693448D01*
X149981814Y-141610186D01*
X149898552Y-141508729D01*
X149869222Y-141472991D01*
X149785557Y-141316466D01*
X149734037Y-141146627D01*
X149716641Y-140970000D01*
X149734037Y-140793373D01*
X149785557Y-140623534D01*
X149869222Y-140467009D01*
X149898552Y-140431271D01*
X149981814Y-140329814D01*
X150083271Y-140246552D01*
X150119009Y-140217222D01*
X150275534Y-140133557D01*
X150445373Y-140082037D01*
X150511557Y-140075519D01*
X150577740Y-140069000D01*
X150666260Y-140069000D01*
X150732443Y-140075519D01*
X150732443Y-140075519D01*
G37*
G36*
X103107142Y-132568242D02*
G01*
X103255101Y-132629529D01*
X103388255Y-132718499D01*
X103501501Y-132831745D01*
X103590471Y-132964899D01*
X103651758Y-133112858D01*
X103683000Y-133269925D01*
X103683000Y-133430075D01*
X103651758Y-133587142D01*
X103590471Y-133735101D01*
X103501501Y-133868255D01*
X103388255Y-133981501D01*
X103255101Y-134070471D01*
X103107142Y-134131758D01*
X102950075Y-134163000D01*
X102789925Y-134163000D01*
X102632858Y-134131758D01*
X102484899Y-134070471D01*
X102351745Y-133981501D01*
X102238499Y-133868255D01*
X102149529Y-133735101D01*
X102088242Y-133587142D01*
X102057000Y-133430075D01*
X102057000Y-133269925D01*
X102088242Y-133112858D01*
X102149529Y-132964899D01*
X102238499Y-132831745D01*
X102351745Y-132718499D01*
X102484899Y-132629529D01*
X102632858Y-132568242D01*
X102789925Y-132537000D01*
X102950075Y-132537000D01*
X103107142Y-132568242D01*
X103107142Y-132568242D01*
G37*
G36*
X111303000Y-134163000D02*
G01*
X109677000Y-134163000D01*
X109677000Y-132537000D01*
X111303000Y-132537000D01*
X111303000Y-134163000D01*
X111303000Y-134163000D01*
G37*
G36*
X108187142Y-132568242D02*
G01*
X108335101Y-132629529D01*
X108468255Y-132718499D01*
X108581501Y-132831745D01*
X108670471Y-132964899D01*
X108731758Y-133112858D01*
X108763000Y-133269925D01*
X108763000Y-133430075D01*
X108731758Y-133587142D01*
X108670471Y-133735101D01*
X108581501Y-133868255D01*
X108468255Y-133981501D01*
X108335101Y-134070471D01*
X108187142Y-134131758D01*
X108030075Y-134163000D01*
X107869925Y-134163000D01*
X107712858Y-134131758D01*
X107564899Y-134070471D01*
X107431745Y-133981501D01*
X107318499Y-133868255D01*
X107229529Y-133735101D01*
X107168242Y-133587142D01*
X107137000Y-133430075D01*
X107137000Y-133269925D01*
X107168242Y-133112858D01*
X107229529Y-132964899D01*
X107318499Y-132831745D01*
X107431745Y-132718499D01*
X107564899Y-132629529D01*
X107712858Y-132568242D01*
X107869925Y-132537000D01*
X108030075Y-132537000D01*
X108187142Y-132568242D01*
X108187142Y-132568242D01*
G37*
G36*
X105647142Y-132568242D02*
G01*
X105795101Y-132629529D01*
X105928255Y-132718499D01*
X106041501Y-132831745D01*
X106130471Y-132964899D01*
X106191758Y-133112858D01*
X106223000Y-133269925D01*
X106223000Y-133430075D01*
X106191758Y-133587142D01*
X106130471Y-133735101D01*
X106041501Y-133868255D01*
X105928255Y-133981501D01*
X105795101Y-134070471D01*
X105647142Y-134131758D01*
X105490075Y-134163000D01*
X105329925Y-134163000D01*
X105172858Y-134131758D01*
X105024899Y-134070471D01*
X104891745Y-133981501D01*
X104778499Y-133868255D01*
X104689529Y-133735101D01*
X104628242Y-133587142D01*
X104597000Y-133430075D01*
X104597000Y-133269925D01*
X104628242Y-133112858D01*
X104689529Y-132964899D01*
X104778499Y-132831745D01*
X104891745Y-132718499D01*
X105024899Y-132629529D01*
X105172858Y-132568242D01*
X105329925Y-132537000D01*
X105490075Y-132537000D01*
X105647142Y-132568242D01*
X105647142Y-132568242D01*
G37*
G36*
X191626442Y-132201518D02*
G01*
X191692627Y-132208037D01*
X191862466Y-132259557D01*
X192018991Y-132343222D01*
X192054729Y-132372552D01*
X192156186Y-132455814D01*
X192239448Y-132557271D01*
X192268778Y-132593009D01*
X192352443Y-132749534D01*
X192403963Y-132919373D01*
X192421359Y-133096000D01*
X192403963Y-133272627D01*
X192352443Y-133442466D01*
X192268778Y-133598991D01*
X192239448Y-133634729D01*
X192156186Y-133736186D01*
X192054729Y-133819448D01*
X192018991Y-133848778D01*
X191862466Y-133932443D01*
X191692627Y-133983963D01*
X191626443Y-133990481D01*
X191560260Y-133997000D01*
X191471740Y-133997000D01*
X191405557Y-133990481D01*
X191339373Y-133983963D01*
X191169534Y-133932443D01*
X191013009Y-133848778D01*
X190977271Y-133819448D01*
X190875814Y-133736186D01*
X190792552Y-133634729D01*
X190763222Y-133598991D01*
X190679557Y-133442466D01*
X190628037Y-133272627D01*
X190610641Y-133096000D01*
X190628037Y-132919373D01*
X190679557Y-132749534D01*
X190763222Y-132593009D01*
X190792552Y-132557271D01*
X190875814Y-132455814D01*
X190977271Y-132372552D01*
X191013009Y-132343222D01*
X191169534Y-132259557D01*
X191339373Y-132208037D01*
X191405558Y-132201518D01*
X191471740Y-132195000D01*
X191560260Y-132195000D01*
X191626442Y-132201518D01*
X191626442Y-132201518D01*
G37*
G36*
X103107142Y-130028242D02*
G01*
X103255101Y-130089529D01*
X103388255Y-130178499D01*
X103501501Y-130291745D01*
X103590471Y-130424899D01*
X103651758Y-130572858D01*
X103683000Y-130729925D01*
X103683000Y-130890075D01*
X103651758Y-131047142D01*
X103590471Y-131195101D01*
X103501501Y-131328255D01*
X103388255Y-131441501D01*
X103255101Y-131530471D01*
X103107142Y-131591758D01*
X102950075Y-131623000D01*
X102789925Y-131623000D01*
X102632858Y-131591758D01*
X102484899Y-131530471D01*
X102351745Y-131441501D01*
X102238499Y-131328255D01*
X102149529Y-131195101D01*
X102088242Y-131047142D01*
X102057000Y-130890075D01*
X102057000Y-130729925D01*
X102088242Y-130572858D01*
X102149529Y-130424899D01*
X102238499Y-130291745D01*
X102351745Y-130178499D01*
X102484899Y-130089529D01*
X102632858Y-130028242D01*
X102789925Y-129997000D01*
X102950075Y-129997000D01*
X103107142Y-130028242D01*
X103107142Y-130028242D01*
G37*
G36*
X108187142Y-130028242D02*
G01*
X108335101Y-130089529D01*
X108468255Y-130178499D01*
X108581501Y-130291745D01*
X108670471Y-130424899D01*
X108731758Y-130572858D01*
X108763000Y-130729925D01*
X108763000Y-130890075D01*
X108731758Y-131047142D01*
X108670471Y-131195101D01*
X108581501Y-131328255D01*
X108468255Y-131441501D01*
X108335101Y-131530471D01*
X108187142Y-131591758D01*
X108030075Y-131623000D01*
X107869925Y-131623000D01*
X107712858Y-131591758D01*
X107564899Y-131530471D01*
X107431745Y-131441501D01*
X107318499Y-131328255D01*
X107229529Y-131195101D01*
X107168242Y-131047142D01*
X107137000Y-130890075D01*
X107137000Y-130729925D01*
X107168242Y-130572858D01*
X107229529Y-130424899D01*
X107318499Y-130291745D01*
X107431745Y-130178499D01*
X107564899Y-130089529D01*
X107712858Y-130028242D01*
X107869925Y-129997000D01*
X108030075Y-129997000D01*
X108187142Y-130028242D01*
X108187142Y-130028242D01*
G37*
G36*
X110727142Y-130028242D02*
G01*
X110875101Y-130089529D01*
X111008255Y-130178499D01*
X111121501Y-130291745D01*
X111210471Y-130424899D01*
X111271758Y-130572858D01*
X111303000Y-130729925D01*
X111303000Y-130890075D01*
X111271758Y-131047142D01*
X111210471Y-131195101D01*
X111121501Y-131328255D01*
X111008255Y-131441501D01*
X110875101Y-131530471D01*
X110727142Y-131591758D01*
X110570075Y-131623000D01*
X110409925Y-131623000D01*
X110252858Y-131591758D01*
X110104899Y-131530471D01*
X109971745Y-131441501D01*
X109858499Y-131328255D01*
X109769529Y-131195101D01*
X109708242Y-131047142D01*
X109677000Y-130890075D01*
X109677000Y-130729925D01*
X109708242Y-130572858D01*
X109769529Y-130424899D01*
X109858499Y-130291745D01*
X109971745Y-130178499D01*
X110104899Y-130089529D01*
X110252858Y-130028242D01*
X110409925Y-129997000D01*
X110570075Y-129997000D01*
X110727142Y-130028242D01*
X110727142Y-130028242D01*
G37*
G36*
X105647142Y-130028242D02*
G01*
X105795101Y-130089529D01*
X105928255Y-130178499D01*
X106041501Y-130291745D01*
X106130471Y-130424899D01*
X106191758Y-130572858D01*
X106223000Y-130729925D01*
X106223000Y-130890075D01*
X106191758Y-131047142D01*
X106130471Y-131195101D01*
X106041501Y-131328255D01*
X105928255Y-131441501D01*
X105795101Y-131530471D01*
X105647142Y-131591758D01*
X105490075Y-131623000D01*
X105329925Y-131623000D01*
X105172858Y-131591758D01*
X105024899Y-131530471D01*
X104891745Y-131441501D01*
X104778499Y-131328255D01*
X104689529Y-131195101D01*
X104628242Y-131047142D01*
X104597000Y-130890075D01*
X104597000Y-130729925D01*
X104628242Y-130572858D01*
X104689529Y-130424899D01*
X104778499Y-130291745D01*
X104891745Y-130178499D01*
X105024899Y-130089529D01*
X105172858Y-130028242D01*
X105329925Y-129997000D01*
X105490075Y-129997000D01*
X105647142Y-130028242D01*
X105647142Y-130028242D01*
G37*
G36*
X191626442Y-129661518D02*
G01*
X191692627Y-129668037D01*
X191862466Y-129719557D01*
X192018991Y-129803222D01*
X192054729Y-129832552D01*
X192156186Y-129915814D01*
X192239448Y-130017271D01*
X192268778Y-130053009D01*
X192352443Y-130209534D01*
X192403963Y-130379373D01*
X192421359Y-130556000D01*
X192403963Y-130732627D01*
X192352443Y-130902466D01*
X192268778Y-131058991D01*
X192239448Y-131094729D01*
X192156186Y-131196186D01*
X192054729Y-131279448D01*
X192018991Y-131308778D01*
X191862466Y-131392443D01*
X191692627Y-131443963D01*
X191626442Y-131450482D01*
X191560260Y-131457000D01*
X191471740Y-131457000D01*
X191405558Y-131450482D01*
X191339373Y-131443963D01*
X191169534Y-131392443D01*
X191013009Y-131308778D01*
X190977271Y-131279448D01*
X190875814Y-131196186D01*
X190792552Y-131094729D01*
X190763222Y-131058991D01*
X190679557Y-130902466D01*
X190628037Y-130732627D01*
X190610641Y-130556000D01*
X190628037Y-130379373D01*
X190679557Y-130209534D01*
X190763222Y-130053009D01*
X190792552Y-130017271D01*
X190875814Y-129915814D01*
X190977271Y-129832552D01*
X191013009Y-129803222D01*
X191169534Y-129719557D01*
X191339373Y-129668037D01*
X191405558Y-129661518D01*
X191471740Y-129655000D01*
X191560260Y-129655000D01*
X191626442Y-129661518D01*
X191626442Y-129661518D01*
G37*
G36*
X108187142Y-127488242D02*
G01*
X108335101Y-127549529D01*
X108468255Y-127638499D01*
X108581501Y-127751745D01*
X108670471Y-127884899D01*
X108731758Y-128032858D01*
X108763000Y-128189925D01*
X108763000Y-128350075D01*
X108731758Y-128507142D01*
X108670471Y-128655101D01*
X108581501Y-128788255D01*
X108468255Y-128901501D01*
X108335101Y-128990471D01*
X108187142Y-129051758D01*
X108030075Y-129083000D01*
X107869925Y-129083000D01*
X107712858Y-129051758D01*
X107564899Y-128990471D01*
X107431745Y-128901501D01*
X107318499Y-128788255D01*
X107229529Y-128655101D01*
X107168242Y-128507142D01*
X107137000Y-128350075D01*
X107137000Y-128189925D01*
X107168242Y-128032858D01*
X107229529Y-127884899D01*
X107318499Y-127751745D01*
X107431745Y-127638499D01*
X107564899Y-127549529D01*
X107712858Y-127488242D01*
X107869925Y-127457000D01*
X108030075Y-127457000D01*
X108187142Y-127488242D01*
X108187142Y-127488242D01*
G37*
G36*
X110727142Y-127488242D02*
G01*
X110875101Y-127549529D01*
X111008255Y-127638499D01*
X111121501Y-127751745D01*
X111210471Y-127884899D01*
X111271758Y-128032858D01*
X111303000Y-128189925D01*
X111303000Y-128350075D01*
X111271758Y-128507142D01*
X111210471Y-128655101D01*
X111121501Y-128788255D01*
X111008255Y-128901501D01*
X110875101Y-128990471D01*
X110727142Y-129051758D01*
X110570075Y-129083000D01*
X110409925Y-129083000D01*
X110252858Y-129051758D01*
X110104899Y-128990471D01*
X109971745Y-128901501D01*
X109858499Y-128788255D01*
X109769529Y-128655101D01*
X109708242Y-128507142D01*
X109677000Y-128350075D01*
X109677000Y-128189925D01*
X109708242Y-128032858D01*
X109769529Y-127884899D01*
X109858499Y-127751745D01*
X109971745Y-127638499D01*
X110104899Y-127549529D01*
X110252858Y-127488242D01*
X110409925Y-127457000D01*
X110570075Y-127457000D01*
X110727142Y-127488242D01*
X110727142Y-127488242D01*
G37*
G36*
X105647142Y-127488242D02*
G01*
X105795101Y-127549529D01*
X105928255Y-127638499D01*
X106041501Y-127751745D01*
X106130471Y-127884899D01*
X106191758Y-128032858D01*
X106223000Y-128189925D01*
X106223000Y-128350075D01*
X106191758Y-128507142D01*
X106130471Y-128655101D01*
X106041501Y-128788255D01*
X105928255Y-128901501D01*
X105795101Y-128990471D01*
X105647142Y-129051758D01*
X105490075Y-129083000D01*
X105329925Y-129083000D01*
X105172858Y-129051758D01*
X105024899Y-128990471D01*
X104891745Y-128901501D01*
X104778499Y-128788255D01*
X104689529Y-128655101D01*
X104628242Y-128507142D01*
X104597000Y-128350075D01*
X104597000Y-128189925D01*
X104628242Y-128032858D01*
X104689529Y-127884899D01*
X104778499Y-127751745D01*
X104891745Y-127638499D01*
X105024899Y-127549529D01*
X105172858Y-127488242D01*
X105329925Y-127457000D01*
X105490075Y-127457000D01*
X105647142Y-127488242D01*
X105647142Y-127488242D01*
G37*
G36*
X103107142Y-127488242D02*
G01*
X103255101Y-127549529D01*
X103388255Y-127638499D01*
X103501501Y-127751745D01*
X103590471Y-127884899D01*
X103651758Y-128032858D01*
X103683000Y-128189925D01*
X103683000Y-128350075D01*
X103651758Y-128507142D01*
X103590471Y-128655101D01*
X103501501Y-128788255D01*
X103388255Y-128901501D01*
X103255101Y-128990471D01*
X103107142Y-129051758D01*
X102950075Y-129083000D01*
X102789925Y-129083000D01*
X102632858Y-129051758D01*
X102484899Y-128990471D01*
X102351745Y-128901501D01*
X102238499Y-128788255D01*
X102149529Y-128655101D01*
X102088242Y-128507142D01*
X102057000Y-128350075D01*
X102057000Y-128189925D01*
X102088242Y-128032858D01*
X102149529Y-127884899D01*
X102238499Y-127751745D01*
X102351745Y-127638499D01*
X102484899Y-127549529D01*
X102632858Y-127488242D01*
X102789925Y-127457000D01*
X102950075Y-127457000D01*
X103107142Y-127488242D01*
X103107142Y-127488242D01*
G37*
G36*
X191626443Y-127121519D02*
G01*
X191692627Y-127128037D01*
X191862466Y-127179557D01*
X192018991Y-127263222D01*
X192054729Y-127292552D01*
X192156186Y-127375814D01*
X192239448Y-127477271D01*
X192268778Y-127513009D01*
X192352443Y-127669534D01*
X192403963Y-127839373D01*
X192421359Y-128016000D01*
X192403963Y-128192627D01*
X192352443Y-128362466D01*
X192268778Y-128518991D01*
X192239448Y-128554729D01*
X192156186Y-128656186D01*
X192054729Y-128739448D01*
X192018991Y-128768778D01*
X191862466Y-128852443D01*
X191692627Y-128903963D01*
X191626442Y-128910482D01*
X191560260Y-128917000D01*
X191471740Y-128917000D01*
X191405558Y-128910482D01*
X191339373Y-128903963D01*
X191169534Y-128852443D01*
X191013009Y-128768778D01*
X190977271Y-128739448D01*
X190875814Y-128656186D01*
X190792552Y-128554729D01*
X190763222Y-128518991D01*
X190679557Y-128362466D01*
X190628037Y-128192627D01*
X190610641Y-128016000D01*
X190628037Y-127839373D01*
X190679557Y-127669534D01*
X190763222Y-127513009D01*
X190792552Y-127477271D01*
X190875814Y-127375814D01*
X190977271Y-127292552D01*
X191013009Y-127263222D01*
X191169534Y-127179557D01*
X191339373Y-127128037D01*
X191405557Y-127121519D01*
X191471740Y-127115000D01*
X191560260Y-127115000D01*
X191626443Y-127121519D01*
X191626443Y-127121519D01*
G37*
G36*
X105647142Y-124948242D02*
G01*
X105795101Y-125009529D01*
X105928255Y-125098499D01*
X106041501Y-125211745D01*
X106130471Y-125344899D01*
X106191758Y-125492858D01*
X106223000Y-125649925D01*
X106223000Y-125810075D01*
X106191758Y-125967142D01*
X106130471Y-126115101D01*
X106041501Y-126248255D01*
X105928255Y-126361501D01*
X105795101Y-126450471D01*
X105647142Y-126511758D01*
X105490075Y-126543000D01*
X105329925Y-126543000D01*
X105172858Y-126511758D01*
X105024899Y-126450471D01*
X104891745Y-126361501D01*
X104778499Y-126248255D01*
X104689529Y-126115101D01*
X104628242Y-125967142D01*
X104597000Y-125810075D01*
X104597000Y-125649925D01*
X104628242Y-125492858D01*
X104689529Y-125344899D01*
X104778499Y-125211745D01*
X104891745Y-125098499D01*
X105024899Y-125009529D01*
X105172858Y-124948242D01*
X105329925Y-124917000D01*
X105490075Y-124917000D01*
X105647142Y-124948242D01*
X105647142Y-124948242D01*
G37*
G36*
X110727142Y-124948242D02*
G01*
X110875101Y-125009529D01*
X111008255Y-125098499D01*
X111121501Y-125211745D01*
X111210471Y-125344899D01*
X111271758Y-125492858D01*
X111303000Y-125649925D01*
X111303000Y-125810075D01*
X111271758Y-125967142D01*
X111210471Y-126115101D01*
X111121501Y-126248255D01*
X111008255Y-126361501D01*
X110875101Y-126450471D01*
X110727142Y-126511758D01*
X110570075Y-126543000D01*
X110409925Y-126543000D01*
X110252858Y-126511758D01*
X110104899Y-126450471D01*
X109971745Y-126361501D01*
X109858499Y-126248255D01*
X109769529Y-126115101D01*
X109708242Y-125967142D01*
X109677000Y-125810075D01*
X109677000Y-125649925D01*
X109708242Y-125492858D01*
X109769529Y-125344899D01*
X109858499Y-125211745D01*
X109971745Y-125098499D01*
X110104899Y-125009529D01*
X110252858Y-124948242D01*
X110409925Y-124917000D01*
X110570075Y-124917000D01*
X110727142Y-124948242D01*
X110727142Y-124948242D01*
G37*
G36*
X108187142Y-124948242D02*
G01*
X108335101Y-125009529D01*
X108468255Y-125098499D01*
X108581501Y-125211745D01*
X108670471Y-125344899D01*
X108731758Y-125492858D01*
X108763000Y-125649925D01*
X108763000Y-125810075D01*
X108731758Y-125967142D01*
X108670471Y-126115101D01*
X108581501Y-126248255D01*
X108468255Y-126361501D01*
X108335101Y-126450471D01*
X108187142Y-126511758D01*
X108030075Y-126543000D01*
X107869925Y-126543000D01*
X107712858Y-126511758D01*
X107564899Y-126450471D01*
X107431745Y-126361501D01*
X107318499Y-126248255D01*
X107229529Y-126115101D01*
X107168242Y-125967142D01*
X107137000Y-125810075D01*
X107137000Y-125649925D01*
X107168242Y-125492858D01*
X107229529Y-125344899D01*
X107318499Y-125211745D01*
X107431745Y-125098499D01*
X107564899Y-125009529D01*
X107712858Y-124948242D01*
X107869925Y-124917000D01*
X108030075Y-124917000D01*
X108187142Y-124948242D01*
X108187142Y-124948242D01*
G37*
G36*
X103107142Y-124948242D02*
G01*
X103255101Y-125009529D01*
X103388255Y-125098499D01*
X103501501Y-125211745D01*
X103590471Y-125344899D01*
X103651758Y-125492858D01*
X103683000Y-125649925D01*
X103683000Y-125810075D01*
X103651758Y-125967142D01*
X103590471Y-126115101D01*
X103501501Y-126248255D01*
X103388255Y-126361501D01*
X103255101Y-126450471D01*
X103107142Y-126511758D01*
X102950075Y-126543000D01*
X102789925Y-126543000D01*
X102632858Y-126511758D01*
X102484899Y-126450471D01*
X102351745Y-126361501D01*
X102238499Y-126248255D01*
X102149529Y-126115101D01*
X102088242Y-125967142D01*
X102057000Y-125810075D01*
X102057000Y-125649925D01*
X102088242Y-125492858D01*
X102149529Y-125344899D01*
X102238499Y-125211745D01*
X102351745Y-125098499D01*
X102484899Y-125009529D01*
X102632858Y-124948242D01*
X102789925Y-124917000D01*
X102950075Y-124917000D01*
X103107142Y-124948242D01*
X103107142Y-124948242D01*
G37*
G36*
X192417000Y-126377000D02*
G01*
X190615000Y-126377000D01*
X190615000Y-124575000D01*
X192417000Y-124575000D01*
X192417000Y-126377000D01*
X192417000Y-126377000D01*
G37*
G36*
X103107142Y-122408242D02*
G01*
X103255101Y-122469529D01*
X103388255Y-122558499D01*
X103501501Y-122671745D01*
X103590471Y-122804899D01*
X103651758Y-122952858D01*
X103683000Y-123109925D01*
X103683000Y-123270075D01*
X103651758Y-123427142D01*
X103590471Y-123575101D01*
X103501501Y-123708255D01*
X103388255Y-123821501D01*
X103255101Y-123910471D01*
X103107142Y-123971758D01*
X102950075Y-124003000D01*
X102789925Y-124003000D01*
X102632858Y-123971758D01*
X102484899Y-123910471D01*
X102351745Y-123821501D01*
X102238499Y-123708255D01*
X102149529Y-123575101D01*
X102088242Y-123427142D01*
X102057000Y-123270075D01*
X102057000Y-123109925D01*
X102088242Y-122952858D01*
X102149529Y-122804899D01*
X102238499Y-122671745D01*
X102351745Y-122558499D01*
X102484899Y-122469529D01*
X102632858Y-122408242D01*
X102789925Y-122377000D01*
X102950075Y-122377000D01*
X103107142Y-122408242D01*
X103107142Y-122408242D01*
G37*
G36*
X110727142Y-122408242D02*
G01*
X110875101Y-122469529D01*
X111008255Y-122558499D01*
X111121501Y-122671745D01*
X111210471Y-122804899D01*
X111271758Y-122952858D01*
X111303000Y-123109925D01*
X111303000Y-123270075D01*
X111271758Y-123427142D01*
X111210471Y-123575101D01*
X111121501Y-123708255D01*
X111008255Y-123821501D01*
X110875101Y-123910471D01*
X110727142Y-123971758D01*
X110570075Y-124003000D01*
X110409925Y-124003000D01*
X110252858Y-123971758D01*
X110104899Y-123910471D01*
X109971745Y-123821501D01*
X109858499Y-123708255D01*
X109769529Y-123575101D01*
X109708242Y-123427142D01*
X109677000Y-123270075D01*
X109677000Y-123109925D01*
X109708242Y-122952858D01*
X109769529Y-122804899D01*
X109858499Y-122671745D01*
X109971745Y-122558499D01*
X110104899Y-122469529D01*
X110252858Y-122408242D01*
X110409925Y-122377000D01*
X110570075Y-122377000D01*
X110727142Y-122408242D01*
X110727142Y-122408242D01*
G37*
G36*
X108187142Y-122408242D02*
G01*
X108335101Y-122469529D01*
X108468255Y-122558499D01*
X108581501Y-122671745D01*
X108670471Y-122804899D01*
X108731758Y-122952858D01*
X108763000Y-123109925D01*
X108763000Y-123270075D01*
X108731758Y-123427142D01*
X108670471Y-123575101D01*
X108581501Y-123708255D01*
X108468255Y-123821501D01*
X108335101Y-123910471D01*
X108187142Y-123971758D01*
X108030075Y-124003000D01*
X107869925Y-124003000D01*
X107712858Y-123971758D01*
X107564899Y-123910471D01*
X107431745Y-123821501D01*
X107318499Y-123708255D01*
X107229529Y-123575101D01*
X107168242Y-123427142D01*
X107137000Y-123270075D01*
X107137000Y-123109925D01*
X107168242Y-122952858D01*
X107229529Y-122804899D01*
X107318499Y-122671745D01*
X107431745Y-122558499D01*
X107564899Y-122469529D01*
X107712858Y-122408242D01*
X107869925Y-122377000D01*
X108030075Y-122377000D01*
X108187142Y-122408242D01*
X108187142Y-122408242D01*
G37*
G36*
X105647142Y-122408242D02*
G01*
X105795101Y-122469529D01*
X105928255Y-122558499D01*
X106041501Y-122671745D01*
X106130471Y-122804899D01*
X106191758Y-122952858D01*
X106223000Y-123109925D01*
X106223000Y-123270075D01*
X106191758Y-123427142D01*
X106130471Y-123575101D01*
X106041501Y-123708255D01*
X105928255Y-123821501D01*
X105795101Y-123910471D01*
X105647142Y-123971758D01*
X105490075Y-124003000D01*
X105329925Y-124003000D01*
X105172858Y-123971758D01*
X105024899Y-123910471D01*
X104891745Y-123821501D01*
X104778499Y-123708255D01*
X104689529Y-123575101D01*
X104628242Y-123427142D01*
X104597000Y-123270075D01*
X104597000Y-123109925D01*
X104628242Y-122952858D01*
X104689529Y-122804899D01*
X104778499Y-122671745D01*
X104891745Y-122558499D01*
X105024899Y-122469529D01*
X105172858Y-122408242D01*
X105329925Y-122377000D01*
X105490075Y-122377000D01*
X105647142Y-122408242D01*
X105647142Y-122408242D01*
G37*
G36*
X105647142Y-119868242D02*
G01*
X105795101Y-119929529D01*
X105928255Y-120018499D01*
X106041501Y-120131745D01*
X106130471Y-120264899D01*
X106191758Y-120412858D01*
X106223000Y-120569925D01*
X106223000Y-120730075D01*
X106191758Y-120887142D01*
X106130471Y-121035101D01*
X106041501Y-121168255D01*
X105928255Y-121281501D01*
X105795101Y-121370471D01*
X105647142Y-121431758D01*
X105490075Y-121463000D01*
X105329925Y-121463000D01*
X105172858Y-121431758D01*
X105024899Y-121370471D01*
X104891745Y-121281501D01*
X104778499Y-121168255D01*
X104689529Y-121035101D01*
X104628242Y-120887142D01*
X104597000Y-120730075D01*
X104597000Y-120569925D01*
X104628242Y-120412858D01*
X104689529Y-120264899D01*
X104778499Y-120131745D01*
X104891745Y-120018499D01*
X105024899Y-119929529D01*
X105172858Y-119868242D01*
X105329925Y-119837000D01*
X105490075Y-119837000D01*
X105647142Y-119868242D01*
X105647142Y-119868242D01*
G37*
G36*
X108187142Y-119868242D02*
G01*
X108335101Y-119929529D01*
X108468255Y-120018499D01*
X108581501Y-120131745D01*
X108670471Y-120264899D01*
X108731758Y-120412858D01*
X108763000Y-120569925D01*
X108763000Y-120730075D01*
X108731758Y-120887142D01*
X108670471Y-121035101D01*
X108581501Y-121168255D01*
X108468255Y-121281501D01*
X108335101Y-121370471D01*
X108187142Y-121431758D01*
X108030075Y-121463000D01*
X107869925Y-121463000D01*
X107712858Y-121431758D01*
X107564899Y-121370471D01*
X107431745Y-121281501D01*
X107318499Y-121168255D01*
X107229529Y-121035101D01*
X107168242Y-120887142D01*
X107137000Y-120730075D01*
X107137000Y-120569925D01*
X107168242Y-120412858D01*
X107229529Y-120264899D01*
X107318499Y-120131745D01*
X107431745Y-120018499D01*
X107564899Y-119929529D01*
X107712858Y-119868242D01*
X107869925Y-119837000D01*
X108030075Y-119837000D01*
X108187142Y-119868242D01*
X108187142Y-119868242D01*
G37*
G36*
X103107142Y-119868242D02*
G01*
X103255101Y-119929529D01*
X103388255Y-120018499D01*
X103501501Y-120131745D01*
X103590471Y-120264899D01*
X103651758Y-120412858D01*
X103683000Y-120569925D01*
X103683000Y-120730075D01*
X103651758Y-120887142D01*
X103590471Y-121035101D01*
X103501501Y-121168255D01*
X103388255Y-121281501D01*
X103255101Y-121370471D01*
X103107142Y-121431758D01*
X102950075Y-121463000D01*
X102789925Y-121463000D01*
X102632858Y-121431758D01*
X102484899Y-121370471D01*
X102351745Y-121281501D01*
X102238499Y-121168255D01*
X102149529Y-121035101D01*
X102088242Y-120887142D01*
X102057000Y-120730075D01*
X102057000Y-120569925D01*
X102088242Y-120412858D01*
X102149529Y-120264899D01*
X102238499Y-120131745D01*
X102351745Y-120018499D01*
X102484899Y-119929529D01*
X102632858Y-119868242D01*
X102789925Y-119837000D01*
X102950075Y-119837000D01*
X103107142Y-119868242D01*
X103107142Y-119868242D01*
G37*
G36*
X110727142Y-119868242D02*
G01*
X110875101Y-119929529D01*
X111008255Y-120018499D01*
X111121501Y-120131745D01*
X111210471Y-120264899D01*
X111271758Y-120412858D01*
X111303000Y-120569925D01*
X111303000Y-120730075D01*
X111271758Y-120887142D01*
X111210471Y-121035101D01*
X111121501Y-121168255D01*
X111008255Y-121281501D01*
X110875101Y-121370471D01*
X110727142Y-121431758D01*
X110570075Y-121463000D01*
X110409925Y-121463000D01*
X110252858Y-121431758D01*
X110104899Y-121370471D01*
X109971745Y-121281501D01*
X109858499Y-121168255D01*
X109769529Y-121035101D01*
X109708242Y-120887142D01*
X109677000Y-120730075D01*
X109677000Y-120569925D01*
X109708242Y-120412858D01*
X109769529Y-120264899D01*
X109858499Y-120131745D01*
X109971745Y-120018499D01*
X110104899Y-119929529D01*
X110252858Y-119868242D01*
X110409925Y-119837000D01*
X110570075Y-119837000D01*
X110727142Y-119868242D01*
X110727142Y-119868242D01*
G37*
G36*
X108187142Y-117328242D02*
G01*
X108335101Y-117389529D01*
X108468255Y-117478499D01*
X108581501Y-117591745D01*
X108670471Y-117724899D01*
X108731758Y-117872858D01*
X108763000Y-118029925D01*
X108763000Y-118190075D01*
X108731758Y-118347142D01*
X108670471Y-118495101D01*
X108581501Y-118628255D01*
X108468255Y-118741501D01*
X108335101Y-118830471D01*
X108187142Y-118891758D01*
X108030075Y-118923000D01*
X107869925Y-118923000D01*
X107712858Y-118891758D01*
X107564899Y-118830471D01*
X107431745Y-118741501D01*
X107318499Y-118628255D01*
X107229529Y-118495101D01*
X107168242Y-118347142D01*
X107137000Y-118190075D01*
X107137000Y-118029925D01*
X107168242Y-117872858D01*
X107229529Y-117724899D01*
X107318499Y-117591745D01*
X107431745Y-117478499D01*
X107564899Y-117389529D01*
X107712858Y-117328242D01*
X107869925Y-117297000D01*
X108030075Y-117297000D01*
X108187142Y-117328242D01*
X108187142Y-117328242D01*
G37*
G36*
X103107142Y-117328242D02*
G01*
X103255101Y-117389529D01*
X103388255Y-117478499D01*
X103501501Y-117591745D01*
X103590471Y-117724899D01*
X103651758Y-117872858D01*
X103683000Y-118029925D01*
X103683000Y-118190075D01*
X103651758Y-118347142D01*
X103590471Y-118495101D01*
X103501501Y-118628255D01*
X103388255Y-118741501D01*
X103255101Y-118830471D01*
X103107142Y-118891758D01*
X102950075Y-118923000D01*
X102789925Y-118923000D01*
X102632858Y-118891758D01*
X102484899Y-118830471D01*
X102351745Y-118741501D01*
X102238499Y-118628255D01*
X102149529Y-118495101D01*
X102088242Y-118347142D01*
X102057000Y-118190075D01*
X102057000Y-118029925D01*
X102088242Y-117872858D01*
X102149529Y-117724899D01*
X102238499Y-117591745D01*
X102351745Y-117478499D01*
X102484899Y-117389529D01*
X102632858Y-117328242D01*
X102789925Y-117297000D01*
X102950075Y-117297000D01*
X103107142Y-117328242D01*
X103107142Y-117328242D01*
G37*
G36*
X105647142Y-117328242D02*
G01*
X105795101Y-117389529D01*
X105928255Y-117478499D01*
X106041501Y-117591745D01*
X106130471Y-117724899D01*
X106191758Y-117872858D01*
X106223000Y-118029925D01*
X106223000Y-118190075D01*
X106191758Y-118347142D01*
X106130471Y-118495101D01*
X106041501Y-118628255D01*
X105928255Y-118741501D01*
X105795101Y-118830471D01*
X105647142Y-118891758D01*
X105490075Y-118923000D01*
X105329925Y-118923000D01*
X105172858Y-118891758D01*
X105024899Y-118830471D01*
X104891745Y-118741501D01*
X104778499Y-118628255D01*
X104689529Y-118495101D01*
X104628242Y-118347142D01*
X104597000Y-118190075D01*
X104597000Y-118029925D01*
X104628242Y-117872858D01*
X104689529Y-117724899D01*
X104778499Y-117591745D01*
X104891745Y-117478499D01*
X105024899Y-117389529D01*
X105172858Y-117328242D01*
X105329925Y-117297000D01*
X105490075Y-117297000D01*
X105647142Y-117328242D01*
X105647142Y-117328242D01*
G37*
G36*
X110727142Y-117328242D02*
G01*
X110875101Y-117389529D01*
X111008255Y-117478499D01*
X111121501Y-117591745D01*
X111210471Y-117724899D01*
X111271758Y-117872858D01*
X111303000Y-118029925D01*
X111303000Y-118190075D01*
X111271758Y-118347142D01*
X111210471Y-118495101D01*
X111121501Y-118628255D01*
X111008255Y-118741501D01*
X110875101Y-118830471D01*
X110727142Y-118891758D01*
X110570075Y-118923000D01*
X110409925Y-118923000D01*
X110252858Y-118891758D01*
X110104899Y-118830471D01*
X109971745Y-118741501D01*
X109858499Y-118628255D01*
X109769529Y-118495101D01*
X109708242Y-118347142D01*
X109677000Y-118190075D01*
X109677000Y-118029925D01*
X109708242Y-117872858D01*
X109769529Y-117724899D01*
X109858499Y-117591745D01*
X109971745Y-117478499D01*
X110104899Y-117389529D01*
X110252858Y-117328242D01*
X110409925Y-117297000D01*
X110570075Y-117297000D01*
X110727142Y-117328242D01*
X110727142Y-117328242D01*
G37*
G36*
X105647142Y-114788242D02*
G01*
X105795101Y-114849529D01*
X105928255Y-114938499D01*
X106041501Y-115051745D01*
X106130471Y-115184899D01*
X106191758Y-115332858D01*
X106223000Y-115489925D01*
X106223000Y-115650075D01*
X106191758Y-115807142D01*
X106130471Y-115955101D01*
X106041501Y-116088255D01*
X105928255Y-116201501D01*
X105795101Y-116290471D01*
X105647142Y-116351758D01*
X105490075Y-116383000D01*
X105329925Y-116383000D01*
X105172858Y-116351758D01*
X105024899Y-116290471D01*
X104891745Y-116201501D01*
X104778499Y-116088255D01*
X104689529Y-115955101D01*
X104628242Y-115807142D01*
X104597000Y-115650075D01*
X104597000Y-115489925D01*
X104628242Y-115332858D01*
X104689529Y-115184899D01*
X104778499Y-115051745D01*
X104891745Y-114938499D01*
X105024899Y-114849529D01*
X105172858Y-114788242D01*
X105329925Y-114757000D01*
X105490075Y-114757000D01*
X105647142Y-114788242D01*
X105647142Y-114788242D01*
G37*
G36*
X103107142Y-114788242D02*
G01*
X103255101Y-114849529D01*
X103388255Y-114938499D01*
X103501501Y-115051745D01*
X103590471Y-115184899D01*
X103651758Y-115332858D01*
X103683000Y-115489925D01*
X103683000Y-115650075D01*
X103651758Y-115807142D01*
X103590471Y-115955101D01*
X103501501Y-116088255D01*
X103388255Y-116201501D01*
X103255101Y-116290471D01*
X103107142Y-116351758D01*
X102950075Y-116383000D01*
X102789925Y-116383000D01*
X102632858Y-116351758D01*
X102484899Y-116290471D01*
X102351745Y-116201501D01*
X102238499Y-116088255D01*
X102149529Y-115955101D01*
X102088242Y-115807142D01*
X102057000Y-115650075D01*
X102057000Y-115489925D01*
X102088242Y-115332858D01*
X102149529Y-115184899D01*
X102238499Y-115051745D01*
X102351745Y-114938499D01*
X102484899Y-114849529D01*
X102632858Y-114788242D01*
X102789925Y-114757000D01*
X102950075Y-114757000D01*
X103107142Y-114788242D01*
X103107142Y-114788242D01*
G37*
G36*
X108187142Y-114788242D02*
G01*
X108335101Y-114849529D01*
X108468255Y-114938499D01*
X108581501Y-115051745D01*
X108670471Y-115184899D01*
X108731758Y-115332858D01*
X108763000Y-115489925D01*
X108763000Y-115650075D01*
X108731758Y-115807142D01*
X108670471Y-115955101D01*
X108581501Y-116088255D01*
X108468255Y-116201501D01*
X108335101Y-116290471D01*
X108187142Y-116351758D01*
X108030075Y-116383000D01*
X107869925Y-116383000D01*
X107712858Y-116351758D01*
X107564899Y-116290471D01*
X107431745Y-116201501D01*
X107318499Y-116088255D01*
X107229529Y-115955101D01*
X107168242Y-115807142D01*
X107137000Y-115650075D01*
X107137000Y-115489925D01*
X107168242Y-115332858D01*
X107229529Y-115184899D01*
X107318499Y-115051745D01*
X107431745Y-114938499D01*
X107564899Y-114849529D01*
X107712858Y-114788242D01*
X107869925Y-114757000D01*
X108030075Y-114757000D01*
X108187142Y-114788242D01*
X108187142Y-114788242D01*
G37*
G36*
X110727142Y-114788242D02*
G01*
X110875101Y-114849529D01*
X111008255Y-114938499D01*
X111121501Y-115051745D01*
X111210471Y-115184899D01*
X111271758Y-115332858D01*
X111303000Y-115489925D01*
X111303000Y-115650075D01*
X111271758Y-115807142D01*
X111210471Y-115955101D01*
X111121501Y-116088255D01*
X111008255Y-116201501D01*
X110875101Y-116290471D01*
X110727142Y-116351758D01*
X110570075Y-116383000D01*
X110409925Y-116383000D01*
X110252858Y-116351758D01*
X110104899Y-116290471D01*
X109971745Y-116201501D01*
X109858499Y-116088255D01*
X109769529Y-115955101D01*
X109708242Y-115807142D01*
X109677000Y-115650075D01*
X109677000Y-115489925D01*
X109708242Y-115332858D01*
X109769529Y-115184899D01*
X109858499Y-115051745D01*
X109971745Y-114938499D01*
X110104899Y-114849529D01*
X110252858Y-114788242D01*
X110409925Y-114757000D01*
X110570075Y-114757000D01*
X110727142Y-114788242D01*
X110727142Y-114788242D01*
G37*
G36*
X110727142Y-112248242D02*
G01*
X110875101Y-112309529D01*
X111008255Y-112398499D01*
X111121501Y-112511745D01*
X111210471Y-112644899D01*
X111271758Y-112792858D01*
X111303000Y-112949925D01*
X111303000Y-113110075D01*
X111271758Y-113267142D01*
X111210471Y-113415101D01*
X111121501Y-113548255D01*
X111008255Y-113661501D01*
X110875101Y-113750471D01*
X110727142Y-113811758D01*
X110570075Y-113843000D01*
X110409925Y-113843000D01*
X110252858Y-113811758D01*
X110104899Y-113750471D01*
X109971745Y-113661501D01*
X109858499Y-113548255D01*
X109769529Y-113415101D01*
X109708242Y-113267142D01*
X109677000Y-113110075D01*
X109677000Y-112949925D01*
X109708242Y-112792858D01*
X109769529Y-112644899D01*
X109858499Y-112511745D01*
X109971745Y-112398499D01*
X110104899Y-112309529D01*
X110252858Y-112248242D01*
X110409925Y-112217000D01*
X110570075Y-112217000D01*
X110727142Y-112248242D01*
X110727142Y-112248242D01*
G37*
G36*
X108187142Y-112248242D02*
G01*
X108335101Y-112309529D01*
X108468255Y-112398499D01*
X108581501Y-112511745D01*
X108670471Y-112644899D01*
X108731758Y-112792858D01*
X108763000Y-112949925D01*
X108763000Y-113110075D01*
X108731758Y-113267142D01*
X108670471Y-113415101D01*
X108581501Y-113548255D01*
X108468255Y-113661501D01*
X108335101Y-113750471D01*
X108187142Y-113811758D01*
X108030075Y-113843000D01*
X107869925Y-113843000D01*
X107712858Y-113811758D01*
X107564899Y-113750471D01*
X107431745Y-113661501D01*
X107318499Y-113548255D01*
X107229529Y-113415101D01*
X107168242Y-113267142D01*
X107137000Y-113110075D01*
X107137000Y-112949925D01*
X107168242Y-112792858D01*
X107229529Y-112644899D01*
X107318499Y-112511745D01*
X107431745Y-112398499D01*
X107564899Y-112309529D01*
X107712858Y-112248242D01*
X107869925Y-112217000D01*
X108030075Y-112217000D01*
X108187142Y-112248242D01*
X108187142Y-112248242D01*
G37*
G36*
X105647142Y-112248242D02*
G01*
X105795101Y-112309529D01*
X105928255Y-112398499D01*
X106041501Y-112511745D01*
X106130471Y-112644899D01*
X106191758Y-112792858D01*
X106223000Y-112949925D01*
X106223000Y-113110075D01*
X106191758Y-113267142D01*
X106130471Y-113415101D01*
X106041501Y-113548255D01*
X105928255Y-113661501D01*
X105795101Y-113750471D01*
X105647142Y-113811758D01*
X105490075Y-113843000D01*
X105329925Y-113843000D01*
X105172858Y-113811758D01*
X105024899Y-113750471D01*
X104891745Y-113661501D01*
X104778499Y-113548255D01*
X104689529Y-113415101D01*
X104628242Y-113267142D01*
X104597000Y-113110075D01*
X104597000Y-112949925D01*
X104628242Y-112792858D01*
X104689529Y-112644899D01*
X104778499Y-112511745D01*
X104891745Y-112398499D01*
X105024899Y-112309529D01*
X105172858Y-112248242D01*
X105329925Y-112217000D01*
X105490075Y-112217000D01*
X105647142Y-112248242D01*
X105647142Y-112248242D01*
G37*
G36*
X103107142Y-112248242D02*
G01*
X103255101Y-112309529D01*
X103388255Y-112398499D01*
X103501501Y-112511745D01*
X103590471Y-112644899D01*
X103651758Y-112792858D01*
X103683000Y-112949925D01*
X103683000Y-113110075D01*
X103651758Y-113267142D01*
X103590471Y-113415101D01*
X103501501Y-113548255D01*
X103388255Y-113661501D01*
X103255101Y-113750471D01*
X103107142Y-113811758D01*
X102950075Y-113843000D01*
X102789925Y-113843000D01*
X102632858Y-113811758D01*
X102484899Y-113750471D01*
X102351745Y-113661501D01*
X102238499Y-113548255D01*
X102149529Y-113415101D01*
X102088242Y-113267142D01*
X102057000Y-113110075D01*
X102057000Y-112949925D01*
X102088242Y-112792858D01*
X102149529Y-112644899D01*
X102238499Y-112511745D01*
X102351745Y-112398499D01*
X102484899Y-112309529D01*
X102632858Y-112248242D01*
X102789925Y-112217000D01*
X102950075Y-112217000D01*
X103107142Y-112248242D01*
X103107142Y-112248242D01*
G37*
G36*
X103107142Y-109708242D02*
G01*
X103255101Y-109769529D01*
X103388255Y-109858499D01*
X103501501Y-109971745D01*
X103590471Y-110104899D01*
X103651758Y-110252858D01*
X103683000Y-110409925D01*
X103683000Y-110570075D01*
X103651758Y-110727142D01*
X103590471Y-110875101D01*
X103501501Y-111008255D01*
X103388255Y-111121501D01*
X103255101Y-111210471D01*
X103107142Y-111271758D01*
X102950075Y-111303000D01*
X102789925Y-111303000D01*
X102632858Y-111271758D01*
X102484899Y-111210471D01*
X102351745Y-111121501D01*
X102238499Y-111008255D01*
X102149529Y-110875101D01*
X102088242Y-110727142D01*
X102057000Y-110570075D01*
X102057000Y-110409925D01*
X102088242Y-110252858D01*
X102149529Y-110104899D01*
X102238499Y-109971745D01*
X102351745Y-109858499D01*
X102484899Y-109769529D01*
X102632858Y-109708242D01*
X102789925Y-109677000D01*
X102950075Y-109677000D01*
X103107142Y-109708242D01*
X103107142Y-109708242D01*
G37*
G36*
X105647142Y-109708242D02*
G01*
X105795101Y-109769529D01*
X105928255Y-109858499D01*
X106041501Y-109971745D01*
X106130471Y-110104899D01*
X106191758Y-110252858D01*
X106223000Y-110409925D01*
X106223000Y-110570075D01*
X106191758Y-110727142D01*
X106130471Y-110875101D01*
X106041501Y-111008255D01*
X105928255Y-111121501D01*
X105795101Y-111210471D01*
X105647142Y-111271758D01*
X105490075Y-111303000D01*
X105329925Y-111303000D01*
X105172858Y-111271758D01*
X105024899Y-111210471D01*
X104891745Y-111121501D01*
X104778499Y-111008255D01*
X104689529Y-110875101D01*
X104628242Y-110727142D01*
X104597000Y-110570075D01*
X104597000Y-110409925D01*
X104628242Y-110252858D01*
X104689529Y-110104899D01*
X104778499Y-109971745D01*
X104891745Y-109858499D01*
X105024899Y-109769529D01*
X105172858Y-109708242D01*
X105329925Y-109677000D01*
X105490075Y-109677000D01*
X105647142Y-109708242D01*
X105647142Y-109708242D01*
G37*
G36*
X110727142Y-109708242D02*
G01*
X110875101Y-109769529D01*
X111008255Y-109858499D01*
X111121501Y-109971745D01*
X111210471Y-110104899D01*
X111271758Y-110252858D01*
X111303000Y-110409925D01*
X111303000Y-110570075D01*
X111271758Y-110727142D01*
X111210471Y-110875101D01*
X111121501Y-111008255D01*
X111008255Y-111121501D01*
X110875101Y-111210471D01*
X110727142Y-111271758D01*
X110570075Y-111303000D01*
X110409925Y-111303000D01*
X110252858Y-111271758D01*
X110104899Y-111210471D01*
X109971745Y-111121501D01*
X109858499Y-111008255D01*
X109769529Y-110875101D01*
X109708242Y-110727142D01*
X109677000Y-110570075D01*
X109677000Y-110409925D01*
X109708242Y-110252858D01*
X109769529Y-110104899D01*
X109858499Y-109971745D01*
X109971745Y-109858499D01*
X110104899Y-109769529D01*
X110252858Y-109708242D01*
X110409925Y-109677000D01*
X110570075Y-109677000D01*
X110727142Y-109708242D01*
X110727142Y-109708242D01*
G37*
G36*
X108187142Y-109708242D02*
G01*
X108335101Y-109769529D01*
X108468255Y-109858499D01*
X108581501Y-109971745D01*
X108670471Y-110104899D01*
X108731758Y-110252858D01*
X108763000Y-110409925D01*
X108763000Y-110570075D01*
X108731758Y-110727142D01*
X108670471Y-110875101D01*
X108581501Y-111008255D01*
X108468255Y-111121501D01*
X108335101Y-111210471D01*
X108187142Y-111271758D01*
X108030075Y-111303000D01*
X107869925Y-111303000D01*
X107712858Y-111271758D01*
X107564899Y-111210471D01*
X107431745Y-111121501D01*
X107318499Y-111008255D01*
X107229529Y-110875101D01*
X107168242Y-110727142D01*
X107137000Y-110570075D01*
X107137000Y-110409925D01*
X107168242Y-110252858D01*
X107229529Y-110104899D01*
X107318499Y-109971745D01*
X107431745Y-109858499D01*
X107564899Y-109769529D01*
X107712858Y-109708242D01*
X107869925Y-109677000D01*
X108030075Y-109677000D01*
X108187142Y-109708242D01*
X108187142Y-109708242D01*
G37*
G36*
X183610425Y-109018760D02*
G01*
X183610428Y-109018761D01*
X183610429Y-109018761D01*
X183789693Y-109073140D01*
X183789696Y-109073142D01*
X183789697Y-109073142D01*
X183954903Y-109161446D01*
X184099712Y-109280288D01*
X184218554Y-109425097D01*
X184239764Y-109464779D01*
X184306860Y-109590307D01*
X184342635Y-109708242D01*
X184361240Y-109769575D01*
X184379601Y-109956000D01*
X184361240Y-110142425D01*
X184361239Y-110142428D01*
X184361239Y-110142429D01*
X184306860Y-110321693D01*
X184306858Y-110321696D01*
X184306858Y-110321697D01*
X184218554Y-110486903D01*
X184099712Y-110631712D01*
X183954903Y-110750554D01*
X183789697Y-110838858D01*
X183789693Y-110838860D01*
X183610429Y-110893239D01*
X183610428Y-110893239D01*
X183610425Y-110893240D01*
X183470718Y-110907000D01*
X181177282Y-110907000D01*
X181037575Y-110893240D01*
X181037572Y-110893239D01*
X181037571Y-110893239D01*
X180858307Y-110838860D01*
X180858303Y-110838858D01*
X180693097Y-110750554D01*
X180548288Y-110631712D01*
X180429446Y-110486903D01*
X180341142Y-110321697D01*
X180341142Y-110321696D01*
X180341140Y-110321693D01*
X180286761Y-110142429D01*
X180286761Y-110142428D01*
X180286760Y-110142425D01*
X180268399Y-109956000D01*
X180286760Y-109769575D01*
X180305365Y-109708242D01*
X180341140Y-109590307D01*
X180408236Y-109464779D01*
X180429446Y-109425097D01*
X180548288Y-109280288D01*
X180693097Y-109161446D01*
X180858303Y-109073142D01*
X180858304Y-109073142D01*
X180858307Y-109073140D01*
X181037571Y-109018761D01*
X181037572Y-109018761D01*
X181037575Y-109018760D01*
X181177282Y-109005000D01*
X183470718Y-109005000D01*
X183610425Y-109018760D01*
X183610425Y-109018760D01*
G37*
G36*
X119871443Y-107817519D02*
G01*
X119937627Y-107824037D01*
X120107466Y-107875557D01*
X120263991Y-107959222D01*
X120299729Y-107988552D01*
X120401186Y-108071814D01*
X120484448Y-108173271D01*
X120513778Y-108209009D01*
X120597443Y-108365534D01*
X120648963Y-108535373D01*
X120666359Y-108712000D01*
X120648963Y-108888627D01*
X120609487Y-109018761D01*
X120597442Y-109058468D01*
X120555610Y-109136729D01*
X120513778Y-109214991D01*
X120484448Y-109250729D01*
X120401186Y-109352186D01*
X120312342Y-109425097D01*
X120263991Y-109464778D01*
X120107466Y-109548443D01*
X119937627Y-109599963D01*
X119871442Y-109606482D01*
X119805260Y-109613000D01*
X119716740Y-109613000D01*
X119650558Y-109606482D01*
X119584373Y-109599963D01*
X119414534Y-109548443D01*
X119258009Y-109464778D01*
X119209658Y-109425097D01*
X119120814Y-109352186D01*
X119037552Y-109250729D01*
X119008222Y-109214991D01*
X118966390Y-109136729D01*
X118924558Y-109058468D01*
X118912513Y-109018761D01*
X118873037Y-108888627D01*
X118855641Y-108712000D01*
X118873037Y-108535373D01*
X118924557Y-108365534D01*
X119008222Y-108209009D01*
X119037552Y-108173271D01*
X119120814Y-108071814D01*
X119222271Y-107988552D01*
X119258009Y-107959222D01*
X119414534Y-107875557D01*
X119584373Y-107824037D01*
X119650557Y-107817519D01*
X119716740Y-107811000D01*
X119805260Y-107811000D01*
X119871443Y-107817519D01*
X119871443Y-107817519D01*
G37*
G36*
X103107142Y-107168242D02*
G01*
X103255101Y-107229529D01*
X103388255Y-107318499D01*
X103501501Y-107431745D01*
X103590471Y-107564899D01*
X103651758Y-107712858D01*
X103683000Y-107869925D01*
X103683000Y-108030075D01*
X103651758Y-108187142D01*
X103590471Y-108335101D01*
X103501501Y-108468255D01*
X103388255Y-108581501D01*
X103255101Y-108670471D01*
X103107142Y-108731758D01*
X102950075Y-108763000D01*
X102789925Y-108763000D01*
X102632858Y-108731758D01*
X102484899Y-108670471D01*
X102351745Y-108581501D01*
X102238499Y-108468255D01*
X102149529Y-108335101D01*
X102088242Y-108187142D01*
X102057000Y-108030075D01*
X102057000Y-107869925D01*
X102088242Y-107712858D01*
X102149529Y-107564899D01*
X102238499Y-107431745D01*
X102351745Y-107318499D01*
X102484899Y-107229529D01*
X102632858Y-107168242D01*
X102789925Y-107137000D01*
X102950075Y-107137000D01*
X103107142Y-107168242D01*
X103107142Y-107168242D01*
G37*
G36*
X105647142Y-107168242D02*
G01*
X105795101Y-107229529D01*
X105928255Y-107318499D01*
X106041501Y-107431745D01*
X106130471Y-107564899D01*
X106191758Y-107712858D01*
X106223000Y-107869925D01*
X106223000Y-108030075D01*
X106191758Y-108187142D01*
X106130471Y-108335101D01*
X106041501Y-108468255D01*
X105928255Y-108581501D01*
X105795101Y-108670471D01*
X105647142Y-108731758D01*
X105490075Y-108763000D01*
X105329925Y-108763000D01*
X105172858Y-108731758D01*
X105024899Y-108670471D01*
X104891745Y-108581501D01*
X104778499Y-108468255D01*
X104689529Y-108335101D01*
X104628242Y-108187142D01*
X104597000Y-108030075D01*
X104597000Y-107869925D01*
X104628242Y-107712858D01*
X104689529Y-107564899D01*
X104778499Y-107431745D01*
X104891745Y-107318499D01*
X105024899Y-107229529D01*
X105172858Y-107168242D01*
X105329925Y-107137000D01*
X105490075Y-107137000D01*
X105647142Y-107168242D01*
X105647142Y-107168242D01*
G37*
G36*
X108187142Y-107168242D02*
G01*
X108335101Y-107229529D01*
X108468255Y-107318499D01*
X108581501Y-107431745D01*
X108670471Y-107564899D01*
X108731758Y-107712858D01*
X108763000Y-107869925D01*
X108763000Y-108030075D01*
X108731758Y-108187142D01*
X108670471Y-108335101D01*
X108581501Y-108468255D01*
X108468255Y-108581501D01*
X108335101Y-108670471D01*
X108187142Y-108731758D01*
X108030075Y-108763000D01*
X107869925Y-108763000D01*
X107712858Y-108731758D01*
X107564899Y-108670471D01*
X107431745Y-108581501D01*
X107318499Y-108468255D01*
X107229529Y-108335101D01*
X107168242Y-108187142D01*
X107137000Y-108030075D01*
X107137000Y-107869925D01*
X107168242Y-107712858D01*
X107229529Y-107564899D01*
X107318499Y-107431745D01*
X107431745Y-107318499D01*
X107564899Y-107229529D01*
X107712858Y-107168242D01*
X107869925Y-107137000D01*
X108030075Y-107137000D01*
X108187142Y-107168242D01*
X108187142Y-107168242D01*
G37*
G36*
X110727142Y-107168242D02*
G01*
X110875101Y-107229529D01*
X111008255Y-107318499D01*
X111121501Y-107431745D01*
X111210471Y-107564899D01*
X111271758Y-107712858D01*
X111303000Y-107869925D01*
X111303000Y-108030075D01*
X111271758Y-108187142D01*
X111210471Y-108335101D01*
X111121501Y-108468255D01*
X111008255Y-108581501D01*
X110875101Y-108670471D01*
X110727142Y-108731758D01*
X110570075Y-108763000D01*
X110409925Y-108763000D01*
X110252858Y-108731758D01*
X110104899Y-108670471D01*
X109971745Y-108581501D01*
X109858499Y-108468255D01*
X109769529Y-108335101D01*
X109708242Y-108187142D01*
X109677000Y-108030075D01*
X109677000Y-107869925D01*
X109708242Y-107712858D01*
X109769529Y-107564899D01*
X109858499Y-107431745D01*
X109971745Y-107318499D01*
X110104899Y-107229529D01*
X110252858Y-107168242D01*
X110409925Y-107137000D01*
X110570075Y-107137000D01*
X110727142Y-107168242D01*
X110727142Y-107168242D01*
G37*
G36*
X180275000Y-107407000D02*
G01*
X178373000Y-107407000D01*
X178373000Y-102905000D01*
X180275000Y-102905000D01*
X180275000Y-107407000D01*
X180275000Y-107407000D01*
G37*
G36*
X185310425Y-103118760D02*
G01*
X185310428Y-103118761D01*
X185310429Y-103118761D01*
X185489693Y-103173140D01*
X185489696Y-103173142D01*
X185489697Y-103173142D01*
X185654903Y-103261446D01*
X185799712Y-103380288D01*
X185918554Y-103525097D01*
X185986255Y-103651758D01*
X186006860Y-103690307D01*
X186061239Y-103869571D01*
X186061240Y-103869575D01*
X186075000Y-104009282D01*
X186075000Y-106302718D01*
X186061240Y-106442425D01*
X186061239Y-106442428D01*
X186061239Y-106442429D01*
X186006860Y-106621693D01*
X186006858Y-106621696D01*
X186006858Y-106621697D01*
X185918554Y-106786903D01*
X185799712Y-106931712D01*
X185654903Y-107050554D01*
X185493172Y-107137000D01*
X185489692Y-107138860D01*
X185310428Y-107193239D01*
X185310427Y-107193239D01*
X185310424Y-107193240D01*
X185124000Y-107211601D01*
X184937575Y-107193240D01*
X184937572Y-107193239D01*
X184937571Y-107193239D01*
X184758307Y-107138860D01*
X184754827Y-107137000D01*
X184593097Y-107050554D01*
X184448288Y-106931712D01*
X184329446Y-106786903D01*
X184241142Y-106621696D01*
X184241141Y-106621693D01*
X184241140Y-106621692D01*
X184186761Y-106442428D01*
X184186761Y-106442427D01*
X184186760Y-106442424D01*
X184173000Y-106302717D01*
X184173001Y-104009282D01*
X184186761Y-103869575D01*
X184186762Y-103869571D01*
X184241141Y-103690307D01*
X184261746Y-103651758D01*
X184329447Y-103525097D01*
X184448289Y-103380288D01*
X184593098Y-103261446D01*
X184758304Y-103173142D01*
X184758305Y-103173142D01*
X184758308Y-103173140D01*
X184937572Y-103118761D01*
X184937573Y-103118761D01*
X184937576Y-103118760D01*
X185124000Y-103100399D01*
X185310425Y-103118760D01*
X185310425Y-103118760D01*
G37*
G36*
X119871443Y-105277519D02*
G01*
X119937627Y-105284037D01*
X120107466Y-105335557D01*
X120263991Y-105419222D01*
X120299729Y-105448552D01*
X120401186Y-105531814D01*
X120484448Y-105633271D01*
X120513778Y-105669009D01*
X120597443Y-105825534D01*
X120648963Y-105995373D01*
X120666359Y-106172000D01*
X120648963Y-106348627D01*
X120597443Y-106518466D01*
X120513778Y-106674991D01*
X120484448Y-106710729D01*
X120401186Y-106812186D01*
X120299729Y-106895448D01*
X120263991Y-106924778D01*
X120107466Y-107008443D01*
X119937627Y-107059963D01*
X119871443Y-107066481D01*
X119805260Y-107073000D01*
X119716740Y-107073000D01*
X119650557Y-107066481D01*
X119584373Y-107059963D01*
X119414534Y-107008443D01*
X119258009Y-106924778D01*
X119222271Y-106895448D01*
X119120814Y-106812186D01*
X119037552Y-106710729D01*
X119008222Y-106674991D01*
X118924557Y-106518466D01*
X118873037Y-106348627D01*
X118855641Y-106172000D01*
X118873037Y-105995373D01*
X118924557Y-105825534D01*
X119008222Y-105669009D01*
X119037552Y-105633271D01*
X119120814Y-105531814D01*
X119222271Y-105448552D01*
X119258009Y-105419222D01*
X119414534Y-105335557D01*
X119584373Y-105284037D01*
X119650557Y-105277519D01*
X119716740Y-105271000D01*
X119805260Y-105271000D01*
X119871443Y-105277519D01*
X119871443Y-105277519D01*
G37*
G36*
X103107142Y-104628242D02*
G01*
X103255101Y-104689529D01*
X103388255Y-104778499D01*
X103501501Y-104891745D01*
X103590471Y-105024899D01*
X103651758Y-105172858D01*
X103683000Y-105329925D01*
X103683000Y-105490075D01*
X103651758Y-105647142D01*
X103590471Y-105795101D01*
X103501501Y-105928255D01*
X103388255Y-106041501D01*
X103255101Y-106130471D01*
X103107142Y-106191758D01*
X102950075Y-106223000D01*
X102789925Y-106223000D01*
X102632858Y-106191758D01*
X102484899Y-106130471D01*
X102351745Y-106041501D01*
X102238499Y-105928255D01*
X102149529Y-105795101D01*
X102088242Y-105647142D01*
X102057000Y-105490075D01*
X102057000Y-105329925D01*
X102088242Y-105172858D01*
X102149529Y-105024899D01*
X102238499Y-104891745D01*
X102351745Y-104778499D01*
X102484899Y-104689529D01*
X102632858Y-104628242D01*
X102789925Y-104597000D01*
X102950075Y-104597000D01*
X103107142Y-104628242D01*
X103107142Y-104628242D01*
G37*
G36*
X108187142Y-104628242D02*
G01*
X108335101Y-104689529D01*
X108468255Y-104778499D01*
X108581501Y-104891745D01*
X108670471Y-105024899D01*
X108731758Y-105172858D01*
X108763000Y-105329925D01*
X108763000Y-105490075D01*
X108731758Y-105647142D01*
X108670471Y-105795101D01*
X108581501Y-105928255D01*
X108468255Y-106041501D01*
X108335101Y-106130471D01*
X108187142Y-106191758D01*
X108030075Y-106223000D01*
X107869925Y-106223000D01*
X107712858Y-106191758D01*
X107564899Y-106130471D01*
X107431745Y-106041501D01*
X107318499Y-105928255D01*
X107229529Y-105795101D01*
X107168242Y-105647142D01*
X107137000Y-105490075D01*
X107137000Y-105329925D01*
X107168242Y-105172858D01*
X107229529Y-105024899D01*
X107318499Y-104891745D01*
X107431745Y-104778499D01*
X107564899Y-104689529D01*
X107712858Y-104628242D01*
X107869925Y-104597000D01*
X108030075Y-104597000D01*
X108187142Y-104628242D01*
X108187142Y-104628242D01*
G37*
G36*
X110727142Y-104628242D02*
G01*
X110875101Y-104689529D01*
X111008255Y-104778499D01*
X111121501Y-104891745D01*
X111210471Y-105024899D01*
X111271758Y-105172858D01*
X111303000Y-105329925D01*
X111303000Y-105490075D01*
X111271758Y-105647142D01*
X111210471Y-105795101D01*
X111121501Y-105928255D01*
X111008255Y-106041501D01*
X110875101Y-106130471D01*
X110727142Y-106191758D01*
X110570075Y-106223000D01*
X110409925Y-106223000D01*
X110252858Y-106191758D01*
X110104899Y-106130471D01*
X109971745Y-106041501D01*
X109858499Y-105928255D01*
X109769529Y-105795101D01*
X109708242Y-105647142D01*
X109677000Y-105490075D01*
X109677000Y-105329925D01*
X109708242Y-105172858D01*
X109769529Y-105024899D01*
X109858499Y-104891745D01*
X109971745Y-104778499D01*
X110104899Y-104689529D01*
X110252858Y-104628242D01*
X110409925Y-104597000D01*
X110570075Y-104597000D01*
X110727142Y-104628242D01*
X110727142Y-104628242D01*
G37*
G36*
X105647142Y-104628242D02*
G01*
X105795101Y-104689529D01*
X105928255Y-104778499D01*
X106041501Y-104891745D01*
X106130471Y-105024899D01*
X106191758Y-105172858D01*
X106223000Y-105329925D01*
X106223000Y-105490075D01*
X106191758Y-105647142D01*
X106130471Y-105795101D01*
X106041501Y-105928255D01*
X105928255Y-106041501D01*
X105795101Y-106130471D01*
X105647142Y-106191758D01*
X105490075Y-106223000D01*
X105329925Y-106223000D01*
X105172858Y-106191758D01*
X105024899Y-106130471D01*
X104891745Y-106041501D01*
X104778499Y-105928255D01*
X104689529Y-105795101D01*
X104628242Y-105647142D01*
X104597000Y-105490075D01*
X104597000Y-105329925D01*
X104628242Y-105172858D01*
X104689529Y-105024899D01*
X104778499Y-104891745D01*
X104891745Y-104778499D01*
X105024899Y-104689529D01*
X105172858Y-104628242D01*
X105329925Y-104597000D01*
X105490075Y-104597000D01*
X105647142Y-104628242D01*
X105647142Y-104628242D01*
G37*
G36*
X120662000Y-104533000D02*
G01*
X118860000Y-104533000D01*
X118860000Y-102731000D01*
X120662000Y-102731000D01*
X120662000Y-104533000D01*
X120662000Y-104533000D01*
G37*
G36*
X105647142Y-102088242D02*
G01*
X105795101Y-102149529D01*
X105928255Y-102238499D01*
X106041501Y-102351745D01*
X106130471Y-102484899D01*
X106191758Y-102632858D01*
X106223000Y-102789925D01*
X106223000Y-102950075D01*
X106191758Y-103107142D01*
X106130471Y-103255101D01*
X106041501Y-103388255D01*
X105928255Y-103501501D01*
X105795101Y-103590471D01*
X105647142Y-103651758D01*
X105490075Y-103683000D01*
X105329925Y-103683000D01*
X105172858Y-103651758D01*
X105024899Y-103590471D01*
X104891745Y-103501501D01*
X104778499Y-103388255D01*
X104689529Y-103255101D01*
X104628242Y-103107142D01*
X104597000Y-102950075D01*
X104597000Y-102789925D01*
X104628242Y-102632858D01*
X104689529Y-102484899D01*
X104778499Y-102351745D01*
X104891745Y-102238499D01*
X105024899Y-102149529D01*
X105172858Y-102088242D01*
X105329925Y-102057000D01*
X105490075Y-102057000D01*
X105647142Y-102088242D01*
X105647142Y-102088242D01*
G37*
G36*
X103107142Y-102088242D02*
G01*
X103255101Y-102149529D01*
X103388255Y-102238499D01*
X103501501Y-102351745D01*
X103590471Y-102484899D01*
X103651758Y-102632858D01*
X103683000Y-102789925D01*
X103683000Y-102950075D01*
X103651758Y-103107142D01*
X103590471Y-103255101D01*
X103501501Y-103388255D01*
X103388255Y-103501501D01*
X103255101Y-103590471D01*
X103107142Y-103651758D01*
X102950075Y-103683000D01*
X102789925Y-103683000D01*
X102632858Y-103651758D01*
X102484899Y-103590471D01*
X102351745Y-103501501D01*
X102238499Y-103388255D01*
X102149529Y-103255101D01*
X102088242Y-103107142D01*
X102057000Y-102950075D01*
X102057000Y-102789925D01*
X102088242Y-102632858D01*
X102149529Y-102484899D01*
X102238499Y-102351745D01*
X102351745Y-102238499D01*
X102484899Y-102149529D01*
X102632858Y-102088242D01*
X102789925Y-102057000D01*
X102950075Y-102057000D01*
X103107142Y-102088242D01*
X103107142Y-102088242D01*
G37*
G36*
X108187142Y-102088242D02*
G01*
X108335101Y-102149529D01*
X108468255Y-102238499D01*
X108581501Y-102351745D01*
X108670471Y-102484899D01*
X108731758Y-102632858D01*
X108763000Y-102789925D01*
X108763000Y-102950075D01*
X108731758Y-103107142D01*
X108670471Y-103255101D01*
X108581501Y-103388255D01*
X108468255Y-103501501D01*
X108335101Y-103590471D01*
X108187142Y-103651758D01*
X108030075Y-103683000D01*
X107869925Y-103683000D01*
X107712858Y-103651758D01*
X107564899Y-103590471D01*
X107431745Y-103501501D01*
X107318499Y-103388255D01*
X107229529Y-103255101D01*
X107168242Y-103107142D01*
X107137000Y-102950075D01*
X107137000Y-102789925D01*
X107168242Y-102632858D01*
X107229529Y-102484899D01*
X107318499Y-102351745D01*
X107431745Y-102238499D01*
X107564899Y-102149529D01*
X107712858Y-102088242D01*
X107869925Y-102057000D01*
X108030075Y-102057000D01*
X108187142Y-102088242D01*
X108187142Y-102088242D01*
G37*
G36*
X110727142Y-102088242D02*
G01*
X110875101Y-102149529D01*
X111008255Y-102238499D01*
X111121501Y-102351745D01*
X111210471Y-102484899D01*
X111271758Y-102632858D01*
X111303000Y-102789925D01*
X111303000Y-102950075D01*
X111271758Y-103107142D01*
X111210471Y-103255101D01*
X111121501Y-103388255D01*
X111008255Y-103501501D01*
X110875101Y-103590471D01*
X110727142Y-103651758D01*
X110570075Y-103683000D01*
X110409925Y-103683000D01*
X110252858Y-103651758D01*
X110104899Y-103590471D01*
X109971745Y-103501501D01*
X109858499Y-103388255D01*
X109769529Y-103255101D01*
X109708242Y-103107142D01*
X109677000Y-102950075D01*
X109677000Y-102789925D01*
X109708242Y-102632858D01*
X109769529Y-102484899D01*
X109858499Y-102351745D01*
X109971745Y-102238499D01*
X110104899Y-102149529D01*
X110252858Y-102088242D01*
X110409925Y-102057000D01*
X110570075Y-102057000D01*
X110727142Y-102088242D01*
X110727142Y-102088242D01*
G37*
G36*
X185326721Y-100222174D02*
G01*
X185426995Y-100263709D01*
X185426996Y-100263710D01*
X185517242Y-100324010D01*
X185593990Y-100400758D01*
X185600215Y-100410075D01*
X185654291Y-100491005D01*
X185695826Y-100591279D01*
X185717000Y-100697730D01*
X185717000Y-100806270D01*
X185695826Y-100912721D01*
X185654291Y-101012995D01*
X185654290Y-101012996D01*
X185593990Y-101103242D01*
X185517242Y-101179990D01*
X185471812Y-101210345D01*
X185426995Y-101240291D01*
X185326721Y-101281826D01*
X185220270Y-101303000D01*
X185111730Y-101303000D01*
X185005279Y-101281826D01*
X184905005Y-101240291D01*
X184860188Y-101210345D01*
X184814758Y-101179990D01*
X184738010Y-101103242D01*
X184677710Y-101012996D01*
X184677709Y-101012995D01*
X184636174Y-100912721D01*
X184615000Y-100806270D01*
X184615000Y-100697730D01*
X184636174Y-100591279D01*
X184677709Y-100491005D01*
X184731785Y-100410075D01*
X184738010Y-100400758D01*
X184814758Y-100324010D01*
X184905004Y-100263710D01*
X184905005Y-100263709D01*
X185005279Y-100222174D01*
X185111730Y-100201000D01*
X185220270Y-100201000D01*
X185326721Y-100222174D01*
X185326721Y-100222174D01*
G37*
G36*
X105647142Y-99548242D02*
G01*
X105795101Y-99609529D01*
X105928255Y-99698499D01*
X106041501Y-99811745D01*
X106130471Y-99944899D01*
X106191758Y-100092858D01*
X106223000Y-100249925D01*
X106223000Y-100410075D01*
X106191758Y-100567142D01*
X106130471Y-100715101D01*
X106041501Y-100848255D01*
X105928255Y-100961501D01*
X105795101Y-101050471D01*
X105647142Y-101111758D01*
X105490075Y-101143000D01*
X105329925Y-101143000D01*
X105172858Y-101111758D01*
X105024899Y-101050471D01*
X104891745Y-100961501D01*
X104778499Y-100848255D01*
X104689529Y-100715101D01*
X104628242Y-100567142D01*
X104597000Y-100410075D01*
X104597000Y-100249925D01*
X104628242Y-100092858D01*
X104689529Y-99944899D01*
X104778499Y-99811745D01*
X104891745Y-99698499D01*
X105024899Y-99609529D01*
X105172858Y-99548242D01*
X105329925Y-99517000D01*
X105490075Y-99517000D01*
X105647142Y-99548242D01*
X105647142Y-99548242D01*
G37*
G36*
X108187142Y-99548242D02*
G01*
X108335101Y-99609529D01*
X108468255Y-99698499D01*
X108581501Y-99811745D01*
X108670471Y-99944899D01*
X108731758Y-100092858D01*
X108763000Y-100249925D01*
X108763000Y-100410075D01*
X108731758Y-100567142D01*
X108670471Y-100715101D01*
X108581501Y-100848255D01*
X108468255Y-100961501D01*
X108335101Y-101050471D01*
X108187142Y-101111758D01*
X108030075Y-101143000D01*
X107869925Y-101143000D01*
X107712858Y-101111758D01*
X107564899Y-101050471D01*
X107431745Y-100961501D01*
X107318499Y-100848255D01*
X107229529Y-100715101D01*
X107168242Y-100567142D01*
X107137000Y-100410075D01*
X107137000Y-100249925D01*
X107168242Y-100092858D01*
X107229529Y-99944899D01*
X107318499Y-99811745D01*
X107431745Y-99698499D01*
X107564899Y-99609529D01*
X107712858Y-99548242D01*
X107869925Y-99517000D01*
X108030075Y-99517000D01*
X108187142Y-99548242D01*
X108187142Y-99548242D01*
G37*
G36*
X110727142Y-99548242D02*
G01*
X110875101Y-99609529D01*
X111008255Y-99698499D01*
X111121501Y-99811745D01*
X111210471Y-99944899D01*
X111271758Y-100092858D01*
X111303000Y-100249925D01*
X111303000Y-100410075D01*
X111271758Y-100567142D01*
X111210471Y-100715101D01*
X111121501Y-100848255D01*
X111008255Y-100961501D01*
X110875101Y-101050471D01*
X110727142Y-101111758D01*
X110570075Y-101143000D01*
X110409925Y-101143000D01*
X110252858Y-101111758D01*
X110104899Y-101050471D01*
X109971745Y-100961501D01*
X109858499Y-100848255D01*
X109769529Y-100715101D01*
X109708242Y-100567142D01*
X109677000Y-100410075D01*
X109677000Y-100249925D01*
X109708242Y-100092858D01*
X109769529Y-99944899D01*
X109858499Y-99811745D01*
X109971745Y-99698499D01*
X110104899Y-99609529D01*
X110252858Y-99548242D01*
X110409925Y-99517000D01*
X110570075Y-99517000D01*
X110727142Y-99548242D01*
X110727142Y-99548242D01*
G37*
G36*
X103107142Y-99548242D02*
G01*
X103255101Y-99609529D01*
X103388255Y-99698499D01*
X103501501Y-99811745D01*
X103590471Y-99944899D01*
X103651758Y-100092858D01*
X103683000Y-100249925D01*
X103683000Y-100410075D01*
X103651758Y-100567142D01*
X103590471Y-100715101D01*
X103501501Y-100848255D01*
X103388255Y-100961501D01*
X103255101Y-101050471D01*
X103107142Y-101111758D01*
X102950075Y-101143000D01*
X102789925Y-101143000D01*
X102632858Y-101111758D01*
X102484899Y-101050471D01*
X102351745Y-100961501D01*
X102238499Y-100848255D01*
X102149529Y-100715101D01*
X102088242Y-100567142D01*
X102057000Y-100410075D01*
X102057000Y-100249925D01*
X102088242Y-100092858D01*
X102149529Y-99944899D01*
X102238499Y-99811745D01*
X102351745Y-99698499D01*
X102484899Y-99609529D01*
X102632858Y-99548242D01*
X102789925Y-99517000D01*
X102950075Y-99517000D01*
X103107142Y-99548242D01*
X103107142Y-99548242D01*
G37*
G36*
X103107142Y-97008242D02*
G01*
X103255101Y-97069529D01*
X103388255Y-97158499D01*
X103501501Y-97271745D01*
X103590471Y-97404899D01*
X103651758Y-97552858D01*
X103683000Y-97709925D01*
X103683000Y-97870075D01*
X103651758Y-98027142D01*
X103590471Y-98175101D01*
X103501501Y-98308255D01*
X103388255Y-98421501D01*
X103255101Y-98510471D01*
X103107142Y-98571758D01*
X102950075Y-98603000D01*
X102789925Y-98603000D01*
X102632858Y-98571758D01*
X102484899Y-98510471D01*
X102351745Y-98421501D01*
X102238499Y-98308255D01*
X102149529Y-98175101D01*
X102088242Y-98027142D01*
X102057000Y-97870075D01*
X102057000Y-97709925D01*
X102088242Y-97552858D01*
X102149529Y-97404899D01*
X102238499Y-97271745D01*
X102351745Y-97158499D01*
X102484899Y-97069529D01*
X102632858Y-97008242D01*
X102789925Y-96977000D01*
X102950075Y-96977000D01*
X103107142Y-97008242D01*
X103107142Y-97008242D01*
G37*
G36*
X105647142Y-97008242D02*
G01*
X105795101Y-97069529D01*
X105928255Y-97158499D01*
X106041501Y-97271745D01*
X106130471Y-97404899D01*
X106191758Y-97552858D01*
X106223000Y-97709925D01*
X106223000Y-97870075D01*
X106191758Y-98027142D01*
X106130471Y-98175101D01*
X106041501Y-98308255D01*
X105928255Y-98421501D01*
X105795101Y-98510471D01*
X105647142Y-98571758D01*
X105490075Y-98603000D01*
X105329925Y-98603000D01*
X105172858Y-98571758D01*
X105024899Y-98510471D01*
X104891745Y-98421501D01*
X104778499Y-98308255D01*
X104689529Y-98175101D01*
X104628242Y-98027142D01*
X104597000Y-97870075D01*
X104597000Y-97709925D01*
X104628242Y-97552858D01*
X104689529Y-97404899D01*
X104778499Y-97271745D01*
X104891745Y-97158499D01*
X105024899Y-97069529D01*
X105172858Y-97008242D01*
X105329925Y-96977000D01*
X105490075Y-96977000D01*
X105647142Y-97008242D01*
X105647142Y-97008242D01*
G37*
G36*
X108187142Y-97008242D02*
G01*
X108335101Y-97069529D01*
X108468255Y-97158499D01*
X108581501Y-97271745D01*
X108670471Y-97404899D01*
X108731758Y-97552858D01*
X108763000Y-97709925D01*
X108763000Y-97870075D01*
X108731758Y-98027142D01*
X108670471Y-98175101D01*
X108581501Y-98308255D01*
X108468255Y-98421501D01*
X108335101Y-98510471D01*
X108187142Y-98571758D01*
X108030075Y-98603000D01*
X107869925Y-98603000D01*
X107712858Y-98571758D01*
X107564899Y-98510471D01*
X107431745Y-98421501D01*
X107318499Y-98308255D01*
X107229529Y-98175101D01*
X107168242Y-98027142D01*
X107137000Y-97870075D01*
X107137000Y-97709925D01*
X107168242Y-97552858D01*
X107229529Y-97404899D01*
X107318499Y-97271745D01*
X107431745Y-97158499D01*
X107564899Y-97069529D01*
X107712858Y-97008242D01*
X107869925Y-96977000D01*
X108030075Y-96977000D01*
X108187142Y-97008242D01*
X108187142Y-97008242D01*
G37*
G36*
X110727142Y-97008242D02*
G01*
X110875101Y-97069529D01*
X111008255Y-97158499D01*
X111121501Y-97271745D01*
X111210471Y-97404899D01*
X111271758Y-97552858D01*
X111303000Y-97709925D01*
X111303000Y-97870075D01*
X111271758Y-98027142D01*
X111210471Y-98175101D01*
X111121501Y-98308255D01*
X111008255Y-98421501D01*
X110875101Y-98510471D01*
X110727142Y-98571758D01*
X110570075Y-98603000D01*
X110409925Y-98603000D01*
X110252858Y-98571758D01*
X110104899Y-98510471D01*
X109971745Y-98421501D01*
X109858499Y-98308255D01*
X109769529Y-98175101D01*
X109708242Y-98027142D01*
X109677000Y-97870075D01*
X109677000Y-97709925D01*
X109708242Y-97552858D01*
X109769529Y-97404899D01*
X109858499Y-97271745D01*
X109971745Y-97158499D01*
X110104899Y-97069529D01*
X110252858Y-97008242D01*
X110409925Y-96977000D01*
X110570075Y-96977000D01*
X110727142Y-97008242D01*
X110727142Y-97008242D01*
G37*
G36*
X185326721Y-95822174D02*
G01*
X185426995Y-95863709D01*
X185471812Y-95893655D01*
X185517242Y-95924010D01*
X185593990Y-96000758D01*
X185593991Y-96000760D01*
X185654291Y-96091005D01*
X185695826Y-96191279D01*
X185717000Y-96297730D01*
X185717000Y-96406270D01*
X185695826Y-96512721D01*
X185654291Y-96612995D01*
X185654290Y-96612996D01*
X185593990Y-96703242D01*
X185517242Y-96779990D01*
X185471812Y-96810345D01*
X185426995Y-96840291D01*
X185326721Y-96881826D01*
X185220270Y-96903000D01*
X185111730Y-96903000D01*
X185005279Y-96881826D01*
X184905005Y-96840291D01*
X184860188Y-96810345D01*
X184814758Y-96779990D01*
X184738010Y-96703242D01*
X184677710Y-96612996D01*
X184677709Y-96612995D01*
X184636174Y-96512721D01*
X184615000Y-96406270D01*
X184615000Y-96297730D01*
X184636174Y-96191279D01*
X184677709Y-96091005D01*
X184738009Y-96000760D01*
X184738010Y-96000758D01*
X184814758Y-95924010D01*
X184860188Y-95893655D01*
X184905005Y-95863709D01*
X185005279Y-95822174D01*
X185111730Y-95801000D01*
X185220270Y-95801000D01*
X185326721Y-95822174D01*
X185326721Y-95822174D01*
G37*
G36*
X103107142Y-94468242D02*
G01*
X103255101Y-94529529D01*
X103388255Y-94618499D01*
X103501501Y-94731745D01*
X103590471Y-94864899D01*
X103651758Y-95012858D01*
X103683000Y-95169925D01*
X103683000Y-95330075D01*
X103651758Y-95487142D01*
X103590471Y-95635101D01*
X103501501Y-95768255D01*
X103388255Y-95881501D01*
X103255101Y-95970471D01*
X103107142Y-96031758D01*
X102950075Y-96063000D01*
X102789925Y-96063000D01*
X102632858Y-96031758D01*
X102484899Y-95970471D01*
X102351745Y-95881501D01*
X102238499Y-95768255D01*
X102149529Y-95635101D01*
X102088242Y-95487142D01*
X102057000Y-95330075D01*
X102057000Y-95169925D01*
X102088242Y-95012858D01*
X102149529Y-94864899D01*
X102238499Y-94731745D01*
X102351745Y-94618499D01*
X102484899Y-94529529D01*
X102632858Y-94468242D01*
X102789925Y-94437000D01*
X102950075Y-94437000D01*
X103107142Y-94468242D01*
X103107142Y-94468242D01*
G37*
G36*
X110727142Y-94468242D02*
G01*
X110875101Y-94529529D01*
X111008255Y-94618499D01*
X111121501Y-94731745D01*
X111210471Y-94864899D01*
X111271758Y-95012858D01*
X111303000Y-95169925D01*
X111303000Y-95330075D01*
X111271758Y-95487142D01*
X111210471Y-95635101D01*
X111121501Y-95768255D01*
X111008255Y-95881501D01*
X110875101Y-95970471D01*
X110727142Y-96031758D01*
X110570075Y-96063000D01*
X110409925Y-96063000D01*
X110252858Y-96031758D01*
X110104899Y-95970471D01*
X109971745Y-95881501D01*
X109858499Y-95768255D01*
X109769529Y-95635101D01*
X109708242Y-95487142D01*
X109677000Y-95330075D01*
X109677000Y-95169925D01*
X109708242Y-95012858D01*
X109769529Y-94864899D01*
X109858499Y-94731745D01*
X109971745Y-94618499D01*
X110104899Y-94529529D01*
X110252858Y-94468242D01*
X110409925Y-94437000D01*
X110570075Y-94437000D01*
X110727142Y-94468242D01*
X110727142Y-94468242D01*
G37*
G36*
X108187142Y-94468242D02*
G01*
X108335101Y-94529529D01*
X108468255Y-94618499D01*
X108581501Y-94731745D01*
X108670471Y-94864899D01*
X108731758Y-95012858D01*
X108763000Y-95169925D01*
X108763000Y-95330075D01*
X108731758Y-95487142D01*
X108670471Y-95635101D01*
X108581501Y-95768255D01*
X108468255Y-95881501D01*
X108335101Y-95970471D01*
X108187142Y-96031758D01*
X108030075Y-96063000D01*
X107869925Y-96063000D01*
X107712858Y-96031758D01*
X107564899Y-95970471D01*
X107431745Y-95881501D01*
X107318499Y-95768255D01*
X107229529Y-95635101D01*
X107168242Y-95487142D01*
X107137000Y-95330075D01*
X107137000Y-95169925D01*
X107168242Y-95012858D01*
X107229529Y-94864899D01*
X107318499Y-94731745D01*
X107431745Y-94618499D01*
X107564899Y-94529529D01*
X107712858Y-94468242D01*
X107869925Y-94437000D01*
X108030075Y-94437000D01*
X108187142Y-94468242D01*
X108187142Y-94468242D01*
G37*
G36*
X105647142Y-94468242D02*
G01*
X105795101Y-94529529D01*
X105928255Y-94618499D01*
X106041501Y-94731745D01*
X106130471Y-94864899D01*
X106191758Y-95012858D01*
X106223000Y-95169925D01*
X106223000Y-95330075D01*
X106191758Y-95487142D01*
X106130471Y-95635101D01*
X106041501Y-95768255D01*
X105928255Y-95881501D01*
X105795101Y-95970471D01*
X105647142Y-96031758D01*
X105490075Y-96063000D01*
X105329925Y-96063000D01*
X105172858Y-96031758D01*
X105024899Y-95970471D01*
X104891745Y-95881501D01*
X104778499Y-95768255D01*
X104689529Y-95635101D01*
X104628242Y-95487142D01*
X104597000Y-95330075D01*
X104597000Y-95169925D01*
X104628242Y-95012858D01*
X104689529Y-94864899D01*
X104778499Y-94731745D01*
X104891745Y-94618499D01*
X105024899Y-94529529D01*
X105172858Y-94468242D01*
X105329925Y-94437000D01*
X105490075Y-94437000D01*
X105647142Y-94468242D01*
X105647142Y-94468242D01*
G37*
G36*
X103107142Y-91928242D02*
G01*
X103255101Y-91989529D01*
X103388255Y-92078499D01*
X103501501Y-92191745D01*
X103590471Y-92324899D01*
X103651758Y-92472858D01*
X103683000Y-92629925D01*
X103683000Y-92790075D01*
X103651758Y-92947142D01*
X103590471Y-93095101D01*
X103501501Y-93228255D01*
X103388255Y-93341501D01*
X103255101Y-93430471D01*
X103107142Y-93491758D01*
X102950075Y-93523000D01*
X102789925Y-93523000D01*
X102632858Y-93491758D01*
X102484899Y-93430471D01*
X102351745Y-93341501D01*
X102238499Y-93228255D01*
X102149529Y-93095101D01*
X102088242Y-92947142D01*
X102057000Y-92790075D01*
X102057000Y-92629925D01*
X102088242Y-92472858D01*
X102149529Y-92324899D01*
X102238499Y-92191745D01*
X102351745Y-92078499D01*
X102484899Y-91989529D01*
X102632858Y-91928242D01*
X102789925Y-91897000D01*
X102950075Y-91897000D01*
X103107142Y-91928242D01*
X103107142Y-91928242D01*
G37*
G36*
X105647142Y-91928242D02*
G01*
X105795101Y-91989529D01*
X105928255Y-92078499D01*
X106041501Y-92191745D01*
X106130471Y-92324899D01*
X106191758Y-92472858D01*
X106223000Y-92629925D01*
X106223000Y-92790075D01*
X106191758Y-92947142D01*
X106130471Y-93095101D01*
X106041501Y-93228255D01*
X105928255Y-93341501D01*
X105795101Y-93430471D01*
X105647142Y-93491758D01*
X105490075Y-93523000D01*
X105329925Y-93523000D01*
X105172858Y-93491758D01*
X105024899Y-93430471D01*
X104891745Y-93341501D01*
X104778499Y-93228255D01*
X104689529Y-93095101D01*
X104628242Y-92947142D01*
X104597000Y-92790075D01*
X104597000Y-92629925D01*
X104628242Y-92472858D01*
X104689529Y-92324899D01*
X104778499Y-92191745D01*
X104891745Y-92078499D01*
X105024899Y-91989529D01*
X105172858Y-91928242D01*
X105329925Y-91897000D01*
X105490075Y-91897000D01*
X105647142Y-91928242D01*
X105647142Y-91928242D01*
G37*
G36*
X108187142Y-91928242D02*
G01*
X108335101Y-91989529D01*
X108468255Y-92078499D01*
X108581501Y-92191745D01*
X108670471Y-92324899D01*
X108731758Y-92472858D01*
X108763000Y-92629925D01*
X108763000Y-92790075D01*
X108731758Y-92947142D01*
X108670471Y-93095101D01*
X108581501Y-93228255D01*
X108468255Y-93341501D01*
X108335101Y-93430471D01*
X108187142Y-93491758D01*
X108030075Y-93523000D01*
X107869925Y-93523000D01*
X107712858Y-93491758D01*
X107564899Y-93430471D01*
X107431745Y-93341501D01*
X107318499Y-93228255D01*
X107229529Y-93095101D01*
X107168242Y-92947142D01*
X107137000Y-92790075D01*
X107137000Y-92629925D01*
X107168242Y-92472858D01*
X107229529Y-92324899D01*
X107318499Y-92191745D01*
X107431745Y-92078499D01*
X107564899Y-91989529D01*
X107712858Y-91928242D01*
X107869925Y-91897000D01*
X108030075Y-91897000D01*
X108187142Y-91928242D01*
X108187142Y-91928242D01*
G37*
G36*
X110727142Y-91928242D02*
G01*
X110875101Y-91989529D01*
X111008255Y-92078499D01*
X111121501Y-92191745D01*
X111210471Y-92324899D01*
X111271758Y-92472858D01*
X111303000Y-92629925D01*
X111303000Y-92790075D01*
X111271758Y-92947142D01*
X111210471Y-93095101D01*
X111121501Y-93228255D01*
X111008255Y-93341501D01*
X110875101Y-93430471D01*
X110727142Y-93491758D01*
X110570075Y-93523000D01*
X110409925Y-93523000D01*
X110252858Y-93491758D01*
X110104899Y-93430471D01*
X109971745Y-93341501D01*
X109858499Y-93228255D01*
X109769529Y-93095101D01*
X109708242Y-92947142D01*
X109677000Y-92790075D01*
X109677000Y-92629925D01*
X109708242Y-92472858D01*
X109769529Y-92324899D01*
X109858499Y-92191745D01*
X109971745Y-92078499D01*
X110104899Y-91989529D01*
X110252858Y-91928242D01*
X110409925Y-91897000D01*
X110570075Y-91897000D01*
X110727142Y-91928242D01*
X110727142Y-91928242D01*
G37*
G36*
X103107142Y-89388242D02*
G01*
X103255101Y-89449529D01*
X103388255Y-89538499D01*
X103501501Y-89651745D01*
X103590471Y-89784899D01*
X103651758Y-89932858D01*
X103683000Y-90089925D01*
X103683000Y-90250075D01*
X103651758Y-90407142D01*
X103590471Y-90555101D01*
X103501501Y-90688255D01*
X103388255Y-90801501D01*
X103255101Y-90890471D01*
X103107142Y-90951758D01*
X102950075Y-90983000D01*
X102789925Y-90983000D01*
X102632858Y-90951758D01*
X102484899Y-90890471D01*
X102351745Y-90801501D01*
X102238499Y-90688255D01*
X102149529Y-90555101D01*
X102088242Y-90407142D01*
X102057000Y-90250075D01*
X102057000Y-90089925D01*
X102088242Y-89932858D01*
X102149529Y-89784899D01*
X102238499Y-89651745D01*
X102351745Y-89538499D01*
X102484899Y-89449529D01*
X102632858Y-89388242D01*
X102789925Y-89357000D01*
X102950075Y-89357000D01*
X103107142Y-89388242D01*
X103107142Y-89388242D01*
G37*
G36*
X105647142Y-89388242D02*
G01*
X105795101Y-89449529D01*
X105928255Y-89538499D01*
X106041501Y-89651745D01*
X106130471Y-89784899D01*
X106191758Y-89932858D01*
X106223000Y-90089925D01*
X106223000Y-90250075D01*
X106191758Y-90407142D01*
X106130471Y-90555101D01*
X106041501Y-90688255D01*
X105928255Y-90801501D01*
X105795101Y-90890471D01*
X105647142Y-90951758D01*
X105490075Y-90983000D01*
X105329925Y-90983000D01*
X105172858Y-90951758D01*
X105024899Y-90890471D01*
X104891745Y-90801501D01*
X104778499Y-90688255D01*
X104689529Y-90555101D01*
X104628242Y-90407142D01*
X104597000Y-90250075D01*
X104597000Y-90089925D01*
X104628242Y-89932858D01*
X104689529Y-89784899D01*
X104778499Y-89651745D01*
X104891745Y-89538499D01*
X105024899Y-89449529D01*
X105172858Y-89388242D01*
X105329925Y-89357000D01*
X105490075Y-89357000D01*
X105647142Y-89388242D01*
X105647142Y-89388242D01*
G37*
G36*
X110727142Y-89388242D02*
G01*
X110875101Y-89449529D01*
X111008255Y-89538499D01*
X111121501Y-89651745D01*
X111210471Y-89784899D01*
X111271758Y-89932858D01*
X111303000Y-90089925D01*
X111303000Y-90250075D01*
X111271758Y-90407142D01*
X111210471Y-90555101D01*
X111121501Y-90688255D01*
X111008255Y-90801501D01*
X110875101Y-90890471D01*
X110727142Y-90951758D01*
X110570075Y-90983000D01*
X110409925Y-90983000D01*
X110252858Y-90951758D01*
X110104899Y-90890471D01*
X109971745Y-90801501D01*
X109858499Y-90688255D01*
X109769529Y-90555101D01*
X109708242Y-90407142D01*
X109677000Y-90250075D01*
X109677000Y-90089925D01*
X109708242Y-89932858D01*
X109769529Y-89784899D01*
X109858499Y-89651745D01*
X109971745Y-89538499D01*
X110104899Y-89449529D01*
X110252858Y-89388242D01*
X110409925Y-89357000D01*
X110570075Y-89357000D01*
X110727142Y-89388242D01*
X110727142Y-89388242D01*
G37*
G36*
X108187142Y-89388242D02*
G01*
X108335101Y-89449529D01*
X108468255Y-89538499D01*
X108581501Y-89651745D01*
X108670471Y-89784899D01*
X108731758Y-89932858D01*
X108763000Y-90089925D01*
X108763000Y-90250075D01*
X108731758Y-90407142D01*
X108670471Y-90555101D01*
X108581501Y-90688255D01*
X108468255Y-90801501D01*
X108335101Y-90890471D01*
X108187142Y-90951758D01*
X108030075Y-90983000D01*
X107869925Y-90983000D01*
X107712858Y-90951758D01*
X107564899Y-90890471D01*
X107431745Y-90801501D01*
X107318499Y-90688255D01*
X107229529Y-90555101D01*
X107168242Y-90407142D01*
X107137000Y-90250075D01*
X107137000Y-90089925D01*
X107168242Y-89932858D01*
X107229529Y-89784899D01*
X107318499Y-89651745D01*
X107431745Y-89538499D01*
X107564899Y-89449529D01*
X107712858Y-89388242D01*
X107869925Y-89357000D01*
X108030075Y-89357000D01*
X108187142Y-89388242D01*
X108187142Y-89388242D01*
G37*
G36*
X103107142Y-86848242D02*
G01*
X103255101Y-86909529D01*
X103388255Y-86998499D01*
X103501501Y-87111745D01*
X103590471Y-87244899D01*
X103651758Y-87392858D01*
X103683000Y-87549925D01*
X103683000Y-87710075D01*
X103651758Y-87867142D01*
X103590471Y-88015101D01*
X103501501Y-88148255D01*
X103388255Y-88261501D01*
X103255101Y-88350471D01*
X103107142Y-88411758D01*
X102950075Y-88443000D01*
X102789925Y-88443000D01*
X102632858Y-88411758D01*
X102484899Y-88350471D01*
X102351745Y-88261501D01*
X102238499Y-88148255D01*
X102149529Y-88015101D01*
X102088242Y-87867142D01*
X102057000Y-87710075D01*
X102057000Y-87549925D01*
X102088242Y-87392858D01*
X102149529Y-87244899D01*
X102238499Y-87111745D01*
X102351745Y-86998499D01*
X102484899Y-86909529D01*
X102632858Y-86848242D01*
X102789925Y-86817000D01*
X102950075Y-86817000D01*
X103107142Y-86848242D01*
X103107142Y-86848242D01*
G37*
G36*
X105647142Y-86848242D02*
G01*
X105795101Y-86909529D01*
X105928255Y-86998499D01*
X106041501Y-87111745D01*
X106130471Y-87244899D01*
X106191758Y-87392858D01*
X106223000Y-87549925D01*
X106223000Y-87710075D01*
X106191758Y-87867142D01*
X106130471Y-88015101D01*
X106041501Y-88148255D01*
X105928255Y-88261501D01*
X105795101Y-88350471D01*
X105647142Y-88411758D01*
X105490075Y-88443000D01*
X105329925Y-88443000D01*
X105172858Y-88411758D01*
X105024899Y-88350471D01*
X104891745Y-88261501D01*
X104778499Y-88148255D01*
X104689529Y-88015101D01*
X104628242Y-87867142D01*
X104597000Y-87710075D01*
X104597000Y-87549925D01*
X104628242Y-87392858D01*
X104689529Y-87244899D01*
X104778499Y-87111745D01*
X104891745Y-86998499D01*
X105024899Y-86909529D01*
X105172858Y-86848242D01*
X105329925Y-86817000D01*
X105490075Y-86817000D01*
X105647142Y-86848242D01*
X105647142Y-86848242D01*
G37*
G36*
X108187142Y-86848242D02*
G01*
X108335101Y-86909529D01*
X108468255Y-86998499D01*
X108581501Y-87111745D01*
X108670471Y-87244899D01*
X108731758Y-87392858D01*
X108763000Y-87549925D01*
X108763000Y-87710075D01*
X108731758Y-87867142D01*
X108670471Y-88015101D01*
X108581501Y-88148255D01*
X108468255Y-88261501D01*
X108335101Y-88350471D01*
X108187142Y-88411758D01*
X108030075Y-88443000D01*
X107869925Y-88443000D01*
X107712858Y-88411758D01*
X107564899Y-88350471D01*
X107431745Y-88261501D01*
X107318499Y-88148255D01*
X107229529Y-88015101D01*
X107168242Y-87867142D01*
X107137000Y-87710075D01*
X107137000Y-87549925D01*
X107168242Y-87392858D01*
X107229529Y-87244899D01*
X107318499Y-87111745D01*
X107431745Y-86998499D01*
X107564899Y-86909529D01*
X107712858Y-86848242D01*
X107869925Y-86817000D01*
X108030075Y-86817000D01*
X108187142Y-86848242D01*
X108187142Y-86848242D01*
G37*
G36*
X110727142Y-86848242D02*
G01*
X110875101Y-86909529D01*
X111008255Y-86998499D01*
X111121501Y-87111745D01*
X111210471Y-87244899D01*
X111271758Y-87392858D01*
X111303000Y-87549925D01*
X111303000Y-87710075D01*
X111271758Y-87867142D01*
X111210471Y-88015101D01*
X111121501Y-88148255D01*
X111008255Y-88261501D01*
X110875101Y-88350471D01*
X110727142Y-88411758D01*
X110570075Y-88443000D01*
X110409925Y-88443000D01*
X110252858Y-88411758D01*
X110104899Y-88350471D01*
X109971745Y-88261501D01*
X109858499Y-88148255D01*
X109769529Y-88015101D01*
X109708242Y-87867142D01*
X109677000Y-87710075D01*
X109677000Y-87549925D01*
X109708242Y-87392858D01*
X109769529Y-87244899D01*
X109858499Y-87111745D01*
X109971745Y-86998499D01*
X110104899Y-86909529D01*
X110252858Y-86848242D01*
X110409925Y-86817000D01*
X110570075Y-86817000D01*
X110727142Y-86848242D01*
X110727142Y-86848242D01*
G37*
G36*
X110727142Y-84308242D02*
G01*
X110875101Y-84369529D01*
X111008255Y-84458499D01*
X111121501Y-84571745D01*
X111210471Y-84704899D01*
X111271758Y-84852858D01*
X111303000Y-85009925D01*
X111303000Y-85170075D01*
X111271758Y-85327142D01*
X111210471Y-85475101D01*
X111121501Y-85608255D01*
X111008255Y-85721501D01*
X110875101Y-85810471D01*
X110727142Y-85871758D01*
X110570075Y-85903000D01*
X110409925Y-85903000D01*
X110252858Y-85871758D01*
X110104899Y-85810471D01*
X109971745Y-85721501D01*
X109858499Y-85608255D01*
X109769529Y-85475101D01*
X109708242Y-85327142D01*
X109677000Y-85170075D01*
X109677000Y-85009925D01*
X109708242Y-84852858D01*
X109769529Y-84704899D01*
X109858499Y-84571745D01*
X109971745Y-84458499D01*
X110104899Y-84369529D01*
X110252858Y-84308242D01*
X110409925Y-84277000D01*
X110570075Y-84277000D01*
X110727142Y-84308242D01*
X110727142Y-84308242D01*
G37*
G36*
X108187142Y-84308242D02*
G01*
X108335101Y-84369529D01*
X108468255Y-84458499D01*
X108581501Y-84571745D01*
X108670471Y-84704899D01*
X108731758Y-84852858D01*
X108763000Y-85009925D01*
X108763000Y-85170075D01*
X108731758Y-85327142D01*
X108670471Y-85475101D01*
X108581501Y-85608255D01*
X108468255Y-85721501D01*
X108335101Y-85810471D01*
X108187142Y-85871758D01*
X108030075Y-85903000D01*
X107869925Y-85903000D01*
X107712858Y-85871758D01*
X107564899Y-85810471D01*
X107431745Y-85721501D01*
X107318499Y-85608255D01*
X107229529Y-85475101D01*
X107168242Y-85327142D01*
X107137000Y-85170075D01*
X107137000Y-85009925D01*
X107168242Y-84852858D01*
X107229529Y-84704899D01*
X107318499Y-84571745D01*
X107431745Y-84458499D01*
X107564899Y-84369529D01*
X107712858Y-84308242D01*
X107869925Y-84277000D01*
X108030075Y-84277000D01*
X108187142Y-84308242D01*
X108187142Y-84308242D01*
G37*
G36*
X103107142Y-84308242D02*
G01*
X103255101Y-84369529D01*
X103388255Y-84458499D01*
X103501501Y-84571745D01*
X103590471Y-84704899D01*
X103651758Y-84852858D01*
X103683000Y-85009925D01*
X103683000Y-85170075D01*
X103651758Y-85327142D01*
X103590471Y-85475101D01*
X103501501Y-85608255D01*
X103388255Y-85721501D01*
X103255101Y-85810471D01*
X103107142Y-85871758D01*
X102950075Y-85903000D01*
X102789925Y-85903000D01*
X102632858Y-85871758D01*
X102484899Y-85810471D01*
X102351745Y-85721501D01*
X102238499Y-85608255D01*
X102149529Y-85475101D01*
X102088242Y-85327142D01*
X102057000Y-85170075D01*
X102057000Y-85009925D01*
X102088242Y-84852858D01*
X102149529Y-84704899D01*
X102238499Y-84571745D01*
X102351745Y-84458499D01*
X102484899Y-84369529D01*
X102632858Y-84308242D01*
X102789925Y-84277000D01*
X102950075Y-84277000D01*
X103107142Y-84308242D01*
X103107142Y-84308242D01*
G37*
G36*
X105647142Y-84308242D02*
G01*
X105795101Y-84369529D01*
X105928255Y-84458499D01*
X106041501Y-84571745D01*
X106130471Y-84704899D01*
X106191758Y-84852858D01*
X106223000Y-85009925D01*
X106223000Y-85170075D01*
X106191758Y-85327142D01*
X106130471Y-85475101D01*
X106041501Y-85608255D01*
X105928255Y-85721501D01*
X105795101Y-85810471D01*
X105647142Y-85871758D01*
X105490075Y-85903000D01*
X105329925Y-85903000D01*
X105172858Y-85871758D01*
X105024899Y-85810471D01*
X104891745Y-85721501D01*
X104778499Y-85608255D01*
X104689529Y-85475101D01*
X104628242Y-85327142D01*
X104597000Y-85170075D01*
X104597000Y-85009925D01*
X104628242Y-84852858D01*
X104689529Y-84704899D01*
X104778499Y-84571745D01*
X104891745Y-84458499D01*
X105024899Y-84369529D01*
X105172858Y-84308242D01*
X105329925Y-84277000D01*
X105490075Y-84277000D01*
X105647142Y-84308242D01*
X105647142Y-84308242D01*
G37*
G36*
X108187142Y-81768242D02*
G01*
X108335101Y-81829529D01*
X108468255Y-81918499D01*
X108581501Y-82031745D01*
X108670471Y-82164899D01*
X108731758Y-82312858D01*
X108763000Y-82469925D01*
X108763000Y-82630075D01*
X108731758Y-82787142D01*
X108670471Y-82935101D01*
X108581501Y-83068255D01*
X108468255Y-83181501D01*
X108335101Y-83270471D01*
X108187142Y-83331758D01*
X108030075Y-83363000D01*
X107869925Y-83363000D01*
X107712858Y-83331758D01*
X107564899Y-83270471D01*
X107431745Y-83181501D01*
X107318499Y-83068255D01*
X107229529Y-82935101D01*
X107168242Y-82787142D01*
X107137000Y-82630075D01*
X107137000Y-82469925D01*
X107168242Y-82312858D01*
X107229529Y-82164899D01*
X107318499Y-82031745D01*
X107431745Y-81918499D01*
X107564899Y-81829529D01*
X107712858Y-81768242D01*
X107869925Y-81737000D01*
X108030075Y-81737000D01*
X108187142Y-81768242D01*
X108187142Y-81768242D01*
G37*
G36*
X103107142Y-81768242D02*
G01*
X103255101Y-81829529D01*
X103388255Y-81918499D01*
X103501501Y-82031745D01*
X103590471Y-82164899D01*
X103651758Y-82312858D01*
X103683000Y-82469925D01*
X103683000Y-82630075D01*
X103651758Y-82787142D01*
X103590471Y-82935101D01*
X103501501Y-83068255D01*
X103388255Y-83181501D01*
X103255101Y-83270471D01*
X103107142Y-83331758D01*
X102950075Y-83363000D01*
X102789925Y-83363000D01*
X102632858Y-83331758D01*
X102484899Y-83270471D01*
X102351745Y-83181501D01*
X102238499Y-83068255D01*
X102149529Y-82935101D01*
X102088242Y-82787142D01*
X102057000Y-82630075D01*
X102057000Y-82469925D01*
X102088242Y-82312858D01*
X102149529Y-82164899D01*
X102238499Y-82031745D01*
X102351745Y-81918499D01*
X102484899Y-81829529D01*
X102632858Y-81768242D01*
X102789925Y-81737000D01*
X102950075Y-81737000D01*
X103107142Y-81768242D01*
X103107142Y-81768242D01*
G37*
G36*
X105647142Y-81768242D02*
G01*
X105795101Y-81829529D01*
X105928255Y-81918499D01*
X106041501Y-82031745D01*
X106130471Y-82164899D01*
X106191758Y-82312858D01*
X106223000Y-82469925D01*
X106223000Y-82630075D01*
X106191758Y-82787142D01*
X106130471Y-82935101D01*
X106041501Y-83068255D01*
X105928255Y-83181501D01*
X105795101Y-83270471D01*
X105647142Y-83331758D01*
X105490075Y-83363000D01*
X105329925Y-83363000D01*
X105172858Y-83331758D01*
X105024899Y-83270471D01*
X104891745Y-83181501D01*
X104778499Y-83068255D01*
X104689529Y-82935101D01*
X104628242Y-82787142D01*
X104597000Y-82630075D01*
X104597000Y-82469925D01*
X104628242Y-82312858D01*
X104689529Y-82164899D01*
X104778499Y-82031745D01*
X104891745Y-81918499D01*
X105024899Y-81829529D01*
X105172858Y-81768242D01*
X105329925Y-81737000D01*
X105490075Y-81737000D01*
X105647142Y-81768242D01*
X105647142Y-81768242D01*
G37*
G36*
X110727142Y-81768242D02*
G01*
X110875101Y-81829529D01*
X111008255Y-81918499D01*
X111121501Y-82031745D01*
X111210471Y-82164899D01*
X111271758Y-82312858D01*
X111303000Y-82469925D01*
X111303000Y-82630075D01*
X111271758Y-82787142D01*
X111210471Y-82935101D01*
X111121501Y-83068255D01*
X111008255Y-83181501D01*
X110875101Y-83270471D01*
X110727142Y-83331758D01*
X110570075Y-83363000D01*
X110409925Y-83363000D01*
X110252858Y-83331758D01*
X110104899Y-83270471D01*
X109971745Y-83181501D01*
X109858499Y-83068255D01*
X109769529Y-82935101D01*
X109708242Y-82787142D01*
X109677000Y-82630075D01*
X109677000Y-82469925D01*
X109708242Y-82312858D01*
X109769529Y-82164899D01*
X109858499Y-82031745D01*
X109971745Y-81918499D01*
X110104899Y-81829529D01*
X110252858Y-81768242D01*
X110409925Y-81737000D01*
X110570075Y-81737000D01*
X110727142Y-81768242D01*
X110727142Y-81768242D01*
G37*
G36*
X110727142Y-79228242D02*
G01*
X110875101Y-79289529D01*
X111008255Y-79378499D01*
X111121501Y-79491745D01*
X111210471Y-79624899D01*
X111271758Y-79772858D01*
X111303000Y-79929925D01*
X111303000Y-80090075D01*
X111271758Y-80247142D01*
X111210471Y-80395101D01*
X111121501Y-80528255D01*
X111008255Y-80641501D01*
X110875101Y-80730471D01*
X110727142Y-80791758D01*
X110570075Y-80823000D01*
X110409925Y-80823000D01*
X110252858Y-80791758D01*
X110104899Y-80730471D01*
X109971745Y-80641501D01*
X109858499Y-80528255D01*
X109769529Y-80395101D01*
X109708242Y-80247142D01*
X109677000Y-80090075D01*
X109677000Y-79929925D01*
X109708242Y-79772858D01*
X109769529Y-79624899D01*
X109858499Y-79491745D01*
X109971745Y-79378499D01*
X110104899Y-79289529D01*
X110252858Y-79228242D01*
X110409925Y-79197000D01*
X110570075Y-79197000D01*
X110727142Y-79228242D01*
X110727142Y-79228242D01*
G37*
G36*
X108187142Y-79228242D02*
G01*
X108335101Y-79289529D01*
X108468255Y-79378499D01*
X108581501Y-79491745D01*
X108670471Y-79624899D01*
X108731758Y-79772858D01*
X108763000Y-79929925D01*
X108763000Y-80090075D01*
X108731758Y-80247142D01*
X108670471Y-80395101D01*
X108581501Y-80528255D01*
X108468255Y-80641501D01*
X108335101Y-80730471D01*
X108187142Y-80791758D01*
X108030075Y-80823000D01*
X107869925Y-80823000D01*
X107712858Y-80791758D01*
X107564899Y-80730471D01*
X107431745Y-80641501D01*
X107318499Y-80528255D01*
X107229529Y-80395101D01*
X107168242Y-80247142D01*
X107137000Y-80090075D01*
X107137000Y-79929925D01*
X107168242Y-79772858D01*
X107229529Y-79624899D01*
X107318499Y-79491745D01*
X107431745Y-79378499D01*
X107564899Y-79289529D01*
X107712858Y-79228242D01*
X107869925Y-79197000D01*
X108030075Y-79197000D01*
X108187142Y-79228242D01*
X108187142Y-79228242D01*
G37*
G36*
X105647142Y-79228242D02*
G01*
X105795101Y-79289529D01*
X105928255Y-79378499D01*
X106041501Y-79491745D01*
X106130471Y-79624899D01*
X106191758Y-79772858D01*
X106223000Y-79929925D01*
X106223000Y-80090075D01*
X106191758Y-80247142D01*
X106130471Y-80395101D01*
X106041501Y-80528255D01*
X105928255Y-80641501D01*
X105795101Y-80730471D01*
X105647142Y-80791758D01*
X105490075Y-80823000D01*
X105329925Y-80823000D01*
X105172858Y-80791758D01*
X105024899Y-80730471D01*
X104891745Y-80641501D01*
X104778499Y-80528255D01*
X104689529Y-80395101D01*
X104628242Y-80247142D01*
X104597000Y-80090075D01*
X104597000Y-79929925D01*
X104628242Y-79772858D01*
X104689529Y-79624899D01*
X104778499Y-79491745D01*
X104891745Y-79378499D01*
X105024899Y-79289529D01*
X105172858Y-79228242D01*
X105329925Y-79197000D01*
X105490075Y-79197000D01*
X105647142Y-79228242D01*
X105647142Y-79228242D01*
G37*
G36*
X103107142Y-79228242D02*
G01*
X103255101Y-79289529D01*
X103388255Y-79378499D01*
X103501501Y-79491745D01*
X103590471Y-79624899D01*
X103651758Y-79772858D01*
X103683000Y-79929925D01*
X103683000Y-80090075D01*
X103651758Y-80247142D01*
X103590471Y-80395101D01*
X103501501Y-80528255D01*
X103388255Y-80641501D01*
X103255101Y-80730471D01*
X103107142Y-80791758D01*
X102950075Y-80823000D01*
X102789925Y-80823000D01*
X102632858Y-80791758D01*
X102484899Y-80730471D01*
X102351745Y-80641501D01*
X102238499Y-80528255D01*
X102149529Y-80395101D01*
X102088242Y-80247142D01*
X102057000Y-80090075D01*
X102057000Y-79929925D01*
X102088242Y-79772858D01*
X102149529Y-79624899D01*
X102238499Y-79491745D01*
X102351745Y-79378499D01*
X102484899Y-79289529D01*
X102632858Y-79228242D01*
X102789925Y-79197000D01*
X102950075Y-79197000D01*
X103107142Y-79228242D01*
X103107142Y-79228242D01*
G37*
G36*
X110727142Y-76688242D02*
G01*
X110875101Y-76749529D01*
X111008255Y-76838499D01*
X111121501Y-76951745D01*
X111210471Y-77084899D01*
X111271758Y-77232858D01*
X111303000Y-77389925D01*
X111303000Y-77550075D01*
X111271758Y-77707142D01*
X111210471Y-77855101D01*
X111121501Y-77988255D01*
X111008255Y-78101501D01*
X110875101Y-78190471D01*
X110727142Y-78251758D01*
X110570075Y-78283000D01*
X110409925Y-78283000D01*
X110252858Y-78251758D01*
X110104899Y-78190471D01*
X109971745Y-78101501D01*
X109858499Y-77988255D01*
X109769529Y-77855101D01*
X109708242Y-77707142D01*
X109677000Y-77550075D01*
X109677000Y-77389925D01*
X109708242Y-77232858D01*
X109769529Y-77084899D01*
X109858499Y-76951745D01*
X109971745Y-76838499D01*
X110104899Y-76749529D01*
X110252858Y-76688242D01*
X110409925Y-76657000D01*
X110570075Y-76657000D01*
X110727142Y-76688242D01*
X110727142Y-76688242D01*
G37*
G36*
X108187142Y-76688242D02*
G01*
X108335101Y-76749529D01*
X108468255Y-76838499D01*
X108581501Y-76951745D01*
X108670471Y-77084899D01*
X108731758Y-77232858D01*
X108763000Y-77389925D01*
X108763000Y-77550075D01*
X108731758Y-77707142D01*
X108670471Y-77855101D01*
X108581501Y-77988255D01*
X108468255Y-78101501D01*
X108335101Y-78190471D01*
X108187142Y-78251758D01*
X108030075Y-78283000D01*
X107869925Y-78283000D01*
X107712858Y-78251758D01*
X107564899Y-78190471D01*
X107431745Y-78101501D01*
X107318499Y-77988255D01*
X107229529Y-77855101D01*
X107168242Y-77707142D01*
X107137000Y-77550075D01*
X107137000Y-77389925D01*
X107168242Y-77232858D01*
X107229529Y-77084899D01*
X107318499Y-76951745D01*
X107431745Y-76838499D01*
X107564899Y-76749529D01*
X107712858Y-76688242D01*
X107869925Y-76657000D01*
X108030075Y-76657000D01*
X108187142Y-76688242D01*
X108187142Y-76688242D01*
G37*
G36*
X103107142Y-76688242D02*
G01*
X103255101Y-76749529D01*
X103388255Y-76838499D01*
X103501501Y-76951745D01*
X103590471Y-77084899D01*
X103651758Y-77232858D01*
X103683000Y-77389925D01*
X103683000Y-77550075D01*
X103651758Y-77707142D01*
X103590471Y-77855101D01*
X103501501Y-77988255D01*
X103388255Y-78101501D01*
X103255101Y-78190471D01*
X103107142Y-78251758D01*
X102950075Y-78283000D01*
X102789925Y-78283000D01*
X102632858Y-78251758D01*
X102484899Y-78190471D01*
X102351745Y-78101501D01*
X102238499Y-77988255D01*
X102149529Y-77855101D01*
X102088242Y-77707142D01*
X102057000Y-77550075D01*
X102057000Y-77389925D01*
X102088242Y-77232858D01*
X102149529Y-77084899D01*
X102238499Y-76951745D01*
X102351745Y-76838499D01*
X102484899Y-76749529D01*
X102632858Y-76688242D01*
X102789925Y-76657000D01*
X102950075Y-76657000D01*
X103107142Y-76688242D01*
X103107142Y-76688242D01*
G37*
G36*
X105647142Y-76688242D02*
G01*
X105795101Y-76749529D01*
X105928255Y-76838499D01*
X106041501Y-76951745D01*
X106130471Y-77084899D01*
X106191758Y-77232858D01*
X106223000Y-77389925D01*
X106223000Y-77550075D01*
X106191758Y-77707142D01*
X106130471Y-77855101D01*
X106041501Y-77988255D01*
X105928255Y-78101501D01*
X105795101Y-78190471D01*
X105647142Y-78251758D01*
X105490075Y-78283000D01*
X105329925Y-78283000D01*
X105172858Y-78251758D01*
X105024899Y-78190471D01*
X104891745Y-78101501D01*
X104778499Y-77988255D01*
X104689529Y-77855101D01*
X104628242Y-77707142D01*
X104597000Y-77550075D01*
X104597000Y-77389925D01*
X104628242Y-77232858D01*
X104689529Y-77084899D01*
X104778499Y-76951745D01*
X104891745Y-76838499D01*
X105024899Y-76749529D01*
X105172858Y-76688242D01*
X105329925Y-76657000D01*
X105490075Y-76657000D01*
X105647142Y-76688242D01*
X105647142Y-76688242D01*
G37*
G36*
X110727142Y-74148242D02*
G01*
X110875101Y-74209529D01*
X111008255Y-74298499D01*
X111121501Y-74411745D01*
X111210471Y-74544899D01*
X111271758Y-74692858D01*
X111303000Y-74849925D01*
X111303000Y-75010075D01*
X111271758Y-75167142D01*
X111210471Y-75315101D01*
X111121501Y-75448255D01*
X111008255Y-75561501D01*
X110875101Y-75650471D01*
X110727142Y-75711758D01*
X110570075Y-75743000D01*
X110409925Y-75743000D01*
X110252858Y-75711758D01*
X110104899Y-75650471D01*
X109971745Y-75561501D01*
X109858499Y-75448255D01*
X109769529Y-75315101D01*
X109708242Y-75167142D01*
X109677000Y-75010075D01*
X109677000Y-74849925D01*
X109708242Y-74692858D01*
X109769529Y-74544899D01*
X109858499Y-74411745D01*
X109971745Y-74298499D01*
X110104899Y-74209529D01*
X110252858Y-74148242D01*
X110409925Y-74117000D01*
X110570075Y-74117000D01*
X110727142Y-74148242D01*
X110727142Y-74148242D01*
G37*
G36*
X108187142Y-74148242D02*
G01*
X108335101Y-74209529D01*
X108468255Y-74298499D01*
X108581501Y-74411745D01*
X108670471Y-74544899D01*
X108731758Y-74692858D01*
X108763000Y-74849925D01*
X108763000Y-75010075D01*
X108731758Y-75167142D01*
X108670471Y-75315101D01*
X108581501Y-75448255D01*
X108468255Y-75561501D01*
X108335101Y-75650471D01*
X108187142Y-75711758D01*
X108030075Y-75743000D01*
X107869925Y-75743000D01*
X107712858Y-75711758D01*
X107564899Y-75650471D01*
X107431745Y-75561501D01*
X107318499Y-75448255D01*
X107229529Y-75315101D01*
X107168242Y-75167142D01*
X107137000Y-75010075D01*
X107137000Y-74849925D01*
X107168242Y-74692858D01*
X107229529Y-74544899D01*
X107318499Y-74411745D01*
X107431745Y-74298499D01*
X107564899Y-74209529D01*
X107712858Y-74148242D01*
X107869925Y-74117000D01*
X108030075Y-74117000D01*
X108187142Y-74148242D01*
X108187142Y-74148242D01*
G37*
G36*
X105647142Y-74148242D02*
G01*
X105795101Y-74209529D01*
X105928255Y-74298499D01*
X106041501Y-74411745D01*
X106130471Y-74544899D01*
X106191758Y-74692858D01*
X106223000Y-74849925D01*
X106223000Y-75010075D01*
X106191758Y-75167142D01*
X106130471Y-75315101D01*
X106041501Y-75448255D01*
X105928255Y-75561501D01*
X105795101Y-75650471D01*
X105647142Y-75711758D01*
X105490075Y-75743000D01*
X105329925Y-75743000D01*
X105172858Y-75711758D01*
X105024899Y-75650471D01*
X104891745Y-75561501D01*
X104778499Y-75448255D01*
X104689529Y-75315101D01*
X104628242Y-75167142D01*
X104597000Y-75010075D01*
X104597000Y-74849925D01*
X104628242Y-74692858D01*
X104689529Y-74544899D01*
X104778499Y-74411745D01*
X104891745Y-74298499D01*
X105024899Y-74209529D01*
X105172858Y-74148242D01*
X105329925Y-74117000D01*
X105490075Y-74117000D01*
X105647142Y-74148242D01*
X105647142Y-74148242D01*
G37*
G36*
X103107142Y-74148242D02*
G01*
X103255101Y-74209529D01*
X103388255Y-74298499D01*
X103501501Y-74411745D01*
X103590471Y-74544899D01*
X103651758Y-74692858D01*
X103683000Y-74849925D01*
X103683000Y-75010075D01*
X103651758Y-75167142D01*
X103590471Y-75315101D01*
X103501501Y-75448255D01*
X103388255Y-75561501D01*
X103255101Y-75650471D01*
X103107142Y-75711758D01*
X102950075Y-75743000D01*
X102789925Y-75743000D01*
X102632858Y-75711758D01*
X102484899Y-75650471D01*
X102351745Y-75561501D01*
X102238499Y-75448255D01*
X102149529Y-75315101D01*
X102088242Y-75167142D01*
X102057000Y-75010075D01*
X102057000Y-74849925D01*
X102088242Y-74692858D01*
X102149529Y-74544899D01*
X102238499Y-74411745D01*
X102351745Y-74298499D01*
X102484899Y-74209529D01*
X102632858Y-74148242D01*
X102789925Y-74117000D01*
X102950075Y-74117000D01*
X103107142Y-74148242D01*
X103107142Y-74148242D01*
G37*
G36*
X103107142Y-71608242D02*
G01*
X103255101Y-71669529D01*
X103388255Y-71758499D01*
X103501501Y-71871745D01*
X103590471Y-72004899D01*
X103651758Y-72152858D01*
X103683000Y-72309925D01*
X103683000Y-72470075D01*
X103651758Y-72627142D01*
X103590471Y-72775101D01*
X103501501Y-72908255D01*
X103388255Y-73021501D01*
X103255101Y-73110471D01*
X103107142Y-73171758D01*
X102950075Y-73203000D01*
X102789925Y-73203000D01*
X102632858Y-73171758D01*
X102484899Y-73110471D01*
X102351745Y-73021501D01*
X102238499Y-72908255D01*
X102149529Y-72775101D01*
X102088242Y-72627142D01*
X102057000Y-72470075D01*
X102057000Y-72309925D01*
X102088242Y-72152858D01*
X102149529Y-72004899D01*
X102238499Y-71871745D01*
X102351745Y-71758499D01*
X102484899Y-71669529D01*
X102632858Y-71608242D01*
X102789925Y-71577000D01*
X102950075Y-71577000D01*
X103107142Y-71608242D01*
X103107142Y-71608242D01*
G37*
G36*
X110727142Y-71608242D02*
G01*
X110875101Y-71669529D01*
X111008255Y-71758499D01*
X111121501Y-71871745D01*
X111210471Y-72004899D01*
X111271758Y-72152858D01*
X111303000Y-72309925D01*
X111303000Y-72470075D01*
X111271758Y-72627142D01*
X111210471Y-72775101D01*
X111121501Y-72908255D01*
X111008255Y-73021501D01*
X110875101Y-73110471D01*
X110727142Y-73171758D01*
X110570075Y-73203000D01*
X110409925Y-73203000D01*
X110252858Y-73171758D01*
X110104899Y-73110471D01*
X109971745Y-73021501D01*
X109858499Y-72908255D01*
X109769529Y-72775101D01*
X109708242Y-72627142D01*
X109677000Y-72470075D01*
X109677000Y-72309925D01*
X109708242Y-72152858D01*
X109769529Y-72004899D01*
X109858499Y-71871745D01*
X109971745Y-71758499D01*
X110104899Y-71669529D01*
X110252858Y-71608242D01*
X110409925Y-71577000D01*
X110570075Y-71577000D01*
X110727142Y-71608242D01*
X110727142Y-71608242D01*
G37*
G36*
X108187142Y-71608242D02*
G01*
X108335101Y-71669529D01*
X108468255Y-71758499D01*
X108581501Y-71871745D01*
X108670471Y-72004899D01*
X108731758Y-72152858D01*
X108763000Y-72309925D01*
X108763000Y-72470075D01*
X108731758Y-72627142D01*
X108670471Y-72775101D01*
X108581501Y-72908255D01*
X108468255Y-73021501D01*
X108335101Y-73110471D01*
X108187142Y-73171758D01*
X108030075Y-73203000D01*
X107869925Y-73203000D01*
X107712858Y-73171758D01*
X107564899Y-73110471D01*
X107431745Y-73021501D01*
X107318499Y-72908255D01*
X107229529Y-72775101D01*
X107168242Y-72627142D01*
X107137000Y-72470075D01*
X107137000Y-72309925D01*
X107168242Y-72152858D01*
X107229529Y-72004899D01*
X107318499Y-71871745D01*
X107431745Y-71758499D01*
X107564899Y-71669529D01*
X107712858Y-71608242D01*
X107869925Y-71577000D01*
X108030075Y-71577000D01*
X108187142Y-71608242D01*
X108187142Y-71608242D01*
G37*
G36*
X105647142Y-71608242D02*
G01*
X105795101Y-71669529D01*
X105928255Y-71758499D01*
X106041501Y-71871745D01*
X106130471Y-72004899D01*
X106191758Y-72152858D01*
X106223000Y-72309925D01*
X106223000Y-72470075D01*
X106191758Y-72627142D01*
X106130471Y-72775101D01*
X106041501Y-72908255D01*
X105928255Y-73021501D01*
X105795101Y-73110471D01*
X105647142Y-73171758D01*
X105490075Y-73203000D01*
X105329925Y-73203000D01*
X105172858Y-73171758D01*
X105024899Y-73110471D01*
X104891745Y-73021501D01*
X104778499Y-72908255D01*
X104689529Y-72775101D01*
X104628242Y-72627142D01*
X104597000Y-72470075D01*
X104597000Y-72309925D01*
X104628242Y-72152858D01*
X104689529Y-72004899D01*
X104778499Y-71871745D01*
X104891745Y-71758499D01*
X105024899Y-71669529D01*
X105172858Y-71608242D01*
X105329925Y-71577000D01*
X105490075Y-71577000D01*
X105647142Y-71608242D01*
X105647142Y-71608242D01*
G37*
G36*
X105647142Y-69068242D02*
G01*
X105795101Y-69129529D01*
X105928255Y-69218499D01*
X106041501Y-69331745D01*
X106130471Y-69464899D01*
X106191758Y-69612858D01*
X106223000Y-69769925D01*
X106223000Y-69930075D01*
X106191758Y-70087142D01*
X106130471Y-70235101D01*
X106041501Y-70368255D01*
X105928255Y-70481501D01*
X105795101Y-70570471D01*
X105647142Y-70631758D01*
X105490075Y-70663000D01*
X105329925Y-70663000D01*
X105172858Y-70631758D01*
X105024899Y-70570471D01*
X104891745Y-70481501D01*
X104778499Y-70368255D01*
X104689529Y-70235101D01*
X104628242Y-70087142D01*
X104597000Y-69930075D01*
X104597000Y-69769925D01*
X104628242Y-69612858D01*
X104689529Y-69464899D01*
X104778499Y-69331745D01*
X104891745Y-69218499D01*
X105024899Y-69129529D01*
X105172858Y-69068242D01*
X105329925Y-69037000D01*
X105490075Y-69037000D01*
X105647142Y-69068242D01*
X105647142Y-69068242D01*
G37*
G36*
X110727142Y-69068242D02*
G01*
X110875101Y-69129529D01*
X111008255Y-69218499D01*
X111121501Y-69331745D01*
X111210471Y-69464899D01*
X111271758Y-69612858D01*
X111303000Y-69769925D01*
X111303000Y-69930075D01*
X111271758Y-70087142D01*
X111210471Y-70235101D01*
X111121501Y-70368255D01*
X111008255Y-70481501D01*
X110875101Y-70570471D01*
X110727142Y-70631758D01*
X110570075Y-70663000D01*
X110409925Y-70663000D01*
X110252858Y-70631758D01*
X110104899Y-70570471D01*
X109971745Y-70481501D01*
X109858499Y-70368255D01*
X109769529Y-70235101D01*
X109708242Y-70087142D01*
X109677000Y-69930075D01*
X109677000Y-69769925D01*
X109708242Y-69612858D01*
X109769529Y-69464899D01*
X109858499Y-69331745D01*
X109971745Y-69218499D01*
X110104899Y-69129529D01*
X110252858Y-69068242D01*
X110409925Y-69037000D01*
X110570075Y-69037000D01*
X110727142Y-69068242D01*
X110727142Y-69068242D01*
G37*
G36*
X103107142Y-69068242D02*
G01*
X103255101Y-69129529D01*
X103388255Y-69218499D01*
X103501501Y-69331745D01*
X103590471Y-69464899D01*
X103651758Y-69612858D01*
X103683000Y-69769925D01*
X103683000Y-69930075D01*
X103651758Y-70087142D01*
X103590471Y-70235101D01*
X103501501Y-70368255D01*
X103388255Y-70481501D01*
X103255101Y-70570471D01*
X103107142Y-70631758D01*
X102950075Y-70663000D01*
X102789925Y-70663000D01*
X102632858Y-70631758D01*
X102484899Y-70570471D01*
X102351745Y-70481501D01*
X102238499Y-70368255D01*
X102149529Y-70235101D01*
X102088242Y-70087142D01*
X102057000Y-69930075D01*
X102057000Y-69769925D01*
X102088242Y-69612858D01*
X102149529Y-69464899D01*
X102238499Y-69331745D01*
X102351745Y-69218499D01*
X102484899Y-69129529D01*
X102632858Y-69068242D01*
X102789925Y-69037000D01*
X102950075Y-69037000D01*
X103107142Y-69068242D01*
X103107142Y-69068242D01*
G37*
G36*
X108187142Y-69068242D02*
G01*
X108335101Y-69129529D01*
X108468255Y-69218499D01*
X108581501Y-69331745D01*
X108670471Y-69464899D01*
X108731758Y-69612858D01*
X108763000Y-69769925D01*
X108763000Y-69930075D01*
X108731758Y-70087142D01*
X108670471Y-70235101D01*
X108581501Y-70368255D01*
X108468255Y-70481501D01*
X108335101Y-70570471D01*
X108187142Y-70631758D01*
X108030075Y-70663000D01*
X107869925Y-70663000D01*
X107712858Y-70631758D01*
X107564899Y-70570471D01*
X107431745Y-70481501D01*
X107318499Y-70368255D01*
X107229529Y-70235101D01*
X107168242Y-70087142D01*
X107137000Y-69930075D01*
X107137000Y-69769925D01*
X107168242Y-69612858D01*
X107229529Y-69464899D01*
X107318499Y-69331745D01*
X107431745Y-69218499D01*
X107564899Y-69129529D01*
X107712858Y-69068242D01*
X107869925Y-69037000D01*
X108030075Y-69037000D01*
X108187142Y-69068242D01*
X108187142Y-69068242D01*
G37*
G36*
X107156000Y-60255975D02*
G01*
X107158402Y-60280361D01*
X107165515Y-60303810D01*
X107177066Y-60325421D01*
X107192611Y-60344363D01*
X107211553Y-60359908D01*
X107233164Y-60371459D01*
X107256613Y-60378572D01*
X107280999Y-60380974D01*
X107305385Y-60378572D01*
X107328834Y-60371459D01*
X107360292Y-60352604D01*
X107414269Y-60308306D01*
X107496961Y-60264106D01*
X107586688Y-60236887D01*
X107656616Y-60230000D01*
X107703384Y-60230000D01*
X107773312Y-60236887D01*
X107863039Y-60264106D01*
X107945731Y-60308306D01*
X108018211Y-60367789D01*
X108077694Y-60440269D01*
X108077697Y-60440274D01*
X108083374Y-60447192D01*
X108100701Y-60464519D01*
X108121075Y-60478133D01*
X108143714Y-60487510D01*
X108167747Y-60492291D01*
X108192251Y-60492291D01*
X108216285Y-60487511D01*
X108238924Y-60478134D01*
X108259298Y-60464520D01*
X108276626Y-60447192D01*
X108282303Y-60440274D01*
X108282306Y-60440269D01*
X108341789Y-60367789D01*
X108414269Y-60308306D01*
X108496961Y-60264106D01*
X108586688Y-60236887D01*
X108656616Y-60230000D01*
X108703384Y-60230000D01*
X108773312Y-60236887D01*
X108863039Y-60264106D01*
X108945731Y-60308306D01*
X109018211Y-60367789D01*
X109077694Y-60440269D01*
X109077697Y-60440274D01*
X109083374Y-60447192D01*
X109100701Y-60464519D01*
X109121075Y-60478133D01*
X109143714Y-60487510D01*
X109167747Y-60492291D01*
X109192251Y-60492291D01*
X109216285Y-60487511D01*
X109238924Y-60478134D01*
X109259298Y-60464520D01*
X109276626Y-60447192D01*
X109282303Y-60440274D01*
X109282306Y-60440269D01*
X109341789Y-60367789D01*
X109414269Y-60308306D01*
X109496961Y-60264106D01*
X109586688Y-60236887D01*
X109656616Y-60230000D01*
X109703384Y-60230000D01*
X109773312Y-60236887D01*
X109863039Y-60264106D01*
X109945731Y-60308306D01*
X110018211Y-60367789D01*
X110077694Y-60440269D01*
X110077697Y-60440274D01*
X110083374Y-60447192D01*
X110100701Y-60464519D01*
X110121075Y-60478133D01*
X110143714Y-60487510D01*
X110167747Y-60492291D01*
X110192251Y-60492291D01*
X110216285Y-60487511D01*
X110238924Y-60478134D01*
X110259298Y-60464520D01*
X110276626Y-60447192D01*
X110282303Y-60440274D01*
X110282306Y-60440269D01*
X110341789Y-60367789D01*
X110414269Y-60308306D01*
X110496961Y-60264106D01*
X110586688Y-60236887D01*
X110656616Y-60230000D01*
X110703384Y-60230000D01*
X110773312Y-60236887D01*
X110863039Y-60264106D01*
X110945731Y-60308306D01*
X111018211Y-60367789D01*
X111077694Y-60440269D01*
X111121894Y-60522961D01*
X111149113Y-60612688D01*
X111158303Y-60706000D01*
X111149113Y-60799312D01*
X111121894Y-60889039D01*
X111077694Y-60971731D01*
X111018211Y-61044211D01*
X110945731Y-61103694D01*
X110863039Y-61147894D01*
X110773312Y-61175113D01*
X110703384Y-61182000D01*
X110656616Y-61182000D01*
X110586688Y-61175113D01*
X110496961Y-61147894D01*
X110414269Y-61103694D01*
X110341789Y-61044211D01*
X110282306Y-60971731D01*
X110282303Y-60971726D01*
X110276626Y-60964808D01*
X110259299Y-60947481D01*
X110238925Y-60933867D01*
X110216286Y-60924490D01*
X110192253Y-60919709D01*
X110167749Y-60919709D01*
X110143715Y-60924489D01*
X110121076Y-60933866D01*
X110100702Y-60947480D01*
X110083374Y-60964808D01*
X110077697Y-60971726D01*
X110077694Y-60971731D01*
X110018211Y-61044211D01*
X109945731Y-61103694D01*
X109863039Y-61147894D01*
X109773312Y-61175113D01*
X109703384Y-61182000D01*
X109656616Y-61182000D01*
X109586688Y-61175113D01*
X109496961Y-61147894D01*
X109414269Y-61103694D01*
X109341789Y-61044211D01*
X109282306Y-60971731D01*
X109282303Y-60971726D01*
X109276626Y-60964808D01*
X109259299Y-60947481D01*
X109238925Y-60933867D01*
X109216286Y-60924490D01*
X109192253Y-60919709D01*
X109167749Y-60919709D01*
X109143715Y-60924489D01*
X109121076Y-60933866D01*
X109100702Y-60947480D01*
X109083374Y-60964808D01*
X109077697Y-60971726D01*
X109077694Y-60971731D01*
X109018211Y-61044211D01*
X108945731Y-61103694D01*
X108863039Y-61147894D01*
X108773312Y-61175113D01*
X108703384Y-61182000D01*
X108656616Y-61182000D01*
X108586688Y-61175113D01*
X108496961Y-61147894D01*
X108414269Y-61103694D01*
X108341789Y-61044211D01*
X108282306Y-60971731D01*
X108282303Y-60971726D01*
X108276626Y-60964808D01*
X108259299Y-60947481D01*
X108238925Y-60933867D01*
X108216286Y-60924490D01*
X108192253Y-60919709D01*
X108167749Y-60919709D01*
X108143715Y-60924489D01*
X108121076Y-60933866D01*
X108100702Y-60947480D01*
X108083374Y-60964808D01*
X108077697Y-60971726D01*
X108077694Y-60971731D01*
X108018211Y-61044211D01*
X107945731Y-61103694D01*
X107863039Y-61147894D01*
X107773312Y-61175113D01*
X107703384Y-61182000D01*
X107656616Y-61182000D01*
X107586688Y-61175113D01*
X107496961Y-61147894D01*
X107414269Y-61103694D01*
X107360289Y-61059394D01*
X107339923Y-61045786D01*
X107317284Y-61036408D01*
X107293251Y-61031628D01*
X107268747Y-61031628D01*
X107244714Y-61036408D01*
X107222075Y-61045786D01*
X107201700Y-61059400D01*
X107184373Y-61076727D01*
X107170760Y-61097101D01*
X107161382Y-61119740D01*
X107156000Y-61156025D01*
X107156000Y-61182000D01*
X106204000Y-61182000D01*
X106204000Y-60230000D01*
X107156000Y-60230000D01*
X107156000Y-60255975D01*
X107156000Y-60255975D01*
G37*
M02*
