G04 #@! TF.GenerationSoftware,KiCad,Pcbnew,(5.1.2)-2*
G04 #@! TF.CreationDate,2020-04-10T09:33:15+02:00*
G04 #@! TF.ProjectId,AfriCubePiPluginBoard,41667269-4375-4626-9550-69506c756769,rev?*
G04 #@! TF.SameCoordinates,Original*
G04 #@! TF.FileFunction,Drawing*
%FSLAX46Y46*%
G04 Gerber Fmt 4.6, Leading zero omitted, Abs format (unit mm)*
G04 Created by KiCad (PCBNEW (5.1.2)-2) date 2020-04-10 09:33:15*
%MOMM*%
%LPD*%
G04 APERTURE LIST*
%ADD10C,0.150000*%
%ADD11C,0.100000*%
G04 APERTURE END LIST*
D10*
X128805000Y-140335000D02*
G75*
G03X128805000Y-140335000I-6250000J0D01*
G01*
D11*
X175830000Y-72415000D02*
X173980000Y-71915000D01*
X173980000Y-72415000D02*
X175830000Y-72915000D01*
X175830000Y-73415000D02*
X173980000Y-72915000D01*
X173980000Y-73415000D02*
X175830000Y-73915000D01*
X175830000Y-74315000D02*
X173980000Y-73915000D01*
X175830000Y-71865000D02*
X173980000Y-71865000D01*
X173980000Y-74365000D02*
X175830000Y-74365000D01*
X178180000Y-75615000D02*
X178180000Y-75115000D01*
X180180000Y-76315000D02*
X178180000Y-75615000D01*
X178180000Y-76615000D02*
X178180000Y-76115000D01*
X180180000Y-77315000D02*
X178180000Y-76615000D01*
X178180000Y-77315000D02*
X180180000Y-77315000D01*
X178180000Y-77315000D02*
X178180000Y-68815000D01*
X175830000Y-71865000D02*
X175830000Y-74365000D01*
X180180000Y-77315000D02*
X180180000Y-68815000D01*
X180180000Y-76815000D02*
X178180000Y-76115000D01*
X180180000Y-75815000D02*
X178180000Y-75115000D01*
X180180000Y-75315000D02*
X178180000Y-74615000D01*
X180180000Y-74815000D02*
X178180000Y-74115000D01*
X180180000Y-74315000D02*
X178180000Y-73615000D01*
X180180000Y-73815000D02*
X178180000Y-73115000D01*
X180180000Y-73315000D02*
X178180000Y-72615000D01*
X180180000Y-72815000D02*
X178180000Y-72115000D01*
X180180000Y-72315000D02*
X178180000Y-71615000D01*
X180180000Y-71815000D02*
X178180000Y-71115000D01*
X180180000Y-71315000D02*
X178180000Y-70615000D01*
X180180000Y-70815000D02*
X178180000Y-70115000D01*
X180180000Y-70315000D02*
X178180000Y-69615000D01*
X180180000Y-69815000D02*
X178180000Y-69115000D01*
X180180000Y-69315000D02*
X178730000Y-68815000D01*
X180180000Y-68815000D02*
X178180000Y-68815000D01*
X173980000Y-71865000D02*
X173980000Y-74365000D01*
M02*
