G04 #@! TF.GenerationSoftware,KiCad,Pcbnew,(5.1.2)-2*
G04 #@! TF.CreationDate,2020-04-10T09:33:14+02:00*
G04 #@! TF.ProjectId,AfriCubePiPluginBoard,41667269-4375-4626-9550-69506c756769,rev?*
G04 #@! TF.SameCoordinates,Original*
G04 #@! TF.FileFunction,Legend,Top*
G04 #@! TF.FilePolarity,Positive*
%FSLAX46Y46*%
G04 Gerber Fmt 4.6, Leading zero omitted, Abs format (unit mm)*
G04 Created by KiCad (PCBNEW (5.1.2)-2) date 2020-04-10 09:33:14*
%MOMM*%
%LPD*%
G04 APERTURE LIST*
%ADD10C,0.150000*%
%ADD11C,0.120000*%
%ADD12C,0.381000*%
%ADD13C,0.304800*%
G04 APERTURE END LIST*
D10*
X105537380Y-142343666D02*
X106013571Y-142343666D01*
X105442142Y-142629380D02*
X105775476Y-141629380D01*
X106108809Y-142629380D01*
X106299285Y-141962714D02*
X106680238Y-141962714D01*
X106442142Y-142629380D02*
X106442142Y-141772238D01*
X106489761Y-141677000D01*
X106585000Y-141629380D01*
X106680238Y-141629380D01*
X107013571Y-142629380D02*
X107013571Y-141962714D01*
X107013571Y-142153190D02*
X107061190Y-142057952D01*
X107108809Y-142010333D01*
X107204047Y-141962714D01*
X107299285Y-141962714D01*
X107632619Y-142629380D02*
X107632619Y-141962714D01*
X107632619Y-141629380D02*
X107585000Y-141677000D01*
X107632619Y-141724619D01*
X107680238Y-141677000D01*
X107632619Y-141629380D01*
X107632619Y-141724619D01*
X108680238Y-142534142D02*
X108632619Y-142581761D01*
X108489761Y-142629380D01*
X108394523Y-142629380D01*
X108251666Y-142581761D01*
X108156428Y-142486523D01*
X108108809Y-142391285D01*
X108061190Y-142200809D01*
X108061190Y-142057952D01*
X108108809Y-141867476D01*
X108156428Y-141772238D01*
X108251666Y-141677000D01*
X108394523Y-141629380D01*
X108489761Y-141629380D01*
X108632619Y-141677000D01*
X108680238Y-141724619D01*
X109108809Y-141629380D02*
X109108809Y-142438904D01*
X109156428Y-142534142D01*
X109204047Y-142581761D01*
X109299285Y-142629380D01*
X109489761Y-142629380D01*
X109585000Y-142581761D01*
X109632619Y-142534142D01*
X109680238Y-142438904D01*
X109680238Y-141629380D01*
X110489761Y-142105571D02*
X110632619Y-142153190D01*
X110680238Y-142200809D01*
X110727857Y-142296047D01*
X110727857Y-142438904D01*
X110680238Y-142534142D01*
X110632619Y-142581761D01*
X110537380Y-142629380D01*
X110156428Y-142629380D01*
X110156428Y-141629380D01*
X110489761Y-141629380D01*
X110585000Y-141677000D01*
X110632619Y-141724619D01*
X110680238Y-141819857D01*
X110680238Y-141915095D01*
X110632619Y-142010333D01*
X110585000Y-142057952D01*
X110489761Y-142105571D01*
X110156428Y-142105571D01*
X111156428Y-142105571D02*
X111489761Y-142105571D01*
X111632619Y-142629380D02*
X111156428Y-142629380D01*
X111156428Y-141629380D01*
X111632619Y-141629380D01*
X103727857Y-144279380D02*
X103727857Y-143279380D01*
X104108809Y-143279380D01*
X104204047Y-143327000D01*
X104251666Y-143374619D01*
X104299285Y-143469857D01*
X104299285Y-143612714D01*
X104251666Y-143707952D01*
X104204047Y-143755571D01*
X104108809Y-143803190D01*
X103727857Y-143803190D01*
X104727857Y-144279380D02*
X104727857Y-143612714D01*
X104727857Y-143279380D02*
X104680238Y-143327000D01*
X104727857Y-143374619D01*
X104775476Y-143327000D01*
X104727857Y-143279380D01*
X104727857Y-143374619D01*
X105204047Y-144279380D02*
X105204047Y-143279380D01*
X105585000Y-143279380D01*
X105680238Y-143327000D01*
X105727857Y-143374619D01*
X105775476Y-143469857D01*
X105775476Y-143612714D01*
X105727857Y-143707952D01*
X105680238Y-143755571D01*
X105585000Y-143803190D01*
X105204047Y-143803190D01*
X106346904Y-144279380D02*
X106251666Y-144231761D01*
X106204047Y-144136523D01*
X106204047Y-143279380D01*
X107156428Y-143612714D02*
X107156428Y-144279380D01*
X106727857Y-143612714D02*
X106727857Y-144136523D01*
X106775476Y-144231761D01*
X106870714Y-144279380D01*
X107013571Y-144279380D01*
X107108809Y-144231761D01*
X107156428Y-144184142D01*
X108061190Y-143612714D02*
X108061190Y-144422238D01*
X108013571Y-144517476D01*
X107965952Y-144565095D01*
X107870714Y-144612714D01*
X107727857Y-144612714D01*
X107632619Y-144565095D01*
X108061190Y-144231761D02*
X107965952Y-144279380D01*
X107775476Y-144279380D01*
X107680238Y-144231761D01*
X107632619Y-144184142D01*
X107585000Y-144088904D01*
X107585000Y-143803190D01*
X107632619Y-143707952D01*
X107680238Y-143660333D01*
X107775476Y-143612714D01*
X107965952Y-143612714D01*
X108061190Y-143660333D01*
X108537380Y-144279380D02*
X108537380Y-143612714D01*
X108537380Y-143279380D02*
X108489761Y-143327000D01*
X108537380Y-143374619D01*
X108585000Y-143327000D01*
X108537380Y-143279380D01*
X108537380Y-143374619D01*
X109013571Y-143612714D02*
X109013571Y-144279380D01*
X109013571Y-143707952D02*
X109061190Y-143660333D01*
X109156428Y-143612714D01*
X109299285Y-143612714D01*
X109394523Y-143660333D01*
X109442142Y-143755571D01*
X109442142Y-144279380D01*
X110537380Y-143279380D02*
X110870714Y-144279380D01*
X111204047Y-143279380D01*
X112061190Y-144279380D02*
X111489761Y-144279380D01*
X111775476Y-144279380D02*
X111775476Y-143279380D01*
X111680238Y-143422238D01*
X111585000Y-143517476D01*
X111489761Y-143565095D01*
X112489761Y-144184142D02*
X112537380Y-144231761D01*
X112489761Y-144279380D01*
X112442142Y-144231761D01*
X112489761Y-144184142D01*
X112489761Y-144279380D01*
X113156428Y-143279380D02*
X113251666Y-143279380D01*
X113346904Y-143327000D01*
X113394523Y-143374619D01*
X113442142Y-143469857D01*
X113489761Y-143660333D01*
X113489761Y-143898428D01*
X113442142Y-144088904D01*
X113394523Y-144184142D01*
X113346904Y-144231761D01*
X113251666Y-144279380D01*
X113156428Y-144279380D01*
X113061190Y-144231761D01*
X113013571Y-144184142D01*
X112965952Y-144088904D01*
X112918333Y-143898428D01*
X112918333Y-143660333D01*
X112965952Y-143469857D01*
X113013571Y-143374619D01*
X113061190Y-143327000D01*
X113156428Y-143279380D01*
D11*
X187840252Y-135965000D02*
X187317748Y-135965000D01*
X187840252Y-134545000D02*
X187317748Y-134545000D01*
X182237748Y-135965000D02*
X182760252Y-135965000D01*
X182237748Y-134545000D02*
X182760252Y-134545000D01*
X185158748Y-81228000D02*
X185681252Y-81228000D01*
X185158748Y-79808000D02*
X185681252Y-79808000D01*
X154297748Y-73839000D02*
X154820252Y-73839000D01*
X154297748Y-75259000D02*
X154820252Y-75259000D01*
X127969615Y-145919160D02*
G75*
G02X127055000Y-145535000I-124615J984160D01*
G01*
X117140385Y-145919160D02*
G75*
G03X118055000Y-145535000I124615J984160D01*
G01*
X127045661Y-145523671D02*
G75*
G03X118055000Y-145535000I-4490661J-3711329D01*
G01*
X129305000Y-144385000D02*
G75*
G02X127855000Y-145935000I-1500000J-50000D01*
G01*
X115805000Y-144385000D02*
G75*
G03X117255000Y-145935000I1500000J-50000D01*
G01*
X129305000Y-142335000D02*
X129305000Y-144435000D01*
X115805000Y-142335000D02*
X115805000Y-144435000D01*
X115805000Y-138335000D02*
X115805000Y-136885000D01*
X115805000Y-136885000D02*
X118405000Y-134285000D01*
X118405000Y-134285000D02*
X118405000Y-133485000D01*
X118405000Y-133485000D02*
X126705000Y-133485000D01*
X126705000Y-133485000D02*
X126705000Y-134285000D01*
X126705000Y-134285000D02*
X129305000Y-136885000D01*
X129305000Y-136885000D02*
X129305000Y-138335000D01*
X103472064Y-61558000D02*
X102267936Y-61558000D01*
X103472064Y-58838000D02*
X102267936Y-58838000D01*
X175970000Y-118117252D02*
X175970000Y-117594748D01*
X174550000Y-118117252D02*
X174550000Y-117594748D01*
X175462000Y-126484748D02*
X175462000Y-127007252D01*
X174042000Y-126484748D02*
X174042000Y-127007252D01*
X120852000Y-61856252D02*
X120852000Y-61333748D01*
X119432000Y-61856252D02*
X119432000Y-61333748D01*
X138016064Y-127672000D02*
X136811936Y-127672000D01*
X138016064Y-130392000D02*
X136811936Y-130392000D01*
X136811936Y-123862000D02*
X138016064Y-123862000D01*
X136811936Y-126582000D02*
X138016064Y-126582000D01*
X134060000Y-82542748D02*
X134060000Y-83065252D01*
X132640000Y-82542748D02*
X132640000Y-83065252D01*
X186951252Y-124154000D02*
X186428748Y-124154000D01*
X186951252Y-122734000D02*
X186428748Y-122734000D01*
X186428748Y-118439000D02*
X186951252Y-118439000D01*
X186428748Y-117019000D02*
X186951252Y-117019000D01*
X184860000Y-129420252D02*
X184860000Y-128897748D01*
X183440000Y-129420252D02*
X183440000Y-128897748D01*
X179966252Y-115114000D02*
X179443748Y-115114000D01*
X179966252Y-116534000D02*
X179443748Y-116534000D01*
X124452748Y-104215000D02*
X124975252Y-104215000D01*
X124452748Y-102795000D02*
X124975252Y-102795000D01*
X121404748Y-128218000D02*
X121927252Y-128218000D01*
X121404748Y-126798000D02*
X121927252Y-126798000D01*
X181993000Y-122753000D02*
X181993000Y-123683000D01*
X181993000Y-125913000D02*
X181993000Y-124983000D01*
X181993000Y-125913000D02*
X184153000Y-125913000D01*
X181993000Y-122753000D02*
X183453000Y-122753000D01*
X180088000Y-129738000D02*
X180088000Y-130668000D01*
X180088000Y-132898000D02*
X180088000Y-131968000D01*
X180088000Y-132898000D02*
X182248000Y-132898000D01*
X180088000Y-129738000D02*
X181548000Y-129738000D01*
X177630000Y-65955000D02*
X183930000Y-65955000D01*
X178330000Y-78825000D02*
X183930000Y-78825000D01*
X173920000Y-65955000D02*
X175730000Y-65955000D01*
X173920000Y-78825000D02*
X173920000Y-67565000D01*
X175080000Y-78825000D02*
X173920000Y-78825000D01*
X173920000Y-66065000D02*
X173920000Y-65955000D01*
X191076000Y-94642000D02*
X191076000Y-102462000D01*
X181756000Y-100662000D02*
X181326000Y-100662000D01*
X191076000Y-94642000D02*
X189126000Y-94642000D01*
X186906000Y-94642000D02*
X183676000Y-94642000D01*
X181756000Y-96442000D02*
X181756000Y-95362000D01*
X181756000Y-101742000D02*
X181756000Y-100662000D01*
X186906000Y-102462000D02*
X183676000Y-102462000D01*
X191076000Y-102462000D02*
X189126000Y-102462000D01*
X190186000Y-126746000D02*
X192846000Y-126746000D01*
X190186000Y-126746000D02*
X190186000Y-134426000D01*
X190186000Y-134426000D02*
X192846000Y-134426000D01*
X192846000Y-126746000D02*
X192846000Y-134426000D01*
X192846000Y-124146000D02*
X192846000Y-125476000D01*
X191516000Y-124146000D02*
X192846000Y-124146000D01*
X118431000Y-104902000D02*
X121091000Y-104902000D01*
X118431000Y-104902000D02*
X118431000Y-110042000D01*
X118431000Y-110042000D02*
X121091000Y-110042000D01*
X121091000Y-104902000D02*
X121091000Y-110042000D01*
X121091000Y-102302000D02*
X121091000Y-103632000D01*
X119761000Y-102302000D02*
X121091000Y-102302000D01*
X130359000Y-95955000D02*
X130059000Y-95655000D01*
X130659000Y-95655000D02*
X130059000Y-95655000D01*
X130359000Y-95955000D02*
X130659000Y-95655000D01*
X131209000Y-96855000D02*
X131209000Y-97455000D01*
X127759000Y-96155000D02*
X130559000Y-96155000D01*
X127109000Y-97455000D02*
X127109000Y-96855000D01*
X130559000Y-98155000D02*
X127759000Y-98155000D01*
X127809000Y-98155000D02*
G75*
G02X127109000Y-97455000I0J700000D01*
G01*
X127109000Y-96855000D02*
G75*
G02X127809000Y-96155000I700000J0D01*
G01*
X130509000Y-96155000D02*
G75*
G02X131209000Y-96855000I0J-700000D01*
G01*
X131209000Y-97455000D02*
G75*
G02X130509000Y-98155000I-700000J0D01*
G01*
X126510000Y-97455000D02*
G75*
G02X125810000Y-98155000I-700000J0D01*
G01*
X125810000Y-96155000D02*
G75*
G02X126510000Y-96855000I0J-700000D01*
G01*
X122410000Y-96855000D02*
G75*
G02X123110000Y-96155000I700000J0D01*
G01*
X123110000Y-98155000D02*
G75*
G02X122410000Y-97455000I0J700000D01*
G01*
X125860000Y-98155000D02*
X123060000Y-98155000D01*
X122410000Y-97455000D02*
X122410000Y-96855000D01*
X123060000Y-96155000D02*
X125860000Y-96155000D01*
X126510000Y-96855000D02*
X126510000Y-97455000D01*
X125660000Y-95955000D02*
X125960000Y-95655000D01*
X125960000Y-95655000D02*
X125360000Y-95655000D01*
X125660000Y-95955000D02*
X125360000Y-95655000D01*
X120961000Y-95955000D02*
X120661000Y-95655000D01*
X121261000Y-95655000D02*
X120661000Y-95655000D01*
X120961000Y-95955000D02*
X121261000Y-95655000D01*
X121811000Y-96855000D02*
X121811000Y-97455000D01*
X118361000Y-96155000D02*
X121161000Y-96155000D01*
X117711000Y-97455000D02*
X117711000Y-96855000D01*
X121161000Y-98155000D02*
X118361000Y-98155000D01*
X118411000Y-98155000D02*
G75*
G02X117711000Y-97455000I0J700000D01*
G01*
X117711000Y-96855000D02*
G75*
G02X118411000Y-96155000I700000J0D01*
G01*
X121111000Y-96155000D02*
G75*
G02X121811000Y-96855000I0J-700000D01*
G01*
X121811000Y-97455000D02*
G75*
G02X121111000Y-98155000I-700000J0D01*
G01*
D12*
X99060000Y-137160000D02*
X99060000Y-66040000D01*
X99060000Y-66040000D02*
X114300000Y-66040000D01*
X114300000Y-66040000D02*
X114300000Y-137160000D01*
X114300000Y-137160000D02*
X99060000Y-137160000D01*
D11*
X121864000Y-122299000D02*
X121864000Y-120839000D01*
X125024000Y-122299000D02*
X125024000Y-120139000D01*
X125024000Y-122299000D02*
X124094000Y-122299000D01*
X121864000Y-122299000D02*
X122794000Y-122299000D01*
X120394000Y-122484000D02*
X120394000Y-121554000D01*
X120394000Y-119324000D02*
X120394000Y-120254000D01*
X120394000Y-119324000D02*
X118234000Y-119324000D01*
X120394000Y-122484000D02*
X118934000Y-122484000D01*
X120960000Y-64645000D02*
X120960000Y-66105000D01*
X117800000Y-64645000D02*
X117800000Y-66805000D01*
X117800000Y-64645000D02*
X118730000Y-64645000D01*
X120960000Y-64645000D02*
X120030000Y-64645000D01*
X116892000Y-61856252D02*
X116892000Y-61333748D01*
X118312000Y-61856252D02*
X118312000Y-61333748D01*
X126127252Y-128218000D02*
X125604748Y-128218000D01*
X126127252Y-126798000D02*
X125604748Y-126798000D01*
X128262748Y-123519000D02*
X128785252Y-123519000D01*
X128262748Y-122099000D02*
X128785252Y-122099000D01*
X120022252Y-118312000D02*
X119499748Y-118312000D01*
X120022252Y-116892000D02*
X119499748Y-116892000D01*
X179018000Y-122420748D02*
X179018000Y-122943252D01*
X177598000Y-122420748D02*
X177598000Y-122943252D01*
X119118748Y-67616000D02*
X119641252Y-67616000D01*
X119118748Y-69036000D02*
X119641252Y-69036000D01*
X154297748Y-76125000D02*
X154820252Y-76125000D01*
X154297748Y-77545000D02*
X154820252Y-77545000D01*
X161088000Y-95242748D02*
X161088000Y-95765252D01*
X162508000Y-95242748D02*
X162508000Y-95765252D01*
X173982748Y-113082000D02*
X174505252Y-113082000D01*
X173982748Y-114502000D02*
X174505252Y-114502000D01*
X131878000Y-88384748D02*
X131878000Y-88907252D01*
X133298000Y-88384748D02*
X133298000Y-88907252D01*
X130563252Y-94563000D02*
X130040748Y-94563000D01*
X130563252Y-93143000D02*
X130040748Y-93143000D01*
X132595252Y-77903000D02*
X132072748Y-77903000D01*
X132595252Y-79323000D02*
X132072748Y-79323000D01*
X130690252Y-74855000D02*
X130167748Y-74855000D01*
X130690252Y-76275000D02*
X130167748Y-76275000D01*
X128091000Y-76319748D02*
X128091000Y-76842252D01*
X126671000Y-76319748D02*
X126671000Y-76842252D01*
X186384000Y-114307252D02*
X186384000Y-113784748D01*
X184964000Y-114307252D02*
X184964000Y-113784748D01*
X186951252Y-120979000D02*
X186428748Y-120979000D01*
X186951252Y-119559000D02*
X186428748Y-119559000D01*
X174505252Y-110946000D02*
X173982748Y-110946000D01*
X174505252Y-109526000D02*
X173982748Y-109526000D01*
X179443748Y-119074000D02*
X179966252Y-119074000D01*
X179443748Y-117654000D02*
X179966252Y-117654000D01*
D10*
X124055000Y-62460000D02*
X124055000Y-62685000D01*
X127405000Y-62460000D02*
X127405000Y-62760000D01*
X127405000Y-65810000D02*
X127405000Y-65510000D01*
X124055000Y-65810000D02*
X124055000Y-65510000D01*
X124055000Y-62460000D02*
X127405000Y-62460000D01*
X124055000Y-65810000D02*
X127405000Y-65810000D01*
X124055000Y-62685000D02*
X122830000Y-62685000D01*
D11*
X175652000Y-121072000D02*
X173852000Y-121072000D01*
X173852000Y-124292000D02*
X176302000Y-124292000D01*
X125614000Y-98720000D02*
X123814000Y-98720000D01*
X123814000Y-101940000D02*
X126264000Y-101940000D01*
X120470000Y-86360000D02*
X120470000Y-90220000D01*
X120470000Y-90220000D02*
X120725000Y-90220000D01*
X120470000Y-86360000D02*
X120470000Y-82500000D01*
X120470000Y-82500000D02*
X120725000Y-82500000D01*
X130990000Y-86360000D02*
X130990000Y-90220000D01*
X130990000Y-90220000D02*
X130735000Y-90220000D01*
X130990000Y-86360000D02*
X130990000Y-82500000D01*
X130990000Y-82500000D02*
X130735000Y-82500000D01*
X130735000Y-82500000D02*
X130735000Y-80685000D01*
D10*
X140450000Y-65590000D02*
X142250000Y-65590000D01*
X140450000Y-66590000D02*
X140450000Y-65590000D01*
X171250000Y-60190000D02*
X171250000Y-64990000D01*
X170050000Y-60190000D02*
X171250000Y-60190000D01*
X164450000Y-61790000D02*
X170050000Y-60190000D01*
X152850000Y-61790000D02*
X164450000Y-61790000D01*
X152450000Y-62190000D02*
X152850000Y-61790000D01*
X141050000Y-62190000D02*
X152450000Y-62190000D01*
X141050000Y-64990000D02*
X141050000Y-62190000D01*
X171250000Y-135390000D02*
X171250000Y-130590000D01*
X170050000Y-135390000D02*
X171250000Y-135390000D01*
X164250000Y-133790000D02*
X170050000Y-135390000D01*
X152850000Y-133790000D02*
X164250000Y-133790000D01*
X152450000Y-133390000D02*
X152850000Y-133790000D01*
X141050000Y-133390000D02*
X152450000Y-133390000D01*
X141050000Y-130590000D02*
X141050000Y-133390000D01*
X151050000Y-63790000D02*
X155450000Y-63790000D01*
X151050000Y-64990000D02*
X151050000Y-63790000D01*
X160650000Y-64990000D02*
X171250000Y-64990000D01*
X160650000Y-130590000D02*
X171250000Y-130590000D01*
X151050000Y-131790000D02*
X151050000Y-130590000D01*
X155450000Y-131790000D02*
X151050000Y-131790000D01*
D11*
X134052000Y-139640000D02*
X134052000Y-144840000D01*
X182372000Y-139640000D02*
X134052000Y-139640000D01*
X184972000Y-144840000D02*
X134052000Y-144840000D01*
X182372000Y-139640000D02*
X182372000Y-142240000D01*
X182372000Y-142240000D02*
X184972000Y-142240000D01*
X184972000Y-142240000D02*
X184972000Y-144840000D01*
X183642000Y-139640000D02*
X184972000Y-139640000D01*
X184972000Y-139640000D02*
X184972000Y-140970000D01*
X105995000Y-61401000D02*
X105995000Y-60706000D01*
X106680000Y-61401000D02*
X105995000Y-61401000D01*
X107365000Y-60097724D02*
X107365000Y-60011000D01*
X107365000Y-61401000D02*
X107365000Y-61314276D01*
X107365000Y-60011000D02*
X111240000Y-60011000D01*
X107365000Y-61401000D02*
X111240000Y-61401000D01*
X111240000Y-60311507D02*
X111240000Y-60011000D01*
X111240000Y-61401000D02*
X111240000Y-61100493D01*
X113740000Y-59428748D02*
X113740000Y-59951252D01*
X112320000Y-59428748D02*
X112320000Y-59951252D01*
D10*
X186840904Y-137357380D02*
X186840904Y-136357380D01*
X187079000Y-136357380D01*
X187221857Y-136405000D01*
X187317095Y-136500238D01*
X187364714Y-136595476D01*
X187412333Y-136785952D01*
X187412333Y-136928809D01*
X187364714Y-137119285D01*
X187317095Y-137214523D01*
X187221857Y-137309761D01*
X187079000Y-137357380D01*
X186840904Y-137357380D01*
X187793285Y-136452619D02*
X187840904Y-136405000D01*
X187936142Y-136357380D01*
X188174238Y-136357380D01*
X188269476Y-136405000D01*
X188317095Y-136452619D01*
X188364714Y-136547857D01*
X188364714Y-136643095D01*
X188317095Y-136785952D01*
X187745666Y-137357380D01*
X188364714Y-137357380D01*
X182332333Y-137485380D02*
X181999000Y-137009190D01*
X181760904Y-137485380D02*
X181760904Y-136485380D01*
X182141857Y-136485380D01*
X182237095Y-136533000D01*
X182284714Y-136580619D01*
X182332333Y-136675857D01*
X182332333Y-136818714D01*
X182284714Y-136913952D01*
X182237095Y-136961571D01*
X182141857Y-137009190D01*
X181760904Y-137009190D01*
X182665666Y-136485380D02*
X183332333Y-136485380D01*
X182903761Y-137485380D01*
X185253333Y-82780142D02*
X185205714Y-82827761D01*
X185062857Y-82875380D01*
X184967619Y-82875380D01*
X184824761Y-82827761D01*
X184729523Y-82732523D01*
X184681904Y-82637285D01*
X184634285Y-82446809D01*
X184634285Y-82303952D01*
X184681904Y-82113476D01*
X184729523Y-82018238D01*
X184824761Y-81923000D01*
X184967619Y-81875380D01*
X185062857Y-81875380D01*
X185205714Y-81923000D01*
X185253333Y-81970619D01*
X186158095Y-81875380D02*
X185681904Y-81875380D01*
X185634285Y-82351571D01*
X185681904Y-82303952D01*
X185777142Y-82256333D01*
X186015238Y-82256333D01*
X186110476Y-82303952D01*
X186158095Y-82351571D01*
X186205714Y-82446809D01*
X186205714Y-82684904D01*
X186158095Y-82780142D01*
X186110476Y-82827761D01*
X186015238Y-82875380D01*
X185777142Y-82875380D01*
X185681904Y-82827761D01*
X185634285Y-82780142D01*
X157313333Y-75128380D02*
X156980000Y-74652190D01*
X156741904Y-75128380D02*
X156741904Y-74128380D01*
X157122857Y-74128380D01*
X157218095Y-74176000D01*
X157265714Y-74223619D01*
X157313333Y-74318857D01*
X157313333Y-74461714D01*
X157265714Y-74556952D01*
X157218095Y-74604571D01*
X157122857Y-74652190D01*
X156741904Y-74652190D01*
X157789523Y-75128380D02*
X157980000Y-75128380D01*
X158075238Y-75080761D01*
X158122857Y-75033142D01*
X158218095Y-74890285D01*
X158265714Y-74699809D01*
X158265714Y-74318857D01*
X158218095Y-74223619D01*
X158170476Y-74176000D01*
X158075238Y-74128380D01*
X157884761Y-74128380D01*
X157789523Y-74176000D01*
X157741904Y-74223619D01*
X157694285Y-74318857D01*
X157694285Y-74556952D01*
X157741904Y-74652190D01*
X157789523Y-74699809D01*
X157884761Y-74747428D01*
X158075238Y-74747428D01*
X158170476Y-74699809D01*
X158218095Y-74652190D01*
X158265714Y-74556952D01*
X121769285Y-132263571D02*
X121912142Y-132311190D01*
X121959761Y-132358809D01*
X122007380Y-132454047D01*
X122007380Y-132596904D01*
X121959761Y-132692142D01*
X121912142Y-132739761D01*
X121816904Y-132787380D01*
X121435952Y-132787380D01*
X121435952Y-131787380D01*
X121769285Y-131787380D01*
X121864523Y-131835000D01*
X121912142Y-131882619D01*
X121959761Y-131977857D01*
X121959761Y-132073095D01*
X121912142Y-132168333D01*
X121864523Y-132215952D01*
X121769285Y-132263571D01*
X121435952Y-132263571D01*
X122293095Y-131787380D02*
X122864523Y-131787380D01*
X122578809Y-132787380D02*
X122578809Y-131787380D01*
X123721666Y-132787380D02*
X123150238Y-132787380D01*
X123435952Y-132787380D02*
X123435952Y-131787380D01*
X123340714Y-131930238D01*
X123245476Y-132025476D01*
X123150238Y-132073095D01*
X102703333Y-62835142D02*
X102655714Y-62882761D01*
X102512857Y-62930380D01*
X102417619Y-62930380D01*
X102274761Y-62882761D01*
X102179523Y-62787523D01*
X102131904Y-62692285D01*
X102084285Y-62501809D01*
X102084285Y-62358952D01*
X102131904Y-62168476D01*
X102179523Y-62073238D01*
X102274761Y-61978000D01*
X102417619Y-61930380D01*
X102512857Y-61930380D01*
X102655714Y-61978000D01*
X102703333Y-62025619D01*
X103655714Y-62930380D02*
X103084285Y-62930380D01*
X103370000Y-62930380D02*
X103370000Y-61930380D01*
X103274761Y-62073238D01*
X103179523Y-62168476D01*
X103084285Y-62216095D01*
X173967142Y-118022666D02*
X174014761Y-118070285D01*
X174062380Y-118213142D01*
X174062380Y-118308380D01*
X174014761Y-118451238D01*
X173919523Y-118546476D01*
X173824285Y-118594095D01*
X173633809Y-118641714D01*
X173490952Y-118641714D01*
X173300476Y-118594095D01*
X173205238Y-118546476D01*
X173110000Y-118451238D01*
X173062380Y-118308380D01*
X173062380Y-118213142D01*
X173110000Y-118070285D01*
X173157619Y-118022666D01*
X173157619Y-117641714D02*
X173110000Y-117594095D01*
X173062380Y-117498857D01*
X173062380Y-117260761D01*
X173110000Y-117165523D01*
X173157619Y-117117904D01*
X173252857Y-117070285D01*
X173348095Y-117070285D01*
X173490952Y-117117904D01*
X174062380Y-117689333D01*
X174062380Y-117070285D01*
X176759142Y-126912666D02*
X176806761Y-126960285D01*
X176854380Y-127103142D01*
X176854380Y-127198380D01*
X176806761Y-127341238D01*
X176711523Y-127436476D01*
X176616285Y-127484095D01*
X176425809Y-127531714D01*
X176282952Y-127531714D01*
X176092476Y-127484095D01*
X175997238Y-127436476D01*
X175902000Y-127341238D01*
X175854380Y-127198380D01*
X175854380Y-127103142D01*
X175902000Y-126960285D01*
X175949619Y-126912666D01*
X175854380Y-126579333D02*
X175854380Y-125960285D01*
X176235333Y-126293619D01*
X176235333Y-126150761D01*
X176282952Y-126055523D01*
X176330571Y-126007904D01*
X176425809Y-125960285D01*
X176663904Y-125960285D01*
X176759142Y-126007904D01*
X176806761Y-126055523D01*
X176854380Y-126150761D01*
X176854380Y-126436476D01*
X176806761Y-126531714D01*
X176759142Y-126579333D01*
X122150142Y-62269666D02*
X122197761Y-62317285D01*
X122245380Y-62460142D01*
X122245380Y-62555380D01*
X122197761Y-62698238D01*
X122102523Y-62793476D01*
X122007285Y-62841095D01*
X121816809Y-62888714D01*
X121673952Y-62888714D01*
X121483476Y-62841095D01*
X121388238Y-62793476D01*
X121293000Y-62698238D01*
X121245380Y-62555380D01*
X121245380Y-62460142D01*
X121293000Y-62317285D01*
X121340619Y-62269666D01*
X121578714Y-61412523D02*
X122245380Y-61412523D01*
X121197761Y-61650619D02*
X121912047Y-61888714D01*
X121912047Y-61269666D01*
X137247333Y-131669142D02*
X137199714Y-131716761D01*
X137056857Y-131764380D01*
X136961619Y-131764380D01*
X136818761Y-131716761D01*
X136723523Y-131621523D01*
X136675904Y-131526285D01*
X136628285Y-131335809D01*
X136628285Y-131192952D01*
X136675904Y-131002476D01*
X136723523Y-130907238D01*
X136818761Y-130812000D01*
X136961619Y-130764380D01*
X137056857Y-130764380D01*
X137199714Y-130812000D01*
X137247333Y-130859619D01*
X138104476Y-130764380D02*
X137914000Y-130764380D01*
X137818761Y-130812000D01*
X137771142Y-130859619D01*
X137675904Y-131002476D01*
X137628285Y-131192952D01*
X137628285Y-131573904D01*
X137675904Y-131669142D01*
X137723523Y-131716761D01*
X137818761Y-131764380D01*
X138009238Y-131764380D01*
X138104476Y-131716761D01*
X138152095Y-131669142D01*
X138199714Y-131573904D01*
X138199714Y-131335809D01*
X138152095Y-131240571D01*
X138104476Y-131192952D01*
X138009238Y-131145333D01*
X137818761Y-131145333D01*
X137723523Y-131192952D01*
X137675904Y-131240571D01*
X137628285Y-131335809D01*
X137247333Y-123299142D02*
X137199714Y-123346761D01*
X137056857Y-123394380D01*
X136961619Y-123394380D01*
X136818761Y-123346761D01*
X136723523Y-123251523D01*
X136675904Y-123156285D01*
X136628285Y-122965809D01*
X136628285Y-122822952D01*
X136675904Y-122632476D01*
X136723523Y-122537238D01*
X136818761Y-122442000D01*
X136961619Y-122394380D01*
X137056857Y-122394380D01*
X137199714Y-122442000D01*
X137247333Y-122489619D01*
X137580666Y-122394380D02*
X138247333Y-122394380D01*
X137818761Y-123394380D01*
X135357142Y-82970666D02*
X135404761Y-83018285D01*
X135452380Y-83161142D01*
X135452380Y-83256380D01*
X135404761Y-83399238D01*
X135309523Y-83494476D01*
X135214285Y-83542095D01*
X135023809Y-83589714D01*
X134880952Y-83589714D01*
X134690476Y-83542095D01*
X134595238Y-83494476D01*
X134500000Y-83399238D01*
X134452380Y-83256380D01*
X134452380Y-83161142D01*
X134500000Y-83018285D01*
X134547619Y-82970666D01*
X135452380Y-82494476D02*
X135452380Y-82304000D01*
X135404761Y-82208761D01*
X135357142Y-82161142D01*
X135214285Y-82065904D01*
X135023809Y-82018285D01*
X134642857Y-82018285D01*
X134547619Y-82065904D01*
X134500000Y-82113523D01*
X134452380Y-82208761D01*
X134452380Y-82399238D01*
X134500000Y-82494476D01*
X134547619Y-82542095D01*
X134642857Y-82589714D01*
X134880952Y-82589714D01*
X134976190Y-82542095D01*
X135023809Y-82494476D01*
X135071428Y-82399238D01*
X135071428Y-82208761D01*
X135023809Y-82113523D01*
X134976190Y-82065904D01*
X134880952Y-82018285D01*
X186555142Y-125451142D02*
X186507523Y-125498761D01*
X186364666Y-125546380D01*
X186269428Y-125546380D01*
X186126571Y-125498761D01*
X186031333Y-125403523D01*
X185983714Y-125308285D01*
X185936095Y-125117809D01*
X185936095Y-124974952D01*
X185983714Y-124784476D01*
X186031333Y-124689238D01*
X186126571Y-124594000D01*
X186269428Y-124546380D01*
X186364666Y-124546380D01*
X186507523Y-124594000D01*
X186555142Y-124641619D01*
X187507523Y-125546380D02*
X186936095Y-125546380D01*
X187221809Y-125546380D02*
X187221809Y-124546380D01*
X187126571Y-124689238D01*
X187031333Y-124784476D01*
X186936095Y-124832095D01*
X188126571Y-124546380D02*
X188221809Y-124546380D01*
X188317047Y-124594000D01*
X188364666Y-124641619D01*
X188412285Y-124736857D01*
X188459904Y-124927333D01*
X188459904Y-125165428D01*
X188412285Y-125355904D01*
X188364666Y-125451142D01*
X188317047Y-125498761D01*
X188221809Y-125546380D01*
X188126571Y-125546380D01*
X188031333Y-125498761D01*
X187983714Y-125451142D01*
X187936095Y-125355904D01*
X187888476Y-125165428D01*
X187888476Y-124927333D01*
X187936095Y-124736857D01*
X187983714Y-124641619D01*
X188031333Y-124594000D01*
X188126571Y-124546380D01*
X189222142Y-117959142D02*
X189174523Y-118006761D01*
X189031666Y-118054380D01*
X188936428Y-118054380D01*
X188793571Y-118006761D01*
X188698333Y-117911523D01*
X188650714Y-117816285D01*
X188603095Y-117625809D01*
X188603095Y-117482952D01*
X188650714Y-117292476D01*
X188698333Y-117197238D01*
X188793571Y-117102000D01*
X188936428Y-117054380D01*
X189031666Y-117054380D01*
X189174523Y-117102000D01*
X189222142Y-117149619D01*
X190174523Y-118054380D02*
X189603095Y-118054380D01*
X189888809Y-118054380D02*
X189888809Y-117054380D01*
X189793571Y-117197238D01*
X189698333Y-117292476D01*
X189603095Y-117340095D01*
X191126904Y-118054380D02*
X190555476Y-118054380D01*
X190841190Y-118054380D02*
X190841190Y-117054380D01*
X190745952Y-117197238D01*
X190650714Y-117292476D01*
X190555476Y-117340095D01*
X186158142Y-129801857D02*
X186205761Y-129849476D01*
X186253380Y-129992333D01*
X186253380Y-130087571D01*
X186205761Y-130230428D01*
X186110523Y-130325666D01*
X186015285Y-130373285D01*
X185824809Y-130420904D01*
X185681952Y-130420904D01*
X185491476Y-130373285D01*
X185396238Y-130325666D01*
X185301000Y-130230428D01*
X185253380Y-130087571D01*
X185253380Y-129992333D01*
X185301000Y-129849476D01*
X185348619Y-129801857D01*
X186253380Y-128849476D02*
X186253380Y-129420904D01*
X186253380Y-129135190D02*
X185253380Y-129135190D01*
X185396238Y-129230428D01*
X185491476Y-129325666D01*
X185539095Y-129420904D01*
X185348619Y-128468523D02*
X185301000Y-128420904D01*
X185253380Y-128325666D01*
X185253380Y-128087571D01*
X185301000Y-127992333D01*
X185348619Y-127944714D01*
X185443857Y-127897095D01*
X185539095Y-127897095D01*
X185681952Y-127944714D01*
X186253380Y-128516142D01*
X186253380Y-127897095D01*
X179062142Y-114911142D02*
X179014523Y-114958761D01*
X178871666Y-115006380D01*
X178776428Y-115006380D01*
X178633571Y-114958761D01*
X178538333Y-114863523D01*
X178490714Y-114768285D01*
X178443095Y-114577809D01*
X178443095Y-114434952D01*
X178490714Y-114244476D01*
X178538333Y-114149238D01*
X178633571Y-114054000D01*
X178776428Y-114006380D01*
X178871666Y-114006380D01*
X179014523Y-114054000D01*
X179062142Y-114101619D01*
X180014523Y-115006380D02*
X179443095Y-115006380D01*
X179728809Y-115006380D02*
X179728809Y-114006380D01*
X179633571Y-114149238D01*
X179538333Y-114244476D01*
X179443095Y-114292095D01*
X180347857Y-114006380D02*
X180966904Y-114006380D01*
X180633571Y-114387333D01*
X180776428Y-114387333D01*
X180871666Y-114434952D01*
X180919285Y-114482571D01*
X180966904Y-114577809D01*
X180966904Y-114815904D01*
X180919285Y-114911142D01*
X180871666Y-114958761D01*
X180776428Y-115006380D01*
X180490714Y-115006380D01*
X180395476Y-114958761D01*
X180347857Y-114911142D01*
X124071142Y-105767142D02*
X124023523Y-105814761D01*
X123880666Y-105862380D01*
X123785428Y-105862380D01*
X123642571Y-105814761D01*
X123547333Y-105719523D01*
X123499714Y-105624285D01*
X123452095Y-105433809D01*
X123452095Y-105290952D01*
X123499714Y-105100476D01*
X123547333Y-105005238D01*
X123642571Y-104910000D01*
X123785428Y-104862380D01*
X123880666Y-104862380D01*
X124023523Y-104910000D01*
X124071142Y-104957619D01*
X125023523Y-105862380D02*
X124452095Y-105862380D01*
X124737809Y-105862380D02*
X124737809Y-104862380D01*
X124642571Y-105005238D01*
X124547333Y-105100476D01*
X124452095Y-105148095D01*
X125880666Y-105195714D02*
X125880666Y-105862380D01*
X125642571Y-104814761D02*
X125404476Y-105529047D01*
X126023523Y-105529047D01*
X120927904Y-129738380D02*
X120927904Y-128738380D01*
X121166000Y-128738380D01*
X121308857Y-128786000D01*
X121404095Y-128881238D01*
X121451714Y-128976476D01*
X121499333Y-129166952D01*
X121499333Y-129309809D01*
X121451714Y-129500285D01*
X121404095Y-129595523D01*
X121308857Y-129690761D01*
X121166000Y-129738380D01*
X120927904Y-129738380D01*
X122451714Y-129738380D02*
X121880285Y-129738380D01*
X122166000Y-129738380D02*
X122166000Y-128738380D01*
X122070761Y-128881238D01*
X121975523Y-128976476D01*
X121880285Y-129024095D01*
X180236904Y-125928380D02*
X180236904Y-124928380D01*
X180475000Y-124928380D01*
X180617857Y-124976000D01*
X180713095Y-125071238D01*
X180760714Y-125166476D01*
X180808333Y-125356952D01*
X180808333Y-125499809D01*
X180760714Y-125690285D01*
X180713095Y-125785523D01*
X180617857Y-125880761D01*
X180475000Y-125928380D01*
X180236904Y-125928380D01*
X181141666Y-124928380D02*
X181760714Y-124928380D01*
X181427380Y-125309333D01*
X181570238Y-125309333D01*
X181665476Y-125356952D01*
X181713095Y-125404571D01*
X181760714Y-125499809D01*
X181760714Y-125737904D01*
X181713095Y-125833142D01*
X181665476Y-125880761D01*
X181570238Y-125928380D01*
X181284523Y-125928380D01*
X181189285Y-125880761D01*
X181141666Y-125833142D01*
X183157904Y-132659380D02*
X183157904Y-131659380D01*
X183396000Y-131659380D01*
X183538857Y-131707000D01*
X183634095Y-131802238D01*
X183681714Y-131897476D01*
X183729333Y-132087952D01*
X183729333Y-132230809D01*
X183681714Y-132421285D01*
X183634095Y-132516523D01*
X183538857Y-132611761D01*
X183396000Y-132659380D01*
X183157904Y-132659380D01*
X184586476Y-131992714D02*
X184586476Y-132659380D01*
X184348380Y-131611761D02*
X184110285Y-132326047D01*
X184729333Y-132326047D01*
X171532380Y-72748333D02*
X172246666Y-72748333D01*
X172389523Y-72795952D01*
X172484761Y-72891190D01*
X172532380Y-73034047D01*
X172532380Y-73129285D01*
X171627619Y-72319761D02*
X171580000Y-72272142D01*
X171532380Y-72176904D01*
X171532380Y-71938809D01*
X171580000Y-71843571D01*
X171627619Y-71795952D01*
X171722857Y-71748333D01*
X171818095Y-71748333D01*
X171960952Y-71795952D01*
X172532380Y-72367380D01*
X172532380Y-71748333D01*
X179618380Y-98885333D02*
X180332666Y-98885333D01*
X180475523Y-98932952D01*
X180570761Y-99028190D01*
X180618380Y-99171047D01*
X180618380Y-99266285D01*
X179618380Y-98504380D02*
X179618380Y-97885333D01*
X179999333Y-98218666D01*
X179999333Y-98075809D01*
X180046952Y-97980571D01*
X180094571Y-97932952D01*
X180189809Y-97885333D01*
X180427904Y-97885333D01*
X180523142Y-97932952D01*
X180570761Y-97980571D01*
X180618380Y-98075809D01*
X180618380Y-98361523D01*
X180570761Y-98456761D01*
X180523142Y-98504380D01*
X188896666Y-127341380D02*
X188896666Y-128055666D01*
X188849047Y-128198523D01*
X188753809Y-128293761D01*
X188610952Y-128341380D01*
X188515714Y-128341380D01*
X189277619Y-127341380D02*
X189944285Y-127341380D01*
X189515714Y-128341380D01*
X116927380Y-108656333D02*
X117641666Y-108656333D01*
X117784523Y-108703952D01*
X117879761Y-108799190D01*
X117927380Y-108942047D01*
X117927380Y-109037285D01*
X117927380Y-108180142D02*
X116927380Y-108180142D01*
X116927380Y-107799190D01*
X116975000Y-107703952D01*
X117022619Y-107656333D01*
X117117857Y-107608714D01*
X117260714Y-107608714D01*
X117355952Y-107656333D01*
X117403571Y-107703952D01*
X117451190Y-107799190D01*
X117451190Y-108180142D01*
X117927380Y-106656333D02*
X117927380Y-107227761D01*
X117927380Y-106942047D02*
X116927380Y-106942047D01*
X117070238Y-107037285D01*
X117165476Y-107132523D01*
X117213095Y-107227761D01*
X127817666Y-94956380D02*
X127817666Y-95670666D01*
X127770047Y-95813523D01*
X127674809Y-95908761D01*
X127531952Y-95956380D01*
X127436714Y-95956380D01*
X128293857Y-95956380D02*
X128293857Y-94956380D01*
X128674809Y-94956380D01*
X128770047Y-95004000D01*
X128817666Y-95051619D01*
X128865285Y-95146857D01*
X128865285Y-95289714D01*
X128817666Y-95384952D01*
X128770047Y-95432571D01*
X128674809Y-95480190D01*
X128293857Y-95480190D01*
X129246238Y-95051619D02*
X129293857Y-95004000D01*
X129389095Y-94956380D01*
X129627190Y-94956380D01*
X129722428Y-95004000D01*
X129770047Y-95051619D01*
X129817666Y-95146857D01*
X129817666Y-95242095D01*
X129770047Y-95384952D01*
X129198619Y-95956380D01*
X129817666Y-95956380D01*
X123118666Y-94956380D02*
X123118666Y-95670666D01*
X123071047Y-95813523D01*
X122975809Y-95908761D01*
X122832952Y-95956380D01*
X122737714Y-95956380D01*
X123594857Y-95956380D02*
X123594857Y-94956380D01*
X123975809Y-94956380D01*
X124071047Y-95004000D01*
X124118666Y-95051619D01*
X124166285Y-95146857D01*
X124166285Y-95289714D01*
X124118666Y-95384952D01*
X124071047Y-95432571D01*
X123975809Y-95480190D01*
X123594857Y-95480190D01*
X124499619Y-94956380D02*
X125118666Y-94956380D01*
X124785333Y-95337333D01*
X124928190Y-95337333D01*
X125023428Y-95384952D01*
X125071047Y-95432571D01*
X125118666Y-95527809D01*
X125118666Y-95765904D01*
X125071047Y-95861142D01*
X125023428Y-95908761D01*
X124928190Y-95956380D01*
X124642476Y-95956380D01*
X124547238Y-95908761D01*
X124499619Y-95861142D01*
X118419666Y-94829380D02*
X118419666Y-95543666D01*
X118372047Y-95686523D01*
X118276809Y-95781761D01*
X118133952Y-95829380D01*
X118038714Y-95829380D01*
X118895857Y-95829380D02*
X118895857Y-94829380D01*
X119276809Y-94829380D01*
X119372047Y-94877000D01*
X119419666Y-94924619D01*
X119467285Y-95019857D01*
X119467285Y-95162714D01*
X119419666Y-95257952D01*
X119372047Y-95305571D01*
X119276809Y-95353190D01*
X118895857Y-95353190D01*
X120324428Y-95162714D02*
X120324428Y-95829380D01*
X120086333Y-94781761D02*
X119848238Y-95496047D01*
X120467285Y-95496047D01*
D13*
X101019428Y-102724857D02*
X99495428Y-102724857D01*
X99495428Y-102144285D01*
X99568000Y-101999142D01*
X99640571Y-101926571D01*
X99785714Y-101854000D01*
X100003428Y-101854000D01*
X100148571Y-101926571D01*
X100221142Y-101999142D01*
X100293714Y-102144285D01*
X100293714Y-102724857D01*
X101019428Y-100402571D02*
X101019428Y-101273428D01*
X101019428Y-100838000D02*
X99495428Y-100838000D01*
X99713142Y-100983142D01*
X99858285Y-101128285D01*
X99930857Y-101273428D01*
X113719428Y-104938285D02*
X112195428Y-104938285D01*
X112195428Y-104357714D01*
X112268000Y-104212571D01*
X112340571Y-104140000D01*
X112485714Y-104067428D01*
X112703428Y-104067428D01*
X112848571Y-104140000D01*
X112921142Y-104212571D01*
X112993714Y-104357714D01*
X112993714Y-104938285D01*
X113574285Y-102543428D02*
X113646857Y-102616000D01*
X113719428Y-102833714D01*
X113719428Y-102978857D01*
X113646857Y-103196571D01*
X113501714Y-103341714D01*
X113356571Y-103414285D01*
X113066285Y-103486857D01*
X112848571Y-103486857D01*
X112558285Y-103414285D01*
X112413142Y-103341714D01*
X112268000Y-103196571D01*
X112195428Y-102978857D01*
X112195428Y-102833714D01*
X112268000Y-102616000D01*
X112340571Y-102543428D01*
X113719428Y-101092000D02*
X113719428Y-101962857D01*
X113719428Y-101527428D02*
X112195428Y-101527428D01*
X112413142Y-101672571D01*
X112558285Y-101817714D01*
X112630857Y-101962857D01*
X112195428Y-100148571D02*
X112195428Y-100003428D01*
X112268000Y-99858285D01*
X112340571Y-99785714D01*
X112485714Y-99713142D01*
X112776000Y-99640571D01*
X113138857Y-99640571D01*
X113429142Y-99713142D01*
X113574285Y-99785714D01*
X113646857Y-99858285D01*
X113719428Y-100003428D01*
X113719428Y-100148571D01*
X113646857Y-100293714D01*
X113574285Y-100366285D01*
X113429142Y-100438857D01*
X113138857Y-100511428D01*
X112776000Y-100511428D01*
X112485714Y-100438857D01*
X112340571Y-100366285D01*
X112268000Y-100293714D01*
X112195428Y-100148571D01*
X112703428Y-98334285D02*
X113719428Y-98334285D01*
X112122857Y-98697142D02*
X113211428Y-99060000D01*
X113211428Y-98116571D01*
D10*
X126491619Y-121634238D02*
X126444000Y-121729476D01*
X126348761Y-121824714D01*
X126205904Y-121967571D01*
X126158285Y-122062809D01*
X126158285Y-122158047D01*
X126396380Y-122110428D02*
X126348761Y-122205666D01*
X126253523Y-122300904D01*
X126063047Y-122348523D01*
X125729714Y-122348523D01*
X125539238Y-122300904D01*
X125444000Y-122205666D01*
X125396380Y-122110428D01*
X125396380Y-121919952D01*
X125444000Y-121824714D01*
X125539238Y-121729476D01*
X125729714Y-121681857D01*
X126063047Y-121681857D01*
X126253523Y-121729476D01*
X126348761Y-121824714D01*
X126396380Y-121919952D01*
X126396380Y-122110428D01*
X126396380Y-120729476D02*
X126396380Y-121300904D01*
X126396380Y-121015190D02*
X125396380Y-121015190D01*
X125539238Y-121110428D01*
X125634476Y-121205666D01*
X125682095Y-121300904D01*
X116998761Y-121451619D02*
X116903523Y-121404000D01*
X116808285Y-121308761D01*
X116665428Y-121165904D01*
X116570190Y-121118285D01*
X116474952Y-121118285D01*
X116522571Y-121356380D02*
X116427333Y-121308761D01*
X116332095Y-121213523D01*
X116284476Y-121023047D01*
X116284476Y-120689714D01*
X116332095Y-120499238D01*
X116427333Y-120404000D01*
X116522571Y-120356380D01*
X116713047Y-120356380D01*
X116808285Y-120404000D01*
X116903523Y-120499238D01*
X116951142Y-120689714D01*
X116951142Y-121023047D01*
X116903523Y-121213523D01*
X116808285Y-121308761D01*
X116713047Y-121356380D01*
X116522571Y-121356380D01*
X117332095Y-120451619D02*
X117379714Y-120404000D01*
X117474952Y-120356380D01*
X117713047Y-120356380D01*
X117808285Y-120404000D01*
X117855904Y-120451619D01*
X117903523Y-120546857D01*
X117903523Y-120642095D01*
X117855904Y-120784952D01*
X117284476Y-121356380D01*
X117903523Y-121356380D01*
X117427619Y-65500238D02*
X117380000Y-65595476D01*
X117284761Y-65690714D01*
X117141904Y-65833571D01*
X117094285Y-65928809D01*
X117094285Y-66024047D01*
X117332380Y-65976428D02*
X117284761Y-66071666D01*
X117189523Y-66166904D01*
X116999047Y-66214523D01*
X116665714Y-66214523D01*
X116475238Y-66166904D01*
X116380000Y-66071666D01*
X116332380Y-65976428D01*
X116332380Y-65785952D01*
X116380000Y-65690714D01*
X116475238Y-65595476D01*
X116665714Y-65547857D01*
X116999047Y-65547857D01*
X117189523Y-65595476D01*
X117284761Y-65690714D01*
X117332380Y-65785952D01*
X117332380Y-65976428D01*
X116332380Y-65214523D02*
X116332380Y-64595476D01*
X116713333Y-64928809D01*
X116713333Y-64785952D01*
X116760952Y-64690714D01*
X116808571Y-64643095D01*
X116903809Y-64595476D01*
X117141904Y-64595476D01*
X117237142Y-64643095D01*
X117284761Y-64690714D01*
X117332380Y-64785952D01*
X117332380Y-65071666D01*
X117284761Y-65166904D01*
X117237142Y-65214523D01*
X116404380Y-61761666D02*
X115928190Y-62095000D01*
X116404380Y-62333095D02*
X115404380Y-62333095D01*
X115404380Y-61952142D01*
X115452000Y-61856904D01*
X115499619Y-61809285D01*
X115594857Y-61761666D01*
X115737714Y-61761666D01*
X115832952Y-61809285D01*
X115880571Y-61856904D01*
X115928190Y-61952142D01*
X115928190Y-62333095D01*
X116404380Y-60809285D02*
X116404380Y-61380714D01*
X116404380Y-61095000D02*
X115404380Y-61095000D01*
X115547238Y-61190238D01*
X115642476Y-61285476D01*
X115690095Y-61380714D01*
X125699333Y-129610380D02*
X125366000Y-129134190D01*
X125127904Y-129610380D02*
X125127904Y-128610380D01*
X125508857Y-128610380D01*
X125604095Y-128658000D01*
X125651714Y-128705619D01*
X125699333Y-128800857D01*
X125699333Y-128943714D01*
X125651714Y-129038952D01*
X125604095Y-129086571D01*
X125508857Y-129134190D01*
X125127904Y-129134190D01*
X126080285Y-128705619D02*
X126127904Y-128658000D01*
X126223142Y-128610380D01*
X126461238Y-128610380D01*
X126556476Y-128658000D01*
X126604095Y-128705619D01*
X126651714Y-128800857D01*
X126651714Y-128896095D01*
X126604095Y-129038952D01*
X126032666Y-129610380D01*
X126651714Y-129610380D01*
X128357333Y-121611380D02*
X128024000Y-121135190D01*
X127785904Y-121611380D02*
X127785904Y-120611380D01*
X128166857Y-120611380D01*
X128262095Y-120659000D01*
X128309714Y-120706619D01*
X128357333Y-120801857D01*
X128357333Y-120944714D01*
X128309714Y-121039952D01*
X128262095Y-121087571D01*
X128166857Y-121135190D01*
X127785904Y-121135190D01*
X128690666Y-120611380D02*
X129309714Y-120611380D01*
X128976380Y-120992333D01*
X129119238Y-120992333D01*
X129214476Y-121039952D01*
X129262095Y-121087571D01*
X129309714Y-121182809D01*
X129309714Y-121420904D01*
X129262095Y-121516142D01*
X129214476Y-121563761D01*
X129119238Y-121611380D01*
X128833523Y-121611380D01*
X128738285Y-121563761D01*
X128690666Y-121516142D01*
X119467333Y-116657380D02*
X119134000Y-116181190D01*
X118895904Y-116657380D02*
X118895904Y-115657380D01*
X119276857Y-115657380D01*
X119372095Y-115705000D01*
X119419714Y-115752619D01*
X119467333Y-115847857D01*
X119467333Y-115990714D01*
X119419714Y-116085952D01*
X119372095Y-116133571D01*
X119276857Y-116181190D01*
X118895904Y-116181190D01*
X120324476Y-115990714D02*
X120324476Y-116657380D01*
X120086380Y-115609761D02*
X119848285Y-116324047D01*
X120467333Y-116324047D01*
X180410380Y-122848666D02*
X179934190Y-123182000D01*
X180410380Y-123420095D02*
X179410380Y-123420095D01*
X179410380Y-123039142D01*
X179458000Y-122943904D01*
X179505619Y-122896285D01*
X179600857Y-122848666D01*
X179743714Y-122848666D01*
X179838952Y-122896285D01*
X179886571Y-122943904D01*
X179934190Y-123039142D01*
X179934190Y-123420095D01*
X179410380Y-121943904D02*
X179410380Y-122420095D01*
X179886571Y-122467714D01*
X179838952Y-122420095D01*
X179791333Y-122324857D01*
X179791333Y-122086761D01*
X179838952Y-121991523D01*
X179886571Y-121943904D01*
X179981809Y-121896285D01*
X180219904Y-121896285D01*
X180315142Y-121943904D01*
X180362761Y-121991523D01*
X180410380Y-122086761D01*
X180410380Y-122324857D01*
X180362761Y-122420095D01*
X180315142Y-122467714D01*
X119213333Y-70683380D02*
X118880000Y-70207190D01*
X118641904Y-70683380D02*
X118641904Y-69683380D01*
X119022857Y-69683380D01*
X119118095Y-69731000D01*
X119165714Y-69778619D01*
X119213333Y-69873857D01*
X119213333Y-70016714D01*
X119165714Y-70111952D01*
X119118095Y-70159571D01*
X119022857Y-70207190D01*
X118641904Y-70207190D01*
X120070476Y-69683380D02*
X119880000Y-69683380D01*
X119784761Y-69731000D01*
X119737142Y-69778619D01*
X119641904Y-69921476D01*
X119594285Y-70111952D01*
X119594285Y-70492904D01*
X119641904Y-70588142D01*
X119689523Y-70635761D01*
X119784761Y-70683380D01*
X119975238Y-70683380D01*
X120070476Y-70635761D01*
X120118095Y-70588142D01*
X120165714Y-70492904D01*
X120165714Y-70254809D01*
X120118095Y-70159571D01*
X120070476Y-70111952D01*
X119975238Y-70064333D01*
X119784761Y-70064333D01*
X119689523Y-70111952D01*
X119641904Y-70159571D01*
X119594285Y-70254809D01*
X157186333Y-77287380D02*
X156853000Y-76811190D01*
X156614904Y-77287380D02*
X156614904Y-76287380D01*
X156995857Y-76287380D01*
X157091095Y-76335000D01*
X157138714Y-76382619D01*
X157186333Y-76477857D01*
X157186333Y-76620714D01*
X157138714Y-76715952D01*
X157091095Y-76763571D01*
X156995857Y-76811190D01*
X156614904Y-76811190D01*
X157757761Y-76715952D02*
X157662523Y-76668333D01*
X157614904Y-76620714D01*
X157567285Y-76525476D01*
X157567285Y-76477857D01*
X157614904Y-76382619D01*
X157662523Y-76335000D01*
X157757761Y-76287380D01*
X157948238Y-76287380D01*
X158043476Y-76335000D01*
X158091095Y-76382619D01*
X158138714Y-76477857D01*
X158138714Y-76525476D01*
X158091095Y-76620714D01*
X158043476Y-76668333D01*
X157948238Y-76715952D01*
X157757761Y-76715952D01*
X157662523Y-76763571D01*
X157614904Y-76811190D01*
X157567285Y-76906428D01*
X157567285Y-77096904D01*
X157614904Y-77192142D01*
X157662523Y-77239761D01*
X157757761Y-77287380D01*
X157948238Y-77287380D01*
X158043476Y-77239761D01*
X158091095Y-77192142D01*
X158138714Y-77096904D01*
X158138714Y-76906428D01*
X158091095Y-76811190D01*
X158043476Y-76763571D01*
X157948238Y-76715952D01*
X163900380Y-96146857D02*
X163424190Y-96480190D01*
X163900380Y-96718285D02*
X162900380Y-96718285D01*
X162900380Y-96337333D01*
X162948000Y-96242095D01*
X162995619Y-96194476D01*
X163090857Y-96146857D01*
X163233714Y-96146857D01*
X163328952Y-96194476D01*
X163376571Y-96242095D01*
X163424190Y-96337333D01*
X163424190Y-96718285D01*
X163900380Y-95194476D02*
X163900380Y-95765904D01*
X163900380Y-95480190D02*
X162900380Y-95480190D01*
X163043238Y-95575428D01*
X163138476Y-95670666D01*
X163186095Y-95765904D01*
X162900380Y-94575428D02*
X162900380Y-94480190D01*
X162948000Y-94384952D01*
X162995619Y-94337333D01*
X163090857Y-94289714D01*
X163281333Y-94242095D01*
X163519428Y-94242095D01*
X163709904Y-94289714D01*
X163805142Y-94337333D01*
X163852761Y-94384952D01*
X163900380Y-94480190D01*
X163900380Y-94575428D01*
X163852761Y-94670666D01*
X163805142Y-94718285D01*
X163709904Y-94765904D01*
X163519428Y-94813523D01*
X163281333Y-94813523D01*
X163090857Y-94765904D01*
X162995619Y-94718285D01*
X162948000Y-94670666D01*
X162900380Y-94575428D01*
X173601142Y-115768380D02*
X173267809Y-115292190D01*
X173029714Y-115768380D02*
X173029714Y-114768380D01*
X173410666Y-114768380D01*
X173505904Y-114816000D01*
X173553523Y-114863619D01*
X173601142Y-114958857D01*
X173601142Y-115101714D01*
X173553523Y-115196952D01*
X173505904Y-115244571D01*
X173410666Y-115292190D01*
X173029714Y-115292190D01*
X174553523Y-115768380D02*
X173982095Y-115768380D01*
X174267809Y-115768380D02*
X174267809Y-114768380D01*
X174172571Y-114911238D01*
X174077333Y-115006476D01*
X173982095Y-115054095D01*
X175505904Y-115768380D02*
X174934476Y-115768380D01*
X175220190Y-115768380D02*
X175220190Y-114768380D01*
X175124952Y-114911238D01*
X175029714Y-115006476D01*
X174934476Y-115054095D01*
X134690380Y-89288857D02*
X134214190Y-89622190D01*
X134690380Y-89860285D02*
X133690380Y-89860285D01*
X133690380Y-89479333D01*
X133738000Y-89384095D01*
X133785619Y-89336476D01*
X133880857Y-89288857D01*
X134023714Y-89288857D01*
X134118952Y-89336476D01*
X134166571Y-89384095D01*
X134214190Y-89479333D01*
X134214190Y-89860285D01*
X134690380Y-88336476D02*
X134690380Y-88907904D01*
X134690380Y-88622190D02*
X133690380Y-88622190D01*
X133833238Y-88717428D01*
X133928476Y-88812666D01*
X133976095Y-88907904D01*
X133785619Y-87955523D02*
X133738000Y-87907904D01*
X133690380Y-87812666D01*
X133690380Y-87574571D01*
X133738000Y-87479333D01*
X133785619Y-87431714D01*
X133880857Y-87384095D01*
X133976095Y-87384095D01*
X134118952Y-87431714D01*
X134690380Y-88003142D01*
X134690380Y-87384095D01*
X132707142Y-94305380D02*
X132373809Y-93829190D01*
X132135714Y-94305380D02*
X132135714Y-93305380D01*
X132516666Y-93305380D01*
X132611904Y-93353000D01*
X132659523Y-93400619D01*
X132707142Y-93495857D01*
X132707142Y-93638714D01*
X132659523Y-93733952D01*
X132611904Y-93781571D01*
X132516666Y-93829190D01*
X132135714Y-93829190D01*
X133659523Y-94305380D02*
X133088095Y-94305380D01*
X133373809Y-94305380D02*
X133373809Y-93305380D01*
X133278571Y-93448238D01*
X133183333Y-93543476D01*
X133088095Y-93591095D01*
X133992857Y-93305380D02*
X134611904Y-93305380D01*
X134278571Y-93686333D01*
X134421428Y-93686333D01*
X134516666Y-93733952D01*
X134564285Y-93781571D01*
X134611904Y-93876809D01*
X134611904Y-94114904D01*
X134564285Y-94210142D01*
X134516666Y-94257761D01*
X134421428Y-94305380D01*
X134135714Y-94305380D01*
X134040476Y-94257761D01*
X133992857Y-94210142D01*
X130421142Y-80715380D02*
X130087809Y-80239190D01*
X129849714Y-80715380D02*
X129849714Y-79715380D01*
X130230666Y-79715380D01*
X130325904Y-79763000D01*
X130373523Y-79810619D01*
X130421142Y-79905857D01*
X130421142Y-80048714D01*
X130373523Y-80143952D01*
X130325904Y-80191571D01*
X130230666Y-80239190D01*
X129849714Y-80239190D01*
X131373523Y-80715380D02*
X130802095Y-80715380D01*
X131087809Y-80715380D02*
X131087809Y-79715380D01*
X130992571Y-79858238D01*
X130897333Y-79953476D01*
X130802095Y-80001095D01*
X132230666Y-80048714D02*
X132230666Y-80715380D01*
X131992571Y-79667761D02*
X131754476Y-80382047D01*
X132373523Y-80382047D01*
X129786142Y-74493380D02*
X129452809Y-74017190D01*
X129214714Y-74493380D02*
X129214714Y-73493380D01*
X129595666Y-73493380D01*
X129690904Y-73541000D01*
X129738523Y-73588619D01*
X129786142Y-73683857D01*
X129786142Y-73826714D01*
X129738523Y-73921952D01*
X129690904Y-73969571D01*
X129595666Y-74017190D01*
X129214714Y-74017190D01*
X130738523Y-74493380D02*
X130167095Y-74493380D01*
X130452809Y-74493380D02*
X130452809Y-73493380D01*
X130357571Y-73636238D01*
X130262333Y-73731476D01*
X130167095Y-73779095D01*
X131643285Y-73493380D02*
X131167095Y-73493380D01*
X131119476Y-73969571D01*
X131167095Y-73921952D01*
X131262333Y-73874333D01*
X131500428Y-73874333D01*
X131595666Y-73921952D01*
X131643285Y-73969571D01*
X131690904Y-74064809D01*
X131690904Y-74302904D01*
X131643285Y-74398142D01*
X131595666Y-74445761D01*
X131500428Y-74493380D01*
X131262333Y-74493380D01*
X131167095Y-74445761D01*
X131119476Y-74398142D01*
X129357380Y-78747857D02*
X128881190Y-79081190D01*
X129357380Y-79319285D02*
X128357380Y-79319285D01*
X128357380Y-78938333D01*
X128405000Y-78843095D01*
X128452619Y-78795476D01*
X128547857Y-78747857D01*
X128690714Y-78747857D01*
X128785952Y-78795476D01*
X128833571Y-78843095D01*
X128881190Y-78938333D01*
X128881190Y-79319285D01*
X129357380Y-77795476D02*
X129357380Y-78366904D01*
X129357380Y-78081190D02*
X128357380Y-78081190D01*
X128500238Y-78176428D01*
X128595476Y-78271666D01*
X128643095Y-78366904D01*
X128357380Y-76938333D02*
X128357380Y-77128809D01*
X128405000Y-77224047D01*
X128452619Y-77271666D01*
X128595476Y-77366904D01*
X128785952Y-77414523D01*
X129166904Y-77414523D01*
X129262142Y-77366904D01*
X129309761Y-77319285D01*
X129357380Y-77224047D01*
X129357380Y-77033571D01*
X129309761Y-76938333D01*
X129262142Y-76890714D01*
X129166904Y-76843095D01*
X128928809Y-76843095D01*
X128833571Y-76890714D01*
X128785952Y-76938333D01*
X128738333Y-77033571D01*
X128738333Y-77224047D01*
X128785952Y-77319285D01*
X128833571Y-77366904D01*
X128928809Y-77414523D01*
X184476380Y-114688857D02*
X184000190Y-115022190D01*
X184476380Y-115260285D02*
X183476380Y-115260285D01*
X183476380Y-114879333D01*
X183524000Y-114784095D01*
X183571619Y-114736476D01*
X183666857Y-114688857D01*
X183809714Y-114688857D01*
X183904952Y-114736476D01*
X183952571Y-114784095D01*
X184000190Y-114879333D01*
X184000190Y-115260285D01*
X184476380Y-113736476D02*
X184476380Y-114307904D01*
X184476380Y-114022190D02*
X183476380Y-114022190D01*
X183619238Y-114117428D01*
X183714476Y-114212666D01*
X183762095Y-114307904D01*
X183476380Y-113403142D02*
X183476380Y-112736476D01*
X184476380Y-113165047D01*
X189222142Y-120848380D02*
X188888809Y-120372190D01*
X188650714Y-120848380D02*
X188650714Y-119848380D01*
X189031666Y-119848380D01*
X189126904Y-119896000D01*
X189174523Y-119943619D01*
X189222142Y-120038857D01*
X189222142Y-120181714D01*
X189174523Y-120276952D01*
X189126904Y-120324571D01*
X189031666Y-120372190D01*
X188650714Y-120372190D01*
X190174523Y-120848380D02*
X189603095Y-120848380D01*
X189888809Y-120848380D02*
X189888809Y-119848380D01*
X189793571Y-119991238D01*
X189698333Y-120086476D01*
X189603095Y-120134095D01*
X190745952Y-120276952D02*
X190650714Y-120229333D01*
X190603095Y-120181714D01*
X190555476Y-120086476D01*
X190555476Y-120038857D01*
X190603095Y-119943619D01*
X190650714Y-119896000D01*
X190745952Y-119848380D01*
X190936428Y-119848380D01*
X191031666Y-119896000D01*
X191079285Y-119943619D01*
X191126904Y-120038857D01*
X191126904Y-120086476D01*
X191079285Y-120181714D01*
X191031666Y-120229333D01*
X190936428Y-120276952D01*
X190745952Y-120276952D01*
X190650714Y-120324571D01*
X190603095Y-120372190D01*
X190555476Y-120467428D01*
X190555476Y-120657904D01*
X190603095Y-120753142D01*
X190650714Y-120800761D01*
X190745952Y-120848380D01*
X190936428Y-120848380D01*
X191031666Y-120800761D01*
X191079285Y-120753142D01*
X191126904Y-120657904D01*
X191126904Y-120467428D01*
X191079285Y-120372190D01*
X191031666Y-120324571D01*
X190936428Y-120276952D01*
X173728142Y-109164380D02*
X173394809Y-108688190D01*
X173156714Y-109164380D02*
X173156714Y-108164380D01*
X173537666Y-108164380D01*
X173632904Y-108212000D01*
X173680523Y-108259619D01*
X173728142Y-108354857D01*
X173728142Y-108497714D01*
X173680523Y-108592952D01*
X173632904Y-108640571D01*
X173537666Y-108688190D01*
X173156714Y-108688190D01*
X174680523Y-109164380D02*
X174109095Y-109164380D01*
X174394809Y-109164380D02*
X174394809Y-108164380D01*
X174299571Y-108307238D01*
X174204333Y-108402476D01*
X174109095Y-108450095D01*
X175156714Y-109164380D02*
X175347190Y-109164380D01*
X175442428Y-109116761D01*
X175490047Y-109069142D01*
X175585285Y-108926285D01*
X175632904Y-108735809D01*
X175632904Y-108354857D01*
X175585285Y-108259619D01*
X175537666Y-108212000D01*
X175442428Y-108164380D01*
X175251952Y-108164380D01*
X175156714Y-108212000D01*
X175109095Y-108259619D01*
X175061476Y-108354857D01*
X175061476Y-108592952D01*
X175109095Y-108688190D01*
X175156714Y-108735809D01*
X175251952Y-108783428D01*
X175442428Y-108783428D01*
X175537666Y-108735809D01*
X175585285Y-108688190D01*
X175632904Y-108592952D01*
X179062142Y-120721380D02*
X178728809Y-120245190D01*
X178490714Y-120721380D02*
X178490714Y-119721380D01*
X178871666Y-119721380D01*
X178966904Y-119769000D01*
X179014523Y-119816619D01*
X179062142Y-119911857D01*
X179062142Y-120054714D01*
X179014523Y-120149952D01*
X178966904Y-120197571D01*
X178871666Y-120245190D01*
X178490714Y-120245190D01*
X179443095Y-119816619D02*
X179490714Y-119769000D01*
X179585952Y-119721380D01*
X179824047Y-119721380D01*
X179919285Y-119769000D01*
X179966904Y-119816619D01*
X180014523Y-119911857D01*
X180014523Y-120007095D01*
X179966904Y-120149952D01*
X179395476Y-120721380D01*
X180014523Y-120721380D01*
X180633571Y-119721380D02*
X180728809Y-119721380D01*
X180824047Y-119769000D01*
X180871666Y-119816619D01*
X180919285Y-119911857D01*
X180966904Y-120102333D01*
X180966904Y-120340428D01*
X180919285Y-120530904D01*
X180871666Y-120626142D01*
X180824047Y-120673761D01*
X180728809Y-120721380D01*
X180633571Y-120721380D01*
X180538333Y-120673761D01*
X180490714Y-120626142D01*
X180443095Y-120530904D01*
X180395476Y-120340428D01*
X180395476Y-120102333D01*
X180443095Y-119911857D01*
X180490714Y-119816619D01*
X180538333Y-119769000D01*
X180633571Y-119721380D01*
X124968095Y-60987380D02*
X124968095Y-61796904D01*
X125015714Y-61892142D01*
X125063333Y-61939761D01*
X125158571Y-61987380D01*
X125349047Y-61987380D01*
X125444285Y-61939761D01*
X125491904Y-61892142D01*
X125539523Y-61796904D01*
X125539523Y-60987380D01*
X126539523Y-61987380D02*
X125968095Y-61987380D01*
X126253809Y-61987380D02*
X126253809Y-60987380D01*
X126158571Y-61130238D01*
X126063333Y-61225476D01*
X125968095Y-61273095D01*
X173736095Y-119848380D02*
X173736095Y-120657904D01*
X173783714Y-120753142D01*
X173831333Y-120800761D01*
X173926571Y-120848380D01*
X174117047Y-120848380D01*
X174212285Y-120800761D01*
X174259904Y-120753142D01*
X174307523Y-120657904D01*
X174307523Y-119848380D01*
X174736095Y-119943619D02*
X174783714Y-119896000D01*
X174878952Y-119848380D01*
X175117047Y-119848380D01*
X175212285Y-119896000D01*
X175259904Y-119943619D01*
X175307523Y-120038857D01*
X175307523Y-120134095D01*
X175259904Y-120276952D01*
X174688476Y-120848380D01*
X175307523Y-120848380D01*
X126746095Y-101052380D02*
X126746095Y-101861904D01*
X126793714Y-101957142D01*
X126841333Y-102004761D01*
X126936571Y-102052380D01*
X127127047Y-102052380D01*
X127222285Y-102004761D01*
X127269904Y-101957142D01*
X127317523Y-101861904D01*
X127317523Y-101052380D01*
X127698476Y-101052380D02*
X128317523Y-101052380D01*
X127984190Y-101433333D01*
X128127047Y-101433333D01*
X128222285Y-101480952D01*
X128269904Y-101528571D01*
X128317523Y-101623809D01*
X128317523Y-101861904D01*
X128269904Y-101957142D01*
X128222285Y-102004761D01*
X128127047Y-102052380D01*
X127841333Y-102052380D01*
X127746095Y-102004761D01*
X127698476Y-101957142D01*
X131282380Y-87121904D02*
X132091904Y-87121904D01*
X132187142Y-87074285D01*
X132234761Y-87026666D01*
X132282380Y-86931428D01*
X132282380Y-86740952D01*
X132234761Y-86645714D01*
X132187142Y-86598095D01*
X132091904Y-86550476D01*
X131282380Y-86550476D01*
X131615714Y-85645714D02*
X132282380Y-85645714D01*
X131234761Y-85883809D02*
X131949047Y-86121904D01*
X131949047Y-85502857D01*
X185424380Y-142573333D02*
X186138666Y-142573333D01*
X186281523Y-142620952D01*
X186376761Y-142716190D01*
X186424380Y-142859047D01*
X186424380Y-142954285D01*
X185424380Y-141668571D02*
X185424380Y-141859047D01*
X185472000Y-141954285D01*
X185519619Y-142001904D01*
X185662476Y-142097142D01*
X185852952Y-142144761D01*
X186233904Y-142144761D01*
X186329142Y-142097142D01*
X186376761Y-142049523D01*
X186424380Y-141954285D01*
X186424380Y-141763809D01*
X186376761Y-141668571D01*
X186329142Y-141620952D01*
X186233904Y-141573333D01*
X185995809Y-141573333D01*
X185900571Y-141620952D01*
X185852952Y-141668571D01*
X185805333Y-141763809D01*
X185805333Y-141954285D01*
X185852952Y-142049523D01*
X185900571Y-142097142D01*
X185995809Y-142144761D01*
X108632666Y-58761380D02*
X108632666Y-59475666D01*
X108585047Y-59618523D01*
X108489809Y-59713761D01*
X108346952Y-59761380D01*
X108251714Y-59761380D01*
X109632666Y-59761380D02*
X109061238Y-59761380D01*
X109346952Y-59761380D02*
X109346952Y-58761380D01*
X109251714Y-58904238D01*
X109156476Y-58999476D01*
X109061238Y-59047095D01*
X115037142Y-59856666D02*
X115084761Y-59904285D01*
X115132380Y-60047142D01*
X115132380Y-60142380D01*
X115084761Y-60285238D01*
X114989523Y-60380476D01*
X114894285Y-60428095D01*
X114703809Y-60475714D01*
X114560952Y-60475714D01*
X114370476Y-60428095D01*
X114275238Y-60380476D01*
X114180000Y-60285238D01*
X114132380Y-60142380D01*
X114132380Y-60047142D01*
X114180000Y-59904285D01*
X114227619Y-59856666D01*
X114560952Y-59285238D02*
X114513333Y-59380476D01*
X114465714Y-59428095D01*
X114370476Y-59475714D01*
X114322857Y-59475714D01*
X114227619Y-59428095D01*
X114180000Y-59380476D01*
X114132380Y-59285238D01*
X114132380Y-59094761D01*
X114180000Y-58999523D01*
X114227619Y-58951904D01*
X114322857Y-58904285D01*
X114370476Y-58904285D01*
X114465714Y-58951904D01*
X114513333Y-58999523D01*
X114560952Y-59094761D01*
X114560952Y-59285238D01*
X114608571Y-59380476D01*
X114656190Y-59428095D01*
X114751428Y-59475714D01*
X114941904Y-59475714D01*
X115037142Y-59428095D01*
X115084761Y-59380476D01*
X115132380Y-59285238D01*
X115132380Y-59094761D01*
X115084761Y-58999523D01*
X115037142Y-58951904D01*
X114941904Y-58904285D01*
X114751428Y-58904285D01*
X114656190Y-58951904D01*
X114608571Y-58999523D01*
X114560952Y-59094761D01*
M02*
