G04 #@! TF.GenerationSoftware,KiCad,Pcbnew,(5.1.2)-2*
G04 #@! TF.CreationDate,2020-04-10T09:33:14+02:00*
G04 #@! TF.ProjectId,AfriCubePiPluginBoard,41667269-4375-4626-9550-69506c756769,rev?*
G04 #@! TF.SameCoordinates,Original*
G04 #@! TF.FileFunction,Copper,L2,Bot*
G04 #@! TF.FilePolarity,Positive*
%FSLAX46Y46*%
G04 Gerber Fmt 4.6, Leading zero omitted, Abs format (unit mm)*
G04 Created by KiCad (PCBNEW (5.1.2)-2) date 2020-04-10 09:33:14*
%MOMM*%
%LPD*%
G04 APERTURE LIST*
%ADD10O,4.000000X1.800000*%
%ADD11O,1.800000X4.000000*%
%ADD12R,1.800000X4.400000*%
%ADD13R,1.700000X1.700000*%
%ADD14O,1.700000X1.700000*%
%ADD15C,1.524000*%
%ADD16R,1.524000X1.524000*%
%ADD17O,0.850000X0.850000*%
%ADD18R,0.850000X0.850000*%
%ADD19C,0.800000*%
%ADD20C,0.250000*%
%ADD21C,0.500000*%
%ADD22C,0.254000*%
G04 APERTURE END LIST*
D10*
X182324000Y-109956000D03*
D11*
X185124000Y-105156000D03*
D12*
X179324000Y-105156000D03*
D13*
X191516000Y-125476000D03*
D14*
X191516000Y-128016000D03*
X191516000Y-130556000D03*
X191516000Y-133096000D03*
D13*
X119761000Y-103632000D03*
D14*
X119761000Y-106172000D03*
X119761000Y-108712000D03*
D15*
X102870000Y-133350000D03*
X105410000Y-133350000D03*
X107950000Y-133350000D03*
D16*
X110490000Y-133350000D03*
X110490000Y-133350000D03*
D15*
X107950000Y-133350000D03*
X105410000Y-133350000D03*
X102870000Y-133350000D03*
X102870000Y-133350000D03*
X105410000Y-133350000D03*
X107950000Y-133350000D03*
D16*
X110490000Y-133350000D03*
X110490000Y-133350000D03*
D15*
X107950000Y-133350000D03*
X105410000Y-133350000D03*
X102870000Y-133350000D03*
X110490000Y-130810000D03*
X107950000Y-130810000D03*
X105410000Y-130810000D03*
X102870000Y-130810000D03*
X110490000Y-128270000D03*
X107950000Y-128270000D03*
X105410000Y-128270000D03*
X102870000Y-128270000D03*
X110490000Y-125730000D03*
X107950000Y-125730000D03*
X105410000Y-125730000D03*
X102870000Y-125730000D03*
X110490000Y-123190000D03*
X107950000Y-123190000D03*
X105410000Y-123190000D03*
X102870000Y-123190000D03*
X110490000Y-120650000D03*
X107950000Y-120650000D03*
X105410000Y-120650000D03*
X102870000Y-120650000D03*
X110490000Y-118110000D03*
X107950000Y-118110000D03*
X105410000Y-118110000D03*
X102870000Y-118110000D03*
X110490000Y-115570000D03*
X107950000Y-115570000D03*
X105410000Y-115570000D03*
X102870000Y-115570000D03*
X110490000Y-113030000D03*
X107950000Y-113030000D03*
X105410000Y-113030000D03*
X102870000Y-113030000D03*
X110490000Y-110490000D03*
X107950000Y-110490000D03*
X105410000Y-110490000D03*
X102870000Y-110490000D03*
X110490000Y-107950000D03*
X107950000Y-107950000D03*
X105410000Y-107950000D03*
X102870000Y-107950000D03*
X110490000Y-105410000D03*
X107950000Y-105410000D03*
X105410000Y-105410000D03*
X102870000Y-105410000D03*
X110490000Y-102870000D03*
X107950000Y-102870000D03*
X105410000Y-102870000D03*
X102870000Y-102870000D03*
X110490000Y-100330000D03*
X107950000Y-100330000D03*
X105410000Y-100330000D03*
X102870000Y-100330000D03*
X110490000Y-97790000D03*
X107950000Y-97790000D03*
X105410000Y-97790000D03*
X102870000Y-97790000D03*
X110490000Y-95250000D03*
X107950000Y-95250000D03*
X105410000Y-95250000D03*
X102870000Y-95250000D03*
X110490000Y-92710000D03*
X107950000Y-92710000D03*
X105410000Y-92710000D03*
X102870000Y-92710000D03*
X110490000Y-90170000D03*
X107950000Y-90170000D03*
X105410000Y-90170000D03*
X102870000Y-90170000D03*
X110490000Y-87630000D03*
X107950000Y-87630000D03*
X105410000Y-87630000D03*
X102870000Y-87630000D03*
X110490000Y-85090000D03*
X107950000Y-85090000D03*
X105410000Y-85090000D03*
X102870000Y-85090000D03*
X110490000Y-82550000D03*
X107950000Y-82550000D03*
X105410000Y-82550000D03*
X102870000Y-82550000D03*
X110490000Y-80010000D03*
X107950000Y-80010000D03*
X105410000Y-80010000D03*
X102870000Y-80010000D03*
X110490000Y-77470000D03*
X107950000Y-77470000D03*
X105410000Y-77470000D03*
X102870000Y-77470000D03*
X110490000Y-74930000D03*
X107950000Y-74930000D03*
X105410000Y-74930000D03*
X102870000Y-74930000D03*
X110490000Y-72390000D03*
X107950000Y-72390000D03*
X105410000Y-72390000D03*
X102870000Y-72390000D03*
X110490000Y-69850000D03*
X107950000Y-69850000D03*
X105410000Y-69850000D03*
X102870000Y-69850000D03*
D13*
X183642000Y-140970000D03*
D14*
X183642000Y-143510000D03*
X181102000Y-140970000D03*
X181102000Y-143510000D03*
X178562000Y-140970000D03*
X178562000Y-143510000D03*
X176022000Y-140970000D03*
X176022000Y-143510000D03*
X173482000Y-140970000D03*
X173482000Y-143510000D03*
X170942000Y-140970000D03*
X170942000Y-143510000D03*
X168402000Y-140970000D03*
X168402000Y-143510000D03*
X165862000Y-140970000D03*
X165862000Y-143510000D03*
X163322000Y-140970000D03*
X163322000Y-143510000D03*
X160782000Y-140970000D03*
X160782000Y-143510000D03*
X158242000Y-140970000D03*
X158242000Y-143510000D03*
X155702000Y-140970000D03*
X155702000Y-143510000D03*
X153162000Y-140970000D03*
X153162000Y-143510000D03*
X150622000Y-140970000D03*
X150622000Y-143510000D03*
X148082000Y-140970000D03*
X148082000Y-143510000D03*
X145542000Y-140970000D03*
X145542000Y-143510000D03*
X143002000Y-140970000D03*
X143002000Y-143510000D03*
X140462000Y-140970000D03*
X140462000Y-143510000D03*
X137922000Y-140970000D03*
X137922000Y-143510000D03*
X135382000Y-140970000D03*
X135382000Y-143510000D03*
D17*
X110680000Y-60706000D03*
X109680000Y-60706000D03*
X108680000Y-60706000D03*
X107680000Y-60706000D03*
D18*
X106680000Y-60706000D03*
D19*
X138430000Y-136144000D03*
X133604000Y-100203000D03*
X135382000Y-122809000D03*
X129540000Y-124206000D03*
X118491000Y-122936000D03*
X139827000Y-122936000D03*
X122555000Y-137287000D03*
X127635000Y-100457000D03*
X121412000Y-100711000D03*
X120269000Y-90932000D03*
X120142000Y-82296000D03*
X151765000Y-82931000D03*
X186436000Y-71374000D03*
X183261000Y-80518000D03*
X173482000Y-127508000D03*
X176911000Y-122682000D03*
X177673000Y-118364000D03*
X140335000Y-128016000D03*
X139700000Y-83185000D03*
X139446000Y-68199000D03*
X139954000Y-65913000D03*
X151892000Y-68072000D03*
X151765000Y-69850000D03*
X156718000Y-72263000D03*
X151892000Y-76327000D03*
X151765000Y-95377000D03*
X152654000Y-97790000D03*
X140208000Y-77216000D03*
X138938000Y-72263000D03*
X138557000Y-75311000D03*
X121539000Y-60579000D03*
X121412000Y-66675000D03*
X156972000Y-91948000D03*
X138176000Y-87884000D03*
X138049000Y-95250000D03*
X139192000Y-105664000D03*
X140208000Y-120650000D03*
X167005000Y-127381000D03*
X122174000Y-98933000D03*
X125095000Y-110744000D03*
X151892000Y-137287000D03*
X151889372Y-125097628D03*
X132715000Y-74295000D03*
X132715000Y-65786000D03*
X163322000Y-125730000D03*
X117856000Y-105664000D03*
X177292000Y-79248000D03*
X177292000Y-65532000D03*
X143764000Y-71628000D03*
X140081000Y-72136000D03*
X128905000Y-87884000D03*
X145288000Y-68834000D03*
X146050000Y-74676000D03*
X125730000Y-75819000D03*
X150114000Y-65532000D03*
X144526000Y-67691000D03*
X130175000Y-86868000D03*
X144653000Y-82296000D03*
X143637000Y-83693000D03*
X116586000Y-128651000D03*
X115570000Y-127889000D03*
X138303000Y-91821000D03*
X136652000Y-88900000D03*
X139065000Y-98425000D03*
X138303000Y-97536000D03*
X140335000Y-86614000D03*
X139319000Y-88519000D03*
X144272000Y-94615000D03*
X144272000Y-93599000D03*
X144272000Y-92329000D03*
X144272000Y-91186000D03*
X136652000Y-93980000D03*
X130429000Y-104902000D03*
X126365000Y-74168000D03*
X154178000Y-96012000D03*
X127254000Y-78994000D03*
X155575000Y-91567000D03*
X125222000Y-77216000D03*
X155067000Y-92710000D03*
X136779000Y-82550000D03*
X131572000Y-66802000D03*
X135763000Y-82677000D03*
X130810000Y-67564000D03*
D20*
X142748000Y-127127000D02*
X140081000Y-129794000D01*
X140081000Y-129794000D02*
X140081000Y-135382000D01*
X140081000Y-135382000D02*
X139319000Y-136144000D01*
X139319000Y-136144000D02*
X138430000Y-136144000D01*
X142748000Y-105537000D02*
X137414000Y-100203000D01*
X133604000Y-100203000D02*
X137414000Y-100203000D01*
X142748000Y-105537000D02*
X142748000Y-127127000D01*
D21*
X102870000Y-97790000D02*
X105410000Y-97790000D01*
X105410000Y-97790000D02*
X105410000Y-95250000D01*
X105410000Y-95250000D02*
X102870000Y-95250000D01*
X102870000Y-95250000D02*
X102870000Y-97790000D01*
D20*
X178562000Y-143510000D02*
X179832000Y-142240000D01*
X179832000Y-142240000D02*
X185293000Y-142240000D01*
X185293000Y-139319000D02*
X191516000Y-133096000D01*
X185293000Y-142240000D02*
X185293000Y-139319000D01*
D21*
X102870000Y-95250000D02*
X102870000Y-94996000D01*
X102870000Y-94996000D02*
X104140000Y-93726000D01*
X104140000Y-93726000D02*
X104140000Y-69215000D01*
X109680000Y-63675000D02*
X109680000Y-60706000D01*
X104140000Y-69215000D02*
X109680000Y-63675000D01*
X105410000Y-94996000D02*
X104140000Y-93726000D01*
X105410000Y-95250000D02*
X105410000Y-94996000D01*
D20*
X105410000Y-102870000D02*
X105410000Y-102997000D01*
D21*
X101473000Y-106045000D02*
X101473000Y-104267000D01*
X101473000Y-104267000D02*
X102870000Y-102870000D01*
D20*
X183642000Y-143510000D02*
X184404000Y-143510000D01*
D21*
X106680000Y-59817000D02*
X106680000Y-60706000D01*
X102870000Y-102870000D02*
X105410000Y-102870000D01*
X101473000Y-106045000D02*
X101473000Y-108839000D01*
X101473000Y-108839000D02*
X101854000Y-109220000D01*
X114681000Y-109220000D02*
X116205000Y-110744000D01*
X101473000Y-108839000D02*
X101473000Y-114046000D01*
X101473000Y-114046000D02*
X101727000Y-114300000D01*
D20*
X101727000Y-114300000D02*
X111633000Y-114300000D01*
D21*
X112649000Y-114300000D02*
X116205000Y-110744000D01*
X111633000Y-114300000D02*
X112649000Y-114300000D01*
X114681000Y-109220000D02*
X111760000Y-109220000D01*
D20*
X101854000Y-109220000D02*
X111760000Y-109220000D01*
D21*
X116205000Y-110744000D02*
X125095000Y-110744000D01*
X183642000Y-143510000D02*
X183642000Y-143637000D01*
X183642000Y-143637000D02*
X185166000Y-145161000D01*
X185166000Y-145161000D02*
X189865000Y-145161000D01*
X189865000Y-145161000D02*
X192913000Y-142113000D01*
X192913000Y-142113000D02*
X192913000Y-113792000D01*
X192913000Y-113792000D02*
X189865000Y-110744000D01*
X189865000Y-110744000D02*
X189865000Y-79121000D01*
X189865000Y-79121000D02*
X193040000Y-75946000D01*
X193040000Y-75946000D02*
X193040000Y-60579000D01*
X193040000Y-60579000D02*
X191262000Y-58801000D01*
X107696000Y-58801000D02*
X106680000Y-59817000D01*
X191262000Y-58801000D02*
X107696000Y-58801000D01*
X106680000Y-65405000D02*
X106680000Y-60706000D01*
X102743000Y-102870000D02*
X101422630Y-101549630D01*
X102870000Y-102870000D02*
X102743000Y-102870000D01*
X101422630Y-101549630D02*
X101422630Y-68249370D01*
X101422630Y-68249370D02*
X101600000Y-68072000D01*
X101600000Y-68072000D02*
X104013000Y-68072000D01*
X104013000Y-68072000D02*
X106680000Y-65405000D01*
X151892000Y-127254000D02*
X151892000Y-137287000D01*
X151889372Y-127251372D02*
X151892000Y-127254000D01*
X151889372Y-125097628D02*
X151889372Y-127251372D01*
X106680000Y-104140000D02*
X105410000Y-105410000D01*
X132715000Y-74295000D02*
X132715000Y-65786000D01*
X112141000Y-104140000D02*
X111633000Y-104140000D01*
X113665000Y-105664000D02*
X112141000Y-104140000D01*
X106680000Y-104140000D02*
X111633000Y-104140000D01*
X113665000Y-105664000D02*
X113411000Y-105664000D01*
X113411000Y-105664000D02*
X112395000Y-106680000D01*
X112395000Y-106680000D02*
X111506000Y-106680000D01*
X106680000Y-106680000D02*
X105410000Y-105410000D01*
X111506000Y-106680000D02*
X106680000Y-106680000D01*
X163322000Y-140970000D02*
X163322000Y-125730000D01*
X117856000Y-105664000D02*
X113665000Y-105664000D01*
X102870000Y-100330000D02*
X105410000Y-100330000D01*
D20*
X177292000Y-79248000D02*
X177292000Y-65532000D01*
X109220000Y-96520000D02*
X107950000Y-95250000D01*
X115570000Y-96520000D02*
X109220000Y-96520000D01*
X119761000Y-103632000D02*
X119761000Y-100711000D01*
X119761000Y-100711000D02*
X115570000Y-96520000D01*
X143764000Y-75057000D02*
X143764000Y-71628000D01*
X148082000Y-102108000D02*
X142135040Y-96161040D01*
X148082000Y-140970000D02*
X148082000Y-102108000D01*
X142135040Y-96161040D02*
X142135040Y-89893960D01*
X142135040Y-89893960D02*
X145414295Y-86614705D01*
X145414295Y-86614705D02*
X145414295Y-76707295D01*
X145414295Y-76707295D02*
X143764000Y-75057000D01*
X143764000Y-75819000D02*
X140081000Y-72136000D01*
X144399000Y-83185000D02*
X143764000Y-82550000D01*
X144399000Y-85852000D02*
X144399000Y-83185000D01*
X141097000Y-89154000D02*
X144399000Y-85852000D01*
X141097000Y-96635980D02*
X141097000Y-89154000D01*
X143764000Y-82550000D02*
X143764000Y-75819000D01*
X141478000Y-97016980D02*
X141097000Y-96635980D01*
X141478000Y-97028000D02*
X141478000Y-97016980D01*
X145542000Y-132588000D02*
X144907000Y-131953000D01*
X145542000Y-140970000D02*
X145542000Y-132588000D01*
X144907000Y-131953000D02*
X144907000Y-130683000D01*
X144907000Y-130683000D02*
X146685000Y-128905000D01*
X146685000Y-128905000D02*
X146685000Y-102235000D01*
X146685000Y-102235000D02*
X141478000Y-97028000D01*
X150622000Y-103124000D02*
X143071010Y-95573010D01*
X150622000Y-140970000D02*
X150622000Y-103124000D01*
X143071010Y-95573010D02*
X143071010Y-90481990D01*
X143071010Y-90481990D02*
X146431000Y-87122000D01*
X146431000Y-87122000D02*
X146431000Y-76200000D01*
X146431000Y-76200000D02*
X145288000Y-75057000D01*
X110490000Y-82550000D02*
X111506000Y-82550000D01*
X111506000Y-82550000D02*
X116840000Y-87884000D01*
X116840000Y-87884000D02*
X128905000Y-87884000D01*
X145288000Y-75057000D02*
X145288000Y-68834000D01*
X147066000Y-75692000D02*
X146050000Y-74676000D01*
X143637000Y-90678000D02*
X147066000Y-87249000D01*
X147066000Y-87249000D02*
X147066000Y-75692000D01*
X154432000Y-142240000D02*
X153162000Y-143510000D01*
X154432000Y-106172000D02*
X154432000Y-142240000D01*
X143521020Y-95261020D02*
X154432000Y-106172000D01*
X143521020Y-90805000D02*
X143521020Y-95261020D01*
X143637000Y-90678000D02*
X143637000Y-90689020D01*
X143637000Y-90689020D02*
X143521020Y-90805000D01*
X147574000Y-62992000D02*
X150114000Y-65532000D01*
X134112000Y-62992000D02*
X147574000Y-62992000D01*
X129921000Y-67183000D02*
X134112000Y-62992000D01*
X129921000Y-74422000D02*
X129921000Y-67183000D01*
X125730000Y-75819000D02*
X128524000Y-75819000D01*
X128524000Y-75819000D02*
X129921000Y-74422000D01*
X145923000Y-76454000D02*
X144526000Y-75057000D01*
X144526000Y-75057000D02*
X144526000Y-67691000D01*
X150622000Y-143510000D02*
X149352000Y-142240000D01*
X149352000Y-102616000D02*
X142621000Y-95885000D01*
X149352000Y-142240000D02*
X149352000Y-102616000D01*
X142621000Y-90170000D02*
X145923000Y-86868000D01*
X145923000Y-86868000D02*
X145923000Y-76454000D01*
X142621000Y-95885000D02*
X142621000Y-90170000D01*
X110490000Y-80010000D02*
X110490000Y-80264000D01*
X110490000Y-80264000D02*
X117094000Y-86868000D01*
X117094000Y-86868000D02*
X130175000Y-86868000D01*
X144907000Y-82550000D02*
X144653000Y-82296000D01*
X144907000Y-86360000D02*
X144907000Y-82550000D01*
X141605000Y-89662000D02*
X144907000Y-86360000D01*
X146812000Y-142240000D02*
X146812000Y-132080000D01*
X145542000Y-143510000D02*
X146812000Y-142240000D01*
X146812000Y-132080000D02*
X147574000Y-131318000D01*
X147574000Y-102362000D02*
X141605000Y-96393000D01*
X147574000Y-131318000D02*
X147574000Y-102362000D01*
X141605000Y-96393000D02*
X141605000Y-89662000D01*
X143764000Y-83820000D02*
X143637000Y-83693000D01*
X143764000Y-85725000D02*
X143764000Y-83820000D01*
X140589000Y-88900000D02*
X143764000Y-85725000D01*
X143700500Y-140271500D02*
X143700500Y-131127500D01*
X143002000Y-140970000D02*
X143700500Y-140271500D01*
X143700500Y-131127500D02*
X146177000Y-128651000D01*
X146177000Y-128651000D02*
X146177000Y-102489000D01*
X146177000Y-102489000D02*
X140589000Y-96901000D01*
X140589000Y-96901000D02*
X140589000Y-88900000D01*
X107950000Y-125730000D02*
X109093000Y-124587000D01*
X109093000Y-124587000D02*
X109220000Y-124460000D01*
X109220000Y-124460000D02*
X111125000Y-124460000D01*
X111125000Y-124460000D02*
X113157000Y-126492000D01*
X116586000Y-128651000D02*
X116586000Y-127508000D01*
X116586000Y-127508000D02*
X115570000Y-126492000D01*
X113157000Y-126492000D02*
X115570000Y-126492000D01*
X106680000Y-127000000D02*
X105410000Y-125730000D01*
X114681000Y-127000000D02*
X114554000Y-127000000D01*
X115570000Y-127889000D02*
X114681000Y-127000000D01*
X114554000Y-127000000D02*
X106680000Y-127000000D01*
X104140000Y-127000000D02*
X102870000Y-125730000D01*
X104140000Y-134366000D02*
X104140000Y-127000000D01*
X114518550Y-144744550D02*
X104140000Y-134366000D01*
X154721450Y-144744550D02*
X114518550Y-144744550D01*
X155702000Y-143510000D02*
X155702000Y-143764000D01*
X155702000Y-143764000D02*
X154721450Y-144744550D01*
X139065000Y-92583000D02*
X138303000Y-91821000D01*
X137414000Y-97282000D02*
X139065000Y-95631000D01*
X137414000Y-99187000D02*
X137414000Y-97282000D01*
X143256000Y-105029000D02*
X137414000Y-99187000D01*
X136652000Y-142240000D02*
X136652000Y-139700000D01*
X135382000Y-143510000D02*
X136652000Y-142240000D01*
X136652000Y-139700000D02*
X140652500Y-135699500D01*
X140652500Y-135699500D02*
X140652500Y-129984500D01*
X139065000Y-95631000D02*
X139065000Y-92583000D01*
X140652500Y-129984500D02*
X143256000Y-127381000D01*
X143256000Y-127381000D02*
X143256000Y-105029000D01*
X137922000Y-143510000D02*
X139065000Y-142367000D01*
X139065000Y-142367000D02*
X139192000Y-142240000D01*
X139192000Y-142240000D02*
X139192000Y-139827000D01*
X140970000Y-138049000D02*
X141160500Y-137858500D01*
X139192000Y-139827000D02*
X140970000Y-138049000D01*
X112776000Y-85090000D02*
X110490000Y-85090000D01*
X116586000Y-88900000D02*
X112776000Y-85090000D01*
X141224000Y-137795000D02*
X140970000Y-138049000D01*
X141922500Y-137096500D02*
X141224000Y-137795000D01*
X144272000Y-103124000D02*
X144272000Y-128016000D01*
X144272000Y-128016000D02*
X141922500Y-130365500D01*
X141922500Y-130365500D02*
X141922500Y-137096500D01*
X136652000Y-88900000D02*
X116586000Y-88900000D01*
X139573000Y-98425000D02*
X139636500Y-98488500D01*
X139065000Y-98425000D02*
X139573000Y-98425000D01*
X139636500Y-98488500D02*
X144272000Y-103124000D01*
X137922000Y-139827000D02*
X137922000Y-140970000D01*
X141351000Y-136398000D02*
X137922000Y-139827000D01*
X138303000Y-97536000D02*
X138303000Y-99187000D01*
X138303000Y-99187000D02*
X143764000Y-104648000D01*
X141351000Y-130048000D02*
X141351000Y-136398000D01*
X143764000Y-104648000D02*
X143764000Y-127635000D01*
X143764000Y-127635000D02*
X141351000Y-130048000D01*
X140081000Y-97282000D02*
X140081000Y-86868000D01*
X140081000Y-86868000D02*
X140335000Y-86614000D01*
X145415000Y-102616000D02*
X140081000Y-97282000D01*
X141732000Y-142240000D02*
X141732000Y-139827000D01*
X141732000Y-139827000D02*
X143065500Y-138493500D01*
X143065500Y-138493500D02*
X143065500Y-130873500D01*
X140462000Y-143510000D02*
X141732000Y-142240000D01*
X143065500Y-130873500D02*
X145415000Y-128524000D01*
X145415000Y-128524000D02*
X145415000Y-102616000D01*
X142433255Y-130622255D02*
X142433255Y-137728745D01*
X144780000Y-128275510D02*
X142433255Y-130622255D01*
X144780000Y-102870000D02*
X144780000Y-128275510D01*
X142433255Y-137728745D02*
X140462000Y-139700000D01*
X139573000Y-89535000D02*
X139573000Y-97663000D01*
X139573000Y-97663000D02*
X144780000Y-102870000D01*
X140462000Y-139700000D02*
X140462000Y-140970000D01*
X139573000Y-89535000D02*
X139573000Y-88773000D01*
X139573000Y-88773000D02*
X139319000Y-88519000D01*
X158242000Y-143510000D02*
X159512000Y-142240000D01*
X159512000Y-142240000D02*
X159512000Y-134239000D01*
X159512000Y-134239000D02*
X159512000Y-109728000D01*
X159512000Y-109728000D02*
X144780000Y-94996000D01*
X144780000Y-94996000D02*
X144653000Y-94996000D01*
X144653000Y-94996000D02*
X144272000Y-94615000D01*
X163322000Y-143510000D02*
X163322000Y-143383000D01*
X163322000Y-143383000D02*
X162052000Y-142113000D01*
X162052000Y-142113000D02*
X162052000Y-111506000D01*
X162052000Y-111506000D02*
X162052000Y-111125000D01*
X162052000Y-111125000D02*
X144780000Y-93853000D01*
X144780000Y-93853000D02*
X144526000Y-93853000D01*
X144526000Y-93853000D02*
X144272000Y-93599000D01*
X165862000Y-143510000D02*
X164719000Y-142367000D01*
X164719000Y-142367000D02*
X164592000Y-142240000D01*
X164592000Y-142240000D02*
X164592000Y-140462000D01*
X164592000Y-140462000D02*
X164592000Y-112268000D01*
X164592000Y-112268000D02*
X144907000Y-92583000D01*
X144907000Y-92583000D02*
X144526000Y-92583000D01*
X144526000Y-92583000D02*
X144272000Y-92329000D01*
X165862000Y-140970000D02*
X165862000Y-112395000D01*
X165862000Y-112395000D02*
X144907000Y-91440000D01*
X107188000Y-93980000D02*
X106680000Y-94488000D01*
X106680000Y-94488000D02*
X106680000Y-99060000D01*
X106680000Y-99060000D02*
X107950000Y-100330000D01*
X144907000Y-91440000D02*
X144526000Y-91440000D01*
X144526000Y-91440000D02*
X144272000Y-91186000D01*
X136271000Y-93980000D02*
X135763000Y-93980000D01*
X135763000Y-93980000D02*
X107188000Y-93980000D01*
X136271000Y-93980000D02*
X136652000Y-93980000D01*
X107950000Y-102870000D02*
X109220000Y-101600000D01*
X109220000Y-101600000D02*
X112141000Y-101600000D01*
X112141000Y-101600000D02*
X112268000Y-101600000D01*
X112268000Y-101600000D02*
X115570000Y-104902000D01*
X115570000Y-104902000D02*
X130429000Y-104902000D01*
X154178000Y-68199000D02*
X154178000Y-96012000D01*
X128016000Y-74168000D02*
X129413000Y-72771000D01*
X126365000Y-74168000D02*
X128016000Y-74168000D01*
X129413000Y-72771000D02*
X129413000Y-66802000D01*
X129413000Y-66802000D02*
X133731000Y-62484000D01*
X133731000Y-62484000D02*
X148463000Y-62484000D01*
X148463000Y-62484000D02*
X154178000Y-68199000D01*
X155575000Y-67818000D02*
X155575000Y-91567000D01*
X132969000Y-61468000D02*
X149225000Y-61468000D01*
X128143000Y-66294000D02*
X132969000Y-61468000D01*
X126492000Y-78232000D02*
X124968000Y-78232000D01*
X127254000Y-78994000D02*
X126492000Y-78232000D01*
X124968000Y-78232000D02*
X124206000Y-77470000D01*
X149225000Y-61468000D02*
X155575000Y-67818000D01*
X124206000Y-77470000D02*
X124206000Y-73533000D01*
X124206000Y-73533000D02*
X128143000Y-69596000D01*
X128143000Y-69596000D02*
X128143000Y-66294000D01*
X154813000Y-92456000D02*
X155067000Y-92710000D01*
X154813000Y-68072000D02*
X154813000Y-92456000D01*
X148717000Y-61976000D02*
X154813000Y-68072000D01*
X124841000Y-76835000D02*
X124841000Y-73914000D01*
X125222000Y-77216000D02*
X124841000Y-76835000D01*
X124841000Y-73914000D02*
X128778000Y-69977000D01*
X128778000Y-66548000D02*
X133350000Y-61976000D01*
X128778000Y-69977000D02*
X128778000Y-66548000D01*
X133350000Y-61976000D02*
X148717000Y-61976000D01*
X136779000Y-82550000D02*
X136779000Y-79629000D01*
X136779000Y-79629000D02*
X131572000Y-74422000D01*
X131572000Y-74422000D02*
X131572000Y-66802000D01*
X135763000Y-82677000D02*
X135763000Y-79629000D01*
X135763000Y-79629000D02*
X135763000Y-79502000D01*
X135763000Y-79502000D02*
X130810000Y-74549000D01*
X130810000Y-74549000D02*
X130810000Y-67564000D01*
D22*
G36*
X160909000Y-143383000D02*
G01*
X160929000Y-143383000D01*
X160929000Y-143637000D01*
X160909000Y-143637000D01*
X160909000Y-144830155D01*
X161138890Y-144951476D01*
X161286099Y-144906825D01*
X161548920Y-144781641D01*
X161782269Y-144607588D01*
X161977178Y-144391355D01*
X162046799Y-144274477D01*
X162081294Y-144339014D01*
X162266866Y-144565134D01*
X162492986Y-144750706D01*
X162750966Y-144888599D01*
X163030889Y-144973513D01*
X163249050Y-144995000D01*
X163394950Y-144995000D01*
X163613111Y-144973513D01*
X163893034Y-144888599D01*
X164151014Y-144750706D01*
X164377134Y-144565134D01*
X164562706Y-144339014D01*
X164592000Y-144284209D01*
X164621294Y-144339014D01*
X164806866Y-144565134D01*
X165032986Y-144750706D01*
X165290966Y-144888599D01*
X165570889Y-144973513D01*
X165789050Y-144995000D01*
X165934950Y-144995000D01*
X166153111Y-144973513D01*
X166433034Y-144888599D01*
X166691014Y-144750706D01*
X166917134Y-144565134D01*
X167102706Y-144339014D01*
X167137201Y-144274477D01*
X167206822Y-144391355D01*
X167401731Y-144607588D01*
X167635080Y-144781641D01*
X167897901Y-144906825D01*
X168045110Y-144951476D01*
X168275000Y-144830155D01*
X168275000Y-143637000D01*
X168255000Y-143637000D01*
X168255000Y-143383000D01*
X168275000Y-143383000D01*
X168275000Y-143363000D01*
X168529000Y-143363000D01*
X168529000Y-143383000D01*
X168549000Y-143383000D01*
X168549000Y-143637000D01*
X168529000Y-143637000D01*
X168529000Y-144830155D01*
X168758890Y-144951476D01*
X168906099Y-144906825D01*
X169168920Y-144781641D01*
X169402269Y-144607588D01*
X169597178Y-144391355D01*
X169666799Y-144274477D01*
X169701294Y-144339014D01*
X169886866Y-144565134D01*
X170112986Y-144750706D01*
X170370966Y-144888599D01*
X170650889Y-144973513D01*
X170869050Y-144995000D01*
X171014950Y-144995000D01*
X171233111Y-144973513D01*
X171513034Y-144888599D01*
X171771014Y-144750706D01*
X171997134Y-144565134D01*
X172182706Y-144339014D01*
X172212000Y-144284209D01*
X172241294Y-144339014D01*
X172426866Y-144565134D01*
X172652986Y-144750706D01*
X172910966Y-144888599D01*
X173190889Y-144973513D01*
X173409050Y-144995000D01*
X173554950Y-144995000D01*
X173773111Y-144973513D01*
X174053034Y-144888599D01*
X174311014Y-144750706D01*
X174537134Y-144565134D01*
X174722706Y-144339014D01*
X174752000Y-144284209D01*
X174781294Y-144339014D01*
X174966866Y-144565134D01*
X175192986Y-144750706D01*
X175450966Y-144888599D01*
X175730889Y-144973513D01*
X175949050Y-144995000D01*
X176094950Y-144995000D01*
X176313111Y-144973513D01*
X176593034Y-144888599D01*
X176851014Y-144750706D01*
X177077134Y-144565134D01*
X177262706Y-144339014D01*
X177297201Y-144274477D01*
X177366822Y-144391355D01*
X177561731Y-144607588D01*
X177795080Y-144781641D01*
X178057901Y-144906825D01*
X178205110Y-144951476D01*
X178435000Y-144830155D01*
X178435000Y-143637000D01*
X178415000Y-143637000D01*
X178415000Y-143383000D01*
X178435000Y-143383000D01*
X178435000Y-143363000D01*
X178689000Y-143363000D01*
X178689000Y-143383000D01*
X178709000Y-143383000D01*
X178709000Y-143637000D01*
X178689000Y-143637000D01*
X178689000Y-144830155D01*
X178918890Y-144951476D01*
X179066099Y-144906825D01*
X179328920Y-144781641D01*
X179562269Y-144607588D01*
X179757178Y-144391355D01*
X179826799Y-144274477D01*
X179861294Y-144339014D01*
X180046866Y-144565134D01*
X180272986Y-144750706D01*
X180530966Y-144888599D01*
X180810889Y-144973513D01*
X181029050Y-144995000D01*
X181174950Y-144995000D01*
X181393111Y-144973513D01*
X181673034Y-144888599D01*
X181931014Y-144750706D01*
X182157134Y-144565134D01*
X182342706Y-144339014D01*
X182372000Y-144284209D01*
X182401294Y-144339014D01*
X182586866Y-144565134D01*
X182812986Y-144750706D01*
X183070966Y-144888599D01*
X183350889Y-144973513D01*
X183569050Y-144995000D01*
X183714950Y-144995000D01*
X183745420Y-144991999D01*
X184188741Y-145435320D01*
X175722193Y-145435320D01*
X175681640Y-145431326D01*
X175641087Y-145435320D01*
X175519814Y-145447264D01*
X175364206Y-145494467D01*
X175275279Y-145542000D01*
X147507960Y-145542000D01*
X147507960Y-145504550D01*
X154684128Y-145504550D01*
X154721450Y-145508226D01*
X154758772Y-145504550D01*
X154758783Y-145504550D01*
X154870436Y-145493553D01*
X155013697Y-145450096D01*
X155145726Y-145379524D01*
X155261451Y-145284551D01*
X155285254Y-145255548D01*
X155553265Y-144987536D01*
X155629050Y-144995000D01*
X155774950Y-144995000D01*
X155993111Y-144973513D01*
X156273034Y-144888599D01*
X156531014Y-144750706D01*
X156757134Y-144565134D01*
X156942706Y-144339014D01*
X156972000Y-144284209D01*
X157001294Y-144339014D01*
X157186866Y-144565134D01*
X157412986Y-144750706D01*
X157670966Y-144888599D01*
X157950889Y-144973513D01*
X158169050Y-144995000D01*
X158314950Y-144995000D01*
X158533111Y-144973513D01*
X158813034Y-144888599D01*
X159071014Y-144750706D01*
X159297134Y-144565134D01*
X159482706Y-144339014D01*
X159517201Y-144274477D01*
X159586822Y-144391355D01*
X159781731Y-144607588D01*
X160015080Y-144781641D01*
X160277901Y-144906825D01*
X160425110Y-144951476D01*
X160655000Y-144830155D01*
X160655000Y-143637000D01*
X160635000Y-143637000D01*
X160635000Y-143383000D01*
X160655000Y-143383000D01*
X160655000Y-143363000D01*
X160909000Y-143363000D01*
X160909000Y-143383000D01*
X160909000Y-143383000D01*
G37*
X160909000Y-143383000D02*
X160929000Y-143383000D01*
X160929000Y-143637000D01*
X160909000Y-143637000D01*
X160909000Y-144830155D01*
X161138890Y-144951476D01*
X161286099Y-144906825D01*
X161548920Y-144781641D01*
X161782269Y-144607588D01*
X161977178Y-144391355D01*
X162046799Y-144274477D01*
X162081294Y-144339014D01*
X162266866Y-144565134D01*
X162492986Y-144750706D01*
X162750966Y-144888599D01*
X163030889Y-144973513D01*
X163249050Y-144995000D01*
X163394950Y-144995000D01*
X163613111Y-144973513D01*
X163893034Y-144888599D01*
X164151014Y-144750706D01*
X164377134Y-144565134D01*
X164562706Y-144339014D01*
X164592000Y-144284209D01*
X164621294Y-144339014D01*
X164806866Y-144565134D01*
X165032986Y-144750706D01*
X165290966Y-144888599D01*
X165570889Y-144973513D01*
X165789050Y-144995000D01*
X165934950Y-144995000D01*
X166153111Y-144973513D01*
X166433034Y-144888599D01*
X166691014Y-144750706D01*
X166917134Y-144565134D01*
X167102706Y-144339014D01*
X167137201Y-144274477D01*
X167206822Y-144391355D01*
X167401731Y-144607588D01*
X167635080Y-144781641D01*
X167897901Y-144906825D01*
X168045110Y-144951476D01*
X168275000Y-144830155D01*
X168275000Y-143637000D01*
X168255000Y-143637000D01*
X168255000Y-143383000D01*
X168275000Y-143383000D01*
X168275000Y-143363000D01*
X168529000Y-143363000D01*
X168529000Y-143383000D01*
X168549000Y-143383000D01*
X168549000Y-143637000D01*
X168529000Y-143637000D01*
X168529000Y-144830155D01*
X168758890Y-144951476D01*
X168906099Y-144906825D01*
X169168920Y-144781641D01*
X169402269Y-144607588D01*
X169597178Y-144391355D01*
X169666799Y-144274477D01*
X169701294Y-144339014D01*
X169886866Y-144565134D01*
X170112986Y-144750706D01*
X170370966Y-144888599D01*
X170650889Y-144973513D01*
X170869050Y-144995000D01*
X171014950Y-144995000D01*
X171233111Y-144973513D01*
X171513034Y-144888599D01*
X171771014Y-144750706D01*
X171997134Y-144565134D01*
X172182706Y-144339014D01*
X172212000Y-144284209D01*
X172241294Y-144339014D01*
X172426866Y-144565134D01*
X172652986Y-144750706D01*
X172910966Y-144888599D01*
X173190889Y-144973513D01*
X173409050Y-144995000D01*
X173554950Y-144995000D01*
X173773111Y-144973513D01*
X174053034Y-144888599D01*
X174311014Y-144750706D01*
X174537134Y-144565134D01*
X174722706Y-144339014D01*
X174752000Y-144284209D01*
X174781294Y-144339014D01*
X174966866Y-144565134D01*
X175192986Y-144750706D01*
X175450966Y-144888599D01*
X175730889Y-144973513D01*
X175949050Y-144995000D01*
X176094950Y-144995000D01*
X176313111Y-144973513D01*
X176593034Y-144888599D01*
X176851014Y-144750706D01*
X177077134Y-144565134D01*
X177262706Y-144339014D01*
X177297201Y-144274477D01*
X177366822Y-144391355D01*
X177561731Y-144607588D01*
X177795080Y-144781641D01*
X178057901Y-144906825D01*
X178205110Y-144951476D01*
X178435000Y-144830155D01*
X178435000Y-143637000D01*
X178415000Y-143637000D01*
X178415000Y-143383000D01*
X178435000Y-143383000D01*
X178435000Y-143363000D01*
X178689000Y-143363000D01*
X178689000Y-143383000D01*
X178709000Y-143383000D01*
X178709000Y-143637000D01*
X178689000Y-143637000D01*
X178689000Y-144830155D01*
X178918890Y-144951476D01*
X179066099Y-144906825D01*
X179328920Y-144781641D01*
X179562269Y-144607588D01*
X179757178Y-144391355D01*
X179826799Y-144274477D01*
X179861294Y-144339014D01*
X180046866Y-144565134D01*
X180272986Y-144750706D01*
X180530966Y-144888599D01*
X180810889Y-144973513D01*
X181029050Y-144995000D01*
X181174950Y-144995000D01*
X181393111Y-144973513D01*
X181673034Y-144888599D01*
X181931014Y-144750706D01*
X182157134Y-144565134D01*
X182342706Y-144339014D01*
X182372000Y-144284209D01*
X182401294Y-144339014D01*
X182586866Y-144565134D01*
X182812986Y-144750706D01*
X183070966Y-144888599D01*
X183350889Y-144973513D01*
X183569050Y-144995000D01*
X183714950Y-144995000D01*
X183745420Y-144991999D01*
X184188741Y-145435320D01*
X175722193Y-145435320D01*
X175681640Y-145431326D01*
X175641087Y-145435320D01*
X175519814Y-145447264D01*
X175364206Y-145494467D01*
X175275279Y-145542000D01*
X147507960Y-145542000D01*
X147507960Y-145504550D01*
X154684128Y-145504550D01*
X154721450Y-145508226D01*
X154758772Y-145504550D01*
X154758783Y-145504550D01*
X154870436Y-145493553D01*
X155013697Y-145450096D01*
X155145726Y-145379524D01*
X155261451Y-145284551D01*
X155285254Y-145255548D01*
X155553265Y-144987536D01*
X155629050Y-144995000D01*
X155774950Y-144995000D01*
X155993111Y-144973513D01*
X156273034Y-144888599D01*
X156531014Y-144750706D01*
X156757134Y-144565134D01*
X156942706Y-144339014D01*
X156972000Y-144284209D01*
X157001294Y-144339014D01*
X157186866Y-144565134D01*
X157412986Y-144750706D01*
X157670966Y-144888599D01*
X157950889Y-144973513D01*
X158169050Y-144995000D01*
X158314950Y-144995000D01*
X158533111Y-144973513D01*
X158813034Y-144888599D01*
X159071014Y-144750706D01*
X159297134Y-144565134D01*
X159482706Y-144339014D01*
X159517201Y-144274477D01*
X159586822Y-144391355D01*
X159781731Y-144607588D01*
X160015080Y-144781641D01*
X160277901Y-144906825D01*
X160425110Y-144951476D01*
X160655000Y-144830155D01*
X160655000Y-143637000D01*
X160635000Y-143637000D01*
X160635000Y-143383000D01*
X160655000Y-143383000D01*
X160655000Y-143363000D01*
X160909000Y-143363000D01*
X160909000Y-143383000D01*
G36*
X192155001Y-60945580D02*
G01*
X192155000Y-75579421D01*
X189269951Y-78464471D01*
X189236184Y-78492183D01*
X189208471Y-78525951D01*
X189208468Y-78525954D01*
X189125590Y-78626941D01*
X189043412Y-78780687D01*
X188992805Y-78947510D01*
X188975719Y-79121000D01*
X188980001Y-79164479D01*
X188980000Y-110700531D01*
X188975719Y-110744000D01*
X188980000Y-110787469D01*
X188980000Y-110787476D01*
X188988229Y-110871026D01*
X188992805Y-110917490D01*
X189003001Y-110951099D01*
X189043411Y-111084312D01*
X189125589Y-111238058D01*
X189236183Y-111372817D01*
X189269954Y-111400532D01*
X192028001Y-114158580D01*
X192028001Y-123987928D01*
X190666000Y-123987928D01*
X190541518Y-124000188D01*
X190421820Y-124036498D01*
X190311506Y-124095463D01*
X190214815Y-124174815D01*
X190135463Y-124271506D01*
X190076498Y-124381820D01*
X190040188Y-124501518D01*
X190027928Y-124626000D01*
X190027928Y-126326000D01*
X190040188Y-126450482D01*
X190076498Y-126570180D01*
X190135463Y-126680494D01*
X190214815Y-126777185D01*
X190311506Y-126856537D01*
X190421820Y-126915502D01*
X190502466Y-126939966D01*
X190418412Y-127015731D01*
X190244359Y-127249080D01*
X190119175Y-127511901D01*
X190074524Y-127659110D01*
X190195845Y-127889000D01*
X191389000Y-127889000D01*
X191389000Y-127869000D01*
X191643000Y-127869000D01*
X191643000Y-127889000D01*
X191663000Y-127889000D01*
X191663000Y-128143000D01*
X191643000Y-128143000D01*
X191643000Y-128163000D01*
X191389000Y-128163000D01*
X191389000Y-128143000D01*
X190195845Y-128143000D01*
X190074524Y-128372890D01*
X190119175Y-128520099D01*
X190244359Y-128782920D01*
X190418412Y-129016269D01*
X190634645Y-129211178D01*
X190751523Y-129280799D01*
X190686986Y-129315294D01*
X190460866Y-129500866D01*
X190275294Y-129726986D01*
X190137401Y-129984966D01*
X190052487Y-130264889D01*
X190023815Y-130556000D01*
X190052487Y-130847111D01*
X190137401Y-131127034D01*
X190275294Y-131385014D01*
X190460866Y-131611134D01*
X190686986Y-131796706D01*
X190751523Y-131831201D01*
X190634645Y-131900822D01*
X190418412Y-132095731D01*
X190244359Y-132329080D01*
X190119175Y-132591901D01*
X190074524Y-132739110D01*
X190195845Y-132969000D01*
X191389000Y-132969000D01*
X191389000Y-132949000D01*
X191643000Y-132949000D01*
X191643000Y-132969000D01*
X191663000Y-132969000D01*
X191663000Y-133223000D01*
X191643000Y-133223000D01*
X191643000Y-134416814D01*
X191872891Y-134537481D01*
X192028000Y-134482459D01*
X192028000Y-141746421D01*
X190945711Y-142828711D01*
X190999202Y-142651539D01*
X191045780Y-142176500D01*
X191044826Y-142108212D01*
X190985003Y-141634659D01*
X190834338Y-141181744D01*
X190598571Y-140766719D01*
X190286683Y-140405393D01*
X189910552Y-140111527D01*
X189484505Y-139896316D01*
X189024771Y-139767956D01*
X188548861Y-139731336D01*
X188074902Y-139787853D01*
X187620946Y-139935352D01*
X187204286Y-140168215D01*
X186840791Y-140477574D01*
X186544306Y-140851644D01*
X186326126Y-141276178D01*
X186194559Y-141735004D01*
X186154618Y-142210647D01*
X186207824Y-142684990D01*
X186352151Y-143139964D01*
X186582100Y-143558240D01*
X186888913Y-143923886D01*
X187260905Y-144222974D01*
X187362334Y-144276000D01*
X185532579Y-144276000D01*
X185094382Y-143837804D01*
X185099424Y-143821184D01*
X185109546Y-143802247D01*
X185153003Y-143658986D01*
X185167677Y-143510000D01*
X185153003Y-143361014D01*
X185109546Y-143217753D01*
X185099424Y-143198816D01*
X185020599Y-142938966D01*
X184882706Y-142680986D01*
X184697134Y-142454866D01*
X184667313Y-142430393D01*
X184736180Y-142409502D01*
X184846494Y-142350537D01*
X184943185Y-142271185D01*
X185022537Y-142174494D01*
X185081502Y-142064180D01*
X185117812Y-141944482D01*
X185130072Y-141820000D01*
X185130072Y-140120000D01*
X185117812Y-139995518D01*
X185081502Y-139875820D01*
X185022537Y-139765506D01*
X184943185Y-139668815D01*
X184846494Y-139589463D01*
X184736180Y-139530498D01*
X184616482Y-139494188D01*
X184492000Y-139481928D01*
X182792000Y-139481928D01*
X182667518Y-139494188D01*
X182547820Y-139530498D01*
X182437506Y-139589463D01*
X182340815Y-139668815D01*
X182261463Y-139765506D01*
X182202498Y-139875820D01*
X182181607Y-139944687D01*
X182157134Y-139914866D01*
X181931014Y-139729294D01*
X181673034Y-139591401D01*
X181393111Y-139506487D01*
X181174950Y-139485000D01*
X181029050Y-139485000D01*
X180810889Y-139506487D01*
X180530966Y-139591401D01*
X180272986Y-139729294D01*
X180046866Y-139914866D01*
X179861294Y-140140986D01*
X179832000Y-140195791D01*
X179802706Y-140140986D01*
X179617134Y-139914866D01*
X179391014Y-139729294D01*
X179133034Y-139591401D01*
X178853111Y-139506487D01*
X178634950Y-139485000D01*
X178489050Y-139485000D01*
X178270889Y-139506487D01*
X177990966Y-139591401D01*
X177732986Y-139729294D01*
X177506866Y-139914866D01*
X177321294Y-140140986D01*
X177292000Y-140195791D01*
X177262706Y-140140986D01*
X177077134Y-139914866D01*
X176851014Y-139729294D01*
X176593034Y-139591401D01*
X176313111Y-139506487D01*
X176094950Y-139485000D01*
X175949050Y-139485000D01*
X175730889Y-139506487D01*
X175450966Y-139591401D01*
X175192986Y-139729294D01*
X174966866Y-139914866D01*
X174781294Y-140140986D01*
X174746799Y-140205523D01*
X174677178Y-140088645D01*
X174482269Y-139872412D01*
X174248920Y-139698359D01*
X173986099Y-139573175D01*
X173838890Y-139528524D01*
X173609000Y-139649845D01*
X173609000Y-140843000D01*
X173629000Y-140843000D01*
X173629000Y-141097000D01*
X173609000Y-141097000D01*
X173609000Y-141117000D01*
X173355000Y-141117000D01*
X173355000Y-141097000D01*
X173335000Y-141097000D01*
X173335000Y-140843000D01*
X173355000Y-140843000D01*
X173355000Y-139649845D01*
X173125110Y-139528524D01*
X172977901Y-139573175D01*
X172715080Y-139698359D01*
X172481731Y-139872412D01*
X172286822Y-140088645D01*
X172217201Y-140205523D01*
X172182706Y-140140986D01*
X171997134Y-139914866D01*
X171771014Y-139729294D01*
X171513034Y-139591401D01*
X171233111Y-139506487D01*
X171014950Y-139485000D01*
X170869050Y-139485000D01*
X170650889Y-139506487D01*
X170370966Y-139591401D01*
X170112986Y-139729294D01*
X169886866Y-139914866D01*
X169701294Y-140140986D01*
X169672000Y-140195791D01*
X169642706Y-140140986D01*
X169457134Y-139914866D01*
X169231014Y-139729294D01*
X168973034Y-139591401D01*
X168693111Y-139506487D01*
X168474950Y-139485000D01*
X168329050Y-139485000D01*
X168110889Y-139506487D01*
X167830966Y-139591401D01*
X167572986Y-139729294D01*
X167346866Y-139914866D01*
X167161294Y-140140986D01*
X167132000Y-140195791D01*
X167102706Y-140140986D01*
X166917134Y-139914866D01*
X166691014Y-139729294D01*
X166622000Y-139692405D01*
X166622000Y-133452890D01*
X190074524Y-133452890D01*
X190119175Y-133600099D01*
X190244359Y-133862920D01*
X190418412Y-134096269D01*
X190634645Y-134291178D01*
X190884748Y-134440157D01*
X191159109Y-134537481D01*
X191389000Y-134416814D01*
X191389000Y-133223000D01*
X190195845Y-133223000D01*
X190074524Y-133452890D01*
X166622000Y-133452890D01*
X166622000Y-112432322D01*
X166625676Y-112394999D01*
X166622000Y-112357676D01*
X166622000Y-112357667D01*
X166611003Y-112246014D01*
X166567546Y-112102753D01*
X166496974Y-111970724D01*
X166402001Y-111854999D01*
X166373003Y-111831201D01*
X164497802Y-109956000D01*
X179681573Y-109956000D01*
X179711210Y-110256913D01*
X179798983Y-110546261D01*
X179941519Y-110812927D01*
X180133339Y-111046661D01*
X180367073Y-111238481D01*
X180633739Y-111381017D01*
X180923087Y-111468790D01*
X181148592Y-111491000D01*
X183499408Y-111491000D01*
X183724913Y-111468790D01*
X184014261Y-111381017D01*
X184280927Y-111238481D01*
X184514661Y-111046661D01*
X184706481Y-110812927D01*
X184849017Y-110546261D01*
X184936790Y-110256913D01*
X184966427Y-109956000D01*
X184936790Y-109655087D01*
X184849017Y-109365739D01*
X184706481Y-109099073D01*
X184514661Y-108865339D01*
X184280927Y-108673519D01*
X184014261Y-108530983D01*
X183724913Y-108443210D01*
X183499408Y-108421000D01*
X181148592Y-108421000D01*
X180923087Y-108443210D01*
X180633739Y-108530983D01*
X180367073Y-108673519D01*
X180133339Y-108865339D01*
X179941519Y-109099073D01*
X179798983Y-109365739D01*
X179711210Y-109655087D01*
X179681573Y-109956000D01*
X164497802Y-109956000D01*
X157497802Y-102956000D01*
X177785928Y-102956000D01*
X177785928Y-107356000D01*
X177798188Y-107480482D01*
X177834498Y-107600180D01*
X177893463Y-107710494D01*
X177972815Y-107807185D01*
X178069506Y-107886537D01*
X178179820Y-107945502D01*
X178299518Y-107981812D01*
X178424000Y-107994072D01*
X180224000Y-107994072D01*
X180348482Y-107981812D01*
X180468180Y-107945502D01*
X180578494Y-107886537D01*
X180675185Y-107807185D01*
X180754537Y-107710494D01*
X180813502Y-107600180D01*
X180849812Y-107480482D01*
X180862072Y-107356000D01*
X180862072Y-105283000D01*
X183589000Y-105283000D01*
X183589000Y-106383000D01*
X183643271Y-106680023D01*
X183754446Y-106960751D01*
X183918252Y-107214396D01*
X184128394Y-107431210D01*
X184376796Y-107602862D01*
X184653913Y-107722755D01*
X184759260Y-107747036D01*
X184997000Y-107626378D01*
X184997000Y-105283000D01*
X185251000Y-105283000D01*
X185251000Y-107626378D01*
X185488740Y-107747036D01*
X185594087Y-107722755D01*
X185871204Y-107602862D01*
X186119606Y-107431210D01*
X186329748Y-107214396D01*
X186493554Y-106960751D01*
X186604729Y-106680023D01*
X186659000Y-106383000D01*
X186659000Y-105283000D01*
X185251000Y-105283000D01*
X184997000Y-105283000D01*
X183589000Y-105283000D01*
X180862072Y-105283000D01*
X180862072Y-103929000D01*
X183589000Y-103929000D01*
X183589000Y-105029000D01*
X184997000Y-105029000D01*
X184997000Y-102685622D01*
X185251000Y-102685622D01*
X185251000Y-105029000D01*
X186659000Y-105029000D01*
X186659000Y-103929000D01*
X186604729Y-103631977D01*
X186493554Y-103351249D01*
X186329748Y-103097604D01*
X186119606Y-102880790D01*
X185871204Y-102709138D01*
X185594087Y-102589245D01*
X185488740Y-102564964D01*
X185251000Y-102685622D01*
X184997000Y-102685622D01*
X184759260Y-102564964D01*
X184653913Y-102589245D01*
X184376796Y-102709138D01*
X184128394Y-102880790D01*
X183918252Y-103097604D01*
X183754446Y-103351249D01*
X183643271Y-103631977D01*
X183589000Y-103929000D01*
X180862072Y-103929000D01*
X180862072Y-102956000D01*
X180849812Y-102831518D01*
X180813502Y-102711820D01*
X180754537Y-102601506D01*
X180675185Y-102504815D01*
X180578494Y-102425463D01*
X180468180Y-102366498D01*
X180348482Y-102330188D01*
X180224000Y-102317928D01*
X178424000Y-102317928D01*
X178299518Y-102330188D01*
X178179820Y-102366498D01*
X178069506Y-102425463D01*
X177972815Y-102504815D01*
X177893463Y-102601506D01*
X177834498Y-102711820D01*
X177798188Y-102831518D01*
X177785928Y-102956000D01*
X157497802Y-102956000D01*
X155182014Y-100640212D01*
X184031000Y-100640212D01*
X184031000Y-100863788D01*
X184074617Y-101083067D01*
X184160176Y-101289624D01*
X184284388Y-101475520D01*
X184442480Y-101633612D01*
X184628376Y-101757824D01*
X184834933Y-101843383D01*
X185054212Y-101887000D01*
X185277788Y-101887000D01*
X185497067Y-101843383D01*
X185703624Y-101757824D01*
X185889520Y-101633612D01*
X186047612Y-101475520D01*
X186171824Y-101289624D01*
X186257383Y-101083067D01*
X186301000Y-100863788D01*
X186301000Y-100640212D01*
X186257383Y-100420933D01*
X186171824Y-100214376D01*
X186047612Y-100028480D01*
X185889520Y-99870388D01*
X185703624Y-99746176D01*
X185497067Y-99660617D01*
X185277788Y-99617000D01*
X185054212Y-99617000D01*
X184834933Y-99660617D01*
X184628376Y-99746176D01*
X184442480Y-99870388D01*
X184284388Y-100028480D01*
X184160176Y-100214376D01*
X184074617Y-100420933D01*
X184031000Y-100640212D01*
X155182014Y-100640212D01*
X145470804Y-90929003D01*
X145447001Y-90899999D01*
X145331276Y-90805026D01*
X145206943Y-90738568D01*
X145189205Y-90695744D01*
X145075937Y-90526226D01*
X144969756Y-90420045D01*
X147577004Y-87812798D01*
X147606001Y-87789001D01*
X147700974Y-87673276D01*
X147771546Y-87541247D01*
X147815003Y-87397986D01*
X147826000Y-87286333D01*
X147826000Y-87286324D01*
X147829676Y-87249001D01*
X147826000Y-87211678D01*
X147826000Y-75729322D01*
X147829676Y-75692000D01*
X147826000Y-75654677D01*
X147826000Y-75654667D01*
X147815003Y-75543014D01*
X147771546Y-75399753D01*
X147734262Y-75330000D01*
X147700974Y-75267723D01*
X147629799Y-75180997D01*
X147606001Y-75151999D01*
X147577003Y-75128201D01*
X147085000Y-74636199D01*
X147085000Y-74574061D01*
X147045226Y-74374102D01*
X146967205Y-74185744D01*
X146853937Y-74016226D01*
X146709774Y-73872063D01*
X146540256Y-73758795D01*
X146351898Y-73680774D01*
X146151939Y-73641000D01*
X146048000Y-73641000D01*
X146048000Y-69537711D01*
X146091937Y-69493774D01*
X146205205Y-69324256D01*
X146283226Y-69135898D01*
X146323000Y-68935939D01*
X146323000Y-68732061D01*
X146283226Y-68532102D01*
X146205205Y-68343744D01*
X146091937Y-68174226D01*
X145947774Y-68030063D01*
X145778256Y-67916795D01*
X145589898Y-67838774D01*
X145553330Y-67831500D01*
X145561000Y-67792939D01*
X145561000Y-67589061D01*
X145521226Y-67389102D01*
X145443205Y-67200744D01*
X145329937Y-67031226D01*
X145185774Y-66887063D01*
X145016256Y-66773795D01*
X144827898Y-66695774D01*
X144627939Y-66656000D01*
X144424061Y-66656000D01*
X144224102Y-66695774D01*
X144035744Y-66773795D01*
X143866226Y-66887063D01*
X143722063Y-67031226D01*
X143608795Y-67200744D01*
X143530774Y-67389102D01*
X143491000Y-67589061D01*
X143491000Y-67792939D01*
X143530774Y-67992898D01*
X143608795Y-68181256D01*
X143722063Y-68350774D01*
X143766001Y-68394712D01*
X143766001Y-70593000D01*
X143662061Y-70593000D01*
X143462102Y-70632774D01*
X143273744Y-70710795D01*
X143104226Y-70824063D01*
X142960063Y-70968226D01*
X142846795Y-71137744D01*
X142768774Y-71326102D01*
X142729000Y-71526061D01*
X142729000Y-71729939D01*
X142768774Y-71929898D01*
X142846795Y-72118256D01*
X142960063Y-72287774D01*
X143004001Y-72331712D01*
X143004000Y-73984199D01*
X141116000Y-72096199D01*
X141116000Y-72034061D01*
X141076226Y-71834102D01*
X140998205Y-71645744D01*
X140884937Y-71476226D01*
X140740774Y-71332063D01*
X140571256Y-71218795D01*
X140382898Y-71140774D01*
X140182939Y-71101000D01*
X139979061Y-71101000D01*
X139779102Y-71140774D01*
X139590744Y-71218795D01*
X139421226Y-71332063D01*
X139277063Y-71476226D01*
X139163795Y-71645744D01*
X139085774Y-71834102D01*
X139046000Y-72034061D01*
X139046000Y-72237939D01*
X139085774Y-72437898D01*
X139163795Y-72626256D01*
X139277063Y-72795774D01*
X139421226Y-72939937D01*
X139590744Y-73053205D01*
X139779102Y-73131226D01*
X139979061Y-73171000D01*
X140041199Y-73171000D01*
X143004001Y-76133803D01*
X143004000Y-82512677D01*
X143000324Y-82550000D01*
X143004000Y-82587322D01*
X143004000Y-82587332D01*
X143014997Y-82698985D01*
X143041470Y-82786256D01*
X143056573Y-82836045D01*
X142977226Y-82889063D01*
X142833063Y-83033226D01*
X142719795Y-83202744D01*
X142641774Y-83391102D01*
X142602000Y-83591061D01*
X142602000Y-83794939D01*
X142641774Y-83994898D01*
X142719795Y-84183256D01*
X142833063Y-84352774D01*
X142977226Y-84496937D01*
X143004001Y-84514827D01*
X143004000Y-85410198D01*
X140841000Y-87573199D01*
X140841000Y-87520685D01*
X140994774Y-87417937D01*
X141138937Y-87273774D01*
X141252205Y-87104256D01*
X141330226Y-86915898D01*
X141370000Y-86715939D01*
X141370000Y-86512061D01*
X141330226Y-86312102D01*
X141252205Y-86123744D01*
X141138937Y-85954226D01*
X140994774Y-85810063D01*
X140825256Y-85696795D01*
X140636898Y-85618774D01*
X140436939Y-85579000D01*
X140233061Y-85579000D01*
X140033102Y-85618774D01*
X139844744Y-85696795D01*
X139675226Y-85810063D01*
X139531063Y-85954226D01*
X139417795Y-86123744D01*
X139339774Y-86312102D01*
X139300000Y-86512061D01*
X139300000Y-86715939D01*
X139321604Y-86824549D01*
X139317324Y-86868000D01*
X139321001Y-86905332D01*
X139321001Y-87484000D01*
X139217061Y-87484000D01*
X139017102Y-87523774D01*
X138828744Y-87601795D01*
X138659226Y-87715063D01*
X138515063Y-87859226D01*
X138401795Y-88028744D01*
X138323774Y-88217102D01*
X138284000Y-88417061D01*
X138284000Y-88620939D01*
X138323774Y-88820898D01*
X138401795Y-89009256D01*
X138515063Y-89178774D01*
X138659226Y-89322937D01*
X138813000Y-89425685D01*
X138813000Y-90916988D01*
X138793256Y-90903795D01*
X138604898Y-90825774D01*
X138404939Y-90786000D01*
X138201061Y-90786000D01*
X138001102Y-90825774D01*
X137812744Y-90903795D01*
X137643226Y-91017063D01*
X137499063Y-91161226D01*
X137385795Y-91330744D01*
X137307774Y-91519102D01*
X137268000Y-91719061D01*
X137268000Y-91922939D01*
X137307774Y-92122898D01*
X137385795Y-92311256D01*
X137499063Y-92480774D01*
X137643226Y-92624937D01*
X137812744Y-92738205D01*
X138001102Y-92816226D01*
X138201061Y-92856000D01*
X138263198Y-92856000D01*
X138305001Y-92897803D01*
X138305000Y-95316198D01*
X136902998Y-96718201D01*
X136874000Y-96741999D01*
X136850202Y-96770997D01*
X136850201Y-96770998D01*
X136779026Y-96857724D01*
X136708454Y-96989754D01*
X136685529Y-97065332D01*
X136664998Y-97133014D01*
X136655884Y-97225546D01*
X136650324Y-97282000D01*
X136654001Y-97319332D01*
X136654000Y-99149677D01*
X136650324Y-99187000D01*
X136654000Y-99224322D01*
X136654000Y-99224332D01*
X136664997Y-99335985D01*
X136690551Y-99420226D01*
X136697459Y-99443000D01*
X134307711Y-99443000D01*
X134263774Y-99399063D01*
X134094256Y-99285795D01*
X133905898Y-99207774D01*
X133705939Y-99168000D01*
X133502061Y-99168000D01*
X133302102Y-99207774D01*
X133113744Y-99285795D01*
X132944226Y-99399063D01*
X132800063Y-99543226D01*
X132686795Y-99712744D01*
X132608774Y-99901102D01*
X132569000Y-100101061D01*
X132569000Y-100304939D01*
X132608774Y-100504898D01*
X132686795Y-100693256D01*
X132800063Y-100862774D01*
X132944226Y-101006937D01*
X133113744Y-101120205D01*
X133302102Y-101198226D01*
X133502061Y-101238000D01*
X133705939Y-101238000D01*
X133905898Y-101198226D01*
X134094256Y-101120205D01*
X134263774Y-101006937D01*
X134307711Y-100963000D01*
X137099199Y-100963000D01*
X141988000Y-105851802D01*
X141988001Y-126812197D01*
X139570003Y-129230196D01*
X139540999Y-129253999D01*
X139490696Y-129315294D01*
X139446026Y-129369724D01*
X139390557Y-129473498D01*
X139375454Y-129501754D01*
X139331997Y-129645015D01*
X139321000Y-129756668D01*
X139321000Y-129756678D01*
X139317324Y-129794000D01*
X139321000Y-129831323D01*
X139321001Y-135067197D01*
X139064814Y-135323385D01*
X138920256Y-135226795D01*
X138731898Y-135148774D01*
X138531939Y-135109000D01*
X138328061Y-135109000D01*
X138128102Y-135148774D01*
X137939744Y-135226795D01*
X137770226Y-135340063D01*
X137626063Y-135484226D01*
X137512795Y-135653744D01*
X137434774Y-135842102D01*
X137395000Y-136042061D01*
X137395000Y-136245939D01*
X137434774Y-136445898D01*
X137512795Y-136634256D01*
X137626063Y-136803774D01*
X137770226Y-136947937D01*
X137939744Y-137061205D01*
X138128102Y-137139226D01*
X138136335Y-137140864D01*
X136140998Y-139136201D01*
X136112000Y-139159999D01*
X136088202Y-139188997D01*
X136088201Y-139188998D01*
X136017026Y-139275724D01*
X135946454Y-139407754D01*
X135923023Y-139485000D01*
X135907931Y-139534754D01*
X135902998Y-139551015D01*
X135900156Y-139579870D01*
X135886099Y-139573175D01*
X135738890Y-139528524D01*
X135509000Y-139649845D01*
X135509000Y-140843000D01*
X135529000Y-140843000D01*
X135529000Y-141097000D01*
X135509000Y-141097000D01*
X135509000Y-141117000D01*
X135255000Y-141117000D01*
X135255000Y-141097000D01*
X134061186Y-141097000D01*
X133940519Y-141326891D01*
X134037843Y-141601252D01*
X134186822Y-141851355D01*
X134381731Y-142067588D01*
X134610756Y-142238416D01*
X134552986Y-142269294D01*
X134326866Y-142454866D01*
X134141294Y-142680986D01*
X134003401Y-142938966D01*
X133918487Y-143218889D01*
X133889815Y-143510000D01*
X133918487Y-143801111D01*
X133974133Y-143984550D01*
X114833352Y-143984550D01*
X111461911Y-140613109D01*
X133940519Y-140613109D01*
X134061186Y-140843000D01*
X135255000Y-140843000D01*
X135255000Y-139649845D01*
X135025110Y-139528524D01*
X134877901Y-139573175D01*
X134615080Y-139698359D01*
X134381731Y-139872412D01*
X134186822Y-140088645D01*
X134037843Y-140338748D01*
X133940519Y-140613109D01*
X111461911Y-140613109D01*
X105587803Y-134739002D01*
X105817490Y-134693314D01*
X106071727Y-134588005D01*
X106300535Y-134435120D01*
X106495120Y-134240535D01*
X106648005Y-134011727D01*
X106680000Y-133934485D01*
X106711995Y-134011727D01*
X106864880Y-134240535D01*
X107059465Y-134435120D01*
X107288273Y-134588005D01*
X107542510Y-134693314D01*
X107812408Y-134747000D01*
X108087592Y-134747000D01*
X108357490Y-134693314D01*
X108611727Y-134588005D01*
X108840535Y-134435120D01*
X109035120Y-134240535D01*
X109093920Y-134152535D01*
X109102188Y-134236482D01*
X109138498Y-134356180D01*
X109197463Y-134466494D01*
X109276815Y-134563185D01*
X109373506Y-134642537D01*
X109483820Y-134701502D01*
X109603518Y-134737812D01*
X109728000Y-134750072D01*
X111252000Y-134750072D01*
X111376482Y-134737812D01*
X111496180Y-134701502D01*
X111606494Y-134642537D01*
X111703185Y-134563185D01*
X111782537Y-134466494D01*
X111841502Y-134356180D01*
X111877812Y-134236482D01*
X111890072Y-134112000D01*
X111890072Y-132588000D01*
X111877812Y-132463518D01*
X111841502Y-132343820D01*
X111782537Y-132233506D01*
X111703185Y-132136815D01*
X111606494Y-132057463D01*
X111496180Y-131998498D01*
X111376482Y-131962188D01*
X111292535Y-131953920D01*
X111380535Y-131895120D01*
X111575120Y-131700535D01*
X111728005Y-131471727D01*
X111833314Y-131217490D01*
X111887000Y-130947592D01*
X111887000Y-130672408D01*
X111833314Y-130402510D01*
X111728005Y-130148273D01*
X111575120Y-129919465D01*
X111380535Y-129724880D01*
X111151727Y-129571995D01*
X111074485Y-129540000D01*
X111151727Y-129508005D01*
X111380535Y-129355120D01*
X111575120Y-129160535D01*
X111728005Y-128931727D01*
X111833314Y-128677490D01*
X111887000Y-128407592D01*
X111887000Y-128132408D01*
X111833314Y-127862510D01*
X111790853Y-127760000D01*
X114366199Y-127760000D01*
X114535000Y-127928801D01*
X114535000Y-127990939D01*
X114574774Y-128190898D01*
X114652795Y-128379256D01*
X114766063Y-128548774D01*
X114910226Y-128692937D01*
X115079744Y-128806205D01*
X115268102Y-128884226D01*
X115468061Y-128924000D01*
X115585026Y-128924000D01*
X115590774Y-128952898D01*
X115668795Y-129141256D01*
X115782063Y-129310774D01*
X115926226Y-129454937D01*
X116095744Y-129568205D01*
X116284102Y-129646226D01*
X116484061Y-129686000D01*
X116687939Y-129686000D01*
X116887898Y-129646226D01*
X117076256Y-129568205D01*
X117245774Y-129454937D01*
X117389937Y-129310774D01*
X117503205Y-129141256D01*
X117581226Y-128952898D01*
X117621000Y-128752939D01*
X117621000Y-128549061D01*
X117581226Y-128349102D01*
X117503205Y-128160744D01*
X117389937Y-127991226D01*
X117346000Y-127947289D01*
X117346000Y-127545322D01*
X117349676Y-127508000D01*
X117346000Y-127470677D01*
X117346000Y-127470667D01*
X117335003Y-127359014D01*
X117291546Y-127215753D01*
X117255858Y-127148986D01*
X117220974Y-127083723D01*
X117149799Y-126996997D01*
X117126001Y-126967999D01*
X117097003Y-126944201D01*
X116133804Y-125981002D01*
X116110001Y-125951999D01*
X115994276Y-125857026D01*
X115862247Y-125786454D01*
X115718986Y-125742997D01*
X115607333Y-125732000D01*
X115607322Y-125732000D01*
X115570000Y-125728324D01*
X115532678Y-125732000D01*
X113471802Y-125732000D01*
X111688804Y-123949003D01*
X111674584Y-123931676D01*
X111728005Y-123851727D01*
X111833314Y-123597490D01*
X111887000Y-123327592D01*
X111887000Y-123052408D01*
X111833314Y-122782510D01*
X111728005Y-122528273D01*
X111575120Y-122299465D01*
X111380535Y-122104880D01*
X111151727Y-121951995D01*
X111074485Y-121920000D01*
X111151727Y-121888005D01*
X111380535Y-121735120D01*
X111575120Y-121540535D01*
X111728005Y-121311727D01*
X111833314Y-121057490D01*
X111887000Y-120787592D01*
X111887000Y-120512408D01*
X111833314Y-120242510D01*
X111728005Y-119988273D01*
X111575120Y-119759465D01*
X111380535Y-119564880D01*
X111151727Y-119411995D01*
X111074485Y-119380000D01*
X111151727Y-119348005D01*
X111380535Y-119195120D01*
X111575120Y-119000535D01*
X111728005Y-118771727D01*
X111833314Y-118517490D01*
X111887000Y-118247592D01*
X111887000Y-117972408D01*
X111833314Y-117702510D01*
X111728005Y-117448273D01*
X111575120Y-117219465D01*
X111380535Y-117024880D01*
X111151727Y-116871995D01*
X111074485Y-116840000D01*
X111151727Y-116808005D01*
X111380535Y-116655120D01*
X111575120Y-116460535D01*
X111728005Y-116231727D01*
X111833314Y-115977490D01*
X111887000Y-115707592D01*
X111887000Y-115432408D01*
X111837788Y-115185000D01*
X112605531Y-115185000D01*
X112649000Y-115189281D01*
X112692469Y-115185000D01*
X112692477Y-115185000D01*
X112822490Y-115172195D01*
X112989313Y-115121589D01*
X113143059Y-115039411D01*
X113277817Y-114928817D01*
X113305534Y-114895044D01*
X116571579Y-111629000D01*
X124556546Y-111629000D01*
X124604744Y-111661205D01*
X124793102Y-111739226D01*
X124993061Y-111779000D01*
X125196939Y-111779000D01*
X125396898Y-111739226D01*
X125585256Y-111661205D01*
X125754774Y-111547937D01*
X125898937Y-111403774D01*
X126012205Y-111234256D01*
X126090226Y-111045898D01*
X126130000Y-110845939D01*
X126130000Y-110642061D01*
X126090226Y-110442102D01*
X126012205Y-110253744D01*
X125898937Y-110084226D01*
X125754774Y-109940063D01*
X125585256Y-109826795D01*
X125396898Y-109748774D01*
X125196939Y-109709000D01*
X124993061Y-109709000D01*
X124793102Y-109748774D01*
X124604744Y-109826795D01*
X124556546Y-109859000D01*
X120695804Y-109859000D01*
X120858588Y-109712269D01*
X121032641Y-109478920D01*
X121157825Y-109216099D01*
X121202476Y-109068890D01*
X121081155Y-108839000D01*
X119888000Y-108839000D01*
X119888000Y-108859000D01*
X119634000Y-108859000D01*
X119634000Y-108839000D01*
X118440845Y-108839000D01*
X118319524Y-109068890D01*
X118364175Y-109216099D01*
X118489359Y-109478920D01*
X118663412Y-109712269D01*
X118826196Y-109859000D01*
X116571579Y-109859000D01*
X115337532Y-108624954D01*
X115309817Y-108591183D01*
X115175059Y-108480589D01*
X115021313Y-108398411D01*
X114854490Y-108347805D01*
X114724477Y-108335000D01*
X114724469Y-108335000D01*
X114681000Y-108330719D01*
X114637531Y-108335000D01*
X111837788Y-108335000D01*
X111887000Y-108087592D01*
X111887000Y-107812408D01*
X111837788Y-107565000D01*
X112351531Y-107565000D01*
X112395000Y-107569281D01*
X112438469Y-107565000D01*
X112438477Y-107565000D01*
X112568490Y-107552195D01*
X112735313Y-107501589D01*
X112889059Y-107419411D01*
X113023817Y-107308817D01*
X113051534Y-107275044D01*
X113777579Y-106549000D01*
X117317546Y-106549000D01*
X117365744Y-106581205D01*
X117554102Y-106659226D01*
X117754061Y-106699000D01*
X117957939Y-106699000D01*
X118157898Y-106659226D01*
X118334756Y-106585969D01*
X118382401Y-106743034D01*
X118520294Y-107001014D01*
X118705866Y-107227134D01*
X118931986Y-107412706D01*
X118996523Y-107447201D01*
X118879645Y-107516822D01*
X118663412Y-107711731D01*
X118489359Y-107945080D01*
X118364175Y-108207901D01*
X118319524Y-108355110D01*
X118440845Y-108585000D01*
X119634000Y-108585000D01*
X119634000Y-108565000D01*
X119888000Y-108565000D01*
X119888000Y-108585000D01*
X121081155Y-108585000D01*
X121202476Y-108355110D01*
X121157825Y-108207901D01*
X121032641Y-107945080D01*
X120858588Y-107711731D01*
X120642355Y-107516822D01*
X120525477Y-107447201D01*
X120590014Y-107412706D01*
X120816134Y-107227134D01*
X121001706Y-107001014D01*
X121139599Y-106743034D01*
X121224513Y-106463111D01*
X121253185Y-106172000D01*
X121224513Y-105880889D01*
X121158114Y-105662000D01*
X129725289Y-105662000D01*
X129769226Y-105705937D01*
X129938744Y-105819205D01*
X130127102Y-105897226D01*
X130327061Y-105937000D01*
X130530939Y-105937000D01*
X130730898Y-105897226D01*
X130919256Y-105819205D01*
X131088774Y-105705937D01*
X131232937Y-105561774D01*
X131346205Y-105392256D01*
X131424226Y-105203898D01*
X131464000Y-105003939D01*
X131464000Y-104800061D01*
X131424226Y-104600102D01*
X131346205Y-104411744D01*
X131232937Y-104242226D01*
X131088774Y-104098063D01*
X130919256Y-103984795D01*
X130730898Y-103906774D01*
X130530939Y-103867000D01*
X130327061Y-103867000D01*
X130127102Y-103906774D01*
X129938744Y-103984795D01*
X129769226Y-104098063D01*
X129725289Y-104142000D01*
X121249072Y-104142000D01*
X121249072Y-102782000D01*
X121236812Y-102657518D01*
X121200502Y-102537820D01*
X121141537Y-102427506D01*
X121062185Y-102330815D01*
X120965494Y-102251463D01*
X120855180Y-102192498D01*
X120735482Y-102156188D01*
X120611000Y-102143928D01*
X120521000Y-102143928D01*
X120521000Y-100748322D01*
X120524676Y-100710999D01*
X120521000Y-100673676D01*
X120521000Y-100673667D01*
X120510003Y-100562014D01*
X120466546Y-100418753D01*
X120430858Y-100351986D01*
X120395974Y-100286723D01*
X120324799Y-100199997D01*
X120301001Y-100170999D01*
X120272003Y-100147201D01*
X116133804Y-96009003D01*
X116110001Y-95979999D01*
X115994276Y-95885026D01*
X115862247Y-95814454D01*
X115718986Y-95770997D01*
X115607333Y-95760000D01*
X115607322Y-95760000D01*
X115570000Y-95756324D01*
X115532678Y-95760000D01*
X111790853Y-95760000D01*
X111833314Y-95657490D01*
X111887000Y-95387592D01*
X111887000Y-95112408D01*
X111833314Y-94842510D01*
X111790853Y-94740000D01*
X135948289Y-94740000D01*
X135992226Y-94783937D01*
X136161744Y-94897205D01*
X136350102Y-94975226D01*
X136550061Y-95015000D01*
X136753939Y-95015000D01*
X136953898Y-94975226D01*
X137142256Y-94897205D01*
X137311774Y-94783937D01*
X137455937Y-94639774D01*
X137569205Y-94470256D01*
X137647226Y-94281898D01*
X137687000Y-94081939D01*
X137687000Y-93878061D01*
X137647226Y-93678102D01*
X137569205Y-93489744D01*
X137455937Y-93320226D01*
X137311774Y-93176063D01*
X137142256Y-93062795D01*
X136953898Y-92984774D01*
X136753939Y-92945000D01*
X136550061Y-92945000D01*
X136350102Y-92984774D01*
X136161744Y-93062795D01*
X135992226Y-93176063D01*
X135948289Y-93220000D01*
X111790853Y-93220000D01*
X111833314Y-93117490D01*
X111887000Y-92847592D01*
X111887000Y-92572408D01*
X111833314Y-92302510D01*
X111728005Y-92048273D01*
X111575120Y-91819465D01*
X111380535Y-91624880D01*
X111151727Y-91471995D01*
X111074485Y-91440000D01*
X111151727Y-91408005D01*
X111380535Y-91255120D01*
X111575120Y-91060535D01*
X111728005Y-90831727D01*
X111833314Y-90577490D01*
X111887000Y-90307592D01*
X111887000Y-90032408D01*
X111833314Y-89762510D01*
X111728005Y-89508273D01*
X111575120Y-89279465D01*
X111380535Y-89084880D01*
X111151727Y-88931995D01*
X111074485Y-88900000D01*
X111151727Y-88868005D01*
X111380535Y-88715120D01*
X111575120Y-88520535D01*
X111728005Y-88291727D01*
X111833314Y-88037490D01*
X111887000Y-87767592D01*
X111887000Y-87492408D01*
X111833314Y-87222510D01*
X111728005Y-86968273D01*
X111575120Y-86739465D01*
X111380535Y-86544880D01*
X111151727Y-86391995D01*
X111074485Y-86360000D01*
X111151727Y-86328005D01*
X111380535Y-86175120D01*
X111575120Y-85980535D01*
X111662341Y-85850000D01*
X112461199Y-85850000D01*
X116022201Y-89411003D01*
X116045999Y-89440001D01*
X116161724Y-89534974D01*
X116293753Y-89605546D01*
X116437014Y-89649003D01*
X116548667Y-89660000D01*
X116548675Y-89660000D01*
X116586000Y-89663676D01*
X116623325Y-89660000D01*
X135948289Y-89660000D01*
X135992226Y-89703937D01*
X136161744Y-89817205D01*
X136350102Y-89895226D01*
X136550061Y-89935000D01*
X136753939Y-89935000D01*
X136953898Y-89895226D01*
X137142256Y-89817205D01*
X137311774Y-89703937D01*
X137455937Y-89559774D01*
X137569205Y-89390256D01*
X137647226Y-89201898D01*
X137687000Y-89001939D01*
X137687000Y-88798061D01*
X137647226Y-88598102D01*
X137569205Y-88409744D01*
X137455937Y-88240226D01*
X137311774Y-88096063D01*
X137142256Y-87982795D01*
X136953898Y-87904774D01*
X136753939Y-87865000D01*
X136550061Y-87865000D01*
X136350102Y-87904774D01*
X136161744Y-87982795D01*
X135992226Y-88096063D01*
X135948289Y-88140000D01*
X129909356Y-88140000D01*
X129940000Y-87985939D01*
X129940000Y-87876533D01*
X130073061Y-87903000D01*
X130276939Y-87903000D01*
X130476898Y-87863226D01*
X130665256Y-87785205D01*
X130834774Y-87671937D01*
X130978937Y-87527774D01*
X131092205Y-87358256D01*
X131170226Y-87169898D01*
X131210000Y-86969939D01*
X131210000Y-86766061D01*
X131170226Y-86566102D01*
X131092205Y-86377744D01*
X130978937Y-86208226D01*
X130834774Y-86064063D01*
X130665256Y-85950795D01*
X130476898Y-85872774D01*
X130276939Y-85833000D01*
X130073061Y-85833000D01*
X129873102Y-85872774D01*
X129684744Y-85950795D01*
X129515226Y-86064063D01*
X129471289Y-86108000D01*
X117408802Y-86108000D01*
X111799624Y-80498823D01*
X111833314Y-80417490D01*
X111887000Y-80147592D01*
X111887000Y-79872408D01*
X111833314Y-79602510D01*
X111728005Y-79348273D01*
X111575120Y-79119465D01*
X111380535Y-78924880D01*
X111151727Y-78771995D01*
X111074485Y-78740000D01*
X111151727Y-78708005D01*
X111380535Y-78555120D01*
X111575120Y-78360535D01*
X111728005Y-78131727D01*
X111833314Y-77877490D01*
X111887000Y-77607592D01*
X111887000Y-77332408D01*
X111833314Y-77062510D01*
X111728005Y-76808273D01*
X111575120Y-76579465D01*
X111380535Y-76384880D01*
X111151727Y-76231995D01*
X111074485Y-76200000D01*
X111151727Y-76168005D01*
X111380535Y-76015120D01*
X111575120Y-75820535D01*
X111728005Y-75591727D01*
X111833314Y-75337490D01*
X111887000Y-75067592D01*
X111887000Y-74792408D01*
X111833314Y-74522510D01*
X111728005Y-74268273D01*
X111575120Y-74039465D01*
X111380535Y-73844880D01*
X111151727Y-73691995D01*
X111074485Y-73660000D01*
X111151727Y-73628005D01*
X111293911Y-73533000D01*
X123442324Y-73533000D01*
X123446001Y-73570332D01*
X123446000Y-77432677D01*
X123442324Y-77470000D01*
X123446000Y-77507322D01*
X123446000Y-77507332D01*
X123456997Y-77618985D01*
X123498559Y-77756000D01*
X123500454Y-77762246D01*
X123571026Y-77894276D01*
X123608348Y-77939753D01*
X123665999Y-78010001D01*
X123695002Y-78033803D01*
X124404201Y-78743002D01*
X124427999Y-78772001D01*
X124543724Y-78866974D01*
X124675753Y-78937546D01*
X124819014Y-78981003D01*
X124930667Y-78992000D01*
X124930675Y-78992000D01*
X124968000Y-78995676D01*
X125005325Y-78992000D01*
X126177199Y-78992000D01*
X126219000Y-79033801D01*
X126219000Y-79095939D01*
X126258774Y-79295898D01*
X126336795Y-79484256D01*
X126450063Y-79653774D01*
X126594226Y-79797937D01*
X126763744Y-79911205D01*
X126952102Y-79989226D01*
X127152061Y-80029000D01*
X127355939Y-80029000D01*
X127555898Y-79989226D01*
X127744256Y-79911205D01*
X127913774Y-79797937D01*
X128057937Y-79653774D01*
X128171205Y-79484256D01*
X128249226Y-79295898D01*
X128289000Y-79095939D01*
X128289000Y-78892061D01*
X128249226Y-78692102D01*
X128171205Y-78503744D01*
X128057937Y-78334226D01*
X127913774Y-78190063D01*
X127744256Y-78076795D01*
X127555898Y-77998774D01*
X127355939Y-77959000D01*
X127293801Y-77959000D01*
X127055803Y-77721002D01*
X127032001Y-77691999D01*
X126916276Y-77597026D01*
X126784247Y-77526454D01*
X126640986Y-77482997D01*
X126529333Y-77472000D01*
X126529322Y-77472000D01*
X126492000Y-77468324D01*
X126454678Y-77472000D01*
X126226356Y-77472000D01*
X126257000Y-77317939D01*
X126257000Y-77114061D01*
X126217226Y-76914102D01*
X126154773Y-76763329D01*
X126220256Y-76736205D01*
X126389774Y-76622937D01*
X126433711Y-76579000D01*
X128486678Y-76579000D01*
X128524000Y-76582676D01*
X128561322Y-76579000D01*
X128561333Y-76579000D01*
X128672986Y-76568003D01*
X128816247Y-76524546D01*
X128948276Y-76453974D01*
X129064001Y-76359001D01*
X129087804Y-76329997D01*
X130302000Y-75115801D01*
X135003001Y-79816803D01*
X135003000Y-81973289D01*
X134959063Y-82017226D01*
X134845795Y-82186744D01*
X134767774Y-82375102D01*
X134728000Y-82575061D01*
X134728000Y-82778939D01*
X134767774Y-82978898D01*
X134845795Y-83167256D01*
X134959063Y-83336774D01*
X135103226Y-83480937D01*
X135272744Y-83594205D01*
X135461102Y-83672226D01*
X135661061Y-83712000D01*
X135864939Y-83712000D01*
X136064898Y-83672226D01*
X136253256Y-83594205D01*
X136384169Y-83506732D01*
X136477102Y-83545226D01*
X136677061Y-83585000D01*
X136880939Y-83585000D01*
X137080898Y-83545226D01*
X137269256Y-83467205D01*
X137438774Y-83353937D01*
X137582937Y-83209774D01*
X137696205Y-83040256D01*
X137774226Y-82851898D01*
X137814000Y-82651939D01*
X137814000Y-82448061D01*
X137774226Y-82248102D01*
X137696205Y-82059744D01*
X137582937Y-81890226D01*
X137539000Y-81846289D01*
X137539000Y-79666322D01*
X137542676Y-79628999D01*
X137539000Y-79591677D01*
X137539000Y-79591667D01*
X137528003Y-79480014D01*
X137484546Y-79336753D01*
X137444053Y-79260997D01*
X137413974Y-79204723D01*
X137342799Y-79117997D01*
X137319001Y-79088999D01*
X137290003Y-79065201D01*
X133344180Y-75119379D01*
X133374774Y-75098937D01*
X133518937Y-74954774D01*
X133632205Y-74785256D01*
X133710226Y-74596898D01*
X133750000Y-74396939D01*
X133750000Y-74193061D01*
X133710226Y-73993102D01*
X133632205Y-73804744D01*
X133600000Y-73756546D01*
X133600000Y-66324454D01*
X133632205Y-66276256D01*
X133710226Y-66087898D01*
X133750000Y-65887939D01*
X133750000Y-65684061D01*
X133710226Y-65484102D01*
X133632205Y-65295744D01*
X133518937Y-65126226D01*
X133374774Y-64982063D01*
X133268050Y-64910752D01*
X134426802Y-63752000D01*
X144761036Y-63752000D01*
X144670147Y-63971426D01*
X144615000Y-64248665D01*
X144615000Y-64531335D01*
X144670147Y-64808574D01*
X144778320Y-65069727D01*
X144935363Y-65304759D01*
X145135241Y-65504637D01*
X145370273Y-65661680D01*
X145631426Y-65769853D01*
X145908665Y-65825000D01*
X146191335Y-65825000D01*
X146468574Y-65769853D01*
X146729727Y-65661680D01*
X146964759Y-65504637D01*
X147164637Y-65304759D01*
X147321680Y-65069727D01*
X147429853Y-64808574D01*
X147485000Y-64531335D01*
X147485000Y-64248665D01*
X147429853Y-63971426D01*
X147395366Y-63888168D01*
X149079000Y-65571803D01*
X149079000Y-65633939D01*
X149118774Y-65833898D01*
X149196795Y-66022256D01*
X149310063Y-66191774D01*
X149454226Y-66335937D01*
X149623744Y-66449205D01*
X149812102Y-66527226D01*
X150012061Y-66567000D01*
X150215939Y-66567000D01*
X150415898Y-66527226D01*
X150604256Y-66449205D01*
X150773774Y-66335937D01*
X150917937Y-66191774D01*
X150989248Y-66085049D01*
X153418000Y-68513802D01*
X153418001Y-95308288D01*
X153374063Y-95352226D01*
X153260795Y-95521744D01*
X153182774Y-95710102D01*
X153143000Y-95910061D01*
X153143000Y-96113939D01*
X153182774Y-96313898D01*
X153260795Y-96502256D01*
X153374063Y-96671774D01*
X153518226Y-96815937D01*
X153687744Y-96929205D01*
X153876102Y-97007226D01*
X154076061Y-97047000D01*
X154279939Y-97047000D01*
X154479898Y-97007226D01*
X154668256Y-96929205D01*
X154837774Y-96815937D01*
X154981937Y-96671774D01*
X155095205Y-96502256D01*
X155173226Y-96313898D01*
X155187882Y-96240212D01*
X184031000Y-96240212D01*
X184031000Y-96463788D01*
X184074617Y-96683067D01*
X184160176Y-96889624D01*
X184284388Y-97075520D01*
X184442480Y-97233612D01*
X184628376Y-97357824D01*
X184834933Y-97443383D01*
X185054212Y-97487000D01*
X185277788Y-97487000D01*
X185497067Y-97443383D01*
X185703624Y-97357824D01*
X185889520Y-97233612D01*
X186047612Y-97075520D01*
X186171824Y-96889624D01*
X186257383Y-96683067D01*
X186301000Y-96463788D01*
X186301000Y-96240212D01*
X186257383Y-96020933D01*
X186171824Y-95814376D01*
X186047612Y-95628480D01*
X185889520Y-95470388D01*
X185703624Y-95346176D01*
X185497067Y-95260617D01*
X185277788Y-95217000D01*
X185054212Y-95217000D01*
X184834933Y-95260617D01*
X184628376Y-95346176D01*
X184442480Y-95470388D01*
X184284388Y-95628480D01*
X184160176Y-95814376D01*
X184074617Y-96020933D01*
X184031000Y-96240212D01*
X155187882Y-96240212D01*
X155213000Y-96113939D01*
X155213000Y-95910061D01*
X155173226Y-95710102D01*
X155095205Y-95521744D01*
X154981937Y-95352226D01*
X154938000Y-95308289D01*
X154938000Y-93739617D01*
X154965061Y-93745000D01*
X155168939Y-93745000D01*
X155368898Y-93705226D01*
X155557256Y-93627205D01*
X155726774Y-93513937D01*
X155870937Y-93369774D01*
X155984205Y-93200256D01*
X156062226Y-93011898D01*
X156102000Y-92811939D01*
X156102000Y-92608061D01*
X156075943Y-92477064D01*
X156234774Y-92370937D01*
X156378937Y-92226774D01*
X156492205Y-92057256D01*
X156570226Y-91868898D01*
X156610000Y-91668939D01*
X156610000Y-91465061D01*
X156570226Y-91265102D01*
X156492205Y-91076744D01*
X156378937Y-90907226D01*
X156335000Y-90863289D01*
X156335000Y-67855322D01*
X156338676Y-67817999D01*
X156335000Y-67780676D01*
X156335000Y-67780667D01*
X156324003Y-67669014D01*
X156280546Y-67525753D01*
X156251387Y-67471201D01*
X156209974Y-67393723D01*
X156138799Y-67306997D01*
X156115001Y-67277999D01*
X156086004Y-67254202D01*
X154261863Y-65430061D01*
X176257000Y-65430061D01*
X176257000Y-65633939D01*
X176296774Y-65833898D01*
X176374795Y-66022256D01*
X176488063Y-66191774D01*
X176532001Y-66235712D01*
X176532000Y-78544289D01*
X176488063Y-78588226D01*
X176374795Y-78757744D01*
X176296774Y-78946102D01*
X176257000Y-79146061D01*
X176257000Y-79349939D01*
X176296774Y-79549898D01*
X176374795Y-79738256D01*
X176488063Y-79907774D01*
X176632226Y-80051937D01*
X176801744Y-80165205D01*
X176990102Y-80243226D01*
X177190061Y-80283000D01*
X177393939Y-80283000D01*
X177593898Y-80243226D01*
X177782256Y-80165205D01*
X177951774Y-80051937D01*
X178095937Y-79907774D01*
X178209205Y-79738256D01*
X178287226Y-79549898D01*
X178327000Y-79349939D01*
X178327000Y-79146061D01*
X178287226Y-78946102D01*
X178209205Y-78757744D01*
X178095937Y-78588226D01*
X178052000Y-78544289D01*
X178052000Y-66235711D01*
X178095937Y-66191774D01*
X178209205Y-66022256D01*
X178287226Y-65833898D01*
X178327000Y-65633939D01*
X178327000Y-65430061D01*
X178287226Y-65230102D01*
X178209205Y-65041744D01*
X178095937Y-64872226D01*
X177951774Y-64728063D01*
X177782256Y-64614795D01*
X177593898Y-64536774D01*
X177393939Y-64497000D01*
X177190061Y-64497000D01*
X176990102Y-64536774D01*
X176801744Y-64614795D01*
X176632226Y-64728063D01*
X176488063Y-64872226D01*
X176374795Y-65041744D01*
X176296774Y-65230102D01*
X176257000Y-65430061D01*
X154261863Y-65430061D01*
X151824894Y-62993092D01*
X186159698Y-62993092D01*
X186212849Y-63466942D01*
X186357025Y-63921443D01*
X186586736Y-64339285D01*
X186893231Y-64704551D01*
X187264835Y-65003329D01*
X187687396Y-65224239D01*
X188144817Y-65358865D01*
X188619676Y-65402080D01*
X189093886Y-65352239D01*
X189549383Y-65211239D01*
X189968818Y-64984451D01*
X190336215Y-64680514D01*
X190637580Y-64311004D01*
X190861434Y-63889996D01*
X190999250Y-63433526D01*
X191045780Y-62958980D01*
X191044827Y-62890763D01*
X190985066Y-62417702D01*
X190834558Y-61965257D01*
X190599036Y-61550664D01*
X190287471Y-61189712D01*
X189911731Y-60896152D01*
X189486127Y-60681164D01*
X189026870Y-60552937D01*
X188551454Y-60516356D01*
X188077987Y-60572813D01*
X187624503Y-60720159D01*
X187208275Y-60952781D01*
X186845158Y-61261818D01*
X186548981Y-61635500D01*
X186331027Y-62059593D01*
X186199598Y-62517943D01*
X186159698Y-62993092D01*
X151824894Y-62993092D01*
X149788804Y-60957003D01*
X149765001Y-60927999D01*
X149649276Y-60833026D01*
X149517247Y-60762454D01*
X149373986Y-60718997D01*
X149262333Y-60708000D01*
X149262322Y-60708000D01*
X149225000Y-60704324D01*
X149187678Y-60708000D01*
X133006325Y-60708000D01*
X132969000Y-60704324D01*
X132931675Y-60708000D01*
X132931667Y-60708000D01*
X132820014Y-60718997D01*
X132676753Y-60762454D01*
X132544724Y-60833026D01*
X132428999Y-60927999D01*
X132405201Y-60956997D01*
X127631998Y-65730201D01*
X127603000Y-65753999D01*
X127579202Y-65782997D01*
X127579201Y-65782998D01*
X127508026Y-65869724D01*
X127437454Y-66001754D01*
X127416146Y-66072000D01*
X127393998Y-66145014D01*
X127384884Y-66237545D01*
X127379324Y-66294000D01*
X127383001Y-66331332D01*
X127383000Y-69281198D01*
X123694998Y-72969201D01*
X123666000Y-72992999D01*
X123642202Y-73021997D01*
X123642201Y-73021998D01*
X123571026Y-73108724D01*
X123500454Y-73240754D01*
X123488845Y-73279026D01*
X123456998Y-73384014D01*
X123446001Y-73495667D01*
X123442324Y-73533000D01*
X111293911Y-73533000D01*
X111380535Y-73475120D01*
X111575120Y-73280535D01*
X111728005Y-73051727D01*
X111833314Y-72797490D01*
X111887000Y-72527592D01*
X111887000Y-72252408D01*
X111833314Y-71982510D01*
X111728005Y-71728273D01*
X111575120Y-71499465D01*
X111380535Y-71304880D01*
X111151727Y-71151995D01*
X111074485Y-71120000D01*
X111151727Y-71088005D01*
X111380535Y-70935120D01*
X111575120Y-70740535D01*
X111728005Y-70511727D01*
X111833314Y-70257490D01*
X111887000Y-69987592D01*
X111887000Y-69712408D01*
X111833314Y-69442510D01*
X111728005Y-69188273D01*
X111575120Y-68959465D01*
X111380535Y-68764880D01*
X111151727Y-68611995D01*
X110897490Y-68506686D01*
X110627592Y-68453000D01*
X110352408Y-68453000D01*
X110082510Y-68506686D01*
X109828273Y-68611995D01*
X109599465Y-68764880D01*
X109404880Y-68959465D01*
X109251995Y-69188273D01*
X109220000Y-69265515D01*
X109188005Y-69188273D01*
X109035120Y-68959465D01*
X108840535Y-68764880D01*
X108611727Y-68611995D01*
X108357490Y-68506686D01*
X108087592Y-68453000D01*
X107812408Y-68453000D01*
X107542510Y-68506686D01*
X107288273Y-68611995D01*
X107059465Y-68764880D01*
X106864880Y-68959465D01*
X106711995Y-69188273D01*
X106680000Y-69265515D01*
X106648005Y-69188273D01*
X106495120Y-68959465D01*
X106300535Y-68764880D01*
X106071727Y-68611995D01*
X105817490Y-68506686D01*
X105547592Y-68453000D01*
X105272408Y-68453000D01*
X105002510Y-68506686D01*
X104748273Y-68611995D01*
X104676879Y-68659699D01*
X107275050Y-66061529D01*
X107308817Y-66033817D01*
X107407949Y-65913026D01*
X107419411Y-65899059D01*
X107501589Y-65745314D01*
X107552195Y-65578490D01*
X107558548Y-65513987D01*
X107565000Y-65448477D01*
X107565000Y-65448469D01*
X107569281Y-65405000D01*
X107565000Y-65361531D01*
X107565000Y-61759802D01*
X107627934Y-61766000D01*
X107732066Y-61766000D01*
X107887796Y-61750662D01*
X108087607Y-61690050D01*
X108180000Y-61640665D01*
X108272393Y-61690050D01*
X108472204Y-61750662D01*
X108627934Y-61766000D01*
X108732066Y-61766000D01*
X108887796Y-61750662D01*
X109087607Y-61690050D01*
X109181809Y-61639698D01*
X109354750Y-61714872D01*
X109389938Y-61725540D01*
X109553000Y-61598257D01*
X109553000Y-61313133D01*
X109565622Y-61297753D01*
X109664050Y-61113607D01*
X109682632Y-61052351D01*
X109736632Y-61189394D01*
X109807000Y-61298768D01*
X109807000Y-61598257D01*
X109970062Y-61725540D01*
X110005250Y-61714872D01*
X110180000Y-61638912D01*
X110354750Y-61714872D01*
X110389938Y-61725540D01*
X110553000Y-61598257D01*
X110553000Y-61298768D01*
X110623368Y-61189394D01*
X110699547Y-60996064D01*
X110573621Y-60833000D01*
X110807000Y-60833000D01*
X110807000Y-61598257D01*
X110970062Y-61725540D01*
X111005250Y-61714872D01*
X111195822Y-61632034D01*
X111366571Y-61513609D01*
X111510936Y-61364148D01*
X111623368Y-61189394D01*
X111699547Y-60996064D01*
X111573621Y-60833000D01*
X110807000Y-60833000D01*
X110573621Y-60833000D01*
X110533000Y-60833000D01*
X110533000Y-60579000D01*
X110573621Y-60579000D01*
X110589066Y-60559000D01*
X110807000Y-60559000D01*
X110807000Y-60579000D01*
X111573621Y-60579000D01*
X111699547Y-60415936D01*
X111623368Y-60222606D01*
X111510936Y-60047852D01*
X111366571Y-59898391D01*
X111195822Y-59779966D01*
X111005250Y-59697128D01*
X110970062Y-59686460D01*
X110807002Y-59813741D01*
X110807002Y-59686000D01*
X190895422Y-59686000D01*
X192155001Y-60945580D01*
X192155001Y-60945580D01*
G37*
X192155001Y-60945580D02*
X192155000Y-75579421D01*
X189269951Y-78464471D01*
X189236184Y-78492183D01*
X189208471Y-78525951D01*
X189208468Y-78525954D01*
X189125590Y-78626941D01*
X189043412Y-78780687D01*
X188992805Y-78947510D01*
X188975719Y-79121000D01*
X188980001Y-79164479D01*
X188980000Y-110700531D01*
X188975719Y-110744000D01*
X188980000Y-110787469D01*
X188980000Y-110787476D01*
X188988229Y-110871026D01*
X188992805Y-110917490D01*
X189003001Y-110951099D01*
X189043411Y-111084312D01*
X189125589Y-111238058D01*
X189236183Y-111372817D01*
X189269954Y-111400532D01*
X192028001Y-114158580D01*
X192028001Y-123987928D01*
X190666000Y-123987928D01*
X190541518Y-124000188D01*
X190421820Y-124036498D01*
X190311506Y-124095463D01*
X190214815Y-124174815D01*
X190135463Y-124271506D01*
X190076498Y-124381820D01*
X190040188Y-124501518D01*
X190027928Y-124626000D01*
X190027928Y-126326000D01*
X190040188Y-126450482D01*
X190076498Y-126570180D01*
X190135463Y-126680494D01*
X190214815Y-126777185D01*
X190311506Y-126856537D01*
X190421820Y-126915502D01*
X190502466Y-126939966D01*
X190418412Y-127015731D01*
X190244359Y-127249080D01*
X190119175Y-127511901D01*
X190074524Y-127659110D01*
X190195845Y-127889000D01*
X191389000Y-127889000D01*
X191389000Y-127869000D01*
X191643000Y-127869000D01*
X191643000Y-127889000D01*
X191663000Y-127889000D01*
X191663000Y-128143000D01*
X191643000Y-128143000D01*
X191643000Y-128163000D01*
X191389000Y-128163000D01*
X191389000Y-128143000D01*
X190195845Y-128143000D01*
X190074524Y-128372890D01*
X190119175Y-128520099D01*
X190244359Y-128782920D01*
X190418412Y-129016269D01*
X190634645Y-129211178D01*
X190751523Y-129280799D01*
X190686986Y-129315294D01*
X190460866Y-129500866D01*
X190275294Y-129726986D01*
X190137401Y-129984966D01*
X190052487Y-130264889D01*
X190023815Y-130556000D01*
X190052487Y-130847111D01*
X190137401Y-131127034D01*
X190275294Y-131385014D01*
X190460866Y-131611134D01*
X190686986Y-131796706D01*
X190751523Y-131831201D01*
X190634645Y-131900822D01*
X190418412Y-132095731D01*
X190244359Y-132329080D01*
X190119175Y-132591901D01*
X190074524Y-132739110D01*
X190195845Y-132969000D01*
X191389000Y-132969000D01*
X191389000Y-132949000D01*
X191643000Y-132949000D01*
X191643000Y-132969000D01*
X191663000Y-132969000D01*
X191663000Y-133223000D01*
X191643000Y-133223000D01*
X191643000Y-134416814D01*
X191872891Y-134537481D01*
X192028000Y-134482459D01*
X192028000Y-141746421D01*
X190945711Y-142828711D01*
X190999202Y-142651539D01*
X191045780Y-142176500D01*
X191044826Y-142108212D01*
X190985003Y-141634659D01*
X190834338Y-141181744D01*
X190598571Y-140766719D01*
X190286683Y-140405393D01*
X189910552Y-140111527D01*
X189484505Y-139896316D01*
X189024771Y-139767956D01*
X188548861Y-139731336D01*
X188074902Y-139787853D01*
X187620946Y-139935352D01*
X187204286Y-140168215D01*
X186840791Y-140477574D01*
X186544306Y-140851644D01*
X186326126Y-141276178D01*
X186194559Y-141735004D01*
X186154618Y-142210647D01*
X186207824Y-142684990D01*
X186352151Y-143139964D01*
X186582100Y-143558240D01*
X186888913Y-143923886D01*
X187260905Y-144222974D01*
X187362334Y-144276000D01*
X185532579Y-144276000D01*
X185094382Y-143837804D01*
X185099424Y-143821184D01*
X185109546Y-143802247D01*
X185153003Y-143658986D01*
X185167677Y-143510000D01*
X185153003Y-143361014D01*
X185109546Y-143217753D01*
X185099424Y-143198816D01*
X185020599Y-142938966D01*
X184882706Y-142680986D01*
X184697134Y-142454866D01*
X184667313Y-142430393D01*
X184736180Y-142409502D01*
X184846494Y-142350537D01*
X184943185Y-142271185D01*
X185022537Y-142174494D01*
X185081502Y-142064180D01*
X185117812Y-141944482D01*
X185130072Y-141820000D01*
X185130072Y-140120000D01*
X185117812Y-139995518D01*
X185081502Y-139875820D01*
X185022537Y-139765506D01*
X184943185Y-139668815D01*
X184846494Y-139589463D01*
X184736180Y-139530498D01*
X184616482Y-139494188D01*
X184492000Y-139481928D01*
X182792000Y-139481928D01*
X182667518Y-139494188D01*
X182547820Y-139530498D01*
X182437506Y-139589463D01*
X182340815Y-139668815D01*
X182261463Y-139765506D01*
X182202498Y-139875820D01*
X182181607Y-139944687D01*
X182157134Y-139914866D01*
X181931014Y-139729294D01*
X181673034Y-139591401D01*
X181393111Y-139506487D01*
X181174950Y-139485000D01*
X181029050Y-139485000D01*
X180810889Y-139506487D01*
X180530966Y-139591401D01*
X180272986Y-139729294D01*
X180046866Y-139914866D01*
X179861294Y-140140986D01*
X179832000Y-140195791D01*
X179802706Y-140140986D01*
X179617134Y-139914866D01*
X179391014Y-139729294D01*
X179133034Y-139591401D01*
X178853111Y-139506487D01*
X178634950Y-139485000D01*
X178489050Y-139485000D01*
X178270889Y-139506487D01*
X177990966Y-139591401D01*
X177732986Y-139729294D01*
X177506866Y-139914866D01*
X177321294Y-140140986D01*
X177292000Y-140195791D01*
X177262706Y-140140986D01*
X177077134Y-139914866D01*
X176851014Y-139729294D01*
X176593034Y-139591401D01*
X176313111Y-139506487D01*
X176094950Y-139485000D01*
X175949050Y-139485000D01*
X175730889Y-139506487D01*
X175450966Y-139591401D01*
X175192986Y-139729294D01*
X174966866Y-139914866D01*
X174781294Y-140140986D01*
X174746799Y-140205523D01*
X174677178Y-140088645D01*
X174482269Y-139872412D01*
X174248920Y-139698359D01*
X173986099Y-139573175D01*
X173838890Y-139528524D01*
X173609000Y-139649845D01*
X173609000Y-140843000D01*
X173629000Y-140843000D01*
X173629000Y-141097000D01*
X173609000Y-141097000D01*
X173609000Y-141117000D01*
X173355000Y-141117000D01*
X173355000Y-141097000D01*
X173335000Y-141097000D01*
X173335000Y-140843000D01*
X173355000Y-140843000D01*
X173355000Y-139649845D01*
X173125110Y-139528524D01*
X172977901Y-139573175D01*
X172715080Y-139698359D01*
X172481731Y-139872412D01*
X172286822Y-140088645D01*
X172217201Y-140205523D01*
X172182706Y-140140986D01*
X171997134Y-139914866D01*
X171771014Y-139729294D01*
X171513034Y-139591401D01*
X171233111Y-139506487D01*
X171014950Y-139485000D01*
X170869050Y-139485000D01*
X170650889Y-139506487D01*
X170370966Y-139591401D01*
X170112986Y-139729294D01*
X169886866Y-139914866D01*
X169701294Y-140140986D01*
X169672000Y-140195791D01*
X169642706Y-140140986D01*
X169457134Y-139914866D01*
X169231014Y-139729294D01*
X168973034Y-139591401D01*
X168693111Y-139506487D01*
X168474950Y-139485000D01*
X168329050Y-139485000D01*
X168110889Y-139506487D01*
X167830966Y-139591401D01*
X167572986Y-139729294D01*
X167346866Y-139914866D01*
X167161294Y-140140986D01*
X167132000Y-140195791D01*
X167102706Y-140140986D01*
X166917134Y-139914866D01*
X166691014Y-139729294D01*
X166622000Y-139692405D01*
X166622000Y-133452890D01*
X190074524Y-133452890D01*
X190119175Y-133600099D01*
X190244359Y-133862920D01*
X190418412Y-134096269D01*
X190634645Y-134291178D01*
X190884748Y-134440157D01*
X191159109Y-134537481D01*
X191389000Y-134416814D01*
X191389000Y-133223000D01*
X190195845Y-133223000D01*
X190074524Y-133452890D01*
X166622000Y-133452890D01*
X166622000Y-112432322D01*
X166625676Y-112394999D01*
X166622000Y-112357676D01*
X166622000Y-112357667D01*
X166611003Y-112246014D01*
X166567546Y-112102753D01*
X166496974Y-111970724D01*
X166402001Y-111854999D01*
X166373003Y-111831201D01*
X164497802Y-109956000D01*
X179681573Y-109956000D01*
X179711210Y-110256913D01*
X179798983Y-110546261D01*
X179941519Y-110812927D01*
X180133339Y-111046661D01*
X180367073Y-111238481D01*
X180633739Y-111381017D01*
X180923087Y-111468790D01*
X181148592Y-111491000D01*
X183499408Y-111491000D01*
X183724913Y-111468790D01*
X184014261Y-111381017D01*
X184280927Y-111238481D01*
X184514661Y-111046661D01*
X184706481Y-110812927D01*
X184849017Y-110546261D01*
X184936790Y-110256913D01*
X184966427Y-109956000D01*
X184936790Y-109655087D01*
X184849017Y-109365739D01*
X184706481Y-109099073D01*
X184514661Y-108865339D01*
X184280927Y-108673519D01*
X184014261Y-108530983D01*
X183724913Y-108443210D01*
X183499408Y-108421000D01*
X181148592Y-108421000D01*
X180923087Y-108443210D01*
X180633739Y-108530983D01*
X180367073Y-108673519D01*
X180133339Y-108865339D01*
X179941519Y-109099073D01*
X179798983Y-109365739D01*
X179711210Y-109655087D01*
X179681573Y-109956000D01*
X164497802Y-109956000D01*
X157497802Y-102956000D01*
X177785928Y-102956000D01*
X177785928Y-107356000D01*
X177798188Y-107480482D01*
X177834498Y-107600180D01*
X177893463Y-107710494D01*
X177972815Y-107807185D01*
X178069506Y-107886537D01*
X178179820Y-107945502D01*
X178299518Y-107981812D01*
X178424000Y-107994072D01*
X180224000Y-107994072D01*
X180348482Y-107981812D01*
X180468180Y-107945502D01*
X180578494Y-107886537D01*
X180675185Y-107807185D01*
X180754537Y-107710494D01*
X180813502Y-107600180D01*
X180849812Y-107480482D01*
X180862072Y-107356000D01*
X180862072Y-105283000D01*
X183589000Y-105283000D01*
X183589000Y-106383000D01*
X183643271Y-106680023D01*
X183754446Y-106960751D01*
X183918252Y-107214396D01*
X184128394Y-107431210D01*
X184376796Y-107602862D01*
X184653913Y-107722755D01*
X184759260Y-107747036D01*
X184997000Y-107626378D01*
X184997000Y-105283000D01*
X185251000Y-105283000D01*
X185251000Y-107626378D01*
X185488740Y-107747036D01*
X185594087Y-107722755D01*
X185871204Y-107602862D01*
X186119606Y-107431210D01*
X186329748Y-107214396D01*
X186493554Y-106960751D01*
X186604729Y-106680023D01*
X186659000Y-106383000D01*
X186659000Y-105283000D01*
X185251000Y-105283000D01*
X184997000Y-105283000D01*
X183589000Y-105283000D01*
X180862072Y-105283000D01*
X180862072Y-103929000D01*
X183589000Y-103929000D01*
X183589000Y-105029000D01*
X184997000Y-105029000D01*
X184997000Y-102685622D01*
X185251000Y-102685622D01*
X185251000Y-105029000D01*
X186659000Y-105029000D01*
X186659000Y-103929000D01*
X186604729Y-103631977D01*
X186493554Y-103351249D01*
X186329748Y-103097604D01*
X186119606Y-102880790D01*
X185871204Y-102709138D01*
X185594087Y-102589245D01*
X185488740Y-102564964D01*
X185251000Y-102685622D01*
X184997000Y-102685622D01*
X184759260Y-102564964D01*
X184653913Y-102589245D01*
X184376796Y-102709138D01*
X184128394Y-102880790D01*
X183918252Y-103097604D01*
X183754446Y-103351249D01*
X183643271Y-103631977D01*
X183589000Y-103929000D01*
X180862072Y-103929000D01*
X180862072Y-102956000D01*
X180849812Y-102831518D01*
X180813502Y-102711820D01*
X180754537Y-102601506D01*
X180675185Y-102504815D01*
X180578494Y-102425463D01*
X180468180Y-102366498D01*
X180348482Y-102330188D01*
X180224000Y-102317928D01*
X178424000Y-102317928D01*
X178299518Y-102330188D01*
X178179820Y-102366498D01*
X178069506Y-102425463D01*
X177972815Y-102504815D01*
X177893463Y-102601506D01*
X177834498Y-102711820D01*
X177798188Y-102831518D01*
X177785928Y-102956000D01*
X157497802Y-102956000D01*
X155182014Y-100640212D01*
X184031000Y-100640212D01*
X184031000Y-100863788D01*
X184074617Y-101083067D01*
X184160176Y-101289624D01*
X184284388Y-101475520D01*
X184442480Y-101633612D01*
X184628376Y-101757824D01*
X184834933Y-101843383D01*
X185054212Y-101887000D01*
X185277788Y-101887000D01*
X185497067Y-101843383D01*
X185703624Y-101757824D01*
X185889520Y-101633612D01*
X186047612Y-101475520D01*
X186171824Y-101289624D01*
X186257383Y-101083067D01*
X186301000Y-100863788D01*
X186301000Y-100640212D01*
X186257383Y-100420933D01*
X186171824Y-100214376D01*
X186047612Y-100028480D01*
X185889520Y-99870388D01*
X185703624Y-99746176D01*
X185497067Y-99660617D01*
X185277788Y-99617000D01*
X185054212Y-99617000D01*
X184834933Y-99660617D01*
X184628376Y-99746176D01*
X184442480Y-99870388D01*
X184284388Y-100028480D01*
X184160176Y-100214376D01*
X184074617Y-100420933D01*
X184031000Y-100640212D01*
X155182014Y-100640212D01*
X145470804Y-90929003D01*
X145447001Y-90899999D01*
X145331276Y-90805026D01*
X145206943Y-90738568D01*
X145189205Y-90695744D01*
X145075937Y-90526226D01*
X144969756Y-90420045D01*
X147577004Y-87812798D01*
X147606001Y-87789001D01*
X147700974Y-87673276D01*
X147771546Y-87541247D01*
X147815003Y-87397986D01*
X147826000Y-87286333D01*
X147826000Y-87286324D01*
X147829676Y-87249001D01*
X147826000Y-87211678D01*
X147826000Y-75729322D01*
X147829676Y-75692000D01*
X147826000Y-75654677D01*
X147826000Y-75654667D01*
X147815003Y-75543014D01*
X147771546Y-75399753D01*
X147734262Y-75330000D01*
X147700974Y-75267723D01*
X147629799Y-75180997D01*
X147606001Y-75151999D01*
X147577003Y-75128201D01*
X147085000Y-74636199D01*
X147085000Y-74574061D01*
X147045226Y-74374102D01*
X146967205Y-74185744D01*
X146853937Y-74016226D01*
X146709774Y-73872063D01*
X146540256Y-73758795D01*
X146351898Y-73680774D01*
X146151939Y-73641000D01*
X146048000Y-73641000D01*
X146048000Y-69537711D01*
X146091937Y-69493774D01*
X146205205Y-69324256D01*
X146283226Y-69135898D01*
X146323000Y-68935939D01*
X146323000Y-68732061D01*
X146283226Y-68532102D01*
X146205205Y-68343744D01*
X146091937Y-68174226D01*
X145947774Y-68030063D01*
X145778256Y-67916795D01*
X145589898Y-67838774D01*
X145553330Y-67831500D01*
X145561000Y-67792939D01*
X145561000Y-67589061D01*
X145521226Y-67389102D01*
X145443205Y-67200744D01*
X145329937Y-67031226D01*
X145185774Y-66887063D01*
X145016256Y-66773795D01*
X144827898Y-66695774D01*
X144627939Y-66656000D01*
X144424061Y-66656000D01*
X144224102Y-66695774D01*
X144035744Y-66773795D01*
X143866226Y-66887063D01*
X143722063Y-67031226D01*
X143608795Y-67200744D01*
X143530774Y-67389102D01*
X143491000Y-67589061D01*
X143491000Y-67792939D01*
X143530774Y-67992898D01*
X143608795Y-68181256D01*
X143722063Y-68350774D01*
X143766001Y-68394712D01*
X143766001Y-70593000D01*
X143662061Y-70593000D01*
X143462102Y-70632774D01*
X143273744Y-70710795D01*
X143104226Y-70824063D01*
X142960063Y-70968226D01*
X142846795Y-71137744D01*
X142768774Y-71326102D01*
X142729000Y-71526061D01*
X142729000Y-71729939D01*
X142768774Y-71929898D01*
X142846795Y-72118256D01*
X142960063Y-72287774D01*
X143004001Y-72331712D01*
X143004000Y-73984199D01*
X141116000Y-72096199D01*
X141116000Y-72034061D01*
X141076226Y-71834102D01*
X140998205Y-71645744D01*
X140884937Y-71476226D01*
X140740774Y-71332063D01*
X140571256Y-71218795D01*
X140382898Y-71140774D01*
X140182939Y-71101000D01*
X139979061Y-71101000D01*
X139779102Y-71140774D01*
X139590744Y-71218795D01*
X139421226Y-71332063D01*
X139277063Y-71476226D01*
X139163795Y-71645744D01*
X139085774Y-71834102D01*
X139046000Y-72034061D01*
X139046000Y-72237939D01*
X139085774Y-72437898D01*
X139163795Y-72626256D01*
X139277063Y-72795774D01*
X139421226Y-72939937D01*
X139590744Y-73053205D01*
X139779102Y-73131226D01*
X139979061Y-73171000D01*
X140041199Y-73171000D01*
X143004001Y-76133803D01*
X143004000Y-82512677D01*
X143000324Y-82550000D01*
X143004000Y-82587322D01*
X143004000Y-82587332D01*
X143014997Y-82698985D01*
X143041470Y-82786256D01*
X143056573Y-82836045D01*
X142977226Y-82889063D01*
X142833063Y-83033226D01*
X142719795Y-83202744D01*
X142641774Y-83391102D01*
X142602000Y-83591061D01*
X142602000Y-83794939D01*
X142641774Y-83994898D01*
X142719795Y-84183256D01*
X142833063Y-84352774D01*
X142977226Y-84496937D01*
X143004001Y-84514827D01*
X143004000Y-85410198D01*
X140841000Y-87573199D01*
X140841000Y-87520685D01*
X140994774Y-87417937D01*
X141138937Y-87273774D01*
X141252205Y-87104256D01*
X141330226Y-86915898D01*
X141370000Y-86715939D01*
X141370000Y-86512061D01*
X141330226Y-86312102D01*
X141252205Y-86123744D01*
X141138937Y-85954226D01*
X140994774Y-85810063D01*
X140825256Y-85696795D01*
X140636898Y-85618774D01*
X140436939Y-85579000D01*
X140233061Y-85579000D01*
X140033102Y-85618774D01*
X139844744Y-85696795D01*
X139675226Y-85810063D01*
X139531063Y-85954226D01*
X139417795Y-86123744D01*
X139339774Y-86312102D01*
X139300000Y-86512061D01*
X139300000Y-86715939D01*
X139321604Y-86824549D01*
X139317324Y-86868000D01*
X139321001Y-86905332D01*
X139321001Y-87484000D01*
X139217061Y-87484000D01*
X139017102Y-87523774D01*
X138828744Y-87601795D01*
X138659226Y-87715063D01*
X138515063Y-87859226D01*
X138401795Y-88028744D01*
X138323774Y-88217102D01*
X138284000Y-88417061D01*
X138284000Y-88620939D01*
X138323774Y-88820898D01*
X138401795Y-89009256D01*
X138515063Y-89178774D01*
X138659226Y-89322937D01*
X138813000Y-89425685D01*
X138813000Y-90916988D01*
X138793256Y-90903795D01*
X138604898Y-90825774D01*
X138404939Y-90786000D01*
X138201061Y-90786000D01*
X138001102Y-90825774D01*
X137812744Y-90903795D01*
X137643226Y-91017063D01*
X137499063Y-91161226D01*
X137385795Y-91330744D01*
X137307774Y-91519102D01*
X137268000Y-91719061D01*
X137268000Y-91922939D01*
X137307774Y-92122898D01*
X137385795Y-92311256D01*
X137499063Y-92480774D01*
X137643226Y-92624937D01*
X137812744Y-92738205D01*
X138001102Y-92816226D01*
X138201061Y-92856000D01*
X138263198Y-92856000D01*
X138305001Y-92897803D01*
X138305000Y-95316198D01*
X136902998Y-96718201D01*
X136874000Y-96741999D01*
X136850202Y-96770997D01*
X136850201Y-96770998D01*
X136779026Y-96857724D01*
X136708454Y-96989754D01*
X136685529Y-97065332D01*
X136664998Y-97133014D01*
X136655884Y-97225546D01*
X136650324Y-97282000D01*
X136654001Y-97319332D01*
X136654000Y-99149677D01*
X136650324Y-99187000D01*
X136654000Y-99224322D01*
X136654000Y-99224332D01*
X136664997Y-99335985D01*
X136690551Y-99420226D01*
X136697459Y-99443000D01*
X134307711Y-99443000D01*
X134263774Y-99399063D01*
X134094256Y-99285795D01*
X133905898Y-99207774D01*
X133705939Y-99168000D01*
X133502061Y-99168000D01*
X133302102Y-99207774D01*
X133113744Y-99285795D01*
X132944226Y-99399063D01*
X132800063Y-99543226D01*
X132686795Y-99712744D01*
X132608774Y-99901102D01*
X132569000Y-100101061D01*
X132569000Y-100304939D01*
X132608774Y-100504898D01*
X132686795Y-100693256D01*
X132800063Y-100862774D01*
X132944226Y-101006937D01*
X133113744Y-101120205D01*
X133302102Y-101198226D01*
X133502061Y-101238000D01*
X133705939Y-101238000D01*
X133905898Y-101198226D01*
X134094256Y-101120205D01*
X134263774Y-101006937D01*
X134307711Y-100963000D01*
X137099199Y-100963000D01*
X141988000Y-105851802D01*
X141988001Y-126812197D01*
X139570003Y-129230196D01*
X139540999Y-129253999D01*
X139490696Y-129315294D01*
X139446026Y-129369724D01*
X139390557Y-129473498D01*
X139375454Y-129501754D01*
X139331997Y-129645015D01*
X139321000Y-129756668D01*
X139321000Y-129756678D01*
X139317324Y-129794000D01*
X139321000Y-129831323D01*
X139321001Y-135067197D01*
X139064814Y-135323385D01*
X138920256Y-135226795D01*
X138731898Y-135148774D01*
X138531939Y-135109000D01*
X138328061Y-135109000D01*
X138128102Y-135148774D01*
X137939744Y-135226795D01*
X137770226Y-135340063D01*
X137626063Y-135484226D01*
X137512795Y-135653744D01*
X137434774Y-135842102D01*
X137395000Y-136042061D01*
X137395000Y-136245939D01*
X137434774Y-136445898D01*
X137512795Y-136634256D01*
X137626063Y-136803774D01*
X137770226Y-136947937D01*
X137939744Y-137061205D01*
X138128102Y-137139226D01*
X138136335Y-137140864D01*
X136140998Y-139136201D01*
X136112000Y-139159999D01*
X136088202Y-139188997D01*
X136088201Y-139188998D01*
X136017026Y-139275724D01*
X135946454Y-139407754D01*
X135923023Y-139485000D01*
X135907931Y-139534754D01*
X135902998Y-139551015D01*
X135900156Y-139579870D01*
X135886099Y-139573175D01*
X135738890Y-139528524D01*
X135509000Y-139649845D01*
X135509000Y-140843000D01*
X135529000Y-140843000D01*
X135529000Y-141097000D01*
X135509000Y-141097000D01*
X135509000Y-141117000D01*
X135255000Y-141117000D01*
X135255000Y-141097000D01*
X134061186Y-141097000D01*
X133940519Y-141326891D01*
X134037843Y-141601252D01*
X134186822Y-141851355D01*
X134381731Y-142067588D01*
X134610756Y-142238416D01*
X134552986Y-142269294D01*
X134326866Y-142454866D01*
X134141294Y-142680986D01*
X134003401Y-142938966D01*
X133918487Y-143218889D01*
X133889815Y-143510000D01*
X133918487Y-143801111D01*
X133974133Y-143984550D01*
X114833352Y-143984550D01*
X111461911Y-140613109D01*
X133940519Y-140613109D01*
X134061186Y-140843000D01*
X135255000Y-140843000D01*
X135255000Y-139649845D01*
X135025110Y-139528524D01*
X134877901Y-139573175D01*
X134615080Y-139698359D01*
X134381731Y-139872412D01*
X134186822Y-140088645D01*
X134037843Y-140338748D01*
X133940519Y-140613109D01*
X111461911Y-140613109D01*
X105587803Y-134739002D01*
X105817490Y-134693314D01*
X106071727Y-134588005D01*
X106300535Y-134435120D01*
X106495120Y-134240535D01*
X106648005Y-134011727D01*
X106680000Y-133934485D01*
X106711995Y-134011727D01*
X106864880Y-134240535D01*
X107059465Y-134435120D01*
X107288273Y-134588005D01*
X107542510Y-134693314D01*
X107812408Y-134747000D01*
X108087592Y-134747000D01*
X108357490Y-134693314D01*
X108611727Y-134588005D01*
X108840535Y-134435120D01*
X109035120Y-134240535D01*
X109093920Y-134152535D01*
X109102188Y-134236482D01*
X109138498Y-134356180D01*
X109197463Y-134466494D01*
X109276815Y-134563185D01*
X109373506Y-134642537D01*
X109483820Y-134701502D01*
X109603518Y-134737812D01*
X109728000Y-134750072D01*
X111252000Y-134750072D01*
X111376482Y-134737812D01*
X111496180Y-134701502D01*
X111606494Y-134642537D01*
X111703185Y-134563185D01*
X111782537Y-134466494D01*
X111841502Y-134356180D01*
X111877812Y-134236482D01*
X111890072Y-134112000D01*
X111890072Y-132588000D01*
X111877812Y-132463518D01*
X111841502Y-132343820D01*
X111782537Y-132233506D01*
X111703185Y-132136815D01*
X111606494Y-132057463D01*
X111496180Y-131998498D01*
X111376482Y-131962188D01*
X111292535Y-131953920D01*
X111380535Y-131895120D01*
X111575120Y-131700535D01*
X111728005Y-131471727D01*
X111833314Y-131217490D01*
X111887000Y-130947592D01*
X111887000Y-130672408D01*
X111833314Y-130402510D01*
X111728005Y-130148273D01*
X111575120Y-129919465D01*
X111380535Y-129724880D01*
X111151727Y-129571995D01*
X111074485Y-129540000D01*
X111151727Y-129508005D01*
X111380535Y-129355120D01*
X111575120Y-129160535D01*
X111728005Y-128931727D01*
X111833314Y-128677490D01*
X111887000Y-128407592D01*
X111887000Y-128132408D01*
X111833314Y-127862510D01*
X111790853Y-127760000D01*
X114366199Y-127760000D01*
X114535000Y-127928801D01*
X114535000Y-127990939D01*
X114574774Y-128190898D01*
X114652795Y-128379256D01*
X114766063Y-128548774D01*
X114910226Y-128692937D01*
X115079744Y-128806205D01*
X115268102Y-128884226D01*
X115468061Y-128924000D01*
X115585026Y-128924000D01*
X115590774Y-128952898D01*
X115668795Y-129141256D01*
X115782063Y-129310774D01*
X115926226Y-129454937D01*
X116095744Y-129568205D01*
X116284102Y-129646226D01*
X116484061Y-129686000D01*
X116687939Y-129686000D01*
X116887898Y-129646226D01*
X117076256Y-129568205D01*
X117245774Y-129454937D01*
X117389937Y-129310774D01*
X117503205Y-129141256D01*
X117581226Y-128952898D01*
X117621000Y-128752939D01*
X117621000Y-128549061D01*
X117581226Y-128349102D01*
X117503205Y-128160744D01*
X117389937Y-127991226D01*
X117346000Y-127947289D01*
X117346000Y-127545322D01*
X117349676Y-127508000D01*
X117346000Y-127470677D01*
X117346000Y-127470667D01*
X117335003Y-127359014D01*
X117291546Y-127215753D01*
X117255858Y-127148986D01*
X117220974Y-127083723D01*
X117149799Y-126996997D01*
X117126001Y-126967999D01*
X117097003Y-126944201D01*
X116133804Y-125981002D01*
X116110001Y-125951999D01*
X115994276Y-125857026D01*
X115862247Y-125786454D01*
X115718986Y-125742997D01*
X115607333Y-125732000D01*
X115607322Y-125732000D01*
X115570000Y-125728324D01*
X115532678Y-125732000D01*
X113471802Y-125732000D01*
X111688804Y-123949003D01*
X111674584Y-123931676D01*
X111728005Y-123851727D01*
X111833314Y-123597490D01*
X111887000Y-123327592D01*
X111887000Y-123052408D01*
X111833314Y-122782510D01*
X111728005Y-122528273D01*
X111575120Y-122299465D01*
X111380535Y-122104880D01*
X111151727Y-121951995D01*
X111074485Y-121920000D01*
X111151727Y-121888005D01*
X111380535Y-121735120D01*
X111575120Y-121540535D01*
X111728005Y-121311727D01*
X111833314Y-121057490D01*
X111887000Y-120787592D01*
X111887000Y-120512408D01*
X111833314Y-120242510D01*
X111728005Y-119988273D01*
X111575120Y-119759465D01*
X111380535Y-119564880D01*
X111151727Y-119411995D01*
X111074485Y-119380000D01*
X111151727Y-119348005D01*
X111380535Y-119195120D01*
X111575120Y-119000535D01*
X111728005Y-118771727D01*
X111833314Y-118517490D01*
X111887000Y-118247592D01*
X111887000Y-117972408D01*
X111833314Y-117702510D01*
X111728005Y-117448273D01*
X111575120Y-117219465D01*
X111380535Y-117024880D01*
X111151727Y-116871995D01*
X111074485Y-116840000D01*
X111151727Y-116808005D01*
X111380535Y-116655120D01*
X111575120Y-116460535D01*
X111728005Y-116231727D01*
X111833314Y-115977490D01*
X111887000Y-115707592D01*
X111887000Y-115432408D01*
X111837788Y-115185000D01*
X112605531Y-115185000D01*
X112649000Y-115189281D01*
X112692469Y-115185000D01*
X112692477Y-115185000D01*
X112822490Y-115172195D01*
X112989313Y-115121589D01*
X113143059Y-115039411D01*
X113277817Y-114928817D01*
X113305534Y-114895044D01*
X116571579Y-111629000D01*
X124556546Y-111629000D01*
X124604744Y-111661205D01*
X124793102Y-111739226D01*
X124993061Y-111779000D01*
X125196939Y-111779000D01*
X125396898Y-111739226D01*
X125585256Y-111661205D01*
X125754774Y-111547937D01*
X125898937Y-111403774D01*
X126012205Y-111234256D01*
X126090226Y-111045898D01*
X126130000Y-110845939D01*
X126130000Y-110642061D01*
X126090226Y-110442102D01*
X126012205Y-110253744D01*
X125898937Y-110084226D01*
X125754774Y-109940063D01*
X125585256Y-109826795D01*
X125396898Y-109748774D01*
X125196939Y-109709000D01*
X124993061Y-109709000D01*
X124793102Y-109748774D01*
X124604744Y-109826795D01*
X124556546Y-109859000D01*
X120695804Y-109859000D01*
X120858588Y-109712269D01*
X121032641Y-109478920D01*
X121157825Y-109216099D01*
X121202476Y-109068890D01*
X121081155Y-108839000D01*
X119888000Y-108839000D01*
X119888000Y-108859000D01*
X119634000Y-108859000D01*
X119634000Y-108839000D01*
X118440845Y-108839000D01*
X118319524Y-109068890D01*
X118364175Y-109216099D01*
X118489359Y-109478920D01*
X118663412Y-109712269D01*
X118826196Y-109859000D01*
X116571579Y-109859000D01*
X115337532Y-108624954D01*
X115309817Y-108591183D01*
X115175059Y-108480589D01*
X115021313Y-108398411D01*
X114854490Y-108347805D01*
X114724477Y-108335000D01*
X114724469Y-108335000D01*
X114681000Y-108330719D01*
X114637531Y-108335000D01*
X111837788Y-108335000D01*
X111887000Y-108087592D01*
X111887000Y-107812408D01*
X111837788Y-107565000D01*
X112351531Y-107565000D01*
X112395000Y-107569281D01*
X112438469Y-107565000D01*
X112438477Y-107565000D01*
X112568490Y-107552195D01*
X112735313Y-107501589D01*
X112889059Y-107419411D01*
X113023817Y-107308817D01*
X113051534Y-107275044D01*
X113777579Y-106549000D01*
X117317546Y-106549000D01*
X117365744Y-106581205D01*
X117554102Y-106659226D01*
X117754061Y-106699000D01*
X117957939Y-106699000D01*
X118157898Y-106659226D01*
X118334756Y-106585969D01*
X118382401Y-106743034D01*
X118520294Y-107001014D01*
X118705866Y-107227134D01*
X118931986Y-107412706D01*
X118996523Y-107447201D01*
X118879645Y-107516822D01*
X118663412Y-107711731D01*
X118489359Y-107945080D01*
X118364175Y-108207901D01*
X118319524Y-108355110D01*
X118440845Y-108585000D01*
X119634000Y-108585000D01*
X119634000Y-108565000D01*
X119888000Y-108565000D01*
X119888000Y-108585000D01*
X121081155Y-108585000D01*
X121202476Y-108355110D01*
X121157825Y-108207901D01*
X121032641Y-107945080D01*
X120858588Y-107711731D01*
X120642355Y-107516822D01*
X120525477Y-107447201D01*
X120590014Y-107412706D01*
X120816134Y-107227134D01*
X121001706Y-107001014D01*
X121139599Y-106743034D01*
X121224513Y-106463111D01*
X121253185Y-106172000D01*
X121224513Y-105880889D01*
X121158114Y-105662000D01*
X129725289Y-105662000D01*
X129769226Y-105705937D01*
X129938744Y-105819205D01*
X130127102Y-105897226D01*
X130327061Y-105937000D01*
X130530939Y-105937000D01*
X130730898Y-105897226D01*
X130919256Y-105819205D01*
X131088774Y-105705937D01*
X131232937Y-105561774D01*
X131346205Y-105392256D01*
X131424226Y-105203898D01*
X131464000Y-105003939D01*
X131464000Y-104800061D01*
X131424226Y-104600102D01*
X131346205Y-104411744D01*
X131232937Y-104242226D01*
X131088774Y-104098063D01*
X130919256Y-103984795D01*
X130730898Y-103906774D01*
X130530939Y-103867000D01*
X130327061Y-103867000D01*
X130127102Y-103906774D01*
X129938744Y-103984795D01*
X129769226Y-104098063D01*
X129725289Y-104142000D01*
X121249072Y-104142000D01*
X121249072Y-102782000D01*
X121236812Y-102657518D01*
X121200502Y-102537820D01*
X121141537Y-102427506D01*
X121062185Y-102330815D01*
X120965494Y-102251463D01*
X120855180Y-102192498D01*
X120735482Y-102156188D01*
X120611000Y-102143928D01*
X120521000Y-102143928D01*
X120521000Y-100748322D01*
X120524676Y-100710999D01*
X120521000Y-100673676D01*
X120521000Y-100673667D01*
X120510003Y-100562014D01*
X120466546Y-100418753D01*
X120430858Y-100351986D01*
X120395974Y-100286723D01*
X120324799Y-100199997D01*
X120301001Y-100170999D01*
X120272003Y-100147201D01*
X116133804Y-96009003D01*
X116110001Y-95979999D01*
X115994276Y-95885026D01*
X115862247Y-95814454D01*
X115718986Y-95770997D01*
X115607333Y-95760000D01*
X115607322Y-95760000D01*
X115570000Y-95756324D01*
X115532678Y-95760000D01*
X111790853Y-95760000D01*
X111833314Y-95657490D01*
X111887000Y-95387592D01*
X111887000Y-95112408D01*
X111833314Y-94842510D01*
X111790853Y-94740000D01*
X135948289Y-94740000D01*
X135992226Y-94783937D01*
X136161744Y-94897205D01*
X136350102Y-94975226D01*
X136550061Y-95015000D01*
X136753939Y-95015000D01*
X136953898Y-94975226D01*
X137142256Y-94897205D01*
X137311774Y-94783937D01*
X137455937Y-94639774D01*
X137569205Y-94470256D01*
X137647226Y-94281898D01*
X137687000Y-94081939D01*
X137687000Y-93878061D01*
X137647226Y-93678102D01*
X137569205Y-93489744D01*
X137455937Y-93320226D01*
X137311774Y-93176063D01*
X137142256Y-93062795D01*
X136953898Y-92984774D01*
X136753939Y-92945000D01*
X136550061Y-92945000D01*
X136350102Y-92984774D01*
X136161744Y-93062795D01*
X135992226Y-93176063D01*
X135948289Y-93220000D01*
X111790853Y-93220000D01*
X111833314Y-93117490D01*
X111887000Y-92847592D01*
X111887000Y-92572408D01*
X111833314Y-92302510D01*
X111728005Y-92048273D01*
X111575120Y-91819465D01*
X111380535Y-91624880D01*
X111151727Y-91471995D01*
X111074485Y-91440000D01*
X111151727Y-91408005D01*
X111380535Y-91255120D01*
X111575120Y-91060535D01*
X111728005Y-90831727D01*
X111833314Y-90577490D01*
X111887000Y-90307592D01*
X111887000Y-90032408D01*
X111833314Y-89762510D01*
X111728005Y-89508273D01*
X111575120Y-89279465D01*
X111380535Y-89084880D01*
X111151727Y-88931995D01*
X111074485Y-88900000D01*
X111151727Y-88868005D01*
X111380535Y-88715120D01*
X111575120Y-88520535D01*
X111728005Y-88291727D01*
X111833314Y-88037490D01*
X111887000Y-87767592D01*
X111887000Y-87492408D01*
X111833314Y-87222510D01*
X111728005Y-86968273D01*
X111575120Y-86739465D01*
X111380535Y-86544880D01*
X111151727Y-86391995D01*
X111074485Y-86360000D01*
X111151727Y-86328005D01*
X111380535Y-86175120D01*
X111575120Y-85980535D01*
X111662341Y-85850000D01*
X112461199Y-85850000D01*
X116022201Y-89411003D01*
X116045999Y-89440001D01*
X116161724Y-89534974D01*
X116293753Y-89605546D01*
X116437014Y-89649003D01*
X116548667Y-89660000D01*
X116548675Y-89660000D01*
X116586000Y-89663676D01*
X116623325Y-89660000D01*
X135948289Y-89660000D01*
X135992226Y-89703937D01*
X136161744Y-89817205D01*
X136350102Y-89895226D01*
X136550061Y-89935000D01*
X136753939Y-89935000D01*
X136953898Y-89895226D01*
X137142256Y-89817205D01*
X137311774Y-89703937D01*
X137455937Y-89559774D01*
X137569205Y-89390256D01*
X137647226Y-89201898D01*
X137687000Y-89001939D01*
X137687000Y-88798061D01*
X137647226Y-88598102D01*
X137569205Y-88409744D01*
X137455937Y-88240226D01*
X137311774Y-88096063D01*
X137142256Y-87982795D01*
X136953898Y-87904774D01*
X136753939Y-87865000D01*
X136550061Y-87865000D01*
X136350102Y-87904774D01*
X136161744Y-87982795D01*
X135992226Y-88096063D01*
X135948289Y-88140000D01*
X129909356Y-88140000D01*
X129940000Y-87985939D01*
X129940000Y-87876533D01*
X130073061Y-87903000D01*
X130276939Y-87903000D01*
X130476898Y-87863226D01*
X130665256Y-87785205D01*
X130834774Y-87671937D01*
X130978937Y-87527774D01*
X131092205Y-87358256D01*
X131170226Y-87169898D01*
X131210000Y-86969939D01*
X131210000Y-86766061D01*
X131170226Y-86566102D01*
X131092205Y-86377744D01*
X130978937Y-86208226D01*
X130834774Y-86064063D01*
X130665256Y-85950795D01*
X130476898Y-85872774D01*
X130276939Y-85833000D01*
X130073061Y-85833000D01*
X129873102Y-85872774D01*
X129684744Y-85950795D01*
X129515226Y-86064063D01*
X129471289Y-86108000D01*
X117408802Y-86108000D01*
X111799624Y-80498823D01*
X111833314Y-80417490D01*
X111887000Y-80147592D01*
X111887000Y-79872408D01*
X111833314Y-79602510D01*
X111728005Y-79348273D01*
X111575120Y-79119465D01*
X111380535Y-78924880D01*
X111151727Y-78771995D01*
X111074485Y-78740000D01*
X111151727Y-78708005D01*
X111380535Y-78555120D01*
X111575120Y-78360535D01*
X111728005Y-78131727D01*
X111833314Y-77877490D01*
X111887000Y-77607592D01*
X111887000Y-77332408D01*
X111833314Y-77062510D01*
X111728005Y-76808273D01*
X111575120Y-76579465D01*
X111380535Y-76384880D01*
X111151727Y-76231995D01*
X111074485Y-76200000D01*
X111151727Y-76168005D01*
X111380535Y-76015120D01*
X111575120Y-75820535D01*
X111728005Y-75591727D01*
X111833314Y-75337490D01*
X111887000Y-75067592D01*
X111887000Y-74792408D01*
X111833314Y-74522510D01*
X111728005Y-74268273D01*
X111575120Y-74039465D01*
X111380535Y-73844880D01*
X111151727Y-73691995D01*
X111074485Y-73660000D01*
X111151727Y-73628005D01*
X111293911Y-73533000D01*
X123442324Y-73533000D01*
X123446001Y-73570332D01*
X123446000Y-77432677D01*
X123442324Y-77470000D01*
X123446000Y-77507322D01*
X123446000Y-77507332D01*
X123456997Y-77618985D01*
X123498559Y-77756000D01*
X123500454Y-77762246D01*
X123571026Y-77894276D01*
X123608348Y-77939753D01*
X123665999Y-78010001D01*
X123695002Y-78033803D01*
X124404201Y-78743002D01*
X124427999Y-78772001D01*
X124543724Y-78866974D01*
X124675753Y-78937546D01*
X124819014Y-78981003D01*
X124930667Y-78992000D01*
X124930675Y-78992000D01*
X124968000Y-78995676D01*
X125005325Y-78992000D01*
X126177199Y-78992000D01*
X126219000Y-79033801D01*
X126219000Y-79095939D01*
X126258774Y-79295898D01*
X126336795Y-79484256D01*
X126450063Y-79653774D01*
X126594226Y-79797937D01*
X126763744Y-79911205D01*
X126952102Y-79989226D01*
X127152061Y-80029000D01*
X127355939Y-80029000D01*
X127555898Y-79989226D01*
X127744256Y-79911205D01*
X127913774Y-79797937D01*
X128057937Y-79653774D01*
X128171205Y-79484256D01*
X128249226Y-79295898D01*
X128289000Y-79095939D01*
X128289000Y-78892061D01*
X128249226Y-78692102D01*
X128171205Y-78503744D01*
X128057937Y-78334226D01*
X127913774Y-78190063D01*
X127744256Y-78076795D01*
X127555898Y-77998774D01*
X127355939Y-77959000D01*
X127293801Y-77959000D01*
X127055803Y-77721002D01*
X127032001Y-77691999D01*
X126916276Y-77597026D01*
X126784247Y-77526454D01*
X126640986Y-77482997D01*
X126529333Y-77472000D01*
X126529322Y-77472000D01*
X126492000Y-77468324D01*
X126454678Y-77472000D01*
X126226356Y-77472000D01*
X126257000Y-77317939D01*
X126257000Y-77114061D01*
X126217226Y-76914102D01*
X126154773Y-76763329D01*
X126220256Y-76736205D01*
X126389774Y-76622937D01*
X126433711Y-76579000D01*
X128486678Y-76579000D01*
X128524000Y-76582676D01*
X128561322Y-76579000D01*
X128561333Y-76579000D01*
X128672986Y-76568003D01*
X128816247Y-76524546D01*
X128948276Y-76453974D01*
X129064001Y-76359001D01*
X129087804Y-76329997D01*
X130302000Y-75115801D01*
X135003001Y-79816803D01*
X135003000Y-81973289D01*
X134959063Y-82017226D01*
X134845795Y-82186744D01*
X134767774Y-82375102D01*
X134728000Y-82575061D01*
X134728000Y-82778939D01*
X134767774Y-82978898D01*
X134845795Y-83167256D01*
X134959063Y-83336774D01*
X135103226Y-83480937D01*
X135272744Y-83594205D01*
X135461102Y-83672226D01*
X135661061Y-83712000D01*
X135864939Y-83712000D01*
X136064898Y-83672226D01*
X136253256Y-83594205D01*
X136384169Y-83506732D01*
X136477102Y-83545226D01*
X136677061Y-83585000D01*
X136880939Y-83585000D01*
X137080898Y-83545226D01*
X137269256Y-83467205D01*
X137438774Y-83353937D01*
X137582937Y-83209774D01*
X137696205Y-83040256D01*
X137774226Y-82851898D01*
X137814000Y-82651939D01*
X137814000Y-82448061D01*
X137774226Y-82248102D01*
X137696205Y-82059744D01*
X137582937Y-81890226D01*
X137539000Y-81846289D01*
X137539000Y-79666322D01*
X137542676Y-79628999D01*
X137539000Y-79591677D01*
X137539000Y-79591667D01*
X137528003Y-79480014D01*
X137484546Y-79336753D01*
X137444053Y-79260997D01*
X137413974Y-79204723D01*
X137342799Y-79117997D01*
X137319001Y-79088999D01*
X137290003Y-79065201D01*
X133344180Y-75119379D01*
X133374774Y-75098937D01*
X133518937Y-74954774D01*
X133632205Y-74785256D01*
X133710226Y-74596898D01*
X133750000Y-74396939D01*
X133750000Y-74193061D01*
X133710226Y-73993102D01*
X133632205Y-73804744D01*
X133600000Y-73756546D01*
X133600000Y-66324454D01*
X133632205Y-66276256D01*
X133710226Y-66087898D01*
X133750000Y-65887939D01*
X133750000Y-65684061D01*
X133710226Y-65484102D01*
X133632205Y-65295744D01*
X133518937Y-65126226D01*
X133374774Y-64982063D01*
X133268050Y-64910752D01*
X134426802Y-63752000D01*
X144761036Y-63752000D01*
X144670147Y-63971426D01*
X144615000Y-64248665D01*
X144615000Y-64531335D01*
X144670147Y-64808574D01*
X144778320Y-65069727D01*
X144935363Y-65304759D01*
X145135241Y-65504637D01*
X145370273Y-65661680D01*
X145631426Y-65769853D01*
X145908665Y-65825000D01*
X146191335Y-65825000D01*
X146468574Y-65769853D01*
X146729727Y-65661680D01*
X146964759Y-65504637D01*
X147164637Y-65304759D01*
X147321680Y-65069727D01*
X147429853Y-64808574D01*
X147485000Y-64531335D01*
X147485000Y-64248665D01*
X147429853Y-63971426D01*
X147395366Y-63888168D01*
X149079000Y-65571803D01*
X149079000Y-65633939D01*
X149118774Y-65833898D01*
X149196795Y-66022256D01*
X149310063Y-66191774D01*
X149454226Y-66335937D01*
X149623744Y-66449205D01*
X149812102Y-66527226D01*
X150012061Y-66567000D01*
X150215939Y-66567000D01*
X150415898Y-66527226D01*
X150604256Y-66449205D01*
X150773774Y-66335937D01*
X150917937Y-66191774D01*
X150989248Y-66085049D01*
X153418000Y-68513802D01*
X153418001Y-95308288D01*
X153374063Y-95352226D01*
X153260795Y-95521744D01*
X153182774Y-95710102D01*
X153143000Y-95910061D01*
X153143000Y-96113939D01*
X153182774Y-96313898D01*
X153260795Y-96502256D01*
X153374063Y-96671774D01*
X153518226Y-96815937D01*
X153687744Y-96929205D01*
X153876102Y-97007226D01*
X154076061Y-97047000D01*
X154279939Y-97047000D01*
X154479898Y-97007226D01*
X154668256Y-96929205D01*
X154837774Y-96815937D01*
X154981937Y-96671774D01*
X155095205Y-96502256D01*
X155173226Y-96313898D01*
X155187882Y-96240212D01*
X184031000Y-96240212D01*
X184031000Y-96463788D01*
X184074617Y-96683067D01*
X184160176Y-96889624D01*
X184284388Y-97075520D01*
X184442480Y-97233612D01*
X184628376Y-97357824D01*
X184834933Y-97443383D01*
X185054212Y-97487000D01*
X185277788Y-97487000D01*
X185497067Y-97443383D01*
X185703624Y-97357824D01*
X185889520Y-97233612D01*
X186047612Y-97075520D01*
X186171824Y-96889624D01*
X186257383Y-96683067D01*
X186301000Y-96463788D01*
X186301000Y-96240212D01*
X186257383Y-96020933D01*
X186171824Y-95814376D01*
X186047612Y-95628480D01*
X185889520Y-95470388D01*
X185703624Y-95346176D01*
X185497067Y-95260617D01*
X185277788Y-95217000D01*
X185054212Y-95217000D01*
X184834933Y-95260617D01*
X184628376Y-95346176D01*
X184442480Y-95470388D01*
X184284388Y-95628480D01*
X184160176Y-95814376D01*
X184074617Y-96020933D01*
X184031000Y-96240212D01*
X155187882Y-96240212D01*
X155213000Y-96113939D01*
X155213000Y-95910061D01*
X155173226Y-95710102D01*
X155095205Y-95521744D01*
X154981937Y-95352226D01*
X154938000Y-95308289D01*
X154938000Y-93739617D01*
X154965061Y-93745000D01*
X155168939Y-93745000D01*
X155368898Y-93705226D01*
X155557256Y-93627205D01*
X155726774Y-93513937D01*
X155870937Y-93369774D01*
X155984205Y-93200256D01*
X156062226Y-93011898D01*
X156102000Y-92811939D01*
X156102000Y-92608061D01*
X156075943Y-92477064D01*
X156234774Y-92370937D01*
X156378937Y-92226774D01*
X156492205Y-92057256D01*
X156570226Y-91868898D01*
X156610000Y-91668939D01*
X156610000Y-91465061D01*
X156570226Y-91265102D01*
X156492205Y-91076744D01*
X156378937Y-90907226D01*
X156335000Y-90863289D01*
X156335000Y-67855322D01*
X156338676Y-67817999D01*
X156335000Y-67780676D01*
X156335000Y-67780667D01*
X156324003Y-67669014D01*
X156280546Y-67525753D01*
X156251387Y-67471201D01*
X156209974Y-67393723D01*
X156138799Y-67306997D01*
X156115001Y-67277999D01*
X156086004Y-67254202D01*
X154261863Y-65430061D01*
X176257000Y-65430061D01*
X176257000Y-65633939D01*
X176296774Y-65833898D01*
X176374795Y-66022256D01*
X176488063Y-66191774D01*
X176532001Y-66235712D01*
X176532000Y-78544289D01*
X176488063Y-78588226D01*
X176374795Y-78757744D01*
X176296774Y-78946102D01*
X176257000Y-79146061D01*
X176257000Y-79349939D01*
X176296774Y-79549898D01*
X176374795Y-79738256D01*
X176488063Y-79907774D01*
X176632226Y-80051937D01*
X176801744Y-80165205D01*
X176990102Y-80243226D01*
X177190061Y-80283000D01*
X177393939Y-80283000D01*
X177593898Y-80243226D01*
X177782256Y-80165205D01*
X177951774Y-80051937D01*
X178095937Y-79907774D01*
X178209205Y-79738256D01*
X178287226Y-79549898D01*
X178327000Y-79349939D01*
X178327000Y-79146061D01*
X178287226Y-78946102D01*
X178209205Y-78757744D01*
X178095937Y-78588226D01*
X178052000Y-78544289D01*
X178052000Y-66235711D01*
X178095937Y-66191774D01*
X178209205Y-66022256D01*
X178287226Y-65833898D01*
X178327000Y-65633939D01*
X178327000Y-65430061D01*
X178287226Y-65230102D01*
X178209205Y-65041744D01*
X178095937Y-64872226D01*
X177951774Y-64728063D01*
X177782256Y-64614795D01*
X177593898Y-64536774D01*
X177393939Y-64497000D01*
X177190061Y-64497000D01*
X176990102Y-64536774D01*
X176801744Y-64614795D01*
X176632226Y-64728063D01*
X176488063Y-64872226D01*
X176374795Y-65041744D01*
X176296774Y-65230102D01*
X176257000Y-65430061D01*
X154261863Y-65430061D01*
X151824894Y-62993092D01*
X186159698Y-62993092D01*
X186212849Y-63466942D01*
X186357025Y-63921443D01*
X186586736Y-64339285D01*
X186893231Y-64704551D01*
X187264835Y-65003329D01*
X187687396Y-65224239D01*
X188144817Y-65358865D01*
X188619676Y-65402080D01*
X189093886Y-65352239D01*
X189549383Y-65211239D01*
X189968818Y-64984451D01*
X190336215Y-64680514D01*
X190637580Y-64311004D01*
X190861434Y-63889996D01*
X190999250Y-63433526D01*
X191045780Y-62958980D01*
X191044827Y-62890763D01*
X190985066Y-62417702D01*
X190834558Y-61965257D01*
X190599036Y-61550664D01*
X190287471Y-61189712D01*
X189911731Y-60896152D01*
X189486127Y-60681164D01*
X189026870Y-60552937D01*
X188551454Y-60516356D01*
X188077987Y-60572813D01*
X187624503Y-60720159D01*
X187208275Y-60952781D01*
X186845158Y-61261818D01*
X186548981Y-61635500D01*
X186331027Y-62059593D01*
X186199598Y-62517943D01*
X186159698Y-62993092D01*
X151824894Y-62993092D01*
X149788804Y-60957003D01*
X149765001Y-60927999D01*
X149649276Y-60833026D01*
X149517247Y-60762454D01*
X149373986Y-60718997D01*
X149262333Y-60708000D01*
X149262322Y-60708000D01*
X149225000Y-60704324D01*
X149187678Y-60708000D01*
X133006325Y-60708000D01*
X132969000Y-60704324D01*
X132931675Y-60708000D01*
X132931667Y-60708000D01*
X132820014Y-60718997D01*
X132676753Y-60762454D01*
X132544724Y-60833026D01*
X132428999Y-60927999D01*
X132405201Y-60956997D01*
X127631998Y-65730201D01*
X127603000Y-65753999D01*
X127579202Y-65782997D01*
X127579201Y-65782998D01*
X127508026Y-65869724D01*
X127437454Y-66001754D01*
X127416146Y-66072000D01*
X127393998Y-66145014D01*
X127384884Y-66237545D01*
X127379324Y-66294000D01*
X127383001Y-66331332D01*
X127383000Y-69281198D01*
X123694998Y-72969201D01*
X123666000Y-72992999D01*
X123642202Y-73021997D01*
X123642201Y-73021998D01*
X123571026Y-73108724D01*
X123500454Y-73240754D01*
X123488845Y-73279026D01*
X123456998Y-73384014D01*
X123446001Y-73495667D01*
X123442324Y-73533000D01*
X111293911Y-73533000D01*
X111380535Y-73475120D01*
X111575120Y-73280535D01*
X111728005Y-73051727D01*
X111833314Y-72797490D01*
X111887000Y-72527592D01*
X111887000Y-72252408D01*
X111833314Y-71982510D01*
X111728005Y-71728273D01*
X111575120Y-71499465D01*
X111380535Y-71304880D01*
X111151727Y-71151995D01*
X111074485Y-71120000D01*
X111151727Y-71088005D01*
X111380535Y-70935120D01*
X111575120Y-70740535D01*
X111728005Y-70511727D01*
X111833314Y-70257490D01*
X111887000Y-69987592D01*
X111887000Y-69712408D01*
X111833314Y-69442510D01*
X111728005Y-69188273D01*
X111575120Y-68959465D01*
X111380535Y-68764880D01*
X111151727Y-68611995D01*
X110897490Y-68506686D01*
X110627592Y-68453000D01*
X110352408Y-68453000D01*
X110082510Y-68506686D01*
X109828273Y-68611995D01*
X109599465Y-68764880D01*
X109404880Y-68959465D01*
X109251995Y-69188273D01*
X109220000Y-69265515D01*
X109188005Y-69188273D01*
X109035120Y-68959465D01*
X108840535Y-68764880D01*
X108611727Y-68611995D01*
X108357490Y-68506686D01*
X108087592Y-68453000D01*
X107812408Y-68453000D01*
X107542510Y-68506686D01*
X107288273Y-68611995D01*
X107059465Y-68764880D01*
X106864880Y-68959465D01*
X106711995Y-69188273D01*
X106680000Y-69265515D01*
X106648005Y-69188273D01*
X106495120Y-68959465D01*
X106300535Y-68764880D01*
X106071727Y-68611995D01*
X105817490Y-68506686D01*
X105547592Y-68453000D01*
X105272408Y-68453000D01*
X105002510Y-68506686D01*
X104748273Y-68611995D01*
X104676879Y-68659699D01*
X107275050Y-66061529D01*
X107308817Y-66033817D01*
X107407949Y-65913026D01*
X107419411Y-65899059D01*
X107501589Y-65745314D01*
X107552195Y-65578490D01*
X107558548Y-65513987D01*
X107565000Y-65448477D01*
X107565000Y-65448469D01*
X107569281Y-65405000D01*
X107565000Y-65361531D01*
X107565000Y-61759802D01*
X107627934Y-61766000D01*
X107732066Y-61766000D01*
X107887796Y-61750662D01*
X108087607Y-61690050D01*
X108180000Y-61640665D01*
X108272393Y-61690050D01*
X108472204Y-61750662D01*
X108627934Y-61766000D01*
X108732066Y-61766000D01*
X108887796Y-61750662D01*
X109087607Y-61690050D01*
X109181809Y-61639698D01*
X109354750Y-61714872D01*
X109389938Y-61725540D01*
X109553000Y-61598257D01*
X109553000Y-61313133D01*
X109565622Y-61297753D01*
X109664050Y-61113607D01*
X109682632Y-61052351D01*
X109736632Y-61189394D01*
X109807000Y-61298768D01*
X109807000Y-61598257D01*
X109970062Y-61725540D01*
X110005250Y-61714872D01*
X110180000Y-61638912D01*
X110354750Y-61714872D01*
X110389938Y-61725540D01*
X110553000Y-61598257D01*
X110553000Y-61298768D01*
X110623368Y-61189394D01*
X110699547Y-60996064D01*
X110573621Y-60833000D01*
X110807000Y-60833000D01*
X110807000Y-61598257D01*
X110970062Y-61725540D01*
X111005250Y-61714872D01*
X111195822Y-61632034D01*
X111366571Y-61513609D01*
X111510936Y-61364148D01*
X111623368Y-61189394D01*
X111699547Y-60996064D01*
X111573621Y-60833000D01*
X110807000Y-60833000D01*
X110573621Y-60833000D01*
X110533000Y-60833000D01*
X110533000Y-60579000D01*
X110573621Y-60579000D01*
X110589066Y-60559000D01*
X110807000Y-60559000D01*
X110807000Y-60579000D01*
X111573621Y-60579000D01*
X111699547Y-60415936D01*
X111623368Y-60222606D01*
X111510936Y-60047852D01*
X111366571Y-59898391D01*
X111195822Y-59779966D01*
X111005250Y-59697128D01*
X110970062Y-59686460D01*
X110807002Y-59813741D01*
X110807002Y-59686000D01*
X190895422Y-59686000D01*
X192155001Y-60945580D01*
G36*
X143129000Y-143383000D02*
G01*
X143149000Y-143383000D01*
X143149000Y-143637000D01*
X143129000Y-143637000D01*
X143129000Y-143657000D01*
X142875000Y-143657000D01*
X142875000Y-143637000D01*
X142855000Y-143637000D01*
X142855000Y-143383000D01*
X142875000Y-143383000D01*
X142875000Y-143363000D01*
X143129000Y-143363000D01*
X143129000Y-143383000D01*
X143129000Y-143383000D01*
G37*
X143129000Y-143383000D02*
X143149000Y-143383000D01*
X143149000Y-143637000D01*
X143129000Y-143637000D01*
X143129000Y-143657000D01*
X142875000Y-143657000D01*
X142875000Y-143637000D01*
X142855000Y-143637000D01*
X142855000Y-143383000D01*
X142875000Y-143383000D01*
X142875000Y-143363000D01*
X143129000Y-143363000D01*
X143129000Y-143383000D01*
G36*
X148209000Y-143383000D02*
G01*
X148229000Y-143383000D01*
X148229000Y-143637000D01*
X148209000Y-143637000D01*
X148209000Y-143657000D01*
X147955000Y-143657000D01*
X147955000Y-143637000D01*
X147935000Y-143637000D01*
X147935000Y-143383000D01*
X147955000Y-143383000D01*
X147955000Y-143363000D01*
X148209000Y-143363000D01*
X148209000Y-143383000D01*
X148209000Y-143383000D01*
G37*
X148209000Y-143383000D02*
X148229000Y-143383000D01*
X148229000Y-143637000D01*
X148209000Y-143637000D01*
X148209000Y-143657000D01*
X147955000Y-143657000D01*
X147955000Y-143637000D01*
X147935000Y-143637000D01*
X147935000Y-143383000D01*
X147955000Y-143383000D01*
X147955000Y-143363000D01*
X148209000Y-143363000D01*
X148209000Y-143383000D01*
G36*
X179861294Y-141799014D02*
G01*
X180046866Y-142025134D01*
X180272986Y-142210706D01*
X180327791Y-142240000D01*
X180272986Y-142269294D01*
X180046866Y-142454866D01*
X179861294Y-142680986D01*
X179826799Y-142745523D01*
X179757178Y-142628645D01*
X179562269Y-142412412D01*
X179333244Y-142241584D01*
X179391014Y-142210706D01*
X179617134Y-142025134D01*
X179802706Y-141799014D01*
X179832000Y-141744209D01*
X179861294Y-141799014D01*
X179861294Y-141799014D01*
G37*
X179861294Y-141799014D02*
X180046866Y-142025134D01*
X180272986Y-142210706D01*
X180327791Y-142240000D01*
X180272986Y-142269294D01*
X180046866Y-142454866D01*
X179861294Y-142680986D01*
X179826799Y-142745523D01*
X179757178Y-142628645D01*
X179562269Y-142412412D01*
X179333244Y-142241584D01*
X179391014Y-142210706D01*
X179617134Y-142025134D01*
X179802706Y-141799014D01*
X179832000Y-141744209D01*
X179861294Y-141799014D01*
G36*
X153672000Y-106486802D02*
G01*
X153672001Y-139575986D01*
X153666099Y-139573175D01*
X153518890Y-139528524D01*
X153289000Y-139649845D01*
X153289000Y-140843000D01*
X153309000Y-140843000D01*
X153309000Y-141097000D01*
X153289000Y-141097000D01*
X153289000Y-141117000D01*
X153035000Y-141117000D01*
X153035000Y-141097000D01*
X153015000Y-141097000D01*
X153015000Y-140843000D01*
X153035000Y-140843000D01*
X153035000Y-139649845D01*
X152805110Y-139528524D01*
X152657901Y-139573175D01*
X152395080Y-139698359D01*
X152161731Y-139872412D01*
X151966822Y-140088645D01*
X151897201Y-140205523D01*
X151862706Y-140140986D01*
X151677134Y-139914866D01*
X151451014Y-139729294D01*
X151382000Y-139692405D01*
X151382000Y-138191013D01*
X151401744Y-138204205D01*
X151590102Y-138282226D01*
X151790061Y-138322000D01*
X151993939Y-138322000D01*
X152193898Y-138282226D01*
X152382256Y-138204205D01*
X152551774Y-138090937D01*
X152695937Y-137946774D01*
X152809205Y-137777256D01*
X152887226Y-137588898D01*
X152927000Y-137388939D01*
X152927000Y-137185061D01*
X152887226Y-136985102D01*
X152809205Y-136796744D01*
X152777000Y-136748546D01*
X152777000Y-127297469D01*
X152781281Y-127254000D01*
X152777000Y-127210531D01*
X152777000Y-127210523D01*
X152774372Y-127183840D01*
X152774372Y-125636082D01*
X152806577Y-125587884D01*
X152884598Y-125399526D01*
X152924372Y-125199567D01*
X152924372Y-124995689D01*
X152884598Y-124795730D01*
X152806577Y-124607372D01*
X152693309Y-124437854D01*
X152549146Y-124293691D01*
X152379628Y-124180423D01*
X152191270Y-124102402D01*
X151991311Y-124062628D01*
X151787433Y-124062628D01*
X151587474Y-124102402D01*
X151399116Y-124180423D01*
X151382000Y-124191860D01*
X151382000Y-104196802D01*
X153672000Y-106486802D01*
X153672000Y-106486802D01*
G37*
X153672000Y-106486802D02*
X153672001Y-139575986D01*
X153666099Y-139573175D01*
X153518890Y-139528524D01*
X153289000Y-139649845D01*
X153289000Y-140843000D01*
X153309000Y-140843000D01*
X153309000Y-141097000D01*
X153289000Y-141097000D01*
X153289000Y-141117000D01*
X153035000Y-141117000D01*
X153035000Y-141097000D01*
X153015000Y-141097000D01*
X153015000Y-140843000D01*
X153035000Y-140843000D01*
X153035000Y-139649845D01*
X152805110Y-139528524D01*
X152657901Y-139573175D01*
X152395080Y-139698359D01*
X152161731Y-139872412D01*
X151966822Y-140088645D01*
X151897201Y-140205523D01*
X151862706Y-140140986D01*
X151677134Y-139914866D01*
X151451014Y-139729294D01*
X151382000Y-139692405D01*
X151382000Y-138191013D01*
X151401744Y-138204205D01*
X151590102Y-138282226D01*
X151790061Y-138322000D01*
X151993939Y-138322000D01*
X152193898Y-138282226D01*
X152382256Y-138204205D01*
X152551774Y-138090937D01*
X152695937Y-137946774D01*
X152809205Y-137777256D01*
X152887226Y-137588898D01*
X152927000Y-137388939D01*
X152927000Y-137185061D01*
X152887226Y-136985102D01*
X152809205Y-136796744D01*
X152777000Y-136748546D01*
X152777000Y-127297469D01*
X152781281Y-127254000D01*
X152777000Y-127210531D01*
X152777000Y-127210523D01*
X152774372Y-127183840D01*
X152774372Y-125636082D01*
X152806577Y-125587884D01*
X152884598Y-125399526D01*
X152924372Y-125199567D01*
X152924372Y-124995689D01*
X152884598Y-124795730D01*
X152806577Y-124607372D01*
X152693309Y-124437854D01*
X152549146Y-124293691D01*
X152379628Y-124180423D01*
X152191270Y-124102402D01*
X151991311Y-124062628D01*
X151787433Y-124062628D01*
X151587474Y-124102402D01*
X151399116Y-124180423D01*
X151382000Y-124191860D01*
X151382000Y-104196802D01*
X153672000Y-106486802D01*
G36*
X104171995Y-93371727D02*
G01*
X104324880Y-93600535D01*
X104519465Y-93795120D01*
X104748273Y-93948005D01*
X104819943Y-93977692D01*
X104806977Y-93982364D01*
X104691020Y-94044344D01*
X104624040Y-94284435D01*
X105410000Y-95070395D01*
X105424143Y-95056253D01*
X105603748Y-95235858D01*
X105589605Y-95250000D01*
X105603748Y-95264143D01*
X105424143Y-95443748D01*
X105410000Y-95429605D01*
X104624040Y-96215565D01*
X104691020Y-96455656D01*
X104821644Y-96517079D01*
X104806977Y-96522364D01*
X104691020Y-96584344D01*
X104624040Y-96824435D01*
X105410000Y-97610395D01*
X105424143Y-97596253D01*
X105603748Y-97775858D01*
X105589605Y-97790000D01*
X105603748Y-97804143D01*
X105424143Y-97983748D01*
X105410000Y-97969605D01*
X104624040Y-98755565D01*
X104691020Y-98995656D01*
X104826760Y-99059485D01*
X104748273Y-99091995D01*
X104519465Y-99244880D01*
X104324880Y-99439465D01*
X104321182Y-99445000D01*
X103958818Y-99445000D01*
X103955120Y-99439465D01*
X103760535Y-99244880D01*
X103531727Y-99091995D01*
X103460057Y-99062308D01*
X103473023Y-99057636D01*
X103588980Y-98995656D01*
X103655960Y-98755565D01*
X102870000Y-97969605D01*
X102855858Y-97983748D01*
X102676253Y-97804143D01*
X102690395Y-97790000D01*
X103049605Y-97790000D01*
X103835565Y-98575960D01*
X104075656Y-98508980D01*
X104137079Y-98378356D01*
X104142364Y-98393023D01*
X104204344Y-98508980D01*
X104444435Y-98575960D01*
X105230395Y-97790000D01*
X104444435Y-97004040D01*
X104204344Y-97071020D01*
X104142921Y-97201644D01*
X104137636Y-97186977D01*
X104075656Y-97071020D01*
X103835565Y-97004040D01*
X103049605Y-97790000D01*
X102690395Y-97790000D01*
X102676253Y-97775858D01*
X102855858Y-97596253D01*
X102870000Y-97610395D01*
X103655960Y-96824435D01*
X103588980Y-96584344D01*
X103458356Y-96522921D01*
X103473023Y-96517636D01*
X103588980Y-96455656D01*
X103655960Y-96215565D01*
X102870000Y-95429605D01*
X102855858Y-95443748D01*
X102676253Y-95264143D01*
X102690395Y-95250000D01*
X103049605Y-95250000D01*
X103835565Y-96035960D01*
X104075656Y-95968980D01*
X104137079Y-95838356D01*
X104142364Y-95853023D01*
X104204344Y-95968980D01*
X104444435Y-96035960D01*
X105230395Y-95250000D01*
X104444435Y-94464040D01*
X104204344Y-94531020D01*
X104142921Y-94661644D01*
X104137636Y-94646977D01*
X104075656Y-94531020D01*
X103835565Y-94464040D01*
X103049605Y-95250000D01*
X102690395Y-95250000D01*
X102676253Y-95235858D01*
X102855858Y-95056253D01*
X102870000Y-95070395D01*
X103655960Y-94284435D01*
X103588980Y-94044344D01*
X103453240Y-93980515D01*
X103531727Y-93948005D01*
X103760535Y-93795120D01*
X103955120Y-93600535D01*
X104108005Y-93371727D01*
X104140000Y-93294485D01*
X104171995Y-93371727D01*
X104171995Y-93371727D01*
G37*
X104171995Y-93371727D02*
X104324880Y-93600535D01*
X104519465Y-93795120D01*
X104748273Y-93948005D01*
X104819943Y-93977692D01*
X104806977Y-93982364D01*
X104691020Y-94044344D01*
X104624040Y-94284435D01*
X105410000Y-95070395D01*
X105424143Y-95056253D01*
X105603748Y-95235858D01*
X105589605Y-95250000D01*
X105603748Y-95264143D01*
X105424143Y-95443748D01*
X105410000Y-95429605D01*
X104624040Y-96215565D01*
X104691020Y-96455656D01*
X104821644Y-96517079D01*
X104806977Y-96522364D01*
X104691020Y-96584344D01*
X104624040Y-96824435D01*
X105410000Y-97610395D01*
X105424143Y-97596253D01*
X105603748Y-97775858D01*
X105589605Y-97790000D01*
X105603748Y-97804143D01*
X105424143Y-97983748D01*
X105410000Y-97969605D01*
X104624040Y-98755565D01*
X104691020Y-98995656D01*
X104826760Y-99059485D01*
X104748273Y-99091995D01*
X104519465Y-99244880D01*
X104324880Y-99439465D01*
X104321182Y-99445000D01*
X103958818Y-99445000D01*
X103955120Y-99439465D01*
X103760535Y-99244880D01*
X103531727Y-99091995D01*
X103460057Y-99062308D01*
X103473023Y-99057636D01*
X103588980Y-98995656D01*
X103655960Y-98755565D01*
X102870000Y-97969605D01*
X102855858Y-97983748D01*
X102676253Y-97804143D01*
X102690395Y-97790000D01*
X103049605Y-97790000D01*
X103835565Y-98575960D01*
X104075656Y-98508980D01*
X104137079Y-98378356D01*
X104142364Y-98393023D01*
X104204344Y-98508980D01*
X104444435Y-98575960D01*
X105230395Y-97790000D01*
X104444435Y-97004040D01*
X104204344Y-97071020D01*
X104142921Y-97201644D01*
X104137636Y-97186977D01*
X104075656Y-97071020D01*
X103835565Y-97004040D01*
X103049605Y-97790000D01*
X102690395Y-97790000D01*
X102676253Y-97775858D01*
X102855858Y-97596253D01*
X102870000Y-97610395D01*
X103655960Y-96824435D01*
X103588980Y-96584344D01*
X103458356Y-96522921D01*
X103473023Y-96517636D01*
X103588980Y-96455656D01*
X103655960Y-96215565D01*
X102870000Y-95429605D01*
X102855858Y-95443748D01*
X102676253Y-95264143D01*
X102690395Y-95250000D01*
X103049605Y-95250000D01*
X103835565Y-96035960D01*
X104075656Y-95968980D01*
X104137079Y-95838356D01*
X104142364Y-95853023D01*
X104204344Y-95968980D01*
X104444435Y-96035960D01*
X105230395Y-95250000D01*
X104444435Y-94464040D01*
X104204344Y-94531020D01*
X104142921Y-94661644D01*
X104137636Y-94646977D01*
X104075656Y-94531020D01*
X103835565Y-94464040D01*
X103049605Y-95250000D01*
X102690395Y-95250000D01*
X102676253Y-95235858D01*
X102855858Y-95056253D01*
X102870000Y-95070395D01*
X103655960Y-94284435D01*
X103588980Y-94044344D01*
X103453240Y-93980515D01*
X103531727Y-93948005D01*
X103760535Y-93795120D01*
X103955120Y-93600535D01*
X104108005Y-93371727D01*
X104140000Y-93294485D01*
X104171995Y-93371727D01*
G36*
X104324880Y-68959465D02*
G01*
X104171995Y-69188273D01*
X104140000Y-69265515D01*
X104108005Y-69188273D01*
X103955120Y-68959465D01*
X103952655Y-68957000D01*
X103969531Y-68957000D01*
X104013000Y-68961281D01*
X104056469Y-68957000D01*
X104056477Y-68957000D01*
X104186490Y-68944195D01*
X104353313Y-68893589D01*
X104433750Y-68850595D01*
X104324880Y-68959465D01*
X104324880Y-68959465D01*
G37*
X104324880Y-68959465D02*
X104171995Y-69188273D01*
X104140000Y-69265515D01*
X104108005Y-69188273D01*
X103955120Y-68959465D01*
X103952655Y-68957000D01*
X103969531Y-68957000D01*
X104013000Y-68961281D01*
X104056469Y-68957000D01*
X104056477Y-68957000D01*
X104186490Y-68944195D01*
X104353313Y-68893589D01*
X104433750Y-68850595D01*
X104324880Y-68959465D01*
G36*
X109724761Y-60912790D02*
G01*
X109732619Y-60833002D01*
X109786377Y-60833002D01*
X109724761Y-60912790D01*
X109724761Y-60912790D01*
G37*
X109724761Y-60912790D02*
X109732619Y-60833002D01*
X109786377Y-60833002D01*
X109724761Y-60912790D01*
G36*
X109786377Y-60578998D02*
G01*
X109732619Y-60578998D01*
X109730650Y-60559000D01*
X109770934Y-60559000D01*
X109786377Y-60578998D01*
X109786377Y-60578998D01*
G37*
X109786377Y-60578998D02*
X109732619Y-60578998D01*
X109730650Y-60559000D01*
X109770934Y-60559000D01*
X109786377Y-60578998D01*
M02*
