G04 #@! TF.GenerationSoftware,KiCad,Pcbnew,(5.1.2)-2*
G04 #@! TF.CreationDate,2020-04-10T09:33:15+02:00*
G04 #@! TF.ProjectId,AfriCubePiPluginBoard,41667269-4375-4626-9550-69506c756769,rev?*
G04 #@! TF.SameCoordinates,Original*
G04 #@! TF.FileFunction,Profile,NP*
%FSLAX46Y46*%
G04 Gerber Fmt 4.6, Leading zero omitted, Abs format (unit mm)*
G04 Created by KiCad (PCBNEW (5.1.2)-2) date 2020-04-10 09:33:15*
%MOMM*%
%LPD*%
G04 APERTURE LIST*
%ADD10C,0.381000*%
%ADD11C,0.050000*%
G04 APERTURE END LIST*
D10*
X104460040Y-138366500D02*
G75*
G03X104460040Y-138366500I-1600200J0D01*
G01*
X168681400Y-147259040D02*
X146682460Y-147259040D01*
X97792540Y-68160900D02*
X97792540Y-57160160D01*
X97782380Y-134660640D02*
X100782120Y-134660640D01*
X175679100Y-147259040D02*
X168681400Y-147259040D01*
X105801160Y-146260820D02*
X97782380Y-146260820D01*
X190200280Y-62958980D02*
G75*
G03X190200280Y-62958980I-1597660J0D01*
G01*
X190200280Y-142176500D02*
G75*
G03X190200280Y-142176500I-1600200J0D01*
G01*
X105801160Y-147259040D02*
X105801160Y-146260820D01*
X100782120Y-134660640D02*
X100782120Y-68160900D01*
X97792540Y-57160160D02*
X114782600Y-57160160D01*
X193682620Y-57160160D02*
X193682620Y-79659480D01*
X193682620Y-146260820D02*
X175681640Y-146260820D01*
X193682620Y-79659480D02*
X190682880Y-79659480D01*
X100782120Y-68160900D02*
X97792540Y-68160900D01*
X185681620Y-57160160D02*
X193682620Y-57160160D01*
X163182300Y-58150760D02*
X163182300Y-56159400D01*
X135783320Y-147259040D02*
X105801160Y-147259040D01*
X135783320Y-145260060D02*
X135783320Y-147259040D01*
X185681620Y-56159400D02*
X185681620Y-57160160D01*
X163182300Y-56159400D02*
X185681620Y-56159400D01*
X190682880Y-110261400D02*
X193682620Y-110261400D01*
X123791980Y-58150760D02*
X163182300Y-58150760D01*
X190682880Y-79659480D02*
X190682880Y-110261400D01*
X175681640Y-146260820D02*
X175681640Y-147259040D01*
X104460040Y-64759840D02*
G75*
G03X104460040Y-64759840I-1597660J0D01*
G01*
X97782380Y-146260820D02*
X97782380Y-134660640D01*
X123791980Y-56159400D02*
X123791980Y-58150760D01*
X146682460Y-147259040D02*
X146682460Y-145260060D01*
X114782600Y-57160160D02*
X114782600Y-56159400D01*
X146682460Y-145260060D02*
X135783320Y-145260060D01*
X193682620Y-110261400D02*
X193682620Y-146258280D01*
X114782600Y-56159400D02*
X123791980Y-56159400D01*
D11*
X99456666Y-57150000D02*
G75*
G03X99456666Y-57150000I-1666666J0D01*
G01*
X95290000Y-57150000D02*
X100290000Y-57150000D01*
X97790000Y-54650000D02*
X97790000Y-59650000D01*
M02*
